<svg width="22" height="18" viewBox="0 0 22 18" fill="none" xmlns="http://www.w3.org/2000/svg">
<path d="M14.4192 0H7.60371C3.40776 0 0 3.34301 0 7.45924C0 10.2564 1.5532 12.6898 3.8714 13.9633C3.47733 14.782 2.9673 15.7145 2.36465 16.5103C1.83151 17.2382 2.50372 18.1933 3.3847 17.9658C6.21291 17.2153 8.8093 15.8054 10.2698 14.9185H14.3962C18.5921 14.9185 21.9999 11.5755 21.9999 7.45924C22.023 3.34301 18.6152 0 14.4194 0H14.4192ZM15.4855 6.23119L10.71 10.8932C10.5014 11.0979 10.2464 11.1889 9.99142 11.1889C9.73642 11.1889 9.45827 11.098 9.27282 10.8932L6.53742 8.23245C6.14334 7.84587 6.14334 7.20912 6.53742 6.79969C6.93149 6.41311 7.58057 6.41311 7.99793 6.79969L9.96849 8.73281L14.0252 4.79839C14.4193 4.41181 15.0683 4.41181 15.4857 4.79839C15.8798 5.18514 15.8798 5.82189 15.4855 6.23115L15.4855 6.23119Z" fill="url(#paint0_linear_329_1588)"/>
<defs>
<linearGradient id="paint0_linear_329_1588" x1="0" y1="0" x2="13.6245" y2="-4.96825" gradientUnits="userSpaceOnUse">
<stop stop-color="#69C9FF"/>
<stop offset="1" stop-color="#88F1BB"/>
</linearGradient>
</defs>
</svg>
