<svg width="360" height="228" viewBox="0 0 360 228" fill="none" xmlns="http://www.w3.org/2000/svg">
<circle opacity="0.3" cx="184" cy="116" r="107.5" stroke="url(#paint0_linear_386_1248)"/>
<circle opacity="0.4" cx="120" cy="179" r="48.5" stroke="url(#paint1_linear_386_1248)"/>
<circle opacity="0.6" cx="246" cy="52" r="48.5" stroke="url(#paint2_linear_386_1248)"/>
<path d="M117.228 109.843L114.074 109.56C119.501 59.2564 182.637 33.8779 225.523 64.2325L224.792 65.1286C182.502 36.0178 121.743 61.2618 117.229 109.843L117.228 109.843Z" fill="url(#paint3_linear_386_1248)"/>
<path d="M248.759 109.179C246.202 96.8142 241.074 81.8265 233.705 71.0056C246.933 80.831 252.36 96.8806 248.759 109.179Z" fill="url(#paint4_linear_386_1248)"/>
<path d="M208.197 58.4749C215.283 63.7865 231.051 82.6895 233.092 85.262C231.748 75.4701 223.45 64.2334 208.197 58.4749V58.4749Z" fill="url(#paint5_linear_386_1248)"/>
<path d="M216.661 72.3661C199.184 60.9139 194.687 57.6944 187.068 54.4749C201.042 55.9347 211.732 63.2052 216.661 72.3661Z" fill="url(#paint6_linear_386_1248)"/>
<path d="M200.212 65.9943C186.254 62.1936 169.558 57.9946 156.263 60.3182C170.636 54.1604 187.148 55.0575 200.212 65.9943Z" fill="url(#paint7_linear_386_1248)"/>
<path d="M173.657 64.7965C164.463 66.2575 143.267 69.5432 135.484 74.2238C145.443 64.2316 160.878 59.684 173.657 64.7965V64.7965Z" fill="url(#paint8_linear_386_1248)"/>
<path d="M210.055 54.0767C227.498 55.5701 239.564 61.163 249.256 75.1551C236.725 66.8231 223.962 58.9725 210.055 54.0767V54.0767Z" fill="url(#paint9_linear_386_1248)"/>
<path d="M230.185 54.4576C216.276 45.5954 202.568 45.313 187.314 49.4782L187.315 49.4794C201.755 49.3868 216.151 51.0585 230.183 54.4576L230.185 54.4576Z" fill="url(#paint10_linear_386_1248)"/>
<path d="M207.613 43.2219C187.83 37.4299 170.187 43.487 153.741 55.3051C170.866 48.1957 189.092 44.1078 207.613 43.2219Z" fill="url(#paint11_linear_386_1248)"/>
<path d="M168.945 41.114C144.763 45.6118 138.125 59.935 131.302 70.5407C143.269 58.7738 154.405 50.7242 168.945 41.114V41.114Z" fill="url(#paint12_linear_386_1248)"/>
<path d="M246.868 121.194L250.005 121.443C244.893 172.111 181.027 198.038 137.828 166.619L138.558 165.723C180.895 195.68 242.621 170.254 246.868 121.193L246.868 121.194Z" fill="url(#paint13_linear_386_1248)"/>
<path d="M115.153 121.046C117.427 133.427 122.273 148.579 129.642 159.8C116.364 149.641 111.335 133.26 115.153 121.046Z" fill="url(#paint14_linear_386_1248)"/>
<path d="M155.22 172.695C148.182 167.367 133.361 149.293 130.506 145.442C131.668 155.516 140.017 166.753 155.22 172.695Z" fill="url(#paint15_linear_386_1248)"/>
<path d="M146.803 158.67C164.628 170.902 169.259 173.74 176.479 176.927C162.92 175.434 152.081 168.346 146.803 158.67Z" fill="url(#paint16_linear_386_1248)"/>
<path d="M163.335 165.277C177.873 169.343 194.321 173.575 207.598 171.186C192.594 177.476 176.064 176.148 163.335 165.277V165.277Z" fill="url(#paint17_linear_386_1248)"/>
<path d="M190.056 166.655C198.952 165.343 221.009 161.858 228.427 157.178C217.24 168.614 200.677 171.302 190.056 166.655V166.655Z" fill="url(#paint18_linear_386_1248)"/>
<path d="M153.293 177.093C135.883 175.434 123.668 169.575 114.092 155.301C126.855 164.032 138.805 171.799 153.293 177.093Z" fill="url(#paint19_linear_386_1248)"/>
<path d="M133.045 176.411C143.054 183.023 155.159 185.689 167.019 183.897C191.216 180.212 164.795 184.727 133.045 176.411V176.411Z" fill="url(#paint20_linear_386_1248)"/>
<path d="M155.667 187.982C175.998 194.039 193.574 187.882 210.171 176.214C192.842 183.33 174.389 187.315 155.667 187.982V187.982Z" fill="url(#paint21_linear_386_1248)"/>
<path d="M194.652 190.371C218.071 186.238 225.407 172.611 232.742 160.844C221.158 172.044 208.386 181.945 194.652 190.371V190.371Z" fill="url(#paint22_linear_386_1248)"/>
<path fill-rule="evenodd" clip-rule="evenodd" d="M216.537 115.009C216.537 134.084 201.074 149.547 181.999 149.547C162.925 149.547 147.462 134.084 147.462 115.009C147.462 95.9344 162.925 80.4714 181.999 80.4714C201.074 80.4714 216.537 95.9344 216.537 115.009ZM181.998 143.214C176.933 121.801 160.7 115.488 153.217 115.009H181.998V143.214ZM210.782 115.009C203.299 114.53 187.066 108.217 182 86.8037V115.009H210.782Z" fill="url(#paint23_linear_386_1248)"/>
<defs>
<linearGradient id="paint0_linear_386_1248" x1="184" y1="8" x2="184" y2="224" gradientUnits="userSpaceOnUse">
<stop stop-color="#6ECFF6"/>
<stop offset="1" stop-color="#89F2BC"/>
</linearGradient>
<linearGradient id="paint1_linear_386_1248" x1="120" y1="130" x2="120" y2="228" gradientUnits="userSpaceOnUse">
<stop stop-color="#6ECFF6"/>
<stop offset="1" stop-color="#89F2BC"/>
</linearGradient>
<linearGradient id="paint2_linear_386_1248" x1="246" y1="3" x2="246" y2="101" gradientUnits="userSpaceOnUse">
<stop stop-color="#6ECFF6"/>
<stop offset="1" stop-color="#89F2BC"/>
</linearGradient>
<linearGradient id="paint3_linear_386_1248" x1="114.074" y1="51.1279" x2="173.282" y2="17.5972" gradientUnits="userSpaceOnUse">
<stop stop-color="#69C9FF"/>
<stop offset="1" stop-color="#88F1BB"/>
</linearGradient>
<linearGradient id="paint4_linear_386_1248" x1="233.705" y1="71.0056" x2="244.853" y2="69.5992" gradientUnits="userSpaceOnUse">
<stop stop-color="#69C9FF"/>
<stop offset="1" stop-color="#88F1BB"/>
</linearGradient>
<linearGradient id="paint5_linear_386_1248" x1="208.197" y1="58.4749" x2="224.418" y2="53.9771" gradientUnits="userSpaceOnUse">
<stop stop-color="#69C9FF"/>
<stop offset="1" stop-color="#88F1BB"/>
</linearGradient>
<linearGradient id="paint6_linear_386_1248" x1="187.068" y1="54.4749" x2="203.765" y2="46.2345" gradientUnits="userSpaceOnUse">
<stop stop-color="#69C9FF"/>
<stop offset="1" stop-color="#88F1BB"/>
</linearGradient>
<linearGradient id="paint7_linear_386_1248" x1="156.263" y1="56.5061" x2="166.86" y2="41.8608" gradientUnits="userSpaceOnUse">
<stop stop-color="#69C9FF"/>
<stop offset="1" stop-color="#88F1BB"/>
</linearGradient>
<linearGradient id="paint8_linear_386_1248" x1="135.484" y1="62.6814" x2="149.055" y2="49.2906" gradientUnits="userSpaceOnUse">
<stop stop-color="#69C9FF"/>
<stop offset="1" stop-color="#88F1BB"/>
</linearGradient>
<linearGradient id="paint9_linear_386_1248" x1="210.055" y1="54.0767" x2="231.086" y2="42.4073" gradientUnits="userSpaceOnUse">
<stop stop-color="#69C9FF"/>
<stop offset="1" stop-color="#88F1BB"/>
</linearGradient>
<linearGradient id="paint10_linear_386_1248" x1="187.314" y1="46.8789" x2="195.131" y2="33.6873" gradientUnits="userSpaceOnUse">
<stop stop-color="#69C9FF"/>
<stop offset="1" stop-color="#88F1BB"/>
</linearGradient>
<linearGradient id="paint11_linear_386_1248" x1="153.741" y1="41" x2="170.448" y2="22.2281" gradientUnits="userSpaceOnUse">
<stop stop-color="#69C9FF"/>
<stop offset="1" stop-color="#88F1BB"/>
</linearGradient>
<linearGradient id="paint12_linear_386_1248" x1="131.302" y1="41.114" x2="154.356" y2="32.3155" gradientUnits="userSpaceOnUse">
<stop stop-color="#69C9FF"/>
<stop offset="1" stop-color="#88F1BB"/>
</linearGradient>
<linearGradient id="paint13_linear_386_1248" x1="137.828" y1="121.193" x2="197.424" y2="87.4429" gradientUnits="userSpaceOnUse">
<stop stop-color="#69C9FF"/>
<stop offset="1" stop-color="#88F1BB"/>
</linearGradient>
<linearGradient id="paint14_linear_386_1248" x1="113.911" y1="121.046" x2="124.789" y2="119.728" gradientUnits="userSpaceOnUse">
<stop stop-color="#69C9FF"/>
<stop offset="1" stop-color="#88F1BB"/>
</linearGradient>
<linearGradient id="paint15_linear_386_1248" x1="130.506" y1="145.442" x2="146.664" y2="141.071" gradientUnits="userSpaceOnUse">
<stop stop-color="#69C9FF"/>
<stop offset="1" stop-color="#88F1BB"/>
</linearGradient>
<linearGradient id="paint16_linear_386_1248" x1="146.803" y1="158.67" x2="163.66" y2="150.495" gradientUnits="userSpaceOnUse">
<stop stop-color="#69C9FF"/>
<stop offset="1" stop-color="#88F1BB"/>
</linearGradient>
<linearGradient id="paint17_linear_386_1248" x1="163.335" y1="165.277" x2="174.187" y2="150.469" gradientUnits="userSpaceOnUse">
<stop stop-color="#69C9FF"/>
<stop offset="1" stop-color="#88F1BB"/>
</linearGradient>
<linearGradient id="paint18_linear_386_1248" x1="190.056" y1="157.178" x2="203.743" y2="143.718" gradientUnits="userSpaceOnUse">
<stop stop-color="#69C9FF"/>
<stop offset="1" stop-color="#88F1BB"/>
</linearGradient>
<linearGradient id="paint19_linear_386_1248" x1="114.092" y1="155.301" x2="135.446" y2="143.84" gradientUnits="userSpaceOnUse">
<stop stop-color="#69C9FF"/>
<stop offset="1" stop-color="#88F1BB"/>
</linearGradient>
<linearGradient id="paint20_linear_386_1248" x1="133.045" y1="176.411" x2="141.504" y2="162.773" gradientUnits="userSpaceOnUse">
<stop stop-color="#69C9FF"/>
<stop offset="1" stop-color="#88F1BB"/>
</linearGradient>
<linearGradient id="paint21_linear_386_1248" x1="155.667" y1="176.214" x2="172.127" y2="157.279" gradientUnits="userSpaceOnUse">
<stop stop-color="#69C9FF"/>
<stop offset="1" stop-color="#88F1BB"/>
</linearGradient>
<linearGradient id="paint22_linear_386_1248" x1="194.652" y1="160.844" x2="217.93" y2="151.885" gradientUnits="userSpaceOnUse">
<stop stop-color="#69C9FF"/>
<stop offset="1" stop-color="#88F1BB"/>
</linearGradient>
<linearGradient id="paint23_linear_386_1248" x1="147.462" y1="80.4714" x2="191.967" y2="67.1933" gradientUnits="userSpaceOnUse">
<stop stop-color="#69C9FF"/>
<stop offset="1" stop-color="#88F1BB"/>
</linearGradient>
</defs>
</svg>
