<svg width="358" height="218" viewBox="0 0 358 218" fill="none" xmlns="http://www.w3.org/2000/svg">
<circle opacity="0.6" cx="109" cy="109" r="108.5" stroke="url(#paint0_linear_290_2862)"/>
<circle opacity="0.6" cx="249" cy="109" r="108.5" stroke="url(#paint1_linear_290_2862)"/>
<path opacity="0.3" d="M218 218L218 -9.11951e-06" stroke="url(#paint2_linear_290_2862)"/>
<path opacity="0.3" d="M140 218L140 -9.11951e-06" stroke="url(#paint3_linear_290_2862)"/>
<path fill-rule="evenodd" clip-rule="evenodd" d="M156.056 104.914L160.934 82.5522L172.035 80.9422L179.001 94.5764L185.964 80.9428L197.065 82.5528L201.946 104.915H156.056V104.914ZM206.99 114.715H194.299L190.834 152H167.166L163.701 114.715H151.01V108.833H206.99V114.715ZM179 76.8937C174.019 76.8937 169.98 72.8878 169.98 67.9472C169.98 63.006 174.019 59 179 59C183.982 59 188.02 63.0058 188.02 67.9472C188.02 72.8877 183.982 76.8937 179 76.8937Z" fill="url(#paint4_linear_290_2862)"/>
<path opacity="0.1" d="M358 164L2 164" stroke="url(#paint5_linear_290_2862)"/>
<path opacity="0.1" d="M358 157L2 157" stroke="url(#paint6_linear_290_2862)"/>
<path opacity="0.1" d="M358 54L2 54" stroke="url(#paint7_linear_290_2862)"/>
<path opacity="0.1" d="M358 109L2 109" stroke="url(#paint8_linear_290_2862)"/>
<path opacity="0.1" d="M358 47L2 47" stroke="url(#paint9_linear_290_2862)"/>
<defs>
<linearGradient id="paint0_linear_290_2862" x1="109" y1="0" x2="109" y2="218" gradientUnits="userSpaceOnUse">
<stop stop-color="#6ECFF6"/>
<stop offset="1" stop-color="#89F2BC"/>
</linearGradient>
<linearGradient id="paint1_linear_290_2862" x1="249" y1="0" x2="249" y2="218" gradientUnits="userSpaceOnUse">
<stop stop-color="#6ECFF6"/>
<stop offset="1" stop-color="#89F2BC"/>
</linearGradient>
<linearGradient id="paint2_linear_290_2862" x1="218" y1="109" x2="219" y2="109" gradientUnits="userSpaceOnUse">
<stop stop-color="#6ECFF6"/>
<stop offset="1" stop-color="#89F2BC"/>
</linearGradient>
<linearGradient id="paint3_linear_290_2862" x1="140" y1="109" x2="141" y2="109" gradientUnits="userSpaceOnUse">
<stop stop-color="#6ECFF6"/>
<stop offset="1" stop-color="#89F2BC"/>
</linearGradient>
<linearGradient id="paint4_linear_290_2862" x1="151.01" y1="59" x2="189.061" y2="52.1663" gradientUnits="userSpaceOnUse">
<stop stop-color="#69C9FF"/>
<stop offset="1" stop-color="#88F1BB"/>
</linearGradient>
<linearGradient id="paint5_linear_290_2862" x1="180" y1="164" x2="180" y2="163" gradientUnits="userSpaceOnUse">
<stop stop-color="#6ECFF6"/>
<stop offset="1" stop-color="#89F2BC"/>
</linearGradient>
<linearGradient id="paint6_linear_290_2862" x1="180" y1="157" x2="180" y2="156" gradientUnits="userSpaceOnUse">
<stop stop-color="#6ECFF6"/>
<stop offset="1" stop-color="#89F2BC"/>
</linearGradient>
<linearGradient id="paint7_linear_290_2862" x1="180" y1="54" x2="180" y2="53" gradientUnits="userSpaceOnUse">
<stop stop-color="#6ECFF6"/>
<stop offset="1" stop-color="#89F2BC"/>
</linearGradient>
<linearGradient id="paint8_linear_290_2862" x1="180" y1="109" x2="180" y2="108" gradientUnits="userSpaceOnUse">
<stop stop-color="#6ECFF6"/>
<stop offset="1" stop-color="#89F2BC"/>
</linearGradient>
<linearGradient id="paint9_linear_290_2862" x1="180" y1="47" x2="180" y2="46" gradientUnits="userSpaceOnUse">
<stop stop-color="#6ECFF6"/>
<stop offset="1" stop-color="#89F2BC"/>
</linearGradient>
</defs>
</svg>
