<svg width="22" height="22" viewBox="0 0 22 22" fill="none" xmlns="http://www.w3.org/2000/svg">
<path fill-rule="evenodd" clip-rule="evenodd" d="M7.07146 0V11L17.2857 5.49867L7.07146 0ZM14.1428 10.2144V22.0001L3.92854 16.1082L14.1428 10.2144ZM16.3099 14.4095C19.0297 14.4095 21.2998 12.6414 21.9442 10.2145L21.9444 10.2144C21.979 10.5064 22.0001 10.7995 22.0001 11.0933C22.0001 15.3078 18.494 18.7493 14.1429 18.8572V14.0072C14.832 14.2742 15.5592 14.4095 16.3099 14.4095ZM7.07143 7.99421C6.4507 7.7268 5.79589 7.59129 5.12114 7.59129L5.12107 7.59117C2.67336 7.59117 0.630588 9.35846 0.0497935 11.7858C0.0189696 11.4945 0 11.2013 0 10.9073C0 6.69238 3.15524 3.25107 7.07143 3.14292V7.99421Z" fill="url(#paint0_linear_329_1504)"/>
<defs>
<linearGradient id="paint0_linear_329_1504" x1="0" y1="0" x2="14.1745" y2="-4.22901" gradientUnits="userSpaceOnUse">
<stop stop-color="#69C9FF"/>
<stop offset="1" stop-color="#88F1BB"/>
</linearGradient>
</defs>
</svg>
