<svg width="1505" height="641" viewBox="0 0 1505 641" fill="none" xmlns="http://www.w3.org/2000/svg">
<path d="M1347.74 364.094L1347.74 364.594L1348.24 364.594L1503.38 364.594L1503.88 364.594L1503.88 364.094C1503.88 197.528 1368.79 62.5001 1202.14 62.5001C1035.5 62.5001 900.411 197.528 900.411 364.094L900.411 364.594L900.911 364.594L1056.05 364.594L1056.55 364.594L1056.55 364.094C1056.55 283.723 1121.74 218.57 1202.14 218.57C1282.55 218.57 1347.74 283.723 1347.74 364.094Z" stroke="url(#paint0_linear_384_1246)"/>
<path opacity="0.3" d="M1246.62 364.094L1246.62 364.594L1247.12 364.594L1402.19 364.594L1402.69 364.594L1402.69 364.094C1402.69 197.528 1267.66 62.5001 1101.09 62.5001C934.528 62.5001 799.5 197.528 799.5 364.094L799.5 364.594L800 364.594L955.07 364.594L955.57 364.594L955.57 364.094C955.57 283.723 1020.72 218.57 1101.09 218.57C1181.46 218.57 1246.62 283.723 1246.62 364.094Z" stroke="url(#paint1_linear_384_1246)"/>
<path opacity="0.3" d="M229.57 364.094L229.57 364.594L229.07 364.594L74 364.594L73.5 364.594L73.5 364.094C73.5 197.528 208.528 62.5001 375.094 62.5001C541.66 62.5001 676.688 197.528 676.688 364.094L676.688 364.594L676.188 364.594L521.118 364.594L520.618 364.594L520.618 364.094C520.618 283.723 455.465 218.57 375.094 218.57C294.723 218.57 229.57 283.723 229.57 364.094Z" stroke="url(#paint2_linear_384_1246)"/>
<path opacity="0.4" d="M1290.58 364.184L1290.58 364.684L1291.08 364.684L1386.15 364.684L1386.65 364.684L1386.65 364.184C1386.65 261.966 1303.78 179.102 1201.57 179.102C1099.35 179.102 1016.49 261.966 1016.49 364.184L1016.49 364.684L1016.99 364.684L1112.05 364.684L1112.55 364.684L1112.55 364.184C1112.55 315.02 1152.4 275.166 1201.57 275.166C1250.73 275.166 1290.58 315.02 1290.58 364.184Z" stroke="url(#paint3_linear_384_1246)"/>
<path opacity="0.4" d="M185.603 364.184L185.603 364.684L185.103 364.684L90.0396 364.684L89.5396 364.684L89.5396 364.184C89.5395 261.966 172.403 179.102 274.621 179.102C376.839 179.102 459.702 261.966 459.702 364.184L459.702 364.684L459.202 364.684L364.139 364.684L363.639 364.684L363.639 364.184C363.639 315.02 323.784 275.166 274.621 275.166C225.458 275.166 185.603 315.02 185.603 364.184Z" stroke="url(#paint4_linear_384_1246)"/>
<path d="M792.5 468.5C603.191 468.5 431.794 459.041 307.717 443.747C245.682 436.1 195.457 426.992 160.73 416.871C143.371 411.812 129.855 406.492 120.669 400.958C111.519 395.446 106.5 389.621 106.5 383.5C106.5 377.379 111.519 371.554 120.669 366.042C129.855 360.508 143.371 355.188 160.73 350.129C195.457 340.008 245.682 330.9 307.717 323.253C431.794 307.959 603.191 298.5 792.5 298.5C981.809 298.5 1153.21 307.959 1277.28 323.253C1339.32 330.9 1389.54 340.008 1424.27 350.129C1441.63 355.188 1455.14 360.508 1464.33 366.042C1473.48 371.554 1478.5 377.379 1478.5 383.5C1478.5 389.621 1473.48 395.446 1464.33 400.958C1455.14 406.492 1441.63 411.812 1424.27 416.871C1389.54 426.992 1339.32 436.1 1277.28 443.747C1153.21 459.041 981.809 468.5 792.5 468.5Z" stroke="url(#paint5_linear_384_1246)"/>
<path d="M1486.31 481.853C1482.69 569.22 1091.76 624.948 613.132 606.323C370.067 596.865 151.129 570.051 -5.02843 534.505" stroke="url(#paint6_linear_384_1246)" stroke-width="1.5"/>
<path d="M1337 186C1364 168.667 1414.8 122.8 1402 77.9999C1393.94 49.7803 1363.02 35.2732 1325.5 31.5357M1222 44.747C1252.12 34.0581 1287.49 28.9258 1319 30.9995" stroke="url(#paint7_linear_384_1246)"/>
<path d="M1324.42 27.2537L1334.07 56.195L1322.05 28.3607" stroke="url(#paint8_linear_384_1246)"/>
<path d="M1321.42 88V27.0953H1319.52L1317.15 85.4524" stroke="url(#paint9_linear_384_1246)"/>
<path d="M1321.58 28.5186L1325.69 26.779V24.5649L1300.86 21.8763L1321.58 27.2534" stroke="url(#paint10_linear_384_1246)"/>
<path d="M1321.42 23.9316L1334.39 1L1324.58 24.5642" stroke="url(#paint11_linear_384_1246)"/>
<path d="M1285.84 35.5337L1291.92 53.7608L1284.35 36.2309" stroke="url(#paint12_linear_384_1246)"/>
<path d="M1283.95 72.6853V35.4342H1282.75L1281.26 72.1873" stroke="url(#paint13_linear_384_1246)"/>
<path d="M1284.05 36.331L1286.64 35.2354V33.8409L1271 32.1477L1284.05 35.5342" stroke="url(#paint14_linear_384_1246)"/>
<path d="M1283.95 33.4423L1292.12 19L1285.94 33.8407" stroke="url(#paint15_linear_384_1246)"/>
<defs>
<linearGradient id="paint0_linear_384_1246" x1="1503.38" y1="364.094" x2="1191.73" y2="550.144" gradientUnits="userSpaceOnUse">
<stop stop-color="#69C9FF"/>
<stop offset="1" stop-color="#88F1BB"/>
</linearGradient>
<linearGradient id="paint1_linear_384_1246" x1="1402.19" y1="364.094" x2="1090.61" y2="550.017" gradientUnits="userSpaceOnUse">
<stop stop-color="#69C9FF"/>
<stop offset="1" stop-color="#88F1BB"/>
</linearGradient>
<linearGradient id="paint2_linear_384_1246" x1="74" y1="364.094" x2="385.58" y2="550.017" gradientUnits="userSpaceOnUse">
<stop stop-color="#69C9FF"/>
<stop offset="1" stop-color="#88F1BB"/>
</linearGradient>
<linearGradient id="paint3_linear_384_1246" x1="1386.15" y1="364.184" x2="1195.14" y2="478.161" gradientUnits="userSpaceOnUse">
<stop stop-color="#69C9FF"/>
<stop offset="1" stop-color="#88F1BB"/>
</linearGradient>
<linearGradient id="paint4_linear_384_1246" x1="90.0396" y1="364.184" x2="281.05" y2="478.161" gradientUnits="userSpaceOnUse">
<stop stop-color="#69C9FF"/>
<stop offset="1" stop-color="#88F1BB"/>
</linearGradient>
<linearGradient id="paint5_linear_384_1246" x1="1478" y1="299" x2="1337.74" y2="-40.4892" gradientUnits="userSpaceOnUse">
<stop stop-color="#69C9FF"/>
<stop offset="1" stop-color="#88F1BB"/>
</linearGradient>
<linearGradient id="paint6_linear_384_1246" x1="949.303" y1="587.437" x2="925.544" y2="438.526" gradientUnits="userSpaceOnUse">
<stop stop-color="#69C9FF" stop-opacity="0"/>
<stop offset="1" stop-color="#88F1BB"/>
</linearGradient>
<linearGradient id="paint7_linear_384_1246" x1="1405.68" y1="25.8915" x2="1244.05" y2="-65.1175" gradientUnits="userSpaceOnUse">
<stop stop-color="#69C9FF"/>
<stop offset="1" stop-color="#88F1BB"/>
</linearGradient>
<linearGradient id="paint8_linear_384_1246" x1="1334.07" y1="27.2537" x2="1325.77" y2="26.2245" gradientUnits="userSpaceOnUse">
<stop stop-color="#69C9FF"/>
<stop offset="1" stop-color="#88F1BB"/>
</linearGradient>
<linearGradient id="paint9_linear_384_1246" x1="1321.42" y1="27.0953" x2="1318.42" y2="27.0327" gradientUnits="userSpaceOnUse">
<stop stop-color="#69C9FF"/>
<stop offset="1" stop-color="#88F1BB"/>
</linearGradient>
<linearGradient id="paint10_linear_384_1246" x1="1325.69" y1="21.8763" x2="1317.93" y2="13.2172" gradientUnits="userSpaceOnUse">
<stop stop-color="#69C9FF"/>
<stop offset="1" stop-color="#88F1BB"/>
</linearGradient>
<linearGradient id="paint11_linear_384_1246" x1="1334.39" y1="1" x2="1325.53" y2="-0.454808" gradientUnits="userSpaceOnUse">
<stop stop-color="#69C9FF"/>
<stop offset="1" stop-color="#88F1BB"/>
</linearGradient>
<linearGradient id="paint12_linear_384_1246" x1="1291.92" y1="35.5337" x2="1286.69" y2="34.8855" gradientUnits="userSpaceOnUse">
<stop stop-color="#69C9FF"/>
<stop offset="1" stop-color="#88F1BB"/>
</linearGradient>
<linearGradient id="paint13_linear_384_1246" x1="1283.95" y1="35.4342" x2="1282.06" y2="35.3936" gradientUnits="userSpaceOnUse">
<stop stop-color="#69C9FF"/>
<stop offset="1" stop-color="#88F1BB"/>
</linearGradient>
<linearGradient id="paint14_linear_384_1246" x1="1286.64" y1="32.1477" x2="1281.75" y2="26.6942" gradientUnits="userSpaceOnUse">
<stop stop-color="#69C9FF"/>
<stop offset="1" stop-color="#88F1BB"/>
</linearGradient>
<linearGradient id="paint15_linear_384_1246" x1="1292.12" y1="19" x2="1286.54" y2="18.0838" gradientUnits="userSpaceOnUse">
<stop stop-color="#69C9FF"/>
<stop offset="1" stop-color="#88F1BB"/>
</linearGradient>
</defs>
</svg>
