<svg width="646" height="361" viewBox="0 0 646 361" fill="none" xmlns="http://www.w3.org/2000/svg">
<path d="M491.585 359.183L491.585 359.683L492.085 359.683L587.148 359.683L587.648 359.683L587.648 359.183C587.648 256.966 504.784 174.102 402.567 174.102C300.349 174.102 217.485 256.966 217.485 359.183L217.485 359.683L217.985 359.683L313.048 359.683L313.548 359.683L313.548 359.183C313.548 310.02 353.403 270.165 402.567 270.165C451.73 270.165 491.585 310.02 491.585 359.183Z" stroke="url(#paint0_linear_209_150)"/>
<path d="M491.585 359.183L491.585 359.683L492.085 359.683L587.148 359.683L587.648 359.683L587.648 359.183C587.648 256.966 504.784 174.102 402.567 174.102C300.349 174.102 217.485 256.966 217.485 359.183L217.485 359.683L217.985 359.683L313.049 359.683L313.549 359.683L313.549 359.183C313.549 310.02 353.403 270.165 402.567 270.165C451.73 270.165 491.585 310.02 491.585 359.183Z" stroke="url(#paint1_linear_209_150)"/>
<path d="M548.736 359.094L548.736 359.594L549.236 359.594L704.378 359.594L704.878 359.594L704.878 359.094C704.878 192.528 569.787 57.5001 403.144 57.5001C236.502 57.5001 101.411 192.528 101.411 359.094L101.411 359.594L101.911 359.594L257.053 359.594L257.553 359.594L257.553 359.094C257.553 278.723 322.736 213.57 403.144 213.57C483.553 213.57 548.736 278.723 548.736 359.094Z" stroke="url(#paint2_linear_209_150)"/>
<path d="M548.736 359.094L548.736 359.594L549.236 359.594L704.378 359.594L704.878 359.594L704.878 359.094C704.878 192.528 569.787 57.5001 403.144 57.5001C236.502 57.5001 101.411 192.528 101.411 359.094L101.411 359.594L101.911 359.594L257.053 359.594L257.553 359.594L257.553 359.094C257.553 278.723 322.736 213.57 403.144 213.57C483.553 213.57 548.736 278.723 548.736 359.094Z" stroke="url(#paint3_linear_209_150)"/>
<path d="M491.585 359.183L491.585 359.683L492.085 359.683L587.148 359.683L587.648 359.683L587.648 359.183C587.648 256.966 504.784 174.102 402.567 174.102C300.349 174.102 217.485 256.966 217.485 359.183L217.485 359.683L217.985 359.683L313.048 359.683L313.548 359.683L313.548 359.183C313.548 310.02 353.403 270.165 402.567 270.165C451.73 270.165 491.585 310.02 491.585 359.183Z" stroke="url(#paint4_linear_209_150)"/>
<path d="M491.585 359.183L491.585 359.683L492.085 359.683L587.148 359.683L587.648 359.683L587.648 359.183C587.648 256.966 504.784 174.102 402.567 174.102C300.349 174.102 217.485 256.966 217.485 359.183L217.485 359.683L217.985 359.683L313.049 359.683L313.549 359.683L313.549 359.183C313.549 310.02 353.403 270.165 402.567 270.165C451.73 270.165 491.585 310.02 491.585 359.183Z" stroke="url(#paint5_linear_209_150)"/>
<path d="M447.618 359.094L447.618 359.594L448.118 359.594L603.188 359.594L603.688 359.594L603.688 359.094C603.688 192.528 468.66 57.5001 302.094 57.5001C135.528 57.5001 0.500015 192.528 0.5 359.094L0.5 359.594L1 359.594L156.07 359.594L156.57 359.594L156.57 359.094C156.57 278.723 221.723 213.57 302.094 213.57C382.465 213.57 447.618 278.723 447.618 359.094Z" stroke="url(#paint6_linear_209_150)"/>
<path d="M491.585 359.183L491.585 359.683L492.085 359.683L587.148 359.683L587.648 359.683L587.648 359.183C587.648 256.966 504.784 174.102 402.567 174.102C300.349 174.102 217.485 256.966 217.485 359.183L217.485 359.683L217.985 359.683L313.049 359.683L313.549 359.683L313.549 359.183C313.549 310.02 353.403 270.165 402.567 270.165C451.73 270.165 491.585 310.02 491.585 359.183Z" stroke="url(#paint7_linear_209_150)"/>
<path d="M785.525 359.333L785.525 359.833L786.025 359.833L855 359.833L855.5 359.833L855.5 359.333C855.5 285.092 795.315 224.907 721.074 224.907C646.833 224.907 586.648 285.091 586.648 359.333L586.648 359.833L587.148 359.833L656.123 359.833L656.623 359.833L656.623 359.333C656.623 323.737 685.479 294.882 721.074 294.882C756.67 294.882 785.525 323.737 785.525 359.333Z" stroke="url(#paint8_linear_209_150)"/>
<path d="M538.424 27.2537L548.071 56.195L536.052 28.3607" stroke="url(#paint9_linear_209_150)"/>
<path d="M535.419 88V27.0953H533.521L531.149 85.4524" stroke="url(#paint10_linear_209_150)"/>
<path d="M535.578 28.5186L539.69 26.779V24.5649L514.86 21.8763L535.578 27.2534" stroke="url(#paint11_linear_209_150)"/>
<path d="M535.419 23.9316L548.388 1L538.582 24.5642" stroke="url(#paint12_linear_209_150)"/>
<path d="M499.841 35.5337L505.917 53.7608L498.347 36.2309" stroke="url(#paint13_linear_209_150)"/>
<path d="M497.948 72.6853V35.4342H496.753L495.259 72.1873" stroke="url(#paint14_linear_209_150)"/>
<path d="M498.048 36.331L500.637 35.2354V33.8409L485 32.1477L498.048 35.5342" stroke="url(#paint15_linear_209_150)"/>
<path d="M497.948 33.4423L506.115 19L499.94 33.8407" stroke="url(#paint16_linear_209_150)"/>
<path d="M551 186C578 168.667 628.8 122.8 616 77.9999C607.937 49.7803 577.02 35.2732 539.5 31.5357M436 44.747C466.118 34.0581 501.487 28.9258 533 30.9995" stroke="url(#paint17_linear_209_150)"/>
<defs>
<linearGradient id="paint0_linear_209_150" x1="587.148" y1="359.183" x2="396.138" y2="473.161" gradientUnits="userSpaceOnUse">
<stop stop-color="#69C9FF"/>
<stop offset="1" stop-color="#88F1BB"/>
</linearGradient>
<linearGradient id="paint1_linear_209_150" x1="587.148" y1="359.183" x2="396.138" y2="473.161" gradientUnits="userSpaceOnUse">
<stop stop-color="#69C9FF"/>
<stop offset="1" stop-color="#88F1BB"/>
</linearGradient>
<linearGradient id="paint2_linear_209_150" x1="704.378" y1="359.094" x2="392.729" y2="545.144" gradientUnits="userSpaceOnUse">
<stop stop-color="#69C9FF"/>
<stop offset="1" stop-color="#88F1BB"/>
</linearGradient>
<linearGradient id="paint3_linear_209_150" x1="704.378" y1="359.094" x2="392.729" y2="545.144" gradientUnits="userSpaceOnUse">
<stop stop-color="#69C9FF"/>
<stop offset="1" stop-color="#88F1BB"/>
</linearGradient>
<linearGradient id="paint4_linear_209_150" x1="587.148" y1="359.183" x2="396.138" y2="473.161" gradientUnits="userSpaceOnUse">
<stop stop-color="#69C9FF"/>
<stop offset="1" stop-color="#88F1BB"/>
</linearGradient>
<linearGradient id="paint5_linear_209_150" x1="587.148" y1="359.183" x2="396.138" y2="473.161" gradientUnits="userSpaceOnUse">
<stop stop-color="#69C9FF"/>
<stop offset="1" stop-color="#88F1BB"/>
</linearGradient>
<linearGradient id="paint6_linear_209_150" x1="603.188" y1="359.094" x2="291.608" y2="545.017" gradientUnits="userSpaceOnUse">
<stop stop-color="#69C9FF"/>
<stop offset="1" stop-color="#88F1BB"/>
</linearGradient>
<linearGradient id="paint7_linear_209_150" x1="587.148" y1="359.183" x2="396.138" y2="473.161" gradientUnits="userSpaceOnUse">
<stop stop-color="#69C9FF"/>
<stop offset="1" stop-color="#88F1BB"/>
</linearGradient>
<linearGradient id="paint8_linear_209_150" x1="855" y1="359.333" x2="716.41" y2="442.031" gradientUnits="userSpaceOnUse">
<stop stop-color="#69C9FF"/>
<stop offset="1" stop-color="#88F1BB"/>
</linearGradient>
<linearGradient id="paint9_linear_209_150" x1="548.071" y1="27.2537" x2="539.765" y2="26.2245" gradientUnits="userSpaceOnUse">
<stop stop-color="#69C9FF"/>
<stop offset="1" stop-color="#88F1BB"/>
</linearGradient>
<linearGradient id="paint10_linear_209_150" x1="535.419" y1="27.0953" x2="532.424" y2="27.0327" gradientUnits="userSpaceOnUse">
<stop stop-color="#69C9FF"/>
<stop offset="1" stop-color="#88F1BB"/>
</linearGradient>
<linearGradient id="paint11_linear_209_150" x1="539.69" y1="21.8763" x2="531.926" y2="13.2172" gradientUnits="userSpaceOnUse">
<stop stop-color="#69C9FF"/>
<stop offset="1" stop-color="#88F1BB"/>
</linearGradient>
<linearGradient id="paint12_linear_209_150" x1="548.388" y1="1" x2="539.527" y2="-0.454808" gradientUnits="userSpaceOnUse">
<stop stop-color="#69C9FF"/>
<stop offset="1" stop-color="#88F1BB"/>
</linearGradient>
<linearGradient id="paint13_linear_209_150" x1="505.917" y1="35.5337" x2="500.686" y2="34.8855" gradientUnits="userSpaceOnUse">
<stop stop-color="#69C9FF"/>
<stop offset="1" stop-color="#88F1BB"/>
</linearGradient>
<linearGradient id="paint14_linear_209_150" x1="497.948" y1="35.4342" x2="496.062" y2="35.3936" gradientUnits="userSpaceOnUse">
<stop stop-color="#69C9FF"/>
<stop offset="1" stop-color="#88F1BB"/>
</linearGradient>
<linearGradient id="paint15_linear_209_150" x1="500.637" y1="32.1477" x2="495.748" y2="26.6942" gradientUnits="userSpaceOnUse">
<stop stop-color="#69C9FF"/>
<stop offset="1" stop-color="#88F1BB"/>
</linearGradient>
<linearGradient id="paint16_linear_209_150" x1="506.115" y1="19" x2="500.535" y2="18.0838" gradientUnits="userSpaceOnUse">
<stop stop-color="#69C9FF"/>
<stop offset="1" stop-color="#88F1BB"/>
</linearGradient>
<linearGradient id="paint17_linear_209_150" x1="619.684" y1="25.8915" x2="458.048" y2="-65.1175" gradientUnits="userSpaceOnUse">
<stop stop-color="#69C9FF"/>
<stop offset="1" stop-color="#88F1BB"/>
</linearGradient>
</defs>
</svg>
