<svg width="474" height="660" viewBox="0 0 474 660" fill="none" xmlns="http://www.w3.org/2000/svg">
<rect width="474" height="660" rx="17" fill="white"/>
<mask id="mask0_290_3934" style="mask-type:alpha" maskUnits="userSpaceOnUse" x="0" y="0" width="474" height="627">
<rect width="474" height="627" rx="12" fill="white"/>
</mask>
<g mask="url(#mask0_290_3934)">
<rect y="-0.000488281" width="474" height="514" fill="url(#paint0_linear_290_3934)"/>
<g opacity="0.8">
<path d="M3.0133 242.368L-8.4104 241.345C11.2485 59.1302 239.946 -32.7983 395.289 77.1552L392.643 80.401C239.457 -25.0468 19.368 66.3943 3.01781 242.368L3.0133 242.368Z" fill="url(#paint1_linear_290_3934)"/>
<path d="M479.457 239.963C470.198 195.175 451.62 140.886 424.928 101.689C472.844 137.28 492.503 195.416 479.457 239.963Z" fill="url(#paint2_linear_290_3934)"/>
<path d="M332.53 56.2985C358.199 75.5387 415.315 144.011 422.709 153.33C417.84 117.86 387.781 77.1576 332.53 56.2985V56.2985Z" fill="url(#paint3_linear_290_3934)"/>
<path d="M363.191 106.617C299.885 65.1335 283.593 53.4715 255.995 41.8094C306.615 47.0976 345.335 73.4332 363.191 106.617Z" fill="url(#paint4_linear_290_3934)"/>
<path d="M303.609 83.5359C253.047 69.7686 192.571 54.5585 144.411 62.9752C196.474 40.6699 256.287 43.9196 303.609 83.5359Z" fill="url(#paint5_linear_290_3934)"/>
<path d="M207.418 79.1982C174.113 84.4905 97.3358 96.3923 69.1443 113.347C105.218 77.152 161.126 60.6794 207.418 79.1982V79.1982Z" fill="url(#paint6_linear_290_3934)"/>
<path d="M339.261 40.3672C402.446 45.7769 446.151 66.0359 481.261 116.719C435.87 86.5386 389.635 58.1012 339.261 40.3672V40.3672Z" fill="url(#paint7_linear_290_3934)"/>
<path d="M412.178 41.7465C361.796 9.64502 312.14 8.62192 256.888 23.7097L256.892 23.7138C309.195 23.3784 361.341 29.4339 412.171 41.7464L412.178 41.7465Z" fill="url(#paint8_linear_290_3934)"/>
<path d="M330.415 1.04793C258.756 -19.9326 194.847 2.00826 135.275 44.8168C197.306 19.0643 263.329 4.25679 330.415 1.04793Z" fill="url(#paint9_linear_290_3934)"/>
<path d="M190.349 -6.58789C102.753 9.70438 78.7098 61.5871 53.9966 100.004C97.3414 57.381 137.679 28.2232 190.349 -6.58789V-6.58789Z" fill="url(#paint10_linear_290_3934)"/>
<path d="M472.608 283.485L483.973 284.386C465.454 467.921 234.113 561.836 77.6321 448.028L80.2782 444.782C233.635 553.297 457.225 461.196 472.609 283.481L472.608 283.485Z" fill="url(#paint11_linear_290_3934)"/>
<path d="M-4.50139 282.948C3.73481 327.798 21.2886 382.684 47.9815 423.327C-0.114845 386.528 -18.332 327.193 -4.50139 282.948Z" fill="url(#paint12_linear_290_3934)"/>
<path d="M140.632 470.036C115.14 450.737 61.4534 385.267 51.1118 371.32C55.3222 407.812 85.5622 448.515 140.632 470.036Z" fill="url(#paint13_linear_290_3934)"/>
<path d="M110.144 419.236C174.713 463.545 191.487 473.824 217.639 485.369C168.523 479.959 129.264 454.286 110.144 419.236Z" fill="url(#paint14_linear_290_3934)"/>
<path d="M170.026 443.166C222.69 457.894 282.267 473.226 330.362 464.571C276.013 487.355 216.136 482.544 170.026 443.166V443.166Z" fill="url(#paint15_linear_290_3934)"/>
<path d="M266.818 448.158C299.042 443.407 378.94 430.784 405.811 413.829C365.289 455.253 305.291 464.99 266.818 448.158V448.158Z" fill="url(#paint16_linear_290_3934)"/>
<path d="M133.654 485.968C70.5871 479.959 26.3405 458.735 -8.34497 407.033C37.8844 438.657 81.1712 466.791 133.654 485.968Z" fill="url(#paint17_linear_290_3934)"/>
<path d="M60.3091 483.499C96.563 507.449 140.41 517.107 183.371 510.615C271.021 497.266 175.315 513.622 60.3091 483.499V483.499Z" fill="url(#paint18_linear_290_3934)"/>
<path d="M142.253 525.41C215.897 547.352 279.561 525.05 339.68 482.783C276.911 508.561 210.07 522.995 142.253 525.41V525.41Z" fill="url(#paint19_linear_290_3934)"/>
<path d="M283.469 534.064C368.297 519.093 394.872 469.734 421.442 427.111C379.481 467.68 333.218 503.543 283.469 534.064V534.064Z" fill="url(#paint20_linear_290_3934)"/>
<path fill-rule="evenodd" clip-rule="evenodd" d="M362.741 261.082C362.741 330.176 306.73 386.188 237.636 386.188C168.542 386.188 112.531 330.176 112.531 261.082C112.531 191.989 168.542 135.977 237.636 135.977C306.73 135.977 362.741 191.989 362.741 261.082ZM238.633 363.25C220.284 285.685 161.484 262.819 134.378 261.081H237.639V159.914C255.988 237.479 314.788 260.345 341.894 262.083H238.633V363.25Z" fill="url(#paint21_linear_290_3934)"/>
</g>
<path fill-rule="evenodd" clip-rule="evenodd" d="M330.463 2.04675L330.696 0.0881753C258.637 -21.0092 194.41 1.09057 134.692 44.0047L135.659 45.7403C197.583 20.0322 263.492 5.25008 330.463 2.04675ZM139.365 43.137C138 43.6916 136.637 44.2515 135.275 44.8167C136.476 43.9537 137.679 43.0992 138.883 42.2534C196.595 1.7248 258.418 -18.9191 327.429 0.197038C328.423 0.472386 329.418 0.755984 330.415 1.04789C329.383 1.09727 328.351 1.1494 327.319 1.20428C262.769 4.63685 199.247 18.8088 139.365 43.137ZM415.691 42.7992L412.162 42.7463L412.156 42.7462L412.044 42.7445L411.936 42.7182C361.185 30.4249 309.119 24.3788 256.898 24.7138L256.48 24.7165L256.185 24.4209L256.181 24.4167L254.963 23.1987L256.624 22.7449C312.062 7.60646 362.029 8.60786 412.715 40.9031L415.691 42.7992ZM256.888 23.7096L256.892 23.7138C258.193 23.7055 259.494 23.7011 260.795 23.7006C310.748 23.6839 360.531 29.4954 409.135 41.0186C410.147 41.2587 411.159 41.5013 412.171 41.7463L412.177 41.7464L412.172 41.7428L412.171 41.7423C411.288 41.1796 410.405 40.6265 409.522 40.0828C361.199 10.3227 313.443 8.93691 260.667 22.7007C259.414 23.0275 258.158 23.3628 256.899 23.7065L256.892 23.7085L256.888 23.7096ZM2.93598 243.365L2.92404 243.364L-8.49967 242.341L-9.51391 242.25L-9.40468 241.237C10.347 58.1638 239.985 -33.9955 395.867 76.3391L396.741 76.9575L396.064 77.7871L393.418 81.0329L392.835 81.7476L392.076 81.2248C239.423 -23.8561 20.2825 67.3608 4.01347 242.461L3.92344 243.43L2.95244 243.366L2.94794 243.366L2.93598 243.365ZM-8.30101 240.351C12.045 59.1158 239.426 -32.2761 394.47 76.5777C394.743 76.7696 395.016 76.9621 395.289 77.1553L394.656 77.9322L392.643 80.4011C239.457 -25.0467 19.368 66.3944 3.01776 242.368L3.01325 242.368L-7.41428 241.434L-8.41004 241.345L-8.41045 241.345C-8.37466 241.013 -8.33819 240.682 -8.30101 240.351ZM480.417 240.244L478.478 240.165C469.234 195.451 450.693 141.301 424.101 102.252L425.524 100.886C473.726 136.689 493.597 195.238 480.417 240.244ZM479.014 237.847C479.164 238.554 479.312 239.26 479.457 239.963C479.66 239.27 479.855 238.574 480.042 237.874C491.677 194.388 472.783 138.716 427.383 103.551C426.573 102.924 425.755 102.303 424.928 101.689C425.503 102.533 426.073 103.384 426.64 104.241C452.002 142.593 469.818 194.445 479.014 237.847ZM421.925 153.951L424.196 156.813L423.7 153.193C418.772 117.295 388.41 76.3261 332.883 55.3627L332.53 56.2983L331.93 57.0985C344.67 66.6474 365.299 88.4952 383.726 109.199C402.128 129.877 418.243 149.31 421.925 153.951ZM332.53 56.2983C333.618 56.7088 334.695 57.127 335.763 57.5528C387.955 78.3594 416.839 117.07 422.414 151.365C422.521 152.022 422.619 152.676 422.709 153.329C422.387 152.924 421.972 152.407 421.469 151.788C410.802 138.635 360.818 79.1469 335.252 58.4257C334.311 57.6626 333.402 56.952 332.53 56.2983ZM364.072 106.143L362.643 107.453C354.553 102.152 347.232 97.3388 340.558 92.9511C294.969 62.9781 279.586 52.8643 255.605 42.7307L256.098 40.8149C306.998 46.1322 346.036 72.6264 364.072 106.143ZM363.191 106.617C362.854 105.99 362.509 105.365 362.157 104.743C344.294 73.1992 307.431 48.1891 259.453 42.2057C258.306 42.0627 257.154 41.9306 255.995 41.8095C257.074 42.2658 258.137 42.7221 259.185 43.1802C281.513 52.9331 297.578 63.4956 341.095 92.107L341.096 92.1073L341.147 92.1408L341.152 92.1447L341.163 92.1515L341.167 92.1545L341.207 92.1809C347.36 96.2262 354.061 100.632 361.405 105.446L363.191 106.617ZM303.346 84.5007L304.251 82.7691C256.595 42.8741 196.371 39.6263 144.017 62.0559L144.583 63.9602C192.484 55.5888 252.735 70.7202 303.346 84.5007ZM303.609 83.5359C302.83 83.3239 302.049 83.1115 301.266 82.8989C252.669 69.708 195.334 55.5522 148.651 62.2991C147.228 62.5048 145.814 62.73 144.411 62.9751C145.732 62.4091 147.059 61.8595 148.389 61.3266C198.811 41.1349 255.921 44.8194 301.732 81.9893C302.36 82.4986 302.985 83.014 303.609 83.5359ZM69.6595 114.204L68.4359 112.641C104.732 76.2231 161.052 59.5726 207.789 78.2697L207.418 79.1982C206.804 78.9524 206.187 78.7127 205.57 78.4792C160.816 61.5628 107.533 76.8124 71.904 110.653C70.9718 111.538 70.0517 112.436 69.1442 113.347C70.1944 112.715 71.3121 112.091 72.4924 111.473C102.292 95.883 172.035 84.814 205.134 79.5608L205.464 79.5085L207.418 79.1982L207.575 80.1858L205.295 80.5479C188.479 83.2167 162.232 87.3823 136.573 92.877C109.671 98.6377 83.5912 105.825 69.6595 114.204ZM480.707 117.552L482.083 116.15C464.448 90.6926 444.626 72.8394 421.25 60.6785C397.884 48.5223 371.022 42.0828 339.347 39.3708L339.261 40.3671L338.929 41.3104C389.178 59.0004 435.325 87.3774 480.707 117.552ZM343.022 41.7136C341.771 41.2582 340.518 40.8094 339.261 40.3671C340.598 40.4816 341.926 40.6026 343.245 40.7305C403.36 46.5574 445.591 66.4878 479.684 114.472C480.211 115.214 480.737 115.964 481.261 116.719C480.499 116.213 479.738 115.708 478.976 115.202C435.45 86.3389 391.099 59.2142 343.022 41.7136ZM54.6976 100.717L53.1555 99.4632C55.4972 95.823 57.8377 92.0529 60.2315 88.1969C70.4186 71.7871 81.5712 53.8222 97.8889 37.7C118.084 17.7468 146.176 0.610775 190.166 -7.57107L190.349 -6.58793C189.493 -6.42873 188.643 -6.26612 187.799 -6.10017C110.52 9.09723 83.6282 52.4102 61.1051 88.687L61.1042 88.6885C59.5039 91.2661 57.9256 93.8081 56.3529 96.302C55.5667 97.5486 54.782 98.7832 53.9965 100.004C55.0446 98.9736 56.0909 97.9508 57.1357 96.9357C98.7059 56.544 137.836 28.1884 188.186 -5.15703C188.905 -5.63297 189.625 -6.10992 190.349 -6.58793L190.9 -5.75368C138.252 29.0431 97.9754 58.1598 54.6976 100.717ZM471.632 283.268L471.382 284.39L471.523 284.402C463.506 372.328 404.216 439.105 327.803 470.543C251.097 502.102 157.227 498.006 80.8556 443.966L80.0931 443.426L79.5029 444.15L76.8568 447.396L76.1891 448.215L77.0437 448.837C234.069 563.04 466.361 468.887 484.967 284.487L485.07 283.47L484.052 283.389L472.687 282.488L472.613 283.415L471.632 283.264L471.632 283.268ZM472.608 283.485L472.608 283.484L472.609 283.481L472.608 283.485ZM472.608 283.485L472.636 283.487L473.148 283.527L473.561 283.56L482.975 284.307L483.972 284.386L483.942 284.689L483.911 284.983C483.898 285.116 483.884 285.249 483.87 285.381C464.65 467.944 234.628 561.307 78.4431 448.616C78.2514 448.477 78.0599 448.339 77.8684 448.2L77.6319 448.028L78.2648 447.252L80.278 444.782C233.347 553.094 456.385 461.541 472.52 284.481C472.548 284.172 472.575 283.864 472.602 283.555L472.602 283.553L472.608 283.485ZM-5.45594 282.65L-3.51794 282.768C4.70405 327.54 22.2228 382.285 48.8172 422.778L47.3737 424.121C-1.01269 387.1 -19.4274 327.345 -5.45594 282.65ZM-4.50149 282.948C-4.71858 283.643 -4.92777 284.341 -5.12908 285.043C-17.5361 328.295 0.0176481 385.117 45.5689 421.442C46.3645 422.076 47.1687 422.705 47.9814 423.326C47.4243 422.478 46.8712 421.624 46.3221 420.763C20.9775 381.052 4.11613 328.594 -4.10231 285.091C-4.23772 284.375 -4.37078 283.66 -4.50149 282.948ZM140.268 470.968L141.236 469.239C128.585 459.662 108.856 438.55 90.9441 418.014C73.0518 397.5 57.0638 377.668 51.9151 370.724L49.6903 367.724L50.1184 371.434C54.3803 408.373 84.9338 449.343 140.268 470.968ZM51.369 373.326C51.2746 372.656 51.1889 371.987 51.1118 371.32C51.4659 371.797 51.8707 372.335 52.3234 372.929C64.6335 389.089 112.375 446.988 137.858 467.847C138.815 468.63 139.741 469.361 140.632 470.036C139.525 469.604 138.427 469.163 137.34 468.715C85.3455 447.287 56.333 408.558 51.369 373.326ZM109.266 419.715L110.709 418.411C175.285 462.725 191.988 472.952 218.042 484.454L217.529 486.363C168.138 480.923 128.564 455.093 109.266 419.715ZM111.998 420.508L110.144 419.236C110.503 419.895 110.87 420.551 111.243 421.203C130.288 454.45 167.65 478.897 214.278 484.965C215.393 485.11 216.513 485.245 217.639 485.369C216.596 484.909 215.569 484.451 214.553 483.993C190.32 473.062 172.5 462.003 111.998 420.508ZM330.748 465.493L330.184 463.587C282.355 472.194 223.009 456.945 170.295 442.203L170.026 443.166L169.377 443.927C215.815 483.586 276.105 488.4 330.748 465.493ZM171.876 444.721C171.257 444.209 170.64 443.691 170.026 443.166C170.799 443.382 171.574 443.599 172.35 443.815C222.813 457.887 279.331 472.179 325.9 465.301C327.398 465.08 328.885 464.836 330.362 464.571C328.964 465.157 327.563 465.724 326.159 466.273C273.67 486.8 216.534 481.679 171.876 444.721ZM405.278 412.983L406.526 414.528C365.743 456.219 305.309 466.09 266.417 449.074L266.818 448.158C267.403 448.414 267.993 448.664 268.587 448.907C306.216 464.321 363.185 455.077 403.001 416.622C403.947 415.707 404.884 414.777 405.811 413.829C404.755 414.495 403.618 415.155 402.405 415.807C373.324 431.447 300.734 443.122 268.713 447.878C268.065 447.974 267.433 448.068 266.818 448.158L266.672 447.169C282.779 444.794 310.783 440.454 338.112 434.592C351.777 431.661 365.259 428.352 376.993 424.722C388.745 421.087 398.674 417.15 405.278 412.983ZM133.559 486.964L133.997 485.029C81.6423 465.899 38.445 437.828 -7.78035 406.207L-9.17538 407.59C8.24645 433.559 28.0962 451.91 51.5379 464.516C74.971 477.118 101.939 483.951 133.559 486.964ZM133.654 485.968C132.328 485.842 131.01 485.709 129.7 485.569C69.6465 479.15 26.911 458.288 -6.80808 409.295C-7.32246 408.547 -7.83474 407.793 -8.34495 407.033C-7.5925 407.548 -6.84084 408.061 -6.0899 408.574C38.2012 438.822 79.9624 465.773 129.933 484.588C131.168 485.053 132.409 485.513 133.654 485.968ZM183.521 511.603L183.52 511.604C140.315 518.132 96.2183 508.42 59.7579 484.333L60.3091 483.499C61.1901 484.081 62.0757 484.655 62.9656 485.22C98.6937 507.909 141.454 516.949 183.371 510.615C186.67 510.112 189.709 509.652 192.497 509.23C205.62 507.242 213.183 506.097 216.098 505.37C216.291 505.322 216.464 505.275 216.617 505.23C217.218 505.055 217.507 504.905 217.498 504.775C217.49 504.643 217.174 504.531 216.569 504.43C216.411 504.404 216.234 504.378 216.037 504.353C214.053 504.104 210.102 503.921 204.492 503.662H204.491H204.491L204.488 503.662C180.181 502.539 124.749 499.979 63.3676 484.29C62.3497 484.03 61.3302 483.766 60.3091 483.499L60.5625 482.532C117.965 497.567 170.561 501.004 197.885 502.348C200.282 502.466 202.489 502.568 204.488 502.661L204.518 502.662L204.521 502.662L204.527 502.662C208.198 502.832 211.17 502.969 213.342 503.114C215.007 503.225 216.272 503.344 217.031 503.498C217.225 503.538 217.415 503.585 217.584 503.646C217.719 503.694 217.983 503.798 218.192 504.021C218.313 504.148 218.453 504.357 218.49 504.644C218.527 504.939 218.439 505.189 218.332 505.363C218.153 505.652 217.88 505.804 217.756 505.869C217.453 506.027 217.022 506.163 216.54 506.289C216.035 506.421 215.391 506.563 214.612 506.718C213.051 507.027 210.899 507.395 208.123 507.84C204.242 508.462 199.116 509.239 192.642 510.219C189.854 510.641 186.817 511.102 183.521 511.603ZM216.931 505.537C216.928 505.536 216.923 505.534 216.917 505.531C216.928 505.535 216.933 505.538 216.933 505.538C216.933 505.538 216.932 505.538 216.931 505.537ZM340.255 483.601L339.3 481.858C276.64 507.591 209.916 522 142.218 524.411L142.253 525.41L141.968 526.369C216.011 548.429 279.994 525.968 340.255 483.601ZM142.253 525.41C143.309 525.373 144.364 525.332 145.419 525.289C210.636 522.605 274.906 508.806 335.471 484.492C336.876 483.928 338.279 483.358 339.68 482.783C338.437 483.657 337.193 484.522 335.947 485.378C277.757 525.38 216.139 546.303 145.3 526.295C144.287 526.008 143.271 525.714 142.253 525.41ZM420.747 426.392L422.291 427.64C420.978 429.746 419.664 431.871 418.342 434.009L418.319 434.044L418.319 434.046C406.298 453.482 393.613 473.992 374.991 491.682C354.275 511.361 326.244 527.53 283.643 535.049L283.469 534.064C284.379 533.903 285.281 533.739 286.178 533.57C364.71 518.816 392.371 474.096 417.471 433.515C418.082 432.527 418.691 431.542 419.3 430.56C420.015 429.406 420.728 428.256 421.442 427.111C420.469 428.052 419.494 428.99 418.516 429.926C377.996 468.706 333.518 503.127 285.81 532.622C285.031 533.104 284.25 533.585 283.469 534.064L282.946 533.211C332.632 502.728 378.839 466.91 420.747 426.392ZM238.633 262.083V263.083V359.1V363.25C238.312 361.893 237.978 360.552 237.633 359.228C220.005 291.67 171.132 267.254 142.375 262.081C139.49 261.562 136.807 261.237 134.378 261.081H142.462H236.639H237.639V260.081V164.064V159.914C237.96 161.271 238.294 162.612 238.639 163.936C256.267 231.494 305.139 255.91 333.897 261.083C336.782 261.602 339.465 261.927 341.894 262.083H333.81H239.633H238.633ZM237.633 262.083V355.419C220.115 293.598 176.154 268.899 147.273 262.081H237.633V262.083ZM328.999 261.083H238.639V261.081V167.745C256.156 229.566 300.118 254.265 328.999 261.083ZM237.636 387.188C307.282 387.188 363.741 330.728 363.741 261.082C363.741 191.436 307.282 134.977 237.636 134.977C167.99 134.977 111.531 191.436 111.531 261.082C111.531 330.728 167.99 387.188 237.636 387.188ZM362.741 261.082C362.741 330.176 306.73 386.188 237.636 386.188C168.542 386.188 112.531 330.176 112.531 261.082C112.531 191.989 168.542 135.977 237.636 135.977C306.73 135.977 362.741 191.989 362.741 261.082Z" fill="url(#paint22_linear_290_3934)"/>
</g>
<path d="M178.311 604.165C177.751 604.165 177.205 604.106 176.672 603.986C176.149 603.858 175.653 603.66 175.185 603.394C174.716 603.128 174.303 602.806 173.945 602.43C173.596 602.044 173.321 601.571 173.119 601.011C172.917 600.451 172.816 599.84 172.816 599.179C172.816 598.353 172.967 597.614 173.27 596.962C173.582 596.31 174 595.787 174.524 595.392C175.047 594.997 175.63 594.699 176.273 594.496C176.915 594.294 177.595 594.193 178.311 594.193C179.955 594.193 181.415 594.602 182.691 595.419L182.126 596.948C180.933 596.186 179.684 595.805 178.38 595.805C177.306 595.805 176.42 596.094 175.722 596.673C175.033 597.242 174.689 598.078 174.689 599.179C174.689 600.281 175.033 601.117 175.722 601.686C176.42 602.255 177.306 602.54 178.38 602.54C179.693 602.54 180.942 602.159 182.126 601.397L182.691 602.939C182.103 603.307 181.424 603.605 180.653 603.835C179.891 604.055 179.11 604.165 178.311 604.165ZM189.99 604.165C188.346 604.165 187.033 603.711 186.051 602.802C185.077 601.884 184.591 600.685 184.591 599.207C184.591 597.719 185.082 596.512 186.064 595.585C187.047 594.657 188.355 594.193 189.99 594.193C191.624 594.193 192.923 594.657 193.888 595.585C194.861 596.512 195.348 597.719 195.348 599.207C195.348 600.685 194.861 601.884 193.888 602.802C192.923 603.711 191.624 604.165 189.99 604.165ZM187.414 601.617C188.048 602.232 188.902 602.54 189.976 602.54C191.05 602.54 191.9 602.232 192.524 601.617C193.158 601.002 193.474 600.199 193.474 599.207C193.474 598.215 193.158 597.403 192.524 596.769C191.89 596.126 191.041 595.805 189.976 595.805C188.911 595.805 188.057 596.126 187.414 596.769C186.781 597.403 186.464 598.215 186.464 599.207C186.464 600.199 186.781 601.002 187.414 601.617ZM206.329 594.359H208.16V604H205.929L200.007 596.521V604H198.175V594.359H200.475L206.329 601.741V594.359ZM215.551 604.165C213.669 604.165 212.012 603.711 210.579 602.802L211.213 601.218C212.498 602.108 213.935 602.554 215.524 602.554C216.433 602.554 217.145 602.434 217.659 602.196C218.173 601.948 218.43 601.599 218.43 601.149C218.43 600.791 218.242 600.538 217.865 600.391C217.489 600.245 216.805 600.111 215.813 599.992C215.152 599.909 214.587 599.827 214.119 599.744C213.66 599.652 213.21 599.533 212.769 599.386C212.328 599.239 211.975 599.065 211.709 598.863C211.442 598.661 211.231 598.413 211.075 598.119C210.919 597.816 210.841 597.467 210.841 597.072C210.841 596.154 211.231 595.447 212.012 594.951C212.801 594.446 213.903 594.193 215.317 594.193C216.125 594.193 216.933 594.285 217.741 594.469C218.559 594.653 219.229 594.887 219.752 595.171L219.298 596.824C218.168 596.145 216.842 595.805 215.317 595.805C213.6 595.805 212.742 596.2 212.742 596.989C212.742 597.311 212.957 597.559 213.389 597.733C213.821 597.908 214.541 598.055 215.551 598.174C216.203 598.257 216.741 598.335 217.163 598.408C217.585 598.482 218.017 598.592 218.458 598.739C218.898 598.876 219.243 599.042 219.491 599.234C219.738 599.418 219.94 599.661 220.097 599.964C220.253 600.258 220.331 600.607 220.331 601.011C220.331 601.985 219.899 602.756 219.036 603.325C218.173 603.885 217.011 604.165 215.551 604.165ZM231.224 594.359V595.943H227.367V604H225.535V595.943H221.693V594.359H231.224ZM233.54 604V594.359H235.358V604H233.54ZM247.201 594.359V595.943H243.345V604H241.513V595.943H237.67V594.359H247.201ZM254.049 604.165C252.552 604.165 251.382 603.78 250.537 603.008C249.701 602.237 249.283 601.176 249.283 599.827V594.359H251.102V599.744C251.102 600.635 251.354 601.323 251.859 601.81C252.364 602.297 253.094 602.54 254.049 602.54C254.986 602.54 255.702 602.301 256.198 601.824C256.693 601.337 256.941 600.644 256.941 599.744V594.359H258.759V599.827C258.759 601.176 258.346 602.237 257.52 603.008C256.693 603.78 255.537 604.165 254.049 604.165ZM270.375 594.359V595.943H266.518V604H264.686V595.943H260.843V594.359H270.375ZM272.691 604V594.359H274.509V604H272.691ZM282.73 604.165C281.086 604.165 279.773 603.711 278.791 602.802C277.817 601.884 277.331 600.685 277.331 599.207C277.331 597.719 277.822 596.512 278.804 595.585C279.787 594.657 281.095 594.193 282.73 594.193C284.364 594.193 285.663 594.657 286.627 595.585C287.601 596.512 288.087 597.719 288.087 599.207C288.087 600.685 287.601 601.884 286.627 602.802C285.663 603.711 284.364 604.165 282.73 604.165ZM280.154 601.617C280.788 602.232 281.642 602.54 282.716 602.54C283.79 602.54 284.64 602.232 285.264 601.617C285.897 601.002 286.214 600.199 286.214 599.207C286.214 598.215 285.897 597.403 285.264 596.769C284.63 596.126 283.781 595.805 282.716 595.805C281.651 595.805 280.797 596.126 280.154 596.769C279.52 597.403 279.204 598.215 279.204 599.207C279.204 600.199 279.52 601.002 280.154 601.617ZM299.068 594.359H300.9V604H298.669L292.747 596.521V604H290.915V594.359H293.215L299.068 601.741V594.359Z" fill="#224059"/>
<path d="M205.757 573.359H207.589V583H205.357L199.435 575.521V583H197.603V573.359H199.903L205.757 580.741V573.359ZM219.057 583L218.065 580.906H212.735L211.743 583H209.787L214.415 573.359H216.385L221.012 583H219.057ZM213.465 579.364H217.335L215.407 575.273L213.465 579.364ZM230.074 573.359V574.943H226.217V583H224.385V574.943H220.543V573.359H230.074ZM232.39 583V573.359H234.208V583H232.39ZM242.429 583.165C240.785 583.165 239.472 582.711 238.49 581.802C237.516 580.884 237.03 579.685 237.03 578.207C237.03 576.719 237.521 575.512 238.503 574.585C239.486 573.657 240.794 573.193 242.429 573.193C244.063 573.193 245.362 573.657 246.327 574.585C247.3 575.512 247.787 576.719 247.787 578.207C247.787 579.685 247.3 580.884 246.327 581.802C245.362 582.711 244.063 583.165 242.429 583.165ZM239.853 580.617C240.487 581.232 241.341 581.54 242.415 581.54C243.489 581.54 244.339 581.232 244.963 580.617C245.597 580.002 245.913 579.199 245.913 578.207C245.913 577.215 245.597 576.403 244.963 575.769C244.329 575.126 243.48 574.805 242.415 574.805C241.35 574.805 240.496 575.126 239.853 575.769C239.22 576.403 238.903 577.215 238.903 578.207C238.903 579.199 239.22 580.002 239.853 580.617ZM258.768 573.359H260.599V583H258.368L252.446 575.521V583H250.614V573.359H252.914L258.768 580.741V573.359ZM273.307 576.981C274.4 576.999 275.281 577.243 275.951 577.711C276.622 578.17 276.957 578.886 276.957 579.86C276.957 580.952 276.557 581.779 275.759 582.339C274.96 582.899 273.945 583.179 272.715 583.179C271.732 583.179 270.74 583.014 269.74 582.683C268.748 582.343 267.931 581.921 267.288 581.416L268.059 579.832C268.73 580.383 269.469 580.81 270.277 581.113C271.085 581.407 271.865 581.554 272.618 581.554C273.362 581.554 273.95 581.411 274.381 581.127C274.813 580.833 275.029 580.401 275.029 579.832C275.029 578.749 274.239 578.207 272.66 578.207C271.989 578.207 271.36 578.28 270.773 578.427L270.58 577.298L274.023 574.97H267.632V573.359H276.447V574.97L273.307 576.981Z" fill="url(#paint23_linear_290_3934)"/>
<defs>
<linearGradient id="paint0_linear_290_3934" x1="0" y1="-0.000488281" x2="309.175" y2="-85.0659" gradientUnits="userSpaceOnUse">
<stop stop-color="#69C9FF"/>
<stop offset="1" stop-color="#88F1BB"/>
</linearGradient>
<linearGradient id="paint1_linear_290_3934" x1="193.439" y1="29.6864" x2="193.439" y2="242.368" gradientUnits="userSpaceOnUse">
<stop stop-color="white"/>
<stop offset="1" stop-color="white" stop-opacity="0"/>
</linearGradient>
<linearGradient id="paint2_linear_290_3934" x1="454.162" y1="101.689" x2="454.162" y2="239.963" gradientUnits="userSpaceOnUse">
<stop stop-color="white"/>
<stop offset="1" stop-color="white" stop-opacity="0"/>
</linearGradient>
<linearGradient id="paint3_linear_290_3934" x1="377.62" y1="56.2985" x2="377.62" y2="153.33" gradientUnits="userSpaceOnUse">
<stop stop-color="white"/>
<stop offset="1" stop-color="white" stop-opacity="0"/>
</linearGradient>
<linearGradient id="paint4_linear_290_3934" x1="309.593" y1="41.8094" x2="309.593" y2="106.617" gradientUnits="userSpaceOnUse">
<stop stop-color="white"/>
<stop offset="1" stop-color="white" stop-opacity="0"/>
</linearGradient>
<linearGradient id="paint5_linear_290_3934" x1="224.01" y1="49.1667" x2="224.01" y2="83.5359" gradientUnits="userSpaceOnUse">
<stop stop-color="white"/>
<stop offset="1" stop-color="white" stop-opacity="0"/>
</linearGradient>
<linearGradient id="paint6_linear_290_3934" x1="138.281" y1="71.5369" x2="138.281" y2="113.347" gradientUnits="userSpaceOnUse">
<stop stop-color="white"/>
<stop offset="1" stop-color="white" stop-opacity="0"/>
</linearGradient>
<linearGradient id="paint7_linear_290_3934" x1="410.261" y1="40.3672" x2="410.261" y2="116.719" gradientUnits="userSpaceOnUse">
<stop stop-color="white"/>
<stop offset="1" stop-color="white" stop-opacity="0"/>
</linearGradient>
<linearGradient id="paint8_linear_290_3934" x1="334.533" y1="14.2942" x2="334.533" y2="41.7465" gradientUnits="userSpaceOnUse">
<stop stop-color="white"/>
<stop offset="1" stop-color="white" stop-opacity="0"/>
</linearGradient>
<linearGradient id="paint9_linear_290_3934" x1="232.845" y1="-7.00049" x2="232.845" y2="44.8168" gradientUnits="userSpaceOnUse">
<stop stop-color="white"/>
<stop offset="1" stop-color="white" stop-opacity="0"/>
</linearGradient>
<linearGradient id="paint10_linear_290_3934" x1="122.173" y1="-6.58789" x2="122.173" y2="100.004" gradientUnits="userSpaceOnUse">
<stop stop-color="white"/>
<stop offset="1" stop-color="white" stop-opacity="0"/>
</linearGradient>
<linearGradient id="paint11_linear_290_3934" x1="280.802" y1="283.481" x2="280.802" y2="497.559" gradientUnits="userSpaceOnUse">
<stop stop-color="white"/>
<stop offset="1" stop-color="white" stop-opacity="0"/>
</linearGradient>
<linearGradient id="paint12_linear_290_3934" x1="19.4907" y1="282.948" x2="19.4907" y2="423.327" gradientUnits="userSpaceOnUse">
<stop stop-color="white"/>
<stop offset="1" stop-color="white" stop-opacity="0"/>
</linearGradient>
<linearGradient id="paint13_linear_290_3934" x1="95.8721" y1="371.32" x2="95.8721" y2="470.036" gradientUnits="userSpaceOnUse">
<stop stop-color="white"/>
<stop offset="1" stop-color="white" stop-opacity="0"/>
</linearGradient>
<linearGradient id="paint14_linear_290_3934" x1="163.891" y1="419.236" x2="163.891" y2="485.369" gradientUnits="userSpaceOnUse">
<stop stop-color="white"/>
<stop offset="1" stop-color="white" stop-opacity="0"/>
</linearGradient>
<linearGradient id="paint15_linear_290_3934" x1="250.194" y1="443.166" x2="250.194" y2="478.224" gradientUnits="userSpaceOnUse">
<stop stop-color="white"/>
<stop offset="1" stop-color="white" stop-opacity="0"/>
</linearGradient>
<linearGradient id="paint16_linear_290_3934" x1="336.315" y1="413.829" x2="336.315" y2="456" gradientUnits="userSpaceOnUse">
<stop stop-color="white"/>
<stop offset="1" stop-color="white" stop-opacity="0"/>
</linearGradient>
<linearGradient id="paint17_linear_290_3934" x1="62.6546" y1="407.033" x2="62.6546" y2="485.968" gradientUnits="userSpaceOnUse">
<stop stop-color="white"/>
<stop offset="1" stop-color="white" stop-opacity="0"/>
</linearGradient>
<linearGradient id="paint18_linear_290_3934" x1="138.904" y1="483.499" x2="138.904" y2="512.587" gradientUnits="userSpaceOnUse">
<stop stop-color="white"/>
<stop offset="1" stop-color="white" stop-opacity="0"/>
</linearGradient>
<linearGradient id="paint19_linear_290_3934" x1="240.967" y1="482.783" x2="240.967" y2="533.985" gradientUnits="userSpaceOnUse">
<stop stop-color="white"/>
<stop offset="1" stop-color="white" stop-opacity="0"/>
</linearGradient>
<linearGradient id="paint20_linear_290_3934" x1="352.456" y1="427.111" x2="352.456" y2="534.064" gradientUnits="userSpaceOnUse">
<stop stop-color="white"/>
<stop offset="1" stop-color="white" stop-opacity="0"/>
</linearGradient>
<linearGradient id="paint21_linear_290_3934" x1="237.636" y1="135.977" x2="237.636" y2="386.188" gradientUnits="userSpaceOnUse">
<stop stop-color="white"/>
<stop offset="1" stop-color="white" stop-opacity="0"/>
</linearGradient>
<linearGradient id="paint22_linear_290_3934" x1="237.534" y1="264" x2="237.534" y2="535.049" gradientUnits="userSpaceOnUse">
<stop stop-color="white"/>
<stop offset="0.807972" stop-color="white" stop-opacity="0"/>
</linearGradient>
<linearGradient id="paint23_linear_290_3934" x1="201" y1="588" x2="201.961" y2="569.129" gradientUnits="userSpaceOnUse">
<stop stop-color="#69C9FF"/>
<stop offset="1" stop-color="#88F1BB"/>
</linearGradient>
</defs>
</svg>
