<svg width="1404" height="821" viewBox="0 0 1404 821" fill="none" xmlns="http://www.w3.org/2000/svg">
<path d="M1149 549V615" stroke="url(#paint0_linear_209_83)"/>
<path d="M1132 555V604" stroke="url(#paint1_linear_209_83)"/>
<path d="M241 820L482 480" stroke="url(#paint2_linear_209_83)"/>
<path d="M250 612L427 477" stroke="url(#paint3_linear_209_83)" stroke-width="1.5"/>
<path d="M852 474L1099 679" stroke="url(#paint4_linear_209_83)"/>
<path d="M924 469L1223.63 663C1263.18 660.139 1352.42 650.296 1393 633.814" stroke="url(#paint5_linear_209_83)"/>
<path d="M730.395 146.07C730.539 145.293 730.577 144.094 730.233 142.935C729.879 141.744 729.106 140.562 727.608 139.977C726.692 139.62 725.275 139.461 723.711 139.508C722.133 139.556 720.349 139.817 718.679 140.341C717.013 140.863 715.426 141.658 714.274 142.798C713.11 143.951 712.399 145.452 712.512 147.326C712.721 150.809 714.175 158.028 716.192 164.105C717.2 167.142 718.361 169.935 719.6 171.843C720.217 172.794 720.878 173.565 721.583 174.026C722.307 174.5 723.11 174.662 723.918 174.312C724.543 174.041 725.07 173.486 725.523 172.788C725.98 172.083 726.392 171.185 726.765 170.155C727.512 168.094 728.128 165.438 728.629 162.589C729.63 156.901 730.187 150.367 730.395 146.07Z" fill="url(#paint6_linear_209_83)" stroke="url(#paint7_linear_209_83)"/>
<path d="M728.861 209.154C727.394 207.978 727.622 204.856 727.92 203.443C728.971 194.892 731.7 177.416 734.207 175.922C737.34 174.054 738.457 196.217 738.056 203.099C737.654 209.982 730.694 210.624 728.861 209.154Z" fill="#F6FEFD" stroke="url(#paint8_linear_209_83)"/>
<path d="M704.976 130C701.852 127.095 696.54 120.456 700.29 117.136C704.976 112.986 724.148 120.871 725 130" stroke="url(#paint9_linear_209_83)"/>
<path d="M738 130.488C742.267 131.497 752.507 131.699 759.334 124.434C766.161 117.168 766.445 110.451 765.734 108" stroke="url(#paint10_linear_209_83)"/>
<path d="M753.252 106.059C746.381 105.629 733.154 107.351 735.216 117.682C737.792 130.596 738.651 148.675 753.252 149.967C764.933 151 769.284 127.726 770 115.96" stroke="url(#paint11_linear_209_83)"/>
<path d="M715 75C715.431 80 724.479 90 757.224 90C780.642 90 782.391 84.8854 778.23 80.1429" stroke="url(#paint12_linear_209_83)"/>
<path d="M847 66C823.079 72.1534 773.863 102.663 768.362 175.473C766.708 197.365 770.84 216.545 778.242 233" stroke="url(#paint13_linear_209_83)" stroke-width="1.5"/>
<path opacity="0.4" d="M482 183.143C490.474 182.429 509.899 178.021 522.934 172.429C544.909 163 563.868 148 610.834 148C657.8 148 689.254 175 687.962 220" stroke="url(#paint14_linear_209_83)"/>
<path d="M206 254C208.011 245.982 216.776 231.696 230.569 227.323C244.859 222.792 253.701 226.157 256 226.886" stroke="url(#paint15_linear_209_83)"/>
<path d="M86.8116 286C63.5255 271.059 19.7131 231.522 30.7524 192.904C44.5516 144.633 135.971 142.909 195.48 167.906C243.087 187.905 271.663 192.904 280 192.904" stroke="url(#paint16_linear_209_83)"/>
<path d="M1282.19 286C1305.47 271.059 1349.29 231.522 1338.25 192.904C1331.29 168.579 1304.63 156.074 1272.27 152.852M1183 164.24C1208.98 155.027 1239.48 150.603 1266.66 152.39" stroke="url(#paint17_linear_209_83)"/>
<path d="M359 115L359 308" stroke="url(#paint18_linear_209_83)"/>
<path d="M383 60L383 308" stroke="url(#paint19_linear_209_83)"/>
<path d="M335 172L335 308" stroke="url(#paint20_linear_209_83)"/>
<path d="M311 205L311 308" stroke="url(#paint21_linear_209_83)"/>
<path d="M287 227L287 308" stroke="url(#paint22_linear_209_83)"/>
<path d="M263 240L263 308" stroke="url(#paint23_linear_209_83)"/>
<path d="M238 249L238 308" stroke="url(#paint24_linear_209_83)"/>
<path d="M214 261L214 308" stroke="url(#paint25_linear_209_83)"/>
<path d="M212.394 327C194.883 324.71 159.689 316.695 159 294.366C159 247.133 277.846 250.138 310.571 193.458C357.076 122.179 354.492 29 411.762 29C425.111 29 432 37.5879 432 54.3343C432 71.0807 432 204.336 432 266.455" stroke="url(#paint26_linear_209_83)" stroke-width="1.5"/>
<path d="M226 246C241.932 239.415 275.432 218.083 285.422 182.006C297.909 136.91 300.493 124.885 321.161 102.122C337.696 83.9115 364.077 58.4573 378 45" stroke="url(#paint27_linear_209_83)"/>
<path d="M599.5 492.75C754.299 492.75 894.457 484.802 995.928 471.949C1046.66 465.523 1087.75 457.867 1116.17 449.355C1130.37 445.101 1141.46 440.62 1149.01 435.947C1156.51 431.304 1160.75 426.323 1160.75 421C1160.75 415.677 1156.51 410.696 1149.01 406.053C1141.46 401.38 1130.37 396.899 1116.17 392.645C1087.75 384.133 1046.66 376.477 995.928 370.051C894.457 357.198 754.299 349.25 599.5 349.25C444.701 349.25 304.543 357.198 203.072 370.051C152.342 376.477 111.253 384.133 82.8317 392.645C68.6265 396.899 57.5416 401.38 49.9926 406.053C42.4922 410.696 38.25 415.677 38.25 421C38.25 426.323 42.4922 431.304 49.9926 435.947C57.5416 440.62 68.6265 445.101 82.8317 449.355C111.253 457.867 152.342 465.523 203.072 471.949C304.543 484.802 444.701 492.75 599.5 492.75Z" fill="url(#paint28_linear_209_83)" stroke="url(#paint29_linear_209_83)" stroke-width="1.5"/>
<path d="M734.5 80.5C778.557 80.5 818.451 78.5408 847.338 75.3714C861.778 73.787 873.485 71.8985 881.591 69.7958C885.64 68.7455 888.819 67.6347 890.996 66.4675C892.084 65.8842 892.947 65.2736 893.543 64.6289C894.142 63.9818 894.5 63.2693 894.5 62.5C894.5 61.7307 894.142 61.0182 893.543 60.3711C892.947 59.7264 892.084 59.1158 890.996 58.5325C888.819 57.3653 885.64 56.2545 881.591 55.2042C873.485 53.1015 861.778 51.213 847.338 49.6286C818.451 46.4592 778.557 44.5 734.5 44.5C690.443 44.5 650.549 46.4592 621.662 49.6286C607.222 51.213 595.515 53.1015 587.409 55.2042C583.36 56.2545 580.181 57.3653 578.004 58.5325C576.916 59.1158 576.053 59.7264 575.457 60.3711C574.858 61.0182 574.5 61.7307 574.5 62.5C574.5 63.2693 574.858 63.9818 575.457 64.6289C576.053 65.2736 576.916 65.8842 578.004 66.4675C580.181 67.6347 583.36 68.7455 587.409 69.7958C595.515 71.8985 607.222 73.787 621.662 75.3714C650.549 78.5408 690.443 80.5 734.5 80.5Z" stroke="url(#paint30_linear_209_83)"/>
<path d="M734.5 84.5C768.893 84.5 800.039 82.8205 822.595 80.103C833.869 78.7447 843.016 77.1248 849.353 75.3195C852.518 74.418 855.012 73.4623 856.724 72.4539C858.397 71.4688 859.5 70.329 859.5 69C859.5 67.671 858.397 66.5312 856.724 65.5461C855.012 64.5377 852.518 63.582 849.353 62.6805C843.016 60.8752 833.869 59.2553 822.595 57.897C800.039 55.1795 768.893 53.5 734.5 53.5C700.107 53.5 668.961 55.1795 646.405 57.897C635.131 59.2553 625.984 60.8752 619.647 62.6805C616.482 63.582 613.988 64.5377 612.276 65.5461C610.603 66.5312 609.5 67.671 609.5 69C609.5 70.329 610.603 71.4688 612.276 72.4539C613.988 73.4623 616.482 74.418 619.647 75.3195C625.984 77.1248 635.131 78.7447 646.405 80.103C668.961 82.8205 700.107 84.5 734.5 84.5Z" fill="url(#paint31_linear_209_83)" stroke="url(#paint32_linear_209_83)"/>
<path d="M611 74C641.409 79.8798 703.689 105.493 709.542 160.907C712.196 186.039 710.938 206.398 708.088 222" stroke="url(#paint33_linear_209_83)"/>
<path d="M591 54C606.844 23.5723 665.082 1 734.5 1C803.918 1 862.156 23.5723 878 54" stroke="url(#paint34_linear_209_83)" stroke-width="1.5"/>
<path d="M825 48C811.892 20.6267 776.323 1 734.5 1C692.677 1 657.108 20.6267 644 48" stroke="url(#paint35_linear_209_83)" stroke-width="1.2"/>
<path d="M696 45C702.149 19.203 717.07 1 734.5 1C751.93 1 766.851 19.203 773 45" stroke="url(#paint36_linear_209_83)"/>
<path opacity="0.4" d="M507.772 439.041C537.545 439.671 568.199 440 599.5 440C885.86 440 1118 412.466 1118 378.5C1118 344.534 885.86 317 599.5 317C313.14 317 81 344.534 81 378.5C81 397.291 152.051 414.113 264.025 425.394" stroke="url(#paint37_linear_209_83)" stroke-width="1.3"/>
<path d="M493 214C493 188.043 472.181 167 446.5 167C441.226 167 436.156 167.888 431.431 169.523M400 214C400 199.962 406.089 187.362 415.742 178.75" stroke="url(#paint38_linear_209_83)"/>
<path d="M283 116C283 90.0426 261.957 69 236 69C230.669 69 225.545 69.8876 220.769 71.523M189 116C189 101.962 195.154 89.3621 204.912 80.75" stroke="url(#paint39_linear_209_83)"/>
<path d="M651 78C663.901 87.7714 693.659 107.824 709.484 109.863C725.31 111.903 708.624 90.6037 698.304 79.6994" stroke="url(#paint40_linear_209_83)"/>
<path d="M457 325C489.154 289.603 582.496 219.759 719.184 222.055C757.784 222.055 784.432 233.487 802 246.176" stroke="url(#paint41_linear_209_83)" stroke-width="1.5"/>
<path d="M835 233.333L841.452 216C912.854 220.333 1080.26 226.833 1189 218.167C1188.14 222.789 1185.82 234.027 1183.41 242" stroke="url(#paint42_linear_209_83)"/>
<path d="M852.032 183.051L846 200L1196.69 197.458L1201 175" stroke="url(#paint43_linear_209_83)"/>
<path d="M1192 116C1184.62 160.494 1165.69 259.386 1149 299" stroke="url(#paint44_linear_209_83)"/>
<path d="M1 476.07C3.67087 549.726 292.741 596.708 646.655 581.007C826.386 573.033 988.276 550.427 1103.74 520.46" stroke="url(#paint45_linear_209_83)" stroke-width="1.5"/>
<path d="M1073.39 331.999C1170.73 339.326 1308.17 378.977 1290.26 408.284C1272.35 437.59 1214.34 437.59 1121.28 470.345C1104.78 479.999 1095.72 499.078 1093.25 507.41C1094.55 509.709 1098.47 515.771 1103.76 521.632C1114.98 528.873 1140.1 531.545 1151.26 531.976C1151.26 531.976 1161 533.7 1231.08 507.41C1301.16 481.12 1340.1 430.695 1340.1 430.695" stroke="url(#paint46_linear_209_83)" stroke-width="1.2"/>
<path d="M1331 392.894C1351.17 363.061 1191.62 323.975 1077.37 320.615" stroke="url(#paint47_linear_209_83)"/>
<path d="M1149.84 499.919C1157.62 484.044 1173.59 478.35 1180.59 477.488C1207.46 472.743 1249.9 460.233 1280.26 447.724C1310.63 435.214 1339.83 414.94 1341 401.999V409.091C1341 409.25 1340.98 409.408 1340.94 409.562C1330.87 449.572 1227.67 481.81 1208.63 486.546C1189.55 491.291 1187.6 492.154 1180.59 499.919C1175.27 505.823 1151.81 511.545 1146.6 511.974C1146.17 512.009 1145.76 511.812 1145.73 511.375C1145.63 510.085 1146.37 506.77 1149.84 499.919Z" fill="url(#paint48_linear_209_83)" stroke="url(#paint49_linear_209_83)" stroke-width="1.3"/>
<path d="M1120.49 476.466C1111.86 483 1104.71 494.216 1101.49 500.995C1100.95 502.127 1101.65 503.431 1102.88 503.695C1108.06 504.815 1118.31 507.108 1134.01 509.701C1135.04 509.871 1136.02 509.217 1136.34 508.227C1139 500.215 1146.45 490.404 1151.52 484.592C1152.53 483.425 1151.96 481.568 1150.45 481.233C1143.94 479.794 1132.66 477.442 1121.89 476.095C1121.39 476.032 1120.89 476.161 1120.49 476.466Z" fill="url(#paint50_linear_209_83)" stroke="url(#paint51_linear_209_83)" stroke-width="1.3"/>
<path d="M875 121C899.989 118.12 962.721 105.104 1013.73 76.0753C1077.5 39.7899 1219.68 24.239 1280 52.749" stroke="url(#paint52_linear_209_83)"/>
<path d="M1212 126L1267 29" stroke="url(#paint53_linear_209_83)"/>
<path d="M869 140L946 129" stroke="url(#paint54_linear_209_83)"/>
<path d="M865 151L943 140" stroke="url(#paint55_linear_209_83)"/>
<path d="M860 165L1042 142" stroke="url(#paint56_linear_209_83)"/>
<path d="M760.003 168.552L757.861 186.918C757.523 189.815 755.069 192 752.152 192C749.179 192 746.697 189.733 746.428 186.772L744.758 168.356C744.351 163.869 747.884 160 752.39 160C756.975 160 760.534 163.998 760.003 168.552Z" fill="#F6FEFD" stroke="url(#paint57_linear_209_83)"/>
<path d="M593 305.656C602.325 285.063 648.26 245.434 729.859 251.655C811.458 257.876 831.284 295.144 830.997 313" stroke="url(#paint58_linear_209_83)"/>
<path d="M931 262C970.609 267.846 1076.26 276.789 1182 265.792" stroke="url(#paint59_linear_209_83)" stroke-width="1.5"/>
<path d="M1268 505V652" stroke="url(#paint60_linear_209_83)"/>
<path d="M1255 513V655" stroke="url(#paint61_linear_209_83)"/>
<path d="M531.279 199.937L531.279 224.051" stroke="url(#paint62_linear_209_83)"/>
<path d="M538.168 199.937L538.168 224.051" stroke="url(#paint63_linear_209_83)"/>
<path d="M592.959 261.965C594.778 258.449 595.505 249.271 583.865 240.686C572.226 232.102 552.099 231.775 543.491 232.684" stroke="url(#paint64_linear_209_83)"/>
<path d="M609.172 252.262C605.595 250.503 598.951 244.55 600.988 234.802C601.595 231.895 603.069 229.714 604.989 228.095" stroke="url(#paint65_linear_209_83)"/>
<path d="M573.478 225.412C589.892 225.412 604.755 225.123 615.518 224.655C620.897 224.421 625.26 224.142 628.282 223.831C629.79 223.676 630.979 223.512 631.797 223.338C632.202 223.252 632.542 223.158 632.79 223.052C632.912 223 633.042 222.932 633.149 222.841C633.251 222.753 633.4 222.582 633.4 222.328C633.4 222.074 633.251 221.904 633.149 221.816C633.042 221.724 632.912 221.657 632.79 221.604C632.542 221.498 632.202 221.405 631.797 221.318C630.979 221.145 629.79 220.98 628.282 220.825C625.26 220.515 620.897 220.236 615.518 220.002C604.755 219.534 589.892 219.245 573.478 219.245C557.064 219.245 542.2 219.534 531.438 220.002C526.058 220.236 521.695 220.515 518.674 220.825C517.165 220.98 515.977 221.145 515.158 221.318C514.753 221.405 514.413 221.498 514.165 221.604C514.043 221.657 513.914 221.724 513.807 221.816C513.704 221.904 513.555 222.074 513.555 222.328C513.555 222.582 513.704 222.753 513.807 222.841C513.914 222.932 514.043 223 514.165 223.052C514.413 223.158 514.753 223.252 515.158 223.338C515.977 223.512 517.165 223.676 518.674 223.831C521.695 224.142 526.058 224.421 531.438 224.655C542.2 225.123 557.064 225.412 573.478 225.412Z" fill="url(#paint66_linear_209_83)" stroke="url(#paint67_linear_209_83)"/>
<path d="M632.633 223.89C632.633 226.602 606.088 228.8 573.344 228.8C540.6 228.8 514.055 226.602 514.055 223.89" stroke="url(#paint68_linear_209_83)"/>
<path d="M573.344 200.565C586.304 200.565 598.039 200.423 606.536 200.192C610.784 200.077 614.227 199.94 616.611 199.787C617.801 199.711 618.736 199.63 619.378 199.545C619.696 199.502 619.961 199.457 620.153 199.406C620.245 199.381 620.349 199.348 620.441 199.299C620.486 199.275 620.554 199.233 620.616 199.166C620.681 199.097 620.766 198.97 620.766 198.792C620.766 198.614 620.681 198.487 620.616 198.418C620.554 198.352 620.486 198.31 620.441 198.286C620.349 198.237 620.245 198.204 620.153 198.179C619.961 198.128 619.696 198.082 619.378 198.04C618.736 197.955 617.801 197.874 616.611 197.798C614.227 197.645 610.784 197.508 606.536 197.392C598.039 197.162 586.304 197.019 573.344 197.019C560.384 197.019 548.649 197.162 540.152 197.392C535.904 197.508 532.461 197.645 530.077 197.798C528.887 197.874 527.952 197.955 527.31 198.04C526.992 198.082 526.728 198.128 526.535 198.179C526.443 198.204 526.339 198.237 526.247 198.286C526.202 198.31 526.134 198.352 526.072 198.418C526.008 198.487 525.922 198.614 525.922 198.792C525.922 198.97 526.008 199.097 526.072 199.166C526.134 199.233 526.202 199.275 526.247 199.299C526.339 199.348 526.443 199.381 526.535 199.406C526.728 199.457 526.992 199.502 527.31 199.545C527.952 199.63 528.887 199.711 530.077 199.787C532.461 199.94 535.904 200.077 540.152 200.192C548.649 200.423 560.384 200.565 573.344 200.565Z" stroke="url(#paint69_linear_209_83)"/>
<path d="M539.03 197.701C543.188 182.299 557.257 170.967 573.973 170.967C590.69 170.967 604.759 182.299 608.917 197.701" stroke="url(#paint70_linear_209_83)"/>
<path d="M550.876 197.519C553.625 182.222 562.924 170.967 573.973 170.967C585.023 170.967 594.322 182.222 597.071 197.519" stroke="url(#paint71_linear_209_83)"/>
<path d="M564.334 197.519C565.481 182.222 569.362 170.967 573.973 170.967C578.584 170.967 582.465 182.222 583.612 197.519" stroke="url(#paint72_linear_209_83)"/>
<path d="M548.503 199.937L548.503 224.912" stroke="url(#paint73_linear_209_83)"/>
<path d="M564.004 200.798L564.004 225.773" stroke="url(#paint74_linear_209_83)"/>
<path d="M583.812 200.798L583.812 225.773" stroke="url(#paint75_linear_209_83)"/>
<path d="M457.646 393.276V453.56" stroke="url(#paint76_linear_209_83)"/>
<path d="M442.145 393.276V453.56" stroke="url(#paint77_linear_209_83)"/>
<path d="M403.391 393.276V453.56" stroke="url(#paint78_linear_209_83)"/>
<path d="M348.705 393.276V453.56" stroke="url(#paint79_linear_209_83)"/>
<path d="M303.061 521.595C298.755 513.27 297.033 491.539 324.591 471.215C352.149 450.89 399.802 450.115 420.184 452.268" stroke="url(#paint80_linear_209_83)"/>
<path d="M269.474 519.872C277.943 515.71 293.674 501.615 288.851 478.535C287.413 471.652 283.923 466.488 279.378 462.656" stroke="url(#paint81_linear_209_83)"/>
<path d="M203.735 561.23L198.568 565.106" stroke="url(#paint82_linear_209_83)"/>
<path d="M205.458 563.814L200.721 567.689" stroke="url(#paint83_linear_209_83)"/>
<path d="M193.401 548.743L188.234 560.8" stroke="url(#paint84_linear_209_83)"/>
<path d="M189.956 548.743L185.65 559.508" stroke="url(#paint85_linear_209_83)"/>
<path d="M184.358 562.953L182.205 567.689" stroke="url(#paint86_linear_209_83)"/>
<path d="M160.645 591.072L160.745 591.206V591.372V602.999V604.544L159.839 603.291L153.811 594.952L153.617 594.684L153.788 594.401L155.51 591.545L155.656 591.303H155.939H156.99L158.562 589.338L158.966 588.834L159.353 589.35L160.645 591.072Z" stroke="url(#paint87_linear_209_83)"/>
<path d="M117.615 574.148L139.145 585.775H141.729L130.103 571.134" stroke="url(#paint88_linear_209_83)"/>
<path d="M172.301 570.273L171.009 568.981H168.856L167.995 570.273L162.828 571.134V573.718L160.244 575.01" stroke="url(#paint89_linear_209_83)"/>
<path d="M143.451 559.077L158.092 580.177" stroke="url(#paint90_linear_209_83)"/>
<path d="M170.579 568.981V582.33" stroke="url(#paint91_linear_209_83)"/>
<path d="M170.148 544.006L170.579 558.216" stroke="url(#paint92_linear_209_83)"/>
<path opacity="0.49" d="M162.397 543.145L162.397 560.369" stroke="url(#paint93_linear_209_83)"/>
<path d="M160.675 575.01L147.327 556.063" stroke="url(#paint94_linear_209_83)"/>
<path d="M206.319 574.148L205.888 572.426V571.134L206.75 568.981V567.689H205.027L204.166 568.55L202.659 567.689H200.721L198.568 565.106L195.985 565.967L195.123 563.383L192.54 562.953L191.679 563.814L190.387 562.091H189.256L188.234 560.8L182.205 558.216V556.494L181.344 555.202L180.052 556.924H177.2L176.608 555.633L174.024 556.494L173.593 557.786L171.871 558.647L170.149 558.216L165.412 559.938V562.522L162.828 560.8H160.245L157.661 559.938H156.369L155.508 561.661L153.355 560.369L151.633 556.924L149.48 559.077" stroke="url(#paint95_linear_209_83)"/>
<path opacity="0.49" d="M126.918 553.871L127.217 553.762L127.442 553.987L132.609 559.154L133.886 560.431L132.135 559.993L127.137 558.744L122.559 560.824L122.46 560.869H122.352H118.658L113.63 565.059L112.809 565.743V564.675V560.869H108.573H108.298L108.151 560.638L105.137 555.901L104.648 555.133H105.559H107.971L111.711 552.224L112.045 551.963L112.357 552.251L117.731 557.212L126.918 553.871Z" stroke="url(#paint96_linear_209_83)"/>
<path d="M216.71 539.799L217.062 539.403L217.437 539.778L225.619 547.959L226.342 548.682L225.327 548.809L222.066 549.216L217.884 553.816L217.153 554.62L217.018 553.542L216.481 549.243H213.639H213.364L213.217 549.012L210.203 544.275L209.714 543.506H210.625H213.414L216.71 539.799Z" stroke="url(#paint97_linear_209_83)"/>
<path d="M194.507 512.539L195.838 512.006L195.127 513.251L193.636 515.86L195.831 517.324L197.072 518.151L195.583 518.239L188.263 518.67L188.178 518.674L188.096 518.651L185.246 517.837L183.252 518.635L183.044 518.718L182.843 518.618L180.259 517.326L179.263 516.828L180.297 516.414L182.314 515.608L184.382 512.713L184.679 512.296L185.089 512.603L188.309 515.018L194.507 512.539Z" stroke="url(#paint98_linear_209_83)"/>
<path opacity="0.49" d="M147.327 532.741H148.534L147.68 533.595L144.894 536.382L144.942 536.511L144.977 536.605L144.974 536.705L144.812 541.011L144.78 541.856L144.055 541.421L140.068 539.029L135.606 543.085L135.253 543.405L134.916 543.068L130.427 538.579L124.286 541.445L124.185 541.492H124.074H121.06H120.867L120.724 541.362L116.15 537.204L111.632 537.615L111.378 537.638L111.211 537.446L108.196 534.001L107.471 533.172H108.573H116.754H116.835L116.912 533.198L121.699 534.793L122.784 532.984L123.191 532.307L123.629 532.964L125.93 536.416L131.11 532.83L131.477 532.576L131.771 532.912L134.47 535.997L138.402 532.851L138.539 532.741H138.715H147.327Z" stroke="url(#paint99_linear_209_83)"/>
<path d="M240.46 568.945L236.891 566.17L233.323 568.945L232.912 569.265L232.609 568.841L230.719 566.195L228.097 567.693L227.982 567.759H227.849H225.696H224.834L225.262 567.011L226.984 563.997L227.09 563.811L227.297 563.76L230.742 562.898L230.921 562.854L231.087 562.936L231.842 563.314H232.935L235.441 562.479L235.615 562.421L235.785 562.489L237.849 563.314H239.906H239.967L240.027 563.329L241.749 563.76L242.354 563.911L242.075 564.468L240.866 566.886L241.252 568.429L241.603 569.835L240.46 568.945Z" stroke="url(#paint100_linear_209_83)"/>
<path d="M204.958 599.554V596.765L202.769 598.642L202.539 598.839L202.258 598.726L200.349 597.963L199.276 598.678L199.15 598.762H198.999H196.846H196.728L196.622 598.709L194.262 597.529L191.902 598.709L191.529 598.896L191.278 598.562L190.137 597.04H188.234H187.734V596.54V595.126L186.288 594.403L186.011 594.265V593.956V590.942V590.612L186.314 590.482L187.546 589.954L185.17 589.717L184.868 589.687L184.755 589.405L183.894 587.252L183.772 586.946L184.005 586.713L184.866 585.852L185.084 585.633L185.378 585.731L186.376 586.064L187.45 584.99L187.596 584.844H187.803H189.525H189.643L189.749 584.897L190.425 585.235L191.52 584.87L191.678 584.817L191.837 584.87L193.128 585.3L193.142 585.305L193.156 585.31L195.22 586.136H197.276H197.338L197.398 586.151L198.956 586.54L201.816 585.315L202.013 585.231L202.21 585.315L205.069 586.54L206.628 586.151L206.903 586.082L207.103 586.282L207.294 586.473L209.997 585.315L210.308 585.182L210.548 585.421L212.213 587.086L214.484 588.222L217.266 586.632L217.535 586.479L217.792 586.65L220.375 588.373L220.598 588.521V588.789V590.134L223.182 590.872H224.835H225.173L225.299 591.187L226.16 593.34L226.302 593.695L225.996 593.925L224.473 595.067V596.97V597.238L224.251 597.386L223.182 598.099V598.693V599.193H222.682H221.126L219.737 600.234V600.846V601.155L219.46 601.293L217.738 602.154L217.632 602.207H217.514H216.653H216.446L216.3 602.06L215.585 601.346H213.846L213.131 602.06L212.985 602.207H212.778H211.917H211.71L211.563 602.06L210.848 601.346H207.18H207.013L206.88 601.246L205.158 599.954L204.958 599.804V599.554Z" stroke="url(#paint101_linear_209_83)"/>
<path d="M140.437 562.522L141.298 559.938V556.494L143.451 559.077H146.465L148.188 553.479L152.063 553.049V550.465L151.202 547.451L152.924 547.882L154.216 545.729L153.785 542.284L157.23 545.298L157.661 546.159L164.55 541.423L171.44 544.437L174.885 547.451L180.913 540.992L183.927 535.394V540.992L185.219 544.437L189.525 548.743H194.262L196.845 545.298L203.735 553.91V561.23L205.027 563.814H208.902V567.259L212.778 571.134L215.361 569.412L220.098 572.426L221.39 576.732L222.681 579.746L226.557 582.76L229.571 580.607L232.585 582.76H239.044V581.038L242.489 576.732H245.934L249.379 573.718V572.426L246.364 566.397L248.948 564.675V559.938L251.532 560.369L250.67 554.341L247.226 552.188V547.882L252.823 542.715L251.101 540.131L253.254 536.256L247.656 531.088L244.911 532.811L237.322 534.533L233.016 538.839L232.585 532.811L236.461 528.935H240.336L241.197 525.06L244.211 519.462L241.628 519.032V511.281L242.489 510.42L237.322 508.267L229.14 501.808L227.849 498.363L220.098 497.502L217.084 494.487L214.5 494.057L212.347 491.904H207.18L204.166 496.21V500.946L202.013 508.267V498.363L193.831 488.459L189.525 485.875H185.65L183.497 488.028H177.899L171.44 483.722L167.995 485.445L167.134 490.612L165.412 486.737L153.785 482H144.312L140.006 483.722L136.561 488.89V495.779L134.408 492.765L128.38 488.89L124.505 483.292L116.754 486.306L112.879 491.904L105.128 496.21L98.6687 497.071L95.2239 500.946L95.6545 506.114L86.612 514.295L88.3344 519.032L97.8075 525.491L99.0993 530.658L96.0851 527.644H93.9321V531.088L97.8075 534.964L91.7791 533.241L88.3344 528.935H83.5978L79.2918 537.978L80.5836 543.145L86.1814 549.174L78.4306 555.202V562.522L81.4448 566.828L78.8612 570.703L78 575.009L79.2918 577.162L84.0284 579.746L88.3344 578.454L93.0709 584.052" stroke="url(#paint102_linear_209_83)"/>
<path opacity="0.4" d="M172.732 605.151L180.483 586.205L195.554 572.856" stroke="url(#paint103_linear_209_83)"/>
<path d="M171.01 596.54L180.483 572.426" stroke="url(#paint104_linear_209_83)"/>
<path d="M184.358 571.995L180.914 580.607H182.205L190.387 573.287" stroke="url(#paint105_linear_209_83)"/>
<path opacity="0.6" d="M189.095 606.013L195.984 597.831M184.358 606.013L191.248 597.831M202.013 586.205L216.222 569.842M204.596 587.066L217.945 570.703" stroke="url(#paint106_linear_209_83)"/>
<path d="M195.984 586.636L199.86 576.301" stroke="url(#paint107_linear_209_83)"/>
<path opacity="0.6" d="M198.999 587.066L202.874 576.732" stroke="url(#paint108_linear_209_83)"/>
<path d="M358.608 456.213C319.836 456.213 284.727 454.911 259.307 452.806C246.599 451.753 236.299 450.499 229.168 449.103C225.607 448.405 222.812 447.668 220.897 446.893C219.943 446.507 219.177 446.099 218.642 445.663C218.113 445.232 217.733 444.707 217.733 444.087C217.733 443.466 218.113 442.941 218.642 442.51C219.177 442.074 219.943 441.667 220.897 441.28C222.812 440.505 225.607 439.768 229.168 439.071C236.299 437.674 246.599 436.42 259.307 435.367C284.727 433.262 319.836 431.96 358.608 431.96C397.381 431.96 432.49 433.262 457.91 435.367C470.618 436.42 480.918 437.674 488.049 439.071C491.61 439.768 494.405 440.505 496.32 441.28C497.274 441.667 498.04 442.074 498.575 442.51C499.104 442.941 499.484 443.466 499.484 444.087C499.484 444.707 499.104 445.232 498.575 445.663C498.04 446.099 497.274 446.507 496.32 446.893C494.405 447.668 491.61 448.405 488.049 449.103C480.918 450.499 470.618 451.753 457.91 452.806C432.49 454.911 397.381 456.213 358.608 456.213Z" fill="url(#paint109_linear_209_83)" stroke="url(#paint110_linear_209_83)"/>
<path d="M218.233 452.699C218.233 459.12 281.081 464.325 358.608 464.325C436.136 464.325 498.984 459.12 498.984 452.699" stroke="url(#paint111_linear_209_83)"/>
<path d="M469.332 392.985C469.333 392.984 469.334 392.984 469.334 392.984L469.332 392.985ZM469.334 393.568C469.334 393.568 469.333 393.568 469.332 393.567L469.334 393.568ZM358.608 396.79C327.928 396.79 300.149 396.453 280.039 395.907C269.985 395.634 261.843 395.309 256.212 394.948C253.399 394.768 251.202 394.578 249.705 394.379C248.96 394.28 248.37 394.177 247.958 394.067C247.757 394.013 247.569 393.95 247.422 393.872C247.35 393.833 247.261 393.777 247.185 393.695C247.106 393.611 247.014 393.469 247.014 393.276C247.014 393.083 247.106 392.941 247.185 392.857C247.261 392.775 247.35 392.719 247.422 392.68C247.569 392.601 247.757 392.539 247.958 392.485C248.37 392.375 248.96 392.272 249.705 392.173C251.202 391.974 253.399 391.784 256.212 391.604C261.843 391.242 269.985 390.918 280.039 390.645C300.149 390.099 327.928 389.762 358.608 389.762C389.289 389.762 417.068 390.099 437.178 390.645C447.232 390.918 455.374 391.242 461.005 391.604C463.818 391.784 466.015 391.974 467.512 392.173C468.257 392.272 468.847 392.375 469.259 392.485C469.46 392.539 469.648 392.601 469.795 392.68C469.867 392.719 469.956 392.775 470.032 392.857C470.111 392.941 470.203 393.083 470.203 393.276C470.203 393.469 470.111 393.611 470.032 393.695C469.956 393.777 469.867 393.833 469.795 393.872C469.648 393.95 469.46 394.013 469.259 394.067C468.847 394.177 468.257 394.28 467.512 394.379C466.015 394.578 463.818 394.768 461.005 394.948C455.374 395.309 447.232 395.634 437.178 395.907C417.068 396.453 389.289 396.79 358.608 396.79Z" stroke="url(#paint112_linear_209_83)"/>
<path d="M431.439 390.692C421.594 354.227 388.283 327.394 348.705 327.394C309.127 327.394 275.816 354.227 265.971 390.692" stroke="url(#paint113_linear_209_83)"/>
<path d="M403.391 390.262C396.883 354.044 374.865 327.394 348.705 327.394C322.544 327.394 300.526 354.044 294.019 390.262" stroke="url(#paint114_linear_209_83)"/>
<path d="M371.526 390.262C368.811 354.044 359.622 327.394 348.705 327.394C337.787 327.394 328.599 354.044 325.883 390.262" stroke="url(#paint115_linear_209_83)"/>
<path d="M1259 212.717C1259 206.798 1291.24 202 1331 202C1370.76 202 1403 206.798 1403 212.717C1403 217.287 1383.79 221.188 1356.73 222.73" stroke="url(#paint116_linear_209_83)"/>
<path d="M1233 212C1267.24 212 1295 216.166 1295 221.306C1295 225.274 1278.45 228.662 1255.15 230" stroke="url(#paint117_linear_209_83)"/>
<path d="M1233 200C1272.76 200 1305 205.102 1305 211.396L1295.02 222" stroke="url(#paint118_linear_209_83)"/>
<path d="M236.5 163C253.897 163 268 141.957 268 116C268 90.0426 253.897 69 236.5 69C219.103 69 205 90.0426 205 116C205 141.957 219.103 163 236.5 163Z" stroke="url(#paint119_linear_209_83)"/>
<ellipse cx="236.5" cy="116" rx="13.5" ry="47" stroke="url(#paint120_linear_209_83)"/>
<ellipse cx="236" cy="122.5" rx="6.5" ry="47" transform="rotate(-90 236 122.5)" stroke="url(#paint121_linear_209_83)"/>
<path d="M949.822 260.132V242.908C945.803 238.746 927.43 230.938 886.093 233.004C844.755 235.071 774.137 251.951 743.995 260.132" stroke="url(#paint122_linear_209_83)"/>
<path d="M925.277 329.459L925.277 254.535" stroke="url(#paint123_linear_209_83)"/>
<path d="M901.164 329.117L901.164 250.748" stroke="url(#paint124_linear_209_83)"/>
<path opacity="0.9" d="M864.132 325.242L864.132 251.951" stroke="url(#paint125_linear_209_83)"/>
<path opacity="0.7" d="M820.211 323.089L820.211 257.549" stroke="url(#paint126_linear_209_83)"/>
<path opacity="0.5" d="M778.874 320.936L778.873 263.146" stroke="url(#paint127_linear_209_83)"/>
<path d="M931.306 256.688C925.134 253.53 903.059 248.162 864.132 251.951C825.206 255.74 779.591 263.003 761.65 266.161" stroke="url(#paint128_linear_209_83)"/>
<path d="M949.822 260.221C946.52 252.47 929.067 238.086 883.94 241.186C838.813 244.286 777.008 257.118 754.329 262.716" stroke="url(#paint129_linear_209_83)"/>
<path d="M860.918 252.55C838.554 254.274 785.654 262.464 762 266.343V320.224C785.396 319.189 880.415 326.977 925 331V254.705C902.636 249.964 888.873 250.395 860.918 252.55Z" fill="url(#paint130_linear_209_83)"/>
<path d="M109.732 319.804L92.0674 290.363L104.682 319.804" stroke="url(#paint131_linear_209_83)"/>
<path d="M104.67 323.729L92.0674 360.04L107.769 325.118" stroke="url(#paint132_linear_209_83)"/>
<path d="M108.75 398.313V323.729H110.931L114.148 400.766" stroke="url(#paint133_linear_209_83)"/>
<path d="M108.751 325.692L102.862 323.379V320.435L134.266 316.86L108.26 323.729" stroke="url(#paint134_linear_209_83)"/>
<path d="M82.0778 329.691L71.3989 311.893L79.0246 329.691" stroke="url(#paint135_linear_209_83)"/>
<path d="M79.0178 332.064L71.3989 354.015L80.8912 332.904" stroke="url(#paint136_linear_209_83)"/>
<path d="M81.4844 376.052V332.064H82.8028L85.1781 386.387" stroke="url(#paint137_linear_209_83)"/>
<path d="M81.4844 333.251L77.9248 331.852V330.072L96.9095 327.911L81.1878 332.064" stroke="url(#paint138_linear_209_83)"/>
<path d="M1226.89 342L1230 242.797L1206 221" stroke="url(#paint139_linear_209_83)"/>
<path d="M1244.12 347L1240.85 242.103L1268 219L1264.65 219L1237 242.103V344.843" stroke="url(#paint140_linear_209_83)"/>
<path d="M1226.58 341.852L1229.6 242.625L1205 219H1265L1236.51 242.625V344L1226.58 341.852Z" fill="url(#paint141_linear_209_83)"/>
<path d="M1271.41 151.067L1279.72 175.991L1269.37 152.021" stroke="url(#paint142_linear_209_83)"/>
<path d="M1268.83 201.869V150.931H1267.19L1265.15 201.188" stroke="url(#paint143_linear_209_83)"/>
<path d="M1268.96 152.157L1272.5 150.658V148.752L1251.12 146.436L1268.96 151.067" stroke="url(#paint144_linear_209_83)"/>
<path d="M1268.83 148.206L1279.99 128.458L1271.55 148.751" stroke="url(#paint145_linear_209_83)"/>
<path d="M1249.73 168.216L1254.97 183.913L1248.45 168.816" stroke="url(#paint146_linear_209_83)"/>
<path d="M1248.1 200.211V168.13H1247.08L1245.79 199.782" stroke="url(#paint147_linear_209_83)"/>
<path d="M1248.19 168.902L1250.42 167.959V166.758L1236.95 165.3L1248.19 168.216" stroke="url(#paint148_linear_209_83)"/>
<path d="M1248.1 166.415L1255.14 153.977L1249.82 166.758" stroke="url(#paint149_linear_209_83)"/>
<path d="M284.102 185.333C274.483 215.702 246.026 237.098 233 244C270.36 231.49 281.955 222.863 299.991 206.471C318.027 190.078 332.628 153.412 349.375 104.667C362.774 65.6706 372.708 49.3072 376 46C363.976 58.0784 335.72 86.7216 318.886 104.667C297.844 127.098 296.126 147.373 284.102 185.333Z" fill="url(#paint150_linear_209_83)"/>
<defs>
<linearGradient id="paint0_linear_209_83" x1="4433.75" y1="520.865" x2="4433.97" y2="674.154" gradientUnits="userSpaceOnUse">
<stop stop-color="#69C9FF"/>
<stop offset="0.591023" stop-color="#88F1BB" stop-opacity="0"/>
</linearGradient>
<linearGradient id="paint1_linear_209_83" x1="4416.75" y1="534.112" x2="4416.87" y2="647.918" gradientUnits="userSpaceOnUse">
<stop stop-color="#69C9FF"/>
<stop offset="0.591023" stop-color="#88F1BB" stop-opacity="0"/>
</linearGradient>
<linearGradient id="paint2_linear_209_83" x1="465.646" y1="495.944" x2="531.431" y2="580.363" gradientUnits="userSpaceOnUse">
<stop stop-color="#69C9FF"/>
<stop offset="1" stop-color="#88F1BB" stop-opacity="0"/>
</linearGradient>
<linearGradient id="paint3_linear_209_83" x1="245.704" y1="631.038" x2="226.755" y2="548.318" gradientUnits="userSpaceOnUse">
<stop stop-color="#69C9FF" stop-opacity="0"/>
<stop offset="1" stop-color="#88F1BB"/>
</linearGradient>
<linearGradient id="paint4_linear_209_83" x1="1082.24" y1="483.613" x2="1113.23" y2="551.215" gradientUnits="userSpaceOnUse">
<stop stop-color="#69C9FF"/>
<stop offset="1" stop-color="#88F1BB" stop-opacity="0"/>
</linearGradient>
<linearGradient id="paint5_linear_209_83" x1="933" y1="515" x2="1115.13" y2="341.056" gradientUnits="userSpaceOnUse">
<stop stop-color="#69C9FF"/>
<stop offset="1" stop-color="#88F1BB" stop-opacity="0"/>
</linearGradient>
<linearGradient id="paint6_linear_209_83" x1="714.583" y1="157" x2="729.13" y2="157.059" gradientUnits="userSpaceOnUse">
<stop stop-color="#EEFAFF" stop-opacity="0.46"/>
<stop offset="1" stop-color="#EAFFF5" stop-opacity="0.47"/>
</linearGradient>
<linearGradient id="paint7_linear_209_83" x1="713" y1="140" x2="724.668" y2="138.259" gradientUnits="userSpaceOnUse">
<stop stop-color="#69C9FF"/>
<stop offset="1" stop-color="#88F1BB"/>
</linearGradient>
<linearGradient id="paint8_linear_209_83" x1="737.266" y1="212.207" x2="729.473" y2="211.889" gradientUnits="userSpaceOnUse">
<stop stop-color="#69C9FF"/>
<stop offset="1" stop-color="#88F1BB"/>
</linearGradient>
<linearGradient id="paint9_linear_209_83" x1="698.844" y1="115.26" x2="716.887" y2="109.239" gradientUnits="userSpaceOnUse">
<stop stop-color="#69C9FF"/>
<stop offset="1" stop-color="#88F1BB"/>
</linearGradient>
<linearGradient id="paint10_linear_209_83" x1="737.832" y1="106.785" x2="758.441" y2="102.276" gradientUnits="userSpaceOnUse">
<stop stop-color="#69C9FF"/>
<stop offset="1" stop-color="#88F1BB"/>
</linearGradient>
<linearGradient id="paint11_linear_209_83" x1="734.791" y1="103.675" x2="761.244" y2="99.8934" gradientUnits="userSpaceOnUse">
<stop stop-color="#69C9FF"/>
<stop offset="1" stop-color="#88F1BB"/>
</linearGradient>
<linearGradient id="paint12_linear_209_83" x1="714.611" y1="74.2073" x2="745.818" y2="49.9057" gradientUnits="userSpaceOnUse">
<stop stop-color="#69C9FF"/>
<stop offset="1" stop-color="#88F1BB"/>
</linearGradient>
<linearGradient id="paint13_linear_209_83" x1="767.527" y1="57.1749" x2="828.019" y2="52.0325" gradientUnits="userSpaceOnUse">
<stop stop-color="#69C9FF"/>
<stop offset="1" stop-color="#88F1BB"/>
</linearGradient>
<linearGradient id="paint14_linear_209_83" x1="480.831" y1="145.844" x2="567.408" y2="71.346" gradientUnits="userSpaceOnUse">
<stop stop-color="#69C9FF"/>
<stop offset="1" stop-color="#88F1BB"/>
</linearGradient>
<linearGradient id="paint15_linear_209_83" x1="205.716" y1="225.198" x2="234.085" y2="209.943" gradientUnits="userSpaceOnUse">
<stop stop-color="#69C9FF"/>
<stop offset="1" stop-color="#88F1BB"/>
</linearGradient>
<linearGradient id="paint16_linear_209_83" x1="27.5754" y1="147.987" x2="166.942" y2="69.4751" gradientUnits="userSpaceOnUse">
<stop stop-color="#69C9FF"/>
<stop offset="1" stop-color="#88F1BB"/>
</linearGradient>
<linearGradient id="paint17_linear_209_83" x1="1341.42" y1="147.987" x2="1202.05" y2="69.4698" gradientUnits="userSpaceOnUse">
<stop stop-color="#69C9FF"/>
<stop offset="1" stop-color="#88F1BB"/>
</linearGradient>
<linearGradient id="paint18_linear_209_83" x1="358.994" y1="109.22" x2="359.726" y2="109.219" gradientUnits="userSpaceOnUse">
<stop stop-color="#69C9FF"/>
<stop offset="1" stop-color="#88F1BB"/>
</linearGradient>
<linearGradient id="paint19_linear_209_83" x1="382.994" y1="52.5731" x2="383.726" y2="52.5722" gradientUnits="userSpaceOnUse">
<stop stop-color="#69C9FF"/>
<stop offset="1" stop-color="#88F1BB"/>
</linearGradient>
<linearGradient id="paint20_linear_209_83" x1="334.994" y1="167.927" x2="335.726" y2="167.926" gradientUnits="userSpaceOnUse">
<stop stop-color="#69C9FF"/>
<stop offset="1" stop-color="#88F1BB"/>
</linearGradient>
<linearGradient id="paint21_linear_209_83" x1="310.994" y1="201.915" x2="311.726" y2="201.913" gradientUnits="userSpaceOnUse">
<stop stop-color="#69C9FF"/>
<stop offset="1" stop-color="#88F1BB"/>
</linearGradient>
<linearGradient id="paint22_linear_209_83" x1="286.994" y1="224.574" x2="287.726" y2="224.572" gradientUnits="userSpaceOnUse">
<stop stop-color="#69C9FF"/>
<stop offset="1" stop-color="#88F1BB"/>
</linearGradient>
<linearGradient id="paint23_linear_209_83" x1="262.994" y1="237.964" x2="263.726" y2="237.96" gradientUnits="userSpaceOnUse">
<stop stop-color="#69C9FF"/>
<stop offset="1" stop-color="#88F1BB"/>
</linearGradient>
<linearGradient id="paint24_linear_209_83" x1="237.994" y1="247.233" x2="238.726" y2="247.229" gradientUnits="userSpaceOnUse">
<stop stop-color="#69C9FF"/>
<stop offset="1" stop-color="#88F1BB"/>
</linearGradient>
<linearGradient id="paint25_linear_209_83" x1="213.994" y1="259.592" x2="214.726" y2="259.588" gradientUnits="userSpaceOnUse">
<stop stop-color="#69C9FF"/>
<stop offset="1" stop-color="#88F1BB"/>
</linearGradient>
<linearGradient id="paint26_linear_209_83" x1="159" y1="29" x2="337.234" y2="-19.7158" gradientUnits="userSpaceOnUse">
<stop stop-color="#69C9FF"/>
<stop offset="1" stop-color="#88F1BB"/>
</linearGradient>
<linearGradient id="paint27_linear_209_83" x1="226" y1="45" x2="327.484" y2="22.103" gradientUnits="userSpaceOnUse">
<stop stop-color="#69C9FF"/>
<stop offset="1" stop-color="#88F1BB"/>
</linearGradient>
<linearGradient id="paint28_linear_209_83" x1="1044.63" y1="363.77" x2="181.565" y2="490.126" gradientUnits="userSpaceOnUse">
<stop stop-color="#EEFAFF" stop-opacity="0.2"/>
<stop offset="1" stop-color="#EAFFF5" stop-opacity="0"/>
</linearGradient>
<linearGradient id="paint29_linear_209_83" x1="39" y1="350" x2="159.128" y2="67.0594" gradientUnits="userSpaceOnUse">
<stop stop-color="#69C9FF"/>
<stop offset="1" stop-color="#88F1BB"/>
</linearGradient>
<linearGradient id="paint30_linear_209_83" x1="575" y1="45" x2="601.663" y2="-27.5048" gradientUnits="userSpaceOnUse">
<stop stop-color="#69C9FF"/>
<stop offset="1" stop-color="#88F1BB"/>
</linearGradient>
<linearGradient id="paint31_linear_209_83" x1="633.183" y1="69" x2="845.315" y2="83.2075" gradientUnits="userSpaceOnUse">
<stop stop-color="#EEFAFF" stop-opacity="0.46"/>
<stop offset="1" stop-color="#EAFFF5" stop-opacity="0.47"/>
</linearGradient>
<linearGradient id="paint32_linear_209_83" x1="610" y1="54" x2="634.496" y2="-6.6596" gradientUnits="userSpaceOnUse">
<stop stop-color="#69C9FF"/>
<stop offset="1" stop-color="#88F1BB"/>
</linearGradient>
<linearGradient id="paint33_linear_209_83" x1="610.432" y1="68.4984" x2="681.669" y2="56.8362" gradientUnits="userSpaceOnUse">
<stop stop-color="#69C9FF"/>
<stop offset="1" stop-color="#88F1BB"/>
</linearGradient>
<linearGradient id="paint34_linear_209_83" x1="591" y1="1" x2="646.778" y2="-89.1165" gradientUnits="userSpaceOnUse">
<stop stop-color="#69C9FF"/>
<stop offset="1" stop-color="#88F1BB"/>
</linearGradient>
<linearGradient id="paint35_linear_209_83" x1="644" y1="1" x2="710.931" y2="-75.5933" gradientUnits="userSpaceOnUse">
<stop stop-color="#69C9FF"/>
<stop offset="1" stop-color="#88F1BB" stop-opacity="0.31"/>
</linearGradient>
<linearGradient id="paint36_linear_209_83" x1="716.49" y1="14.3727" x2="767.062" y2="-16.4897" gradientUnits="userSpaceOnUse">
<stop stop-color="#69C9FF"/>
<stop offset="1" stop-color="#88F1BB" stop-opacity="0"/>
</linearGradient>
<linearGradient id="paint37_linear_209_83" x1="81" y1="317" x2="180.302" y2="67.2166" gradientUnits="userSpaceOnUse">
<stop stop-color="#69C9FF"/>
<stop offset="1" stop-color="#88F1BB"/>
</linearGradient>
<linearGradient id="paint38_linear_209_83" x1="399.472" y1="164.185" x2="461.965" y2="145.59" gradientUnits="userSpaceOnUse">
<stop stop-color="#69C9FF"/>
<stop offset="1" stop-color="#88F1BB"/>
</linearGradient>
<linearGradient id="paint39_linear_209_83" x1="188.466" y1="66.1849" x2="251.52" y2="47.2214" gradientUnits="userSpaceOnUse">
<stop stop-color="#69C9FF"/>
<stop offset="1" stop-color="#88F1BB"/>
</linearGradient>
<linearGradient id="paint40_linear_209_83" x1="650.611" y1="76.309" x2="694.848" y2="60.1613" gradientUnits="userSpaceOnUse">
<stop stop-color="#69C9FF"/>
<stop offset="1" stop-color="#88F1BB"/>
</linearGradient>
<linearGradient id="paint41_linear_209_83" x1="454.753" y1="216.162" x2="657.844" y2="83.5613" gradientUnits="userSpaceOnUse">
<stop stop-color="#69C9FF"/>
<stop offset="1" stop-color="#88F1BB"/>
</linearGradient>
<linearGradient id="paint42_linear_209_83" x1="832.882" y1="216.636" x2="881.682" y2="112.032" gradientUnits="userSpaceOnUse">
<stop stop-color="#69C9FF"/>
<stop offset="1" stop-color="#88F1BB"/>
</linearGradient>
<linearGradient id="paint43_linear_209_83" x1="843.876" y1="172.855" x2="882.317" y2="77.7386" gradientUnits="userSpaceOnUse">
<stop stop-color="#69C9FF"/>
<stop offset="1" stop-color="#88F1BB"/>
</linearGradient>
<linearGradient id="paint44_linear_209_83" x1="1148.74" y1="119.65" x2="1181.84" y2="118.149" gradientUnits="userSpaceOnUse">
<stop stop-color="#69C9FF"/>
<stop offset="1" stop-color="#88F1BB"/>
</linearGradient>
<linearGradient id="paint45_linear_209_83" x1="158.932" y1="542.693" x2="195.772" y2="401.544" gradientUnits="userSpaceOnUse">
<stop stop-color="#69C9FF" stop-opacity="0"/>
<stop offset="1" stop-color="#88F1BB"/>
</linearGradient>
<linearGradient id="paint46_linear_209_83" x1="1141.14" y1="360.445" x2="1184.67" y2="391.066" gradientUnits="userSpaceOnUse">
<stop stop-color="#69C9FF" stop-opacity="0"/>
<stop offset="1" stop-color="#88F1BB"/>
</linearGradient>
<linearGradient id="paint47_linear_209_83" x1="1071.87" y1="321.513" x2="1291.8" y2="250.883" gradientUnits="userSpaceOnUse">
<stop stop-color="#69C9FF"/>
<stop offset="1" stop-color="#88F1BB"/>
</linearGradient>
<linearGradient id="paint48_linear_209_83" x1="1243.36" y1="401.999" x2="1243.36" y2="511.999" gradientUnits="userSpaceOnUse">
<stop stop-color="#F7FDFF"/>
<stop offset="1" stop-color="#F5FFFA"/>
</linearGradient>
<linearGradient id="paint49_linear_209_83" x1="1144.56" y1="405.959" x2="1278.1" y2="359.765" gradientUnits="userSpaceOnUse">
<stop stop-color="#69C9FF"/>
<stop offset="1" stop-color="#88F1BB"/>
</linearGradient>
<linearGradient id="paint50_linear_209_83" x1="1127.19" y1="475.999" x2="1127.19" y2="509.999" gradientUnits="userSpaceOnUse">
<stop stop-color="#F7FDFF"/>
<stop offset="1" stop-color="#F5FFFA"/>
</linearGradient>
<linearGradient id="paint51_linear_209_83" x1="1100.2" y1="477.223" x2="1137.55" y2="465.805" gradientUnits="userSpaceOnUse">
<stop stop-color="#69C9FF"/>
<stop offset="1" stop-color="#88F1BB"/>
</linearGradient>
<linearGradient id="paint52_linear_209_83" x1="872.593" y1="40.9874" x2="1035.46" y2="-113.862" gradientUnits="userSpaceOnUse">
<stop stop-color="#69C9FF"/>
<stop offset="1" stop-color="#88F1BB"/>
</linearGradient>
<linearGradient id="paint53_linear_209_83" x1="1211.67" y1="32.4913" x2="1253.28" y2="27.8948" gradientUnits="userSpaceOnUse">
<stop stop-color="#69C9FF"/>
<stop offset="1" stop-color="#88F1BB"/>
</linearGradient>
<linearGradient id="paint54_linear_209_83" x1="868.542" y1="129.396" x2="889.153" y2="101.283" gradientUnits="userSpaceOnUse">
<stop stop-color="#69C9FF"/>
<stop offset="1" stop-color="#88F1BB"/>
</linearGradient>
<linearGradient id="paint55_linear_209_83" x1="864.536" y1="140.396" x2="885.066" y2="112.031" gradientUnits="userSpaceOnUse">
<stop stop-color="#69C9FF"/>
<stop offset="1" stop-color="#88F1BB"/>
</linearGradient>
<linearGradient id="paint56_linear_209_83" x1="859.54" y1="153.914" x2="881.33" y2="125.344" gradientUnits="userSpaceOnUse">
<stop stop-color="#69C9FF"/>
<stop offset="1" stop-color="#88F1BB"/>
</linearGradient>
<linearGradient id="paint57_linear_209_83" x1="743.898" y1="158.355" x2="756.884" y2="157.081" gradientUnits="userSpaceOnUse">
<stop stop-color="#69C9FF"/>
<stop offset="1" stop-color="#88F1BB"/>
</linearGradient>
<linearGradient id="paint58_linear_209_83" x1="593" y1="251" x2="665.237" y2="168.267" gradientUnits="userSpaceOnUse">
<stop stop-color="#69C9FF"/>
<stop offset="1" stop-color="#88F1BB" stop-opacity="0.01"/>
</linearGradient>
<linearGradient id="paint59_linear_209_83" x1="936.784" y1="261.525" x2="944.3" y2="224.422" gradientUnits="userSpaceOnUse">
<stop stop-color="#69C9FF"/>
<stop offset="1" stop-color="#88F1BB"/>
</linearGradient>
<linearGradient id="paint60_linear_209_83" x1="4552.75" y1="442.335" x2="4553.84" y2="783.749" gradientUnits="userSpaceOnUse">
<stop stop-color="#69C9FF"/>
<stop offset="0.591023" stop-color="#88F1BB" stop-opacity="0"/>
</linearGradient>
<linearGradient id="paint61_linear_209_83" x1="4539.75" y1="452.467" x2="4540.76" y2="782.268" gradientUnits="userSpaceOnUse">
<stop stop-color="#69C9FF"/>
<stop offset="0.591023" stop-color="#88F1BB" stop-opacity="0"/>
</linearGradient>
<linearGradient id="paint62_linear_209_83" x1="531.279" y1="199.937" x2="531.98" y2="199.928" gradientUnits="userSpaceOnUse">
<stop stop-color="#69C9FF"/>
<stop offset="1" stop-color="#88F1BB"/>
</linearGradient>
<linearGradient id="paint63_linear_209_83" x1="538.168" y1="199.937" x2="538.87" y2="199.928" gradientUnits="userSpaceOnUse">
<stop stop-color="#69C9FF"/>
<stop offset="1" stop-color="#88F1BB"/>
</linearGradient>
<linearGradient id="paint64_linear_209_83" x1="543.491" y1="232.338" x2="571.646" y2="218.017" gradientUnits="userSpaceOnUse">
<stop stop-color="#69C9FF"/>
<stop offset="1" stop-color="#88F1BB"/>
</linearGradient>
<linearGradient id="paint65_linear_209_83" x1="600.608" y1="228.095" x2="606.55" y2="227.467" gradientUnits="userSpaceOnUse">
<stop stop-color="#69C9FF"/>
<stop offset="1" stop-color="#88F1BB"/>
</linearGradient>
<linearGradient id="paint66_linear_209_83" x1="525.12" y1="222.328" x2="623.436" y2="240.575" gradientUnits="userSpaceOnUse">
<stop stop-color="#EEFAFF" stop-opacity="0.46"/>
<stop offset="1" stop-color="#EAFFF5" stop-opacity="0.16"/>
</linearGradient>
<linearGradient id="paint67_linear_209_83" x1="514.055" y1="219.745" x2="515.789" y2="207.846" gradientUnits="userSpaceOnUse">
<stop stop-color="#69C9FF"/>
<stop offset="1" stop-color="#88F1BB"/>
</linearGradient>
<linearGradient id="paint68_linear_209_83" x1="514.055" y1="223.89" x2="515.627" y2="212.56" gradientUnits="userSpaceOnUse">
<stop stop-color="#69C9FF"/>
<stop offset="1" stop-color="#88F1BB"/>
</linearGradient>
<linearGradient id="paint69_linear_209_83" x1="526.422" y1="197.519" x2="526.962" y2="191.581" gradientUnits="userSpaceOnUse">
<stop stop-color="#69C9FF"/>
<stop offset="1" stop-color="#88F1BB"/>
</linearGradient>
<linearGradient id="paint70_linear_209_83" x1="539.03" y1="170.967" x2="569.519" y2="147.187" gradientUnits="userSpaceOnUse">
<stop stop-color="#69C9FF"/>
<stop offset="1" stop-color="#88F1BB"/>
</linearGradient>
<linearGradient id="paint71_linear_209_83" x1="550.876" y1="170.967" x2="576.409" y2="157.713" gradientUnits="userSpaceOnUse">
<stop stop-color="#69C9FF"/>
<stop offset="1" stop-color="#88F1BB"/>
</linearGradient>
<linearGradient id="paint72_linear_209_83" x1="564.334" y1="170.967" x2="577.254" y2="168.168" gradientUnits="userSpaceOnUse">
<stop stop-color="#69C9FF"/>
<stop offset="1" stop-color="#88F1BB"/>
</linearGradient>
<linearGradient id="paint73_linear_209_83" x1="550.503" y1="199.937" x2="551.202" y2="199.985" gradientUnits="userSpaceOnUse">
<stop stop-color="#69C9FF"/>
<stop offset="1" stop-color="#88F1BB"/>
</linearGradient>
<linearGradient id="paint74_linear_209_83" x1="564.004" y1="200.798" x2="564.706" y2="200.79" gradientUnits="userSpaceOnUse">
<stop stop-color="#69C9FF"/>
<stop offset="1" stop-color="#88F1BB"/>
</linearGradient>
<linearGradient id="paint75_linear_209_83" x1="583.812" y1="200.798" x2="584.514" y2="200.79" gradientUnits="userSpaceOnUse">
<stop stop-color="#69C9FF"/>
<stop offset="1" stop-color="#88F1BB"/>
</linearGradient>
<linearGradient id="paint76_linear_209_83" x1="457.646" y1="393.276" x2="456.945" y2="393.272" gradientUnits="userSpaceOnUse">
<stop stop-color="#69C9FF"/>
<stop offset="1" stop-color="#88F1BB"/>
</linearGradient>
<linearGradient id="paint77_linear_209_83" x1="442.145" y1="393.276" x2="441.443" y2="393.272" gradientUnits="userSpaceOnUse">
<stop stop-color="#69C9FF"/>
<stop offset="1" stop-color="#88F1BB"/>
</linearGradient>
<linearGradient id="paint78_linear_209_83" x1="403.391" y1="393.276" x2="402.689" y2="393.272" gradientUnits="userSpaceOnUse">
<stop stop-color="#69C9FF"/>
<stop offset="1" stop-color="#88F1BB"/>
</linearGradient>
<linearGradient id="paint79_linear_209_83" x1="348.705" y1="393.276" x2="348.003" y2="393.272" gradientUnits="userSpaceOnUse">
<stop stop-color="#69C9FF"/>
<stop offset="1" stop-color="#88F1BB"/>
</linearGradient>
<linearGradient id="paint80_linear_209_83" x1="420.184" y1="451.449" x2="353.522" y2="417.541" gradientUnits="userSpaceOnUse">
<stop stop-color="#69C9FF"/>
<stop offset="1" stop-color="#88F1BB"/>
</linearGradient>
<linearGradient id="paint81_linear_209_83" x1="289.751" y1="462.656" x2="275.682" y2="461.168" gradientUnits="userSpaceOnUse">
<stop stop-color="#69C9FF"/>
<stop offset="1" stop-color="#88F1BB"/>
</linearGradient>
<linearGradient id="paint82_linear_209_83" x1="203.735" y1="561.23" x2="200.605" y2="559.985" gradientUnits="userSpaceOnUse">
<stop stop-color="#69C9FF"/>
<stop offset="1" stop-color="#88F1BB"/>
</linearGradient>
<linearGradient id="paint83_linear_209_83" x1="205.458" y1="563.814" x2="202.524" y2="562.744" gradientUnits="userSpaceOnUse">
<stop stop-color="#69C9FF"/>
<stop offset="1" stop-color="#88F1BB"/>
</linearGradient>
<linearGradient id="paint84_linear_209_83" x1="193.401" y1="548.743" x2="189.834" y2="548.287" gradientUnits="userSpaceOnUse">
<stop stop-color="#69C9FF"/>
<stop offset="1" stop-color="#88F1BB"/>
</linearGradient>
<linearGradient id="paint85_linear_209_83" x1="189.956" y1="548.743" x2="186.977" y2="548.387" gradientUnits="userSpaceOnUse">
<stop stop-color="#69C9FF"/>
<stop offset="1" stop-color="#88F1BB"/>
</linearGradient>
<linearGradient id="paint86_linear_209_83" x1="184.358" y1="562.953" x2="182.875" y2="562.752" gradientUnits="userSpaceOnUse">
<stop stop-color="#69C9FF"/>
<stop offset="1" stop-color="#88F1BB"/>
</linearGradient>
<linearGradient id="paint87_linear_209_83" x1="160.245" y1="567.259" x2="142.923" y2="563.523" gradientUnits="userSpaceOnUse">
<stop stop-color="#69C9FF"/>
<stop offset="1" stop-color="#88F1BB"/>
</linearGradient>
<linearGradient id="paint88_linear_209_83" x1="141.729" y1="571.134" x2="128.101" y2="564.437" gradientUnits="userSpaceOnUse">
<stop stop-color="#69C9FF"/>
<stop offset="1" stop-color="#88F1BB"/>
</linearGradient>
<linearGradient id="paint89_linear_209_83" x1="172.301" y1="568.981" x2="166.063" y2="565.259" gradientUnits="userSpaceOnUse">
<stop stop-color="#69C9FF"/>
<stop offset="1" stop-color="#88F1BB"/>
</linearGradient>
<linearGradient id="paint90_linear_209_83" x1="158.092" y1="559.077" x2="148.242" y2="557.038" gradientUnits="userSpaceOnUse">
<stop stop-color="#69C9FF"/>
<stop offset="1" stop-color="#88F1BB"/>
</linearGradient>
<linearGradient id="paint91_linear_209_83" x1="170.579" y1="568.981" x2="169.878" y2="568.966" gradientUnits="userSpaceOnUse">
<stop stop-color="#69C9FF"/>
<stop offset="1" stop-color="#88F1BB"/>
</linearGradient>
<linearGradient id="paint92_linear_209_83" x1="170.148" y1="544.006" x2="169.447" y2="544.013" gradientUnits="userSpaceOnUse">
<stop stop-color="#69C9FF"/>
<stop offset="1" stop-color="#88F1BB"/>
</linearGradient>
<linearGradient id="paint93_linear_209_83" x1="162.397" y1="543.145" x2="161.696" y2="543.133" gradientUnits="userSpaceOnUse">
<stop stop-color="#69C9FF"/>
<stop offset="1" stop-color="#88F1BB"/>
</linearGradient>
<linearGradient id="paint94_linear_209_83" x1="160.675" y1="556.063" x2="151.706" y2="554.178" gradientUnits="userSpaceOnUse">
<stop stop-color="#69C9FF"/>
<stop offset="1" stop-color="#88F1BB"/>
</linearGradient>
<linearGradient id="paint95_linear_209_83" x1="206.75" y1="555.202" x2="184.59" y2="535.217" gradientUnits="userSpaceOnUse">
<stop stop-color="#69C9FF"/>
<stop offset="1" stop-color="#88F1BB"/>
</linearGradient>
<linearGradient id="paint96_linear_209_83" x1="132.256" y1="552.618" x2="119.215" y2="544.003" gradientUnits="userSpaceOnUse">
<stop stop-color="#69C9FF"/>
<stop offset="1" stop-color="#88F1BB"/>
</linearGradient>
<linearGradient id="paint97_linear_209_83" x1="225.265" y1="540.131" x2="215.986" y2="537.095" gradientUnits="userSpaceOnUse">
<stop stop-color="#69C9FF"/>
<stop offset="1" stop-color="#88F1BB"/>
</linearGradient>
<linearGradient id="paint98_linear_209_83" x1="195.554" y1="513.003" x2="189.536" y2="507.767" gradientUnits="userSpaceOnUse">
<stop stop-color="#69C9FF"/>
<stop offset="1" stop-color="#88F1BB"/>
</linearGradient>
<linearGradient id="paint99_linear_209_83" x1="147.327" y1="533.241" x2="136.405" y2="519.911" gradientUnits="userSpaceOnUse">
<stop stop-color="#69C9FF"/>
<stop offset="1" stop-color="#88F1BB"/>
</linearGradient>
<linearGradient id="paint100_linear_209_83" x1="241.628" y1="562.953" x2="235.133" y2="557.437" gradientUnits="userSpaceOnUse">
<stop stop-color="#69C9FF"/>
<stop offset="1" stop-color="#88F1BB"/>
</linearGradient>
<linearGradient id="paint101_linear_209_83" x1="225.696" y1="585.344" x2="207.2" y2="571.403" gradientUnits="userSpaceOnUse">
<stop stop-color="#69C9FF"/>
<stop offset="1" stop-color="#88F1BB"/>
</linearGradient>
<linearGradient id="paint102_linear_209_83" x1="253.254" y1="482" x2="155.856" y2="432.097" gradientUnits="userSpaceOnUse">
<stop stop-color="#69C9FF"/>
<stop offset="1" stop-color="#88F1BB" stop-opacity="0.59"/>
</linearGradient>
<linearGradient id="paint103_linear_209_83" x1="195.554" y1="572.856" x2="180.222" y2="569.624" gradientUnits="userSpaceOnUse">
<stop stop-color="#69C9FF"/>
<stop offset="1" stop-color="#88F1BB"/>
</linearGradient>
<linearGradient id="paint104_linear_209_83" x1="180.483" y1="572.426" x2="173.926" y2="571.658" gradientUnits="userSpaceOnUse">
<stop stop-color="#69C9FF"/>
<stop offset="1" stop-color="#88F1BB"/>
</linearGradient>
<linearGradient id="paint105_linear_209_83" x1="190.387" y1="571.995" x2="184.386" y2="570.026" gradientUnits="userSpaceOnUse">
<stop stop-color="#69C9FF"/>
<stop offset="1" stop-color="#88F1BB"/>
</linearGradient>
<linearGradient id="paint106_linear_209_83" x1="217.945" y1="569.842" x2="196.059" y2="563.779" gradientUnits="userSpaceOnUse">
<stop stop-color="#69C9FF"/>
<stop offset="1" stop-color="#88F1BB"/>
</linearGradient>
<linearGradient id="paint107_linear_209_83" x1="199.86" y1="576.301" x2="197.174" y2="576.001" gradientUnits="userSpaceOnUse">
<stop stop-color="#69C9FF"/>
<stop offset="1" stop-color="#88F1BB"/>
</linearGradient>
<linearGradient id="paint108_linear_209_83" x1="202.874" y1="576.732" x2="200.188" y2="576.431" gradientUnits="userSpaceOnUse">
<stop stop-color="#69C9FF"/>
<stop offset="1" stop-color="#88F1BB"/>
</linearGradient>
<linearGradient id="paint109_linear_209_83" x1="472.845" y1="444.087" x2="234.849" y2="467.274" gradientUnits="userSpaceOnUse">
<stop stop-color="#EEFAFF" stop-opacity="0.46"/>
<stop offset="1" stop-color="#EAFFF5" stop-opacity="0.47"/>
</linearGradient>
<linearGradient id="paint110_linear_209_83" x1="498.984" y1="432.46" x2="484.89" y2="381.69" gradientUnits="userSpaceOnUse">
<stop stop-color="#69C9FF"/>
<stop offset="1" stop-color="#88F1BB"/>
</linearGradient>
<linearGradient id="paint111_linear_209_83" x1="498.984" y1="452.699" x2="495.261" y2="425.874" gradientUnits="userSpaceOnUse">
<stop stop-color="#69C9FF"/>
<stop offset="1" stop-color="#88F1BB"/>
</linearGradient>
<linearGradient id="paint112_linear_209_83" x1="469.703" y1="390.262" x2="468.424" y2="376.201" gradientUnits="userSpaceOnUse">
<stop stop-color="#69C9FF"/>
<stop offset="1" stop-color="#88F1BB"/>
</linearGradient>
<linearGradient id="paint113_linear_209_83" x1="431.439" y1="327.394" x2="359.251" y2="271.092" gradientUnits="userSpaceOnUse">
<stop stop-color="#69C9FF"/>
<stop offset="1" stop-color="#88F1BB"/>
</linearGradient>
<linearGradient id="paint114_linear_209_83" x1="403.391" y1="327.394" x2="342.938" y2="296.016" gradientUnits="userSpaceOnUse">
<stop stop-color="#69C9FF"/>
<stop offset="1" stop-color="#88F1BB"/>
</linearGradient>
<linearGradient id="paint115_linear_209_83" x1="371.526" y1="327.394" x2="340.936" y2="320.768" gradientUnits="userSpaceOnUse">
<stop stop-color="#69C9FF"/>
<stop offset="1" stop-color="#88F1BB"/>
</linearGradient>
<linearGradient id="paint116_linear_209_83" x1="1403" y1="202" x2="1383.92" y2="162.456" gradientUnits="userSpaceOnUse">
<stop stop-color="#69C9FF"/>
<stop offset="1" stop-color="#88F1BB"/>
</linearGradient>
<linearGradient id="paint117_linear_209_83" x1="1295" y1="212" x2="1273.84" y2="190.257" gradientUnits="userSpaceOnUse">
<stop stop-color="#69C9FF"/>
<stop offset="1" stop-color="#88F1BB"/>
</linearGradient>
<linearGradient id="paint118_linear_209_83" x1="1305" y1="200" x2="1279.14" y2="174.748" gradientUnits="userSpaceOnUse">
<stop stop-color="#69C9FF"/>
<stop offset="1" stop-color="#88F1BB"/>
</linearGradient>
<linearGradient id="paint119_linear_209_83" x1="204.642" y1="63.3699" x2="250.261" y2="58.7723" gradientUnits="userSpaceOnUse">
<stop stop-color="#69C9FF"/>
<stop offset="1" stop-color="#88F1BB"/>
</linearGradient>
<linearGradient id="paint120_linear_209_83" x1="222.847" y1="63.3699" x2="242.559" y2="62.5184" gradientUnits="userSpaceOnUse">
<stop stop-color="#69C9FF"/>
<stop offset="1" stop-color="#88F1BB"/>
</linearGradient>
<linearGradient id="paint121_linear_209_83" x1="229.426" y1="69.8699" x2="238.931" y2="69.6722" gradientUnits="userSpaceOnUse">
<stop stop-color="#69C9FF"/>
<stop offset="1" stop-color="#88F1BB"/>
</linearGradient>
<linearGradient id="paint122_linear_209_83" x1="949.822" y1="232.663" x2="925.742" y2="178.833" gradientUnits="userSpaceOnUse">
<stop stop-color="#69C9FF"/>
<stop offset="1" stop-color="#88F1BB"/>
</linearGradient>
<linearGradient id="paint123_linear_209_83" x1="925.277" y1="254.535" x2="925.277" y2="254.535" gradientUnits="userSpaceOnUse">
<stop stop-color="#69C9FF"/>
<stop offset="1" stop-color="#88F1BB"/>
</linearGradient>
<linearGradient id="paint124_linear_209_83" x1="901.164" y1="250.748" x2="901.164" y2="250.748" gradientUnits="userSpaceOnUse">
<stop stop-color="#69C9FF"/>
<stop offset="1" stop-color="#88F1BB"/>
</linearGradient>
<linearGradient id="paint125_linear_209_83" x1="864.132" y1="251.951" x2="864.132" y2="251.951" gradientUnits="userSpaceOnUse">
<stop stop-color="#69C9FF"/>
<stop offset="1" stop-color="#88F1BB"/>
</linearGradient>
<linearGradient id="paint126_linear_209_83" x1="820.211" y1="257.549" x2="819.51" y2="257.546" gradientUnits="userSpaceOnUse">
<stop stop-color="#69C9FF"/>
<stop offset="1" stop-color="#88F1BB"/>
</linearGradient>
<linearGradient id="paint127_linear_209_83" x1="778.874" y1="263.146" x2="778.873" y2="263.146" gradientUnits="userSpaceOnUse">
<stop stop-color="#69C9FF"/>
<stop offset="1" stop-color="#88F1BB"/>
</linearGradient>
<linearGradient id="paint128_linear_209_83" x1="931.306" y1="250.648" x2="921.085" y2="217.298" gradientUnits="userSpaceOnUse">
<stop stop-color="#69C9FF"/>
<stop offset="1" stop-color="#88F1BB"/>
</linearGradient>
<linearGradient id="paint129_linear_209_83" x1="949.822" y1="240.755" x2="932.79" y2="195.522" gradientUnits="userSpaceOnUse">
<stop stop-color="#69C9FF"/>
<stop offset="1" stop-color="#88F1BB"/>
</linearGradient>
<linearGradient id="paint130_linear_209_83" x1="826.082" y1="321.948" x2="884.661" y2="227.4" gradientUnits="userSpaceOnUse">
<stop stop-color="#EEFAFF" stop-opacity="0"/>
<stop offset="1" stop-color="#EAFFF5"/>
</linearGradient>
<linearGradient id="paint131_linear_209_83" x1="92.0674" y1="290.363" x2="104.077" y2="288.213" gradientUnits="userSpaceOnUse">
<stop stop-color="#69C9FF"/>
<stop offset="1" stop-color="#88F1BB"/>
</linearGradient>
<linearGradient id="paint132_linear_209_83" x1="92.0674" y1="323.729" x2="102.904" y2="322.331" gradientUnits="userSpaceOnUse">
<stop stop-color="#69C9FF"/>
<stop offset="1" stop-color="#88F1BB"/>
</linearGradient>
<linearGradient id="paint133_linear_209_83" x1="108.75" y1="323.729" x2="112.536" y2="323.65" gradientUnits="userSpaceOnUse">
<stop stop-color="#69C9FF"/>
<stop offset="1" stop-color="#88F1BB"/>
</linearGradient>
<linearGradient id="paint134_linear_209_83" x1="102.862" y1="316.86" x2="113.23" y2="305.862" gradientUnits="userSpaceOnUse">
<stop stop-color="#69C9FF"/>
<stop offset="1" stop-color="#88F1BB"/>
</linearGradient>
<linearGradient id="paint135_linear_209_83" x1="71.3989" y1="311.893" x2="78.659" y2="310.593" gradientUnits="userSpaceOnUse">
<stop stop-color="#69C9FF"/>
<stop offset="1" stop-color="#88F1BB"/>
</linearGradient>
<linearGradient id="paint136_linear_209_83" x1="71.3989" y1="332.064" x2="77.9501" y2="331.219" gradientUnits="userSpaceOnUse">
<stop stop-color="#69C9FF"/>
<stop offset="1" stop-color="#88F1BB"/>
</linearGradient>
<linearGradient id="paint137_linear_209_83" x1="81.4844" y1="332.064" x2="84.075" y2="332.011" gradientUnits="userSpaceOnUse">
<stop stop-color="#69C9FF"/>
<stop offset="1" stop-color="#88F1BB"/>
</linearGradient>
<linearGradient id="paint138_linear_209_83" x1="77.9248" y1="327.911" x2="84.1923" y2="321.262" gradientUnits="userSpaceOnUse">
<stop stop-color="#69C9FF"/>
<stop offset="1" stop-color="#88F1BB"/>
</linearGradient>
<linearGradient id="paint139_linear_209_83" x1="1230" y1="221" x2="1213.22" y2="220.007" gradientUnits="userSpaceOnUse">
<stop stop-color="#69C9FF"/>
<stop offset="1" stop-color="#88F1BB"/>
</linearGradient>
<linearGradient id="paint140_linear_209_83" x1="1268" y1="219" x2="1246.36" y2="217.436" gradientUnits="userSpaceOnUse">
<stop stop-color="#69C9FF"/>
<stop offset="1" stop-color="#88F1BB"/>
</linearGradient>
<linearGradient id="paint141_linear_209_83" x1="1231.33" y1="273.124" x2="1216.69" y2="253.987" gradientUnits="userSpaceOnUse">
<stop stop-color="#EEFAFF" stop-opacity="0.46"/>
<stop offset="0.592346" stop-color="#EBFDF8" stop-opacity="0.6"/>
<stop offset="1" stop-color="#EAFFF5" stop-opacity="0"/>
</linearGradient>
<linearGradient id="paint142_linear_209_83" x1="1279.72" y1="151.067" x2="1272.57" y2="150.181" gradientUnits="userSpaceOnUse">
<stop stop-color="#69C9FF"/>
<stop offset="1" stop-color="#88F1BB"/>
</linearGradient>
<linearGradient id="paint143_linear_209_83" x1="1268.83" y1="150.931" x2="1266.25" y2="150.875" gradientUnits="userSpaceOnUse">
<stop stop-color="#69C9FF"/>
<stop offset="1" stop-color="#88F1BB"/>
</linearGradient>
<linearGradient id="paint144_linear_209_83" x1="1272.5" y1="146.436" x2="1265.82" y2="138.979" gradientUnits="userSpaceOnUse">
<stop stop-color="#69C9FF"/>
<stop offset="1" stop-color="#88F1BB"/>
</linearGradient>
<linearGradient id="paint145_linear_209_83" x1="1279.99" y1="128.458" x2="1272.36" y2="127.205" gradientUnits="userSpaceOnUse">
<stop stop-color="#69C9FF"/>
<stop offset="1" stop-color="#88F1BB"/>
</linearGradient>
<linearGradient id="paint146_linear_209_83" x1="1254.97" y1="168.216" x2="1250.46" y2="167.658" gradientUnits="userSpaceOnUse">
<stop stop-color="#69C9FF"/>
<stop offset="1" stop-color="#88F1BB"/>
</linearGradient>
<linearGradient id="paint147_linear_209_83" x1="1248.1" y1="168.13" x2="1246.48" y2="168.095" gradientUnits="userSpaceOnUse">
<stop stop-color="#69C9FF"/>
<stop offset="1" stop-color="#88F1BB"/>
</linearGradient>
<linearGradient id="paint148_linear_209_83" x1="1250.42" y1="165.3" x2="1246.21" y2="160.603" gradientUnits="userSpaceOnUse">
<stop stop-color="#69C9FF"/>
<stop offset="1" stop-color="#88F1BB"/>
</linearGradient>
<linearGradient id="paint149_linear_209_83" x1="1255.14" y1="153.977" x2="1250.33" y2="153.188" gradientUnits="userSpaceOnUse">
<stop stop-color="#69C9FF"/>
<stop offset="1" stop-color="#88F1BB"/>
</linearGradient>
<linearGradient id="paint150_linear_209_83" x1="348.517" y1="75.7649" x2="365.705" y2="214.769" gradientUnits="userSpaceOnUse">
<stop stop-color="#EEFAFF" stop-opacity="0"/>
<stop offset="1" stop-color="#EAFFF5" stop-opacity="0.47"/>
</linearGradient>
</defs>
</svg>
