<svg width="1206" height="423" viewBox="0 0 1206 423" fill="none" xmlns="http://www.w3.org/2000/svg">
<path d="M893 213C884.333 215 867 230.2 867 275" stroke="url(#paint0_linear_254_1874)"/>
<path d="M953 198C931.667 205.333 889 238.6 889 313" stroke="url(#paint1_linear_254_1874)"/>
<path d="M581 88C584.789 98.7423 599.869 130.132 629.877 169.755C667.387 219.282 598.05 227.763 597.482 225.728" stroke="url(#paint2_linear_254_1874)"/>
<path d="M581 88C583.779 98.7423 594.837 130.132 616.843 169.755C644.35 219.282 593.503 227.763 593.087 225.728" stroke="url(#paint3_linear_254_1874)"/>
<path d="M581 88C582.958 98.7423 590.749 130.132 606.253 169.755C625.633 219.282 589.809 227.763 589.516 225.728" stroke="url(#paint4_linear_254_1874)"/>
<path d="M581 88C582.074 98.7423 586.346 130.132 594.848 169.755C605.476 219.282 585.831 227.763 585.67 225.728" stroke="url(#paint5_linear_254_1874)"/>
<path d="M592 100.5H597V73C609.5 73.3333 634.5 80.9 634.5 108.5C634.5 136.1 634.5 155.333 634.5 164" stroke="url(#paint6_linear_254_1874)"/>
<path opacity="0.4" d="M638 112H644.5V136H692.5" stroke="url(#paint7_linear_254_1874)"/>
<path d="M541 1C552 6 574 23 574 51C574 79 574 80.6667 574 116" stroke="url(#paint8_linear_254_1874)"/>
<path d="M574 148C567 151.217 553 162.157 553 180.174C553 198.191 553 199.264 553 222" stroke="url(#paint9_linear_254_1874)"/>
<path d="M541 22.5C552 27.0238 574 42.4048 574 67.7381C574 93.0714 574 84.0317 574 116" stroke="url(#paint10_linear_254_1874)"/>
<path d="M574 162C567 164.903 553 174.773 553 191.03C553 207.286 553 201.486 553 222" stroke="url(#paint11_linear_254_1874)"/>
<path d="M541 43.5C552 47.5693 574 61.4048 574 84.1926C574 106.981 574 87.2439 574 116" stroke="url(#paint12_linear_254_1874)"/>
<path d="M574 175C567 177.638 553 186.607 553 201.38C553 216.153 553 203.358 553 222" stroke="url(#paint13_linear_254_1874)"/>
<path d="M541 61.5C552 65.1797 574 77.6905 574 98.2965C574 118.903 574 89.9971 574 116" stroke="url(#paint14_linear_254_1874)"/>
<path d="M574 187C567 189.363 553 197.398 553 210.631C553 223.864 553 205.301 553 222" stroke="url(#paint15_linear_254_1874)"/>
<path d="M541 79.5C552 82.79 574 93.9762 574 112.4C574 130.825 574 92.7504 574 116" stroke="url(#paint16_linear_254_1874)"/>
<path d="M574 198C567 200.157 553 207.493 553 219.574C553 231.656 553 206.689 553 221.935" stroke="url(#paint17_linear_254_1874)"/>
<path d="M404.1 153.884L408.466 166.109L423.331 185.116L421.536 195.266L427.09 224.449" stroke="url(#paint18_linear_254_1874)"/>
<path d="M359.888 102.35L381.606 111.854L381.047 103.874L390.603 97.1894" stroke="url(#paint19_linear_254_1874)"/>
<path d="M381.073 111.391L394.94 130.468L409.727 155.495L395.814 142.937L390.556 132.279L369.023 118.25L355.968 103.627" stroke="url(#paint20_linear_254_1874)"/>
<path d="M438.162 96.362L431.992 101.305L435.535 116.094L430.817 127.452L436.285 141.103L432.442 164.93L438.017 151.507" stroke="url(#paint21_linear_254_1874)"/>
<path d="M401.007 95.458L408.375 100.455L414.157 118.595L430.186 147.044L429.643 153.598L433.449 157.842" stroke="url(#paint22_linear_254_1874)"/>
<path d="M346.841 109.279L354.838 123.254L372.565 133.038L374.831 143.906L408.64 168.603C411.236 172.264 416.831 181.061 418.448 186.962" stroke="url(#paint23_linear_254_1874)"/>
<path d="M359.341 166.044L382.809 171.917" stroke="url(#paint24_linear_254_1874)"/>
<path d="M329.897 153.572L346.846 159.401L355.745 164.792L340.965 161.317" stroke="url(#paint25_linear_254_1874)"/>
<path d="M380 167.603L351.903 160.049L334.22 143.746L324 140.954" stroke="url(#paint26_linear_254_1874)"/>
<path d="M326.485 147.796C330.816 149.999 342.214 154.814 353.155 156.453C364.097 158.092 372.741 161.763 375.696 163.394L388.051 168.041L398.726 177.317" stroke="url(#paint27_linear_254_1874)"/>
<path d="M402.595 161.007L364.636 148.631L352.22 135.968L328.298 123.611" stroke="url(#paint28_linear_254_1874)"/>
<path d="M397.563 167.876C393.555 163.144 379.799 153.282 356.831 151.684C333.863 150.086 326.464 145.125 325.636 142.844" stroke="url(#paint29_linear_254_1874)"/>
<path d="M401.851 157.551L371.682 127.587L363.431 117.138L342.597 113.085" stroke="url(#paint30_linear_254_1874)"/>
<path d="M393.477 159.641L384.457 138.219L375.847 129.801L371.36 101.545" stroke="url(#paint31_linear_254_1874)"/>
<path d="M390.274 156.858L376.94 138.245L334.861 117.136" stroke="url(#paint32_linear_254_1874)"/>
<path d="M424.142 218.14C423.356 202.156 412.129 165.451 373.509 146.505" stroke="url(#paint33_linear_254_1874)"/>
<path d="M414.241 269.96C416.782 260.926 421.046 236.903 417.772 213.073C414.498 189.244 392.959 173.712 382.599 168.925M371.645 155.658C385.543 160.866 414.597 179.213 419.627 210.938" stroke="url(#paint34_linear_254_1874)"/>
<path d="M446 267.5C442.244 252.058 437.453 222.959 440.5 203.499C443.547 184.038 452.207 172.516 464 161.999" stroke="url(#paint35_linear_254_1874)"/>
<path d="M412.631 219.736L407.083 216.832L398.333 215.665" stroke="url(#paint36_linear_254_1874)"/>
<path d="M392.515 218.63L401.828 218.018L413.694 220.668L410.059 216.742L400.748 213.435L394.346 210.916" stroke="url(#paint37_linear_254_1874)"/>
<path d="M362.818 208.98L364.974 215.101L372.366 224.637L371.446 229.708L374.16 244.312" stroke="url(#paint38_linear_254_1874)"/>
<path d="M341.057 182.851L351.558 187.672L351.295 183.681L355.927 180.37" stroke="url(#paint39_linear_254_1874)"/>
<path d="M351.632 187.46L358.531 197.118L365.877 209.781L358.944 203.411L356.335 198.021L345.594 190.89L339.094 183.481" stroke="url(#paint40_linear_254_1874)"/>
<path d="M417.161 212.423L412.451 211.049L407.776 206.305L395.419 201.826" stroke="url(#paint41_linear_254_1874)"/>
<path d="M416.229 213.486L414.065 213.628L411.349 209.047L404.212 207.01L395.747 206.815" stroke="url(#paint42_linear_254_1874)"/>
<path d="M415.296 214.55L410.227 210.77L401.638 208.432L395.878 208.811" stroke="url(#paint43_linear_254_1874)"/>
<path d="M382.958 225.695C386.328 222.467 395.717 215.837 406.316 215.14" stroke="url(#paint44_linear_254_1874)"/>
<path d="M383.89 224.631C387.322 221.098 396.999 214.04 408.25 214.075" stroke="url(#paint45_linear_254_1874)"/>
<path d="M383.89 224.631C387.619 219.704 397.875 210.118 409.063 211.189" stroke="url(#paint46_linear_254_1874)"/>
<path d="M380.006 180.792L377.065 183.24L378.745 190.645L376.493 196.305L379.09 203.15L377.247 215.046L379.909 208.357" stroke="url(#paint47_linear_254_1874)"/>
<path d="M361.914 179.977L365.585 182.47L368.432 191.481L376.377 205.626L376.09 208.876L377.983 210.989" stroke="url(#paint48_linear_254_1874)"/>
<path d="M405.389 185.791L391.129 201.348L383.348 220.196L379.334 223.929L378.896 217.267L382.77 207.597L381.882 201.708L384.02 196.116L381.007 188.385L376.853 186.18L369.897 179.452" stroke="url(#paint49_linear_254_1874)"/>
<path d="M354.806 209.065C355.963 207.466 360.887 204.096 371.335 203.409C381.783 202.722 389.346 206.234 391.821 208.075" stroke="url(#paint50_linear_254_1874)"/>
<path d="M334.302 186.802L338.267 193.763L347.107 198.661L348.214 204.066L365.06 216.406C366.349 218.231 369.126 222.613 369.92 225.549" stroke="url(#paint51_linear_254_1874)"/>
<path d="M340.196 215.477L352.366 217.684" stroke="url(#paint52_linear_254_1874)"/>
<path d="M325.701 208.413L334.51 211.611L339.132 214.545L331.449 212.622" stroke="url(#paint53_linear_254_1874)"/>
<path d="M351.237 215.754L337.211 211.994L328.414 203.947L323.312 202.557" stroke="url(#paint54_linear_254_1874)"/>
<path d="M324.506 205.485C326.671 206.65 332.367 209.203 337.838 210.099C343.308 210.994 347.629 212.941 349.105 213.803L355.28 216.272L360.612 221.151" stroke="url(#paint55_linear_254_1874)"/>
<path d="M362.083 213.037L342.984 206.511L336.748 199.917L324.717 193.445" stroke="url(#paint56_linear_254_1874)"/>
<path d="M359.286 216.227C357.293 213.853 350.436 208.892 338.955 208.043C327.475 207.194 323.787 204.697 323.377 203.555" stroke="url(#paint57_linear_254_1874)"/>
<path d="M361.951 211.041L346.943 196.158L342.844 190.973L332.438 188.929" stroke="url(#paint58_linear_254_1874)"/>
<path d="M358.026 212.301L353.556 201.479L349.267 197.213L347.077 182.956" stroke="url(#paint59_linear_254_1874)"/>
<path d="M355.899 210.437L349.322 200.986L328.512 190.189" stroke="url(#paint60_linear_254_1874)"/>
<path d="M372.961 241.384C372.597 233.284 367 214.662 347.522 204.974" stroke="url(#paint61_linear_254_1874)"/>
<path d="M383.941 268.723C382.124 260.992 378.869 243.1 380.391 233.38C381.912 223.659 393.879 210.78 399.673 205.555" stroke="url(#paint62_linear_254_1874)"/>
<path d="M875 253.5C875 251.833 874.1 247.9 870.5 245.5C866.9 243.1 866.333 238.5 866.5 236.5C865.167 235 861 232 855 232C855 225.2 855 214.5 855 210H846.5V195H842V210H837V245.5H835V210H833V233C830.5 232.833 825.5 231.7 825.5 228.5C825.5 225.3 825.5 199.5 825.5 187C822.167 186.833 815.5 181.9 815.5 163.5C813.9 163.5 812.167 163.5 811.5 163.5V193.5H806V232C801.167 219.167 783.8 191.8 753 185" stroke="url(#paint63_linear_254_1874)"/>
<path d="M476 232H486.5V162H489.5C488.833 155.5 491.3 142.5 506.5 142.5" stroke="url(#paint64_linear_254_1874)"/>
<path d="M695.5 208L726 193.5H730.5V206.5H733V168L748.5 183.5V227.5L753 223V163.5L755 161.5V136.5L771.5 120C775.333 119.5 783.4 119.8 785 125C785 149 785 193.667 785 213L794.5 203.5C796.333 203.333 800 204 800 208" stroke="url(#paint65_linear_254_1874)"/>
<path d="M962.543 122.725L971.444 149.431L960.354 123.747" stroke="url(#paint66_linear_254_1874)"/>
<path d="M959.77 177.157V122.579H958.019L955.83 176.428" stroke="url(#paint67_linear_254_1874)"/>
<path d="M959.916 123.893L963.71 122.287V120.244L940.799 117.764L959.916 122.725" stroke="url(#paint68_linear_254_1874)"/>
<path d="M959.77 119.66L971.737 98.5L962.689 120.244" stroke="url(#paint69_linear_254_1874)"/>
<path d="M939.314 141.1L944.92 157.919L937.935 141.743" stroke="url(#paint70_linear_254_1874)"/>
<path d="M937.568 175.381V141.008H936.465L935.086 174.921" stroke="url(#paint71_linear_254_1874)"/>
<path d="M937.659 141.835L940.049 140.824V139.538L925.619 137.975L937.659 141.1" stroke="url(#paint72_linear_254_1874)"/>
<path d="M937.567 139.17L945.104 125.843L939.405 139.537" stroke="url(#paint73_linear_254_1874)"/>
<path d="M922 187.708C958.451 187.708 988 192.105 988 197.53C988 201.719 970.387 205.295 945.584 206.708" stroke="url(#paint74_linear_254_1874)"/>
<path d="M922 174.708C963.974 174.708 998 180.273 998 187.139L987.47 198.708" stroke="url(#paint75_linear_254_1874)"/>
<path d="M900.227 160.16L906.549 178.475L898.728 160.879" stroke="url(#paint76_linear_254_1874)"/>
<path d="M898.717 197.644L898.318 160.079L897.113 160.092L895.999 197.171" stroke="url(#paint77_linear_254_1874)"/>
<path d="M898.428 160.982L901.028 159.85L901.013 158.443L885.226 156.903L898.42 160.179" stroke="url(#paint78_linear_254_1874)"/>
<path d="M898.297 158.07L906.378 143.419L900.31 158.451" stroke="url(#paint79_linear_254_1874)"/>
<path d="M884.374 172.976L888.356 184.511L883.43 173.429" stroke="url(#paint80_linear_254_1874)"/>
<path d="M883.423 196.583L883.171 172.925L882.412 172.933L881.711 196.285" stroke="url(#paint81_linear_254_1874)"/>
<path d="M883.24 173.494L884.878 172.781L884.868 171.895L874.926 170.925L883.235 172.988" stroke="url(#paint82_linear_254_1874)"/>
<path d="M883.158 171.66L888.247 162.433L884.425 171.9" stroke="url(#paint83_linear_254_1874)"/>
<path d="M872.798 205.181C897.886 204.915 918.256 207.726 918.295 211.46C918.326 214.343 906.23 216.933 889.169 218.086" stroke="url(#paint84_linear_254_1874)"/>
<path d="M872.703 196.234C901.592 195.927 925.052 199.509 925.102 204.235L917.939 212.274" stroke="url(#paint85_linear_254_1874)"/>
<path d="M603 422.25C768.993 422.25 919.292 409.656 1028.11 389.287C1082.51 379.103 1126.58 366.969 1157.07 353.476C1172.32 346.73 1184.21 339.627 1192.3 332.226C1200.38 324.827 1204.75 317.058 1204.75 309C1204.75 300.942 1200.38 293.173 1192.3 285.774C1184.21 278.373 1172.32 271.27 1157.07 264.524C1126.58 251.031 1082.51 238.897 1028.11 228.713C919.292 208.344 768.993 195.75 603 195.75C437.007 195.75 286.708 208.344 177.891 228.713C123.488 238.897 79.4157 251.031 48.926 264.524C33.6838 271.27 21.7943 278.373 13.704 285.774C5.61512 293.173 1.25 300.942 1.25 309C1.25 317.058 5.61512 324.827 13.704 332.226C21.7943 339.627 33.6838 346.73 48.926 353.476C79.4157 366.969 123.488 379.103 177.891 389.287C286.708 409.656 437.007 422.25 603 422.25Z" stroke="url(#paint86_linear_254_1874)" stroke-width="1.5"/>
<path d="M603 375C730.872 375 846.651 366.492 930.471 352.734C972.378 345.855 1006.32 337.66 1029.8 328.549C1041.53 323.994 1050.68 319.2 1056.91 314.207C1063.12 309.219 1066.5 303.968 1066.5 298.5C1066.5 293.032 1063.12 287.781 1056.91 282.793C1050.68 277.8 1041.53 273.006 1029.8 268.451C1006.32 259.34 972.378 251.145 930.471 244.266C846.651 230.508 730.872 222 603 222C475.128 222 359.349 230.508 275.529 244.266C233.622 251.145 199.68 259.34 176.204 268.451C164.468 273.006 155.318 277.8 149.094 282.793C142.876 287.781 139.5 293.032 139.5 298.5C139.5 303.968 142.876 309.219 149.094 314.207C155.318 319.2 164.468 323.994 176.204 328.549C199.68 337.66 233.622 345.855 275.529 352.734C359.349 366.492 475.128 375 603 375Z" stroke="url(#paint87_linear_254_1874)"/>
<path d="M603 375C730.872 375 846.651 366.492 930.471 352.734C972.378 345.855 1006.32 337.66 1029.8 328.549C1041.53 323.994 1050.68 319.2 1056.91 314.207C1063.12 309.219 1066.5 303.968 1066.5 298.5C1066.5 293.032 1063.12 287.781 1056.91 282.793C1050.68 277.8 1041.53 273.006 1029.8 268.451C1006.32 259.34 972.378 251.145 930.471 244.266C846.651 230.508 730.872 222 603 222C475.128 222 359.349 230.508 275.529 244.266C233.622 251.145 199.68 259.34 176.204 268.451C164.468 273.006 155.318 277.8 149.094 282.793C142.876 287.781 139.5 293.032 139.5 298.5C139.5 303.968 142.876 309.219 149.094 314.207C155.318 319.2 164.468 323.994 176.204 328.549C199.68 337.66 233.622 345.855 275.529 352.734C359.349 366.492 475.128 375 603 375Z" stroke="url(#paint88_linear_254_1874)"/>
<path d="M603 375C730.872 375 846.651 366.492 930.471 352.734C972.378 345.855 1006.32 337.66 1029.8 328.549C1041.53 323.994 1050.68 319.2 1056.91 314.207C1063.12 309.219 1066.5 303.968 1066.5 298.5C1066.5 293.032 1063.12 287.781 1056.91 282.793C1050.68 277.8 1041.53 273.006 1029.8 268.451C1006.32 259.34 972.378 251.145 930.471 244.266C846.651 230.508 730.872 222 603 222C475.128 222 359.349 230.508 275.529 244.266C233.622 251.145 199.68 259.34 176.204 268.451C164.468 273.006 155.318 277.8 149.094 282.793C142.876 287.781 139.5 293.032 139.5 298.5C139.5 303.968 142.876 309.219 149.094 314.207C155.318 319.2 164.468 323.994 176.204 328.549C199.68 337.66 233.622 345.855 275.529 352.734C359.349 366.492 475.128 375 603 375Z" stroke="url(#paint89_linear_254_1874)"/>
<path d="M603 375C730.872 375 846.651 366.492 930.471 352.734C972.378 345.855 1006.32 337.66 1029.8 328.549C1041.53 323.994 1050.68 319.2 1056.91 314.207C1063.12 309.219 1066.5 303.968 1066.5 298.5C1066.5 293.032 1063.12 287.781 1056.91 282.793C1050.68 277.8 1041.53 273.006 1029.8 268.451C1006.32 259.34 972.378 251.145 930.471 244.266C846.651 230.508 730.872 222 603 222C475.128 222 359.349 230.508 275.529 244.266C233.622 251.145 199.68 259.34 176.204 268.451C164.468 273.006 155.318 277.8 149.094 282.793C142.876 287.781 139.5 293.032 139.5 298.5C139.5 303.968 142.876 309.219 149.094 314.207C155.318 319.2 164.468 323.994 176.204 328.549C199.68 337.66 233.622 345.855 275.529 352.734C359.349 366.492 475.128 375 603 375Z" stroke="url(#paint90_linear_254_1874)"/>
<g opacity="0.5">
<path d="M649.5 313.999C796.986 310.787 910 292.535 910 270.5C910 246.199 772.551 226.5 603 226.5C433.449 226.5 296 246.199 296 270.5C296 285.29 346.917 298.376 425 306.354" stroke="url(#paint91_linear_254_1874)"/>
<path d="M649.5 313.999C796.986 310.787 910 292.535 910 270.5C910 246.199 772.551 226.5 603 226.5C433.449 226.5 296 246.199 296 270.5C296 285.29 346.917 298.376 425 306.354" stroke="url(#paint92_linear_254_1874)"/>
<path d="M649.5 313.999C796.986 310.787 910 292.535 910 270.5C910 246.199 772.551 226.5 603 226.5C433.449 226.5 296 246.199 296 270.5C296 285.29 346.917 298.376 425 306.354" stroke="url(#paint93_linear_254_1874)"/>
<path d="M649.5 313.999C796.986 310.787 910 292.535 910 270.5C910 246.199 772.551 226.5 603 226.5C433.449 226.5 296 246.199 296 270.5C296 285.29 346.917 298.376 425 306.354" stroke="url(#paint94_linear_254_1874)"/>
</g>
<path d="M536 312C563.906 312 589.18 310.432 607.486 307.895C616.636 306.627 624.066 305.113 629.219 303.425C631.792 302.581 633.827 301.685 635.228 300.735C636.609 299.8 637.5 298.726 637.5 297.5C637.5 296.274 636.609 295.2 635.228 294.265C633.827 293.315 631.792 292.419 629.219 291.575C624.066 289.887 616.636 288.373 607.486 287.105C589.18 284.568 563.906 283 536 283C508.094 283 482.82 284.568 464.514 287.105C455.364 288.373 447.934 289.887 442.781 291.575C440.208 292.419 438.173 293.315 436.772 294.265C435.391 295.2 434.5 296.274 434.5 297.5C434.5 298.726 435.391 299.8 436.772 300.735C438.173 301.685 440.208 302.581 442.781 303.425C447.934 305.113 455.364 306.627 464.514 307.895C482.82 310.432 508.094 312 536 312Z" stroke="url(#paint95_linear_254_1874)"/>
<path d="M536 312C563.906 312 589.18 310.432 607.486 307.895C616.636 306.627 624.066 305.113 629.219 303.425C631.792 302.581 633.827 301.685 635.228 300.735C636.609 299.8 637.5 298.726 637.5 297.5C637.5 296.274 636.609 295.2 635.228 294.265C633.827 293.315 631.792 292.419 629.219 291.575C624.066 289.887 616.636 288.373 607.486 287.105C589.18 284.568 563.906 283 536 283C508.094 283 482.82 284.568 464.514 287.105C455.364 288.373 447.934 289.887 442.781 291.575C440.208 292.419 438.173 293.315 436.772 294.265C435.391 295.2 434.5 296.274 434.5 297.5C434.5 298.726 435.391 299.8 436.772 300.735C438.173 301.685 440.208 302.581 442.781 303.425C447.934 305.113 455.364 306.627 464.514 307.895C482.82 310.432 508.094 312 536 312Z" stroke="url(#paint96_linear_254_1874)"/>
<path d="M536 312C563.906 312 589.18 310.432 607.486 307.895C616.636 306.627 624.066 305.113 629.219 303.425C631.792 302.581 633.827 301.685 635.228 300.735C636.609 299.8 637.5 298.726 637.5 297.5C637.5 296.274 636.609 295.2 635.228 294.265C633.827 293.315 631.792 292.419 629.219 291.575C624.066 289.887 616.636 288.373 607.486 287.105C589.18 284.568 563.906 283 536 283C508.094 283 482.82 284.568 464.514 287.105C455.364 288.373 447.934 289.887 442.781 291.575C440.208 292.419 438.173 293.315 436.772 294.265C435.391 295.2 434.5 296.274 434.5 297.5C434.5 298.726 435.391 299.8 436.772 300.735C438.173 301.685 440.208 302.581 442.781 303.425C447.934 305.113 455.364 306.627 464.514 307.895C482.82 310.432 508.094 312 536 312Z" stroke="url(#paint97_linear_254_1874)"/>
<path d="M536 312C563.906 312 589.18 310.432 607.486 307.895C616.636 306.627 624.066 305.113 629.219 303.425C631.792 302.581 633.827 301.685 635.228 300.735C636.609 299.8 637.5 298.726 637.5 297.5C637.5 296.274 636.609 295.2 635.228 294.265C633.827 293.315 631.792 292.419 629.219 291.575C624.066 289.887 616.636 288.373 607.486 287.105C589.18 284.568 563.906 283 536 283C508.094 283 482.82 284.568 464.514 287.105C455.364 288.373 447.934 289.887 442.781 291.575C440.208 292.419 438.173 293.315 436.772 294.265C435.391 295.2 434.5 296.274 434.5 297.5C434.5 298.726 435.391 299.8 436.772 300.735C438.173 301.685 440.208 302.581 442.781 303.425C447.934 305.113 455.364 306.627 464.514 307.895C482.82 310.432 508.094 312 536 312Z" stroke="url(#paint98_linear_254_1874)"/>
<path d="M536 271C556.174 271 574.448 269.88 587.687 268.066C594.303 267.16 599.682 266.078 603.417 264.868C605.282 264.264 606.766 263.619 607.795 262.931C608.801 262.257 609.5 261.453 609.5 260.5C609.5 259.547 608.801 258.743 607.795 258.069C606.766 257.381 605.282 256.736 603.417 256.132C599.682 254.922 594.303 253.84 587.687 252.934C574.448 251.12 556.174 250 536 250C515.826 250 497.552 251.12 484.313 252.934C477.697 253.84 472.318 254.922 468.583 256.132C466.718 256.736 465.234 257.381 464.205 258.069C463.199 258.743 462.5 259.547 462.5 260.5C462.5 261.453 463.199 262.257 464.205 262.931C465.234 263.619 466.718 264.264 468.583 264.868C472.318 266.078 477.697 267.16 484.313 268.066C497.552 269.88 515.826 271 536 271Z" stroke="url(#paint99_linear_254_1874)"/>
<path d="M536 271C556.174 271 574.448 269.88 587.687 268.066C594.303 267.16 599.682 266.078 603.417 264.868C605.282 264.264 606.766 263.619 607.795 262.931C608.801 262.257 609.5 261.453 609.5 260.5C609.5 259.547 608.801 258.743 607.795 258.069C606.766 257.381 605.282 256.736 603.417 256.132C599.682 254.922 594.303 253.84 587.687 252.934C574.448 251.12 556.174 250 536 250C515.826 250 497.552 251.12 484.313 252.934C477.697 253.84 472.318 254.922 468.583 256.132C466.718 256.736 465.234 257.381 464.205 258.069C463.199 258.743 462.5 259.547 462.5 260.5C462.5 261.453 463.199 262.257 464.205 262.931C465.234 263.619 466.718 264.264 468.583 264.868C472.318 266.078 477.697 267.16 484.313 268.066C497.552 269.88 515.826 271 536 271Z" stroke="url(#paint100_linear_254_1874)"/>
<path d="M536 271C556.174 271 574.448 269.88 587.687 268.066C594.303 267.16 599.682 266.078 603.417 264.868C605.282 264.264 606.766 263.619 607.795 262.931C608.801 262.257 609.5 261.453 609.5 260.5C609.5 259.547 608.801 258.743 607.795 258.069C606.766 257.381 605.282 256.736 603.417 256.132C599.682 254.922 594.303 253.84 587.687 252.934C574.448 251.12 556.174 250 536 250C515.826 250 497.552 251.12 484.313 252.934C477.697 253.84 472.318 254.922 468.583 256.132C466.718 256.736 465.234 257.381 464.205 258.069C463.199 258.743 462.5 259.547 462.5 260.5C462.5 261.453 463.199 262.257 464.205 262.931C465.234 263.619 466.718 264.264 468.583 264.868C472.318 266.078 477.697 267.16 484.313 268.066C497.552 269.88 515.826 271 536 271Z" stroke="url(#paint101_linear_254_1874)"/>
<path d="M536 271C556.174 271 574.448 269.88 587.687 268.066C594.303 267.16 599.682 266.078 603.417 264.868C605.282 264.264 606.766 263.619 607.795 262.931C608.801 262.257 609.5 261.453 609.5 260.5C609.5 259.547 608.801 258.743 607.795 258.069C606.766 257.381 605.282 256.736 603.417 256.132C599.682 254.922 594.303 253.84 587.687 252.934C574.448 251.12 556.174 250 536 250C515.826 250 497.552 251.12 484.313 252.934C477.697 253.84 472.318 254.922 468.583 256.132C466.718 256.736 465.234 257.381 464.205 258.069C463.199 258.743 462.5 259.547 462.5 260.5C462.5 261.453 463.199 262.257 464.205 262.931C465.234 263.619 466.718 264.264 468.583 264.868C472.318 266.078 477.697 267.16 484.313 268.066C497.552 269.88 515.826 271 536 271Z" stroke="url(#paint102_linear_254_1874)"/>
<path d="M500 217.5C403.35 217.5 325 230.484 325 246.5C325 262.516 403.35 275.5 500 275.5" stroke="url(#paint103_linear_254_1874)"/>
<path d="M500 217.5C403.35 217.5 325 230.484 325 246.5C325 262.516 403.35 275.5 500 275.5" stroke="url(#paint104_linear_254_1874)"/>
<path d="M500 217.5C403.35 217.5 325 230.484 325 246.5C325 262.516 403.35 275.5 500 275.5" stroke="url(#paint105_linear_254_1874)"/>
<path d="M500 217.5C403.35 217.5 325 230.484 325 246.5C325 262.516 403.35 275.5 500 275.5" stroke="url(#paint106_linear_254_1874)"/>
<path d="M500 228.5C410.53 228.5 338 239.021 338 252C338 264.979 410.53 275.5 500 275.5" stroke="url(#paint107_linear_254_1874)"/>
<path d="M500 228.5C410.53 228.5 338 239.021 338 252C338 264.979 410.53 275.5 500 275.5" stroke="url(#paint108_linear_254_1874)"/>
<path d="M500 228.5C410.53 228.5 338 239.021 338 252C338 264.979 410.53 275.5 500 275.5" stroke="url(#paint109_linear_254_1874)"/>
<path d="M500 228.5C410.53 228.5 338 239.021 338 252C338 264.979 410.53 275.5 500 275.5" stroke="url(#paint110_linear_254_1874)"/>
<path d="M462 223.5V259.5" stroke="url(#paint111_linear_254_1874)"/>
<path d="M457 223.5V264.5" stroke="url(#paint112_linear_254_1874)"/>
<path d="M736.967 150.308V142.277C735.093 140.336 726.527 136.696 707.253 137.659C687.979 138.623 655.054 146.493 641 150.308" stroke="url(#paint113_linear_254_1874)"/>
<path d="M725.523 189.5L725.523 147.698" stroke="url(#paint114_linear_254_1874)"/>
<path d="M714.28 192.5L714.28 145.932" stroke="url(#paint115_linear_254_1874)"/>
<path opacity="0.9" d="M697 198L697 146" stroke="url(#paint116_linear_254_1874)"/>
<path opacity="0.7" d="M676.536 205L676.536 149.103" stroke="url(#paint117_linear_254_1874)"/>
<path opacity="0.5" d="M657.262 204L657.262 151.713" stroke="url(#paint118_linear_254_1874)"/>
<path d="M728.334 148.702C725.456 147.229 715.163 144.726 697.014 146.493C678.865 148.26 657.597 151.646 649.232 153.118" stroke="url(#paint119_linear_254_1874)"/>
<path d="M736.967 150.349C735.427 146.735 727.29 140.028 706.249 141.474C685.209 142.92 656.392 148.902 645.818 151.512" stroke="url(#paint120_linear_254_1874)"/>
<path d="M648 343.5C648 281.644 597.856 231.5 536 231.5C474.144 231.5 424 281.644 424 343.5" stroke="url(#paint121_linear_254_1874)"/>
<path d="M615 343.5C615 281.644 579.63 231.5 536 231.5C492.37 231.5 457 281.644 457 343.5" stroke="url(#paint122_linear_254_1874)"/>
<path d="M578 343.5C578 281.644 559.196 231.5 536 231.5C512.804 231.5 494 281.644 494 343.5" stroke="url(#paint123_linear_254_1874)"/>
<path d="M716.169 269.349C725.365 263.439 742.668 247.801 738.308 232.527C735.562 222.906 725.031 217.96 712.252 216.686M677 221.19C687.258 217.546 699.305 215.796 710.038 216.503" stroke="url(#paint124_linear_254_1874)"/>
<path d="M711.702 215.425L714.981 225.263L710.895 215.801" stroke="url(#paint125_linear_254_1874)"/>
<path d="M710.68 236.074V215.371H710.035L709.229 235.208" stroke="url(#paint126_linear_254_1874)"/>
<path d="M710.734 215.855L712.132 215.263V214.511L703.692 213.597L710.734 215.424" stroke="url(#paint127_linear_254_1874)"/>
<path d="M710.68 214.295L715.089 206.5L711.756 214.51" stroke="url(#paint128_linear_254_1874)"/>
<path d="M698.586 218.239L700.651 224.435L698.078 218.476" stroke="url(#paint129_linear_254_1874)"/>
<path d="M697.943 230.868V218.205H697.537L697.029 230.699" stroke="url(#paint130_linear_254_1874)"/>
<path d="M697.977 218.51L698.857 218.138V217.664L693.541 217.088L697.977 218.239" stroke="url(#paint131_linear_254_1874)"/>
<path d="M697.943 217.528L700.719 212.619L698.62 217.664" stroke="url(#paint132_linear_254_1874)"/>
<path fill-rule="evenodd" clip-rule="evenodd" d="M715.21 328.349C715.21 300.76 692.954 278.396 665.5 278.396C638.046 278.396 615.79 300.76 615.79 328.349L563 328.349C563 271.463 608.891 225.349 665.5 225.349C722.109 225.349 768 271.463 768 328.349L715.21 328.349Z" stroke="url(#paint133_linear_254_1874)"/>
<path d="M520.5 44.5V170" stroke="url(#paint134_linear_254_1874)"/>
<path d="M510 98.5L510 142.5" stroke="url(#paint135_linear_254_1874)"/>
<path d="M849 273.949V263.322C846.52 260.753 835.184 255.936 809.678 257.211C784.172 258.486 740.598 268.901 722 273.949" stroke="url(#paint136_linear_254_1874)"/>
<path d="M833.856 316.726L833.856 270.495" stroke="url(#paint137_linear_254_1874)"/>
<path d="M818.977 316.515L818.977 268.159" stroke="url(#paint138_linear_254_1874)"/>
<path opacity="0.9" d="M796.128 314.123L796.128 268.901" stroke="url(#paint139_linear_254_1874)"/>
<path opacity="0.7" d="M769.028 312.795L769.028 272.355" stroke="url(#paint140_linear_254_1874)"/>
<path opacity="0.5" d="M743.521 311.466L743.521 275.809" stroke="url(#paint141_linear_254_1874)"/>
<path d="M837.575 271.824C833.767 269.875 820.146 266.563 796.128 268.901C772.109 271.239 743.964 275.721 732.893 277.669" stroke="url(#paint142_linear_254_1874)"/>
<path d="M849 274.004C846.963 269.222 836.194 260.346 808.349 262.259C780.505 264.172 742.37 272.09 728.377 275.544" stroke="url(#paint143_linear_254_1874)"/>
<path d="M340 217.5C268.467 222.116 167.463 247.096 180.625 265.559C193.787 284.022 236.42 284.022 304.806 304.658C316.938 310.74 323.595 322.759 325.407 328.009C324.454 329.457 321.573 333.276 317.682 336.969C309.441 341.53 290.976 343.214 282.774 343.485C282.774 343.485 275.62 344.571 224.117 328.009C172.613 311.446 144 279.678 144 279.678" stroke="url(#paint144_linear_254_1874)" stroke-width="1.2"/>
<path d="M151.212 255.817C136.411 236.912 253.507 212.143 337.36 210.014" stroke="url(#paint145_linear_254_1874)"/>
<path d="M283.985 323.812C278.283 313.711 266.594 310.087 261.462 309.538C241.79 306.519 210.714 298.558 188.476 290.597C166.238 282.637 144.855 269.735 144 261.5V265.892C144 266.074 144.023 266.251 144.075 266.425C151.64 291.834 227.012 312.293 240.935 315.303C254.905 318.322 256.33 318.871 261.462 323.812C265.325 327.532 282.2 331.139 286.235 331.475C286.629 331.507 287.003 331.33 287 330.935C286.992 330.012 286.364 327.902 283.985 323.812Z" fill="url(#paint146_linear_254_1874)" stroke="url(#paint147_linear_254_1874)" stroke-width="1.3"/>
<path d="M306.13 308.872C312.133 312.834 317.174 319.389 319.766 323.79C320.436 324.927 319.723 326.329 318.426 326.572L318.299 326.595C314.225 327.359 306.943 328.723 296.245 330.255C295.257 330.397 294.322 329.782 293.934 328.862C291.995 324.251 287.411 318.834 283.832 315.148C282.689 313.97 283.274 311.937 284.887 311.635C289.859 310.704 297.517 309.371 304.868 308.573C305.311 308.525 305.758 308.626 306.13 308.872Z" fill="url(#paint148_linear_254_1874)" stroke="url(#paint149_linear_254_1874)" stroke-width="1.3"/>
<defs>
<linearGradient id="paint0_linear_254_1874" x1="846.665" y1="187.312" x2="878.387" y2="182.311" gradientUnits="userSpaceOnUse">
<stop stop-color="#69C9FF"/>
<stop offset="1" stop-color="#88F1BB"/>
</linearGradient>
<linearGradient id="paint1_linear_254_1874" x1="838.946" y1="150.353" x2="915.616" y2="134.312" gradientUnits="userSpaceOnUse">
<stop stop-color="#69C9FF"/>
<stop offset="1" stop-color="#88F1BB"/>
</linearGradient>
<linearGradient id="paint2_linear_254_1874" x1="534.074" y1="30.8234" x2="607.146" y2="18.8797" gradientUnits="userSpaceOnUse">
<stop stop-color="#69C9FF"/>
<stop offset="1" stop-color="#88F1BB"/>
</linearGradient>
<linearGradient id="paint3_linear_254_1874" x1="546.588" y1="30.8234" x2="600.826" y2="24.3221" gradientUnits="userSpaceOnUse">
<stop stop-color="#69C9FF"/>
<stop offset="1" stop-color="#88F1BB"/>
</linearGradient>
<linearGradient id="paint4_linear_254_1874" x1="556.755" y1="30.8234" x2="595.243" y2="27.5731" gradientUnits="userSpaceOnUse">
<stop stop-color="#69C9FF"/>
<stop offset="1" stop-color="#88F1BB"/>
</linearGradient>
<linearGradient id="paint5_linear_254_1874" x1="567.704" y1="30.8234" x2="588.916" y2="29.841" gradientUnits="userSpaceOnUse">
<stop stop-color="#69C9FF"/>
<stop offset="1" stop-color="#88F1BB"/>
</linearGradient>
<linearGradient id="paint6_linear_254_1874" x1="558.761" y1="33.225" x2="610.471" y2="24.6189" gradientUnits="userSpaceOnUse">
<stop stop-color="#69C9FF"/>
<stop offset="1" stop-color="#88F1BB"/>
</linearGradient>
<linearGradient id="paint7_linear_254_1874" x1="595.376" y1="102.056" x2="634.795" y2="68.4046" gradientUnits="userSpaceOnUse">
<stop stop-color="#69C9FF"/>
<stop offset="1" stop-color="#88F1BB"/>
</linearGradient>
<linearGradient id="paint8_linear_254_1874" x1="515.191" y1="-94.7087" x2="556.335" y2="-96.9184" gradientUnits="userSpaceOnUse">
<stop stop-color="#69C9FF"/>
<stop offset="1" stop-color="#88F1BB"/>
</linearGradient>
<linearGradient id="paint9_linear_254_1874" x1="590.424" y1="86.4135" x2="564.239" y2="85.0228" gradientUnits="userSpaceOnUse">
<stop stop-color="#69C9FF"/>
<stop offset="1" stop-color="#88F1BB"/>
</linearGradient>
<linearGradient id="paint10_linear_254_1874" x1="515.191" y1="-64.0936" x2="556.309" y2="-66.5344" gradientUnits="userSpaceOnUse">
<stop stop-color="#69C9FF"/>
<stop offset="1" stop-color="#88F1BB"/>
</linearGradient>
<linearGradient id="paint11_linear_254_1874" x1="590.424" y1="106.432" x2="564.256" y2="104.892" gradientUnits="userSpaceOnUse">
<stop stop-color="#69C9FF"/>
<stop offset="1" stop-color="#88F1BB"/>
</linearGradient>
<linearGradient id="paint12_linear_254_1874" x1="515.191" y1="-34.3928" x2="556.275" y2="-37.1039" gradientUnits="userSpaceOnUse">
<stop stop-color="#69C9FF"/>
<stop offset="1" stop-color="#88F1BB"/>
</linearGradient>
<linearGradient id="paint13_linear_254_1874" x1="590.424" y1="124.504" x2="564.275" y2="122.81" gradientUnits="userSpaceOnUse">
<stop stop-color="#69C9FF"/>
<stop offset="1" stop-color="#88F1BB"/>
</linearGradient>
<linearGradient id="paint14_linear_254_1874" x1="515.191" y1="-8.93494" x2="556.235" y2="-11.9302" gradientUnits="userSpaceOnUse">
<stop stop-color="#69C9FF"/>
<stop offset="1" stop-color="#88F1BB"/>
</linearGradient>
<linearGradient id="paint15_linear_254_1874" x1="590.424" y1="141.767" x2="564.302" y2="139.878" gradientUnits="userSpaceOnUse">
<stop stop-color="#69C9FF"/>
<stop offset="1" stop-color="#88F1BB"/>
</linearGradient>
<linearGradient id="paint16_linear_254_1874" x1="515.191" y1="16.5228" x2="556.181" y2="13.1773" gradientUnits="userSpaceOnUse">
<stop stop-color="#69C9FF"/>
<stop offset="1" stop-color="#88F1BB"/>
</linearGradient>
<linearGradient id="paint17_linear_254_1874" x1="590.424" y1="156.703" x2="564.329" y2="154.636" gradientUnits="userSpaceOnUse">
<stop stop-color="#69C9FF"/>
<stop offset="1" stop-color="#88F1BB"/>
</linearGradient>
<linearGradient id="paint18_linear_254_1874" x1="404.1" y1="153.884" x2="416.564" y2="152.072" gradientUnits="userSpaceOnUse">
<stop stop-color="#69C9FF"/>
<stop offset="1" stop-color="#88F1BB"/>
</linearGradient>
<linearGradient id="paint19_linear_254_1874" x1="359.679" y1="99.3569" x2="374.084" y2="88.3191" gradientUnits="userSpaceOnUse">
<stop stop-color="#69C9FF"/>
<stop offset="1" stop-color="#88F1BB"/>
</linearGradient>
<linearGradient id="paint20_linear_254_1874" x1="355.968" y1="103.627" x2="387.992" y2="92.5664" gradientUnits="userSpaceOnUse">
<stop stop-color="#69C9FF"/>
<stop offset="1" stop-color="#88F1BB"/>
</linearGradient>
<linearGradient id="paint21_linear_254_1874" x1="427.687" y1="97.0962" x2="434.997" y2="96.2443" gradientUnits="userSpaceOnUse">
<stop stop-color="#69C9FF"/>
<stop offset="1" stop-color="#88F1BB"/>
</linearGradient>
<linearGradient id="paint22_linear_254_1874" x1="401.007" y1="95.458" x2="420.107" y2="91.6106" gradientUnits="userSpaceOnUse">
<stop stop-color="#69C9FF"/>
<stop offset="1" stop-color="#88F1BB"/>
</linearGradient>
<linearGradient id="paint23_linear_254_1874" x1="346.841" y1="109.279" x2="389.815" y2="95.7836" gradientUnits="userSpaceOnUse">
<stop stop-color="#69C9FF"/>
<stop offset="1" stop-color="#88F1BB"/>
</linearGradient>
<linearGradient id="paint24_linear_254_1874" x1="359.341" y1="166.044" x2="367.542" y2="157.412" gradientUnits="userSpaceOnUse">
<stop stop-color="#69C9FF"/>
<stop offset="1" stop-color="#88F1BB"/>
</linearGradient>
<linearGradient id="paint25_linear_254_1874" x1="329.897" y1="153.572" x2="342.532" y2="145.096" gradientUnits="userSpaceOnUse">
<stop stop-color="#69C9FF"/>
<stop offset="1" stop-color="#88F1BB"/>
</linearGradient>
<linearGradient id="paint26_linear_254_1874" x1="324" y1="140.954" x2="352.456" y2="123.273" gradientUnits="userSpaceOnUse">
<stop stop-color="#69C9FF"/>
<stop offset="1" stop-color="#88F1BB"/>
</linearGradient>
<linearGradient id="paint27_linear_254_1874" x1="326.485" y1="147.796" x2="360.819" y2="123.578" gradientUnits="userSpaceOnUse">
<stop stop-color="#69C9FF"/>
<stop offset="1" stop-color="#88F1BB"/>
</linearGradient>
<linearGradient id="paint28_linear_254_1874" x1="328.298" y1="123.611" x2="366.865" y2="100.745" gradientUnits="userSpaceOnUse">
<stop stop-color="#69C9FF"/>
<stop offset="1" stop-color="#88F1BB"/>
</linearGradient>
<linearGradient id="paint29_linear_254_1874" x1="325.636" y1="142.844" x2="357.027" y2="117.556" gradientUnits="userSpaceOnUse">
<stop stop-color="#69C9FF"/>
<stop offset="1" stop-color="#88F1BB"/>
</linearGradient>
<linearGradient id="paint30_linear_254_1874" x1="342.597" y1="113.085" x2="376.789" y2="98.5588" gradientUnits="userSpaceOnUse">
<stop stop-color="#69C9FF"/>
<stop offset="1" stop-color="#88F1BB"/>
</linearGradient>
<linearGradient id="paint31_linear_254_1874" x1="371.36" y1="101.545" x2="383.778" y2="99.5415" gradientUnits="userSpaceOnUse">
<stop stop-color="#69C9FF"/>
<stop offset="1" stop-color="#88F1BB"/>
</linearGradient>
<linearGradient id="paint32_linear_254_1874" x1="334.861" y1="117.136" x2="366.569" y2="103.143" gradientUnits="userSpaceOnUse">
<stop stop-color="#69C9FF"/>
<stop offset="1" stop-color="#88F1BB"/>
</linearGradient>
<linearGradient id="paint33_linear_254_1874" x1="373.509" y1="146.505" x2="403.96" y2="138.76" gradientUnits="userSpaceOnUse">
<stop stop-color="#69C9FF"/>
<stop offset="1" stop-color="#88F1BB"/>
</linearGradient>
<linearGradient id="paint34_linear_254_1874" x1="371.645" y1="155.658" x2="401.82" y2="150.114" gradientUnits="userSpaceOnUse">
<stop stop-color="#69C9FF"/>
<stop offset="1" stop-color="#88F1BB"/>
</linearGradient>
<linearGradient id="paint35_linear_254_1874" x1="433.446" y1="149.324" x2="464.28" y2="143.789" gradientUnits="userSpaceOnUse">
<stop stop-color="#69C9FF"/>
<stop offset="1" stop-color="#88F1BB"/>
</linearGradient>
<linearGradient id="paint36_linear_254_1874" x1="398.333" y1="215.665" x2="403.789" y2="210.462" gradientUnits="userSpaceOnUse">
<stop stop-color="#69C9FF"/>
<stop offset="1" stop-color="#88F1BB"/>
</linearGradient>
<linearGradient id="paint37_linear_254_1874" x1="392.018" y1="211.069" x2="402.704" y2="204.016" gradientUnits="userSpaceOnUse">
<stop stop-color="#69C9FF"/>
<stop offset="1" stop-color="#88F1BB"/>
</linearGradient>
<linearGradient id="paint38_linear_254_1874" x1="362.818" y1="208.98" x2="369.054" y2="208.1" gradientUnits="userSpaceOnUse">
<stop stop-color="#69C9FF"/>
<stop offset="1" stop-color="#88F1BB"/>
</linearGradient>
<linearGradient id="paint39_linear_254_1874" x1="340.959" y1="181.354" x2="348.101" y2="176.098" gradientUnits="userSpaceOnUse">
<stop stop-color="#69C9FF"/>
<stop offset="1" stop-color="#88F1BB"/>
</linearGradient>
<linearGradient id="paint40_linear_254_1874" x1="339.094" y1="183.481" x2="355.152" y2="178.053" gradientUnits="userSpaceOnUse">
<stop stop-color="#69C9FF"/>
<stop offset="1" stop-color="#88F1BB"/>
</linearGradient>
<linearGradient id="paint41_linear_254_1874" x1="395.419" y1="201.826" x2="406.576" y2="195.034" gradientUnits="userSpaceOnUse">
<stop stop-color="#69C9FF"/>
<stop offset="1" stop-color="#88F1BB"/>
</linearGradient>
<linearGradient id="paint42_linear_254_1874" x1="395.747" y1="206.815" x2="404.303" y2="199.513" gradientUnits="userSpaceOnUse">
<stop stop-color="#69C9FF"/>
<stop offset="1" stop-color="#88F1BB"/>
</linearGradient>
<linearGradient id="paint43_linear_254_1874" x1="395.878" y1="208.811" x2="403.484" y2="201.777" gradientUnits="userSpaceOnUse">
<stop stop-color="#69C9FF"/>
<stop offset="1" stop-color="#88F1BB"/>
</linearGradient>
<linearGradient id="paint44_linear_254_1874" x1="382.367" y1="216.714" x2="392.119" y2="207.851" gradientUnits="userSpaceOnUse">
<stop stop-color="#69C9FF"/>
<stop offset="1" stop-color="#88F1BB"/>
</linearGradient>
<linearGradient id="paint45_linear_254_1874" x1="383.3" y1="215.651" x2="393.111" y2="206.369" gradientUnits="userSpaceOnUse">
<stop stop-color="#69C9FF"/>
<stop offset="1" stop-color="#88F1BB"/>
</linearGradient>
<linearGradient id="paint46_linear_254_1874" x1="383.103" y1="212.657" x2="395.396" y2="203.514" gradientUnits="userSpaceOnUse">
<stop stop-color="#69C9FF"/>
<stop offset="1" stop-color="#88F1BB"/>
</linearGradient>
<linearGradient id="paint47_linear_254_1874" x1="375.017" y1="181.12" x2="378.501" y2="180.737" gradientUnits="userSpaceOnUse">
<stop stop-color="#69C9FF"/>
<stop offset="1" stop-color="#88F1BB"/>
</linearGradient>
<linearGradient id="paint48_linear_254_1874" x1="361.914" y1="179.977" x2="371.469" y2="178.085" gradientUnits="userSpaceOnUse">
<stop stop-color="#69C9FF"/>
<stop offset="1" stop-color="#88F1BB"/>
</linearGradient>
<linearGradient id="paint49_linear_254_1874" x1="369.897" y1="179.452" x2="392.795" y2="172.528" gradientUnits="userSpaceOnUse">
<stop stop-color="#69C9FF"/>
<stop offset="1" stop-color="#88F1BB"/>
</linearGradient>
<linearGradient id="paint50_linear_254_1874" x1="354.507" y1="204.515" x2="359.7" y2="193.258" gradientUnits="userSpaceOnUse">
<stop stop-color="#69C9FF"/>
<stop offset="1" stop-color="#88F1BB"/>
</linearGradient>
<linearGradient id="paint51_linear_254_1874" x1="334.302" y1="186.802" x2="355.802" y2="180.121" gradientUnits="userSpaceOnUse">
<stop stop-color="#69C9FF"/>
<stop offset="1" stop-color="#88F1BB"/>
</linearGradient>
<linearGradient id="paint52_linear_254_1874" x1="340.196" y1="215.477" x2="343.389" y2="211.114" gradientUnits="userSpaceOnUse">
<stop stop-color="#69C9FF"/>
<stop offset="1" stop-color="#88F1BB"/>
</linearGradient>
<linearGradient id="paint53_linear_254_1874" x1="325.701" y1="208.413" x2="332.411" y2="204.097" gradientUnits="userSpaceOnUse">
<stop stop-color="#69C9FF"/>
<stop offset="1" stop-color="#88F1BB"/>
</linearGradient>
<linearGradient id="paint54_linear_254_1874" x1="323.312" y1="202.557" x2="337.466" y2="193.713" gradientUnits="userSpaceOnUse">
<stop stop-color="#69C9FF"/>
<stop offset="1" stop-color="#88F1BB"/>
</linearGradient>
<linearGradient id="paint55_linear_254_1874" x1="324.506" y1="205.485" x2="342.141" y2="193.644" gradientUnits="userSpaceOnUse">
<stop stop-color="#69C9FF"/>
<stop offset="1" stop-color="#88F1BB"/>
</linearGradient>
<linearGradient id="paint56_linear_254_1874" x1="324.717" y1="193.445" x2="344.418" y2="182.17" gradientUnits="userSpaceOnUse">
<stop stop-color="#69C9FF"/>
<stop offset="1" stop-color="#88F1BB"/>
</linearGradient>
<linearGradient id="paint57_linear_254_1874" x1="323.377" y1="203.555" x2="339.128" y2="190.979" gradientUnits="userSpaceOnUse">
<stop stop-color="#69C9FF"/>
<stop offset="1" stop-color="#88F1BB"/>
</linearGradient>
<linearGradient id="paint58_linear_254_1874" x1="332.438" y1="188.929" x2="349.523" y2="181.694" gradientUnits="userSpaceOnUse">
<stop stop-color="#69C9FF"/>
<stop offset="1" stop-color="#88F1BB"/>
</linearGradient>
<linearGradient id="paint59_linear_254_1874" x1="347.077" y1="182.956" x2="353.292" y2="181.986" gradientUnits="userSpaceOnUse">
<stop stop-color="#69C9FF"/>
<stop offset="1" stop-color="#88F1BB"/>
</linearGradient>
<linearGradient id="paint60_linear_254_1874" x1="328.512" y1="190.189" x2="344.327" y2="183.416" gradientUnits="userSpaceOnUse">
<stop stop-color="#69C9FF"/>
<stop offset="1" stop-color="#88F1BB"/>
</linearGradient>
<linearGradient id="paint61_linear_254_1874" x1="347.522" y1="204.974" x2="362.932" y2="201.133" gradientUnits="userSpaceOnUse">
<stop stop-color="#69C9FF"/>
<stop offset="1" stop-color="#88F1BB"/>
</linearGradient>
<linearGradient id="paint62_linear_254_1874" x1="377.72" y1="206.998" x2="392.846" y2="204.384" gradientUnits="userSpaceOnUse">
<stop stop-color="#69C9FF"/>
<stop offset="1" stop-color="#88F1BB"/>
</linearGradient>
<linearGradient id="paint63_linear_254_1874" x1="881.5" y1="286" x2="890.864" y2="227.011" gradientUnits="userSpaceOnUse">
<stop stop-color="#69C9FF" stop-opacity="0"/>
<stop offset="1" stop-color="#88F1BB"/>
</linearGradient>
<linearGradient id="paint64_linear_254_1874" x1="476" y1="142.5" x2="497.181" y2="140.346" gradientUnits="userSpaceOnUse">
<stop stop-color="#69C9FF"/>
<stop offset="1" stop-color="#88F1BB"/>
</linearGradient>
<linearGradient id="paint65_linear_254_1874" x1="695.5" y1="225.097" x2="720.466" y2="133.476" gradientUnits="userSpaceOnUse">
<stop stop-color="#69C9FF" stop-opacity="0"/>
<stop offset="1" stop-color="#88F1BB"/>
</linearGradient>
<linearGradient id="paint66_linear_254_1874" x1="971.444" y1="122.725" x2="963.78" y2="121.776" gradientUnits="userSpaceOnUse">
<stop stop-color="#69C9FF"/>
<stop offset="1" stop-color="#88F1BB"/>
</linearGradient>
<linearGradient id="paint67_linear_254_1874" x1="959.77" y1="122.579" x2="957.007" y2="122.52" gradientUnits="userSpaceOnUse">
<stop stop-color="#69C9FF"/>
<stop offset="1" stop-color="#88F1BB"/>
</linearGradient>
<linearGradient id="paint68_linear_254_1874" x1="963.71" y1="117.764" x2="956.546" y2="109.773" gradientUnits="userSpaceOnUse">
<stop stop-color="#69C9FF"/>
<stop offset="1" stop-color="#88F1BB"/>
</linearGradient>
<linearGradient id="paint69_linear_254_1874" x1="971.737" y1="98.5" x2="963.561" y2="97.1576" gradientUnits="userSpaceOnUse">
<stop stop-color="#69C9FF"/>
<stop offset="1" stop-color="#88F1BB"/>
</linearGradient>
<linearGradient id="paint70_linear_254_1874" x1="944.92" y1="141.1" x2="940.093" y2="140.502" gradientUnits="userSpaceOnUse">
<stop stop-color="#69C9FF"/>
<stop offset="1" stop-color="#88F1BB"/>
</linearGradient>
<linearGradient id="paint71_linear_254_1874" x1="937.568" y1="141.008" x2="935.827" y2="140.97" gradientUnits="userSpaceOnUse">
<stop stop-color="#69C9FF"/>
<stop offset="1" stop-color="#88F1BB"/>
</linearGradient>
<linearGradient id="paint72_linear_254_1874" x1="940.049" y1="137.975" x2="935.537" y2="132.943" gradientUnits="userSpaceOnUse">
<stop stop-color="#69C9FF"/>
<stop offset="1" stop-color="#88F1BB"/>
</linearGradient>
<linearGradient id="paint73_linear_254_1874" x1="945.104" y1="125.843" x2="939.954" y2="124.998" gradientUnits="userSpaceOnUse">
<stop stop-color="#69C9FF"/>
<stop offset="1" stop-color="#88F1BB"/>
</linearGradient>
<linearGradient id="paint74_linear_254_1874" x1="988" y1="187.708" x2="965.673" y2="164.568" gradientUnits="userSpaceOnUse">
<stop stop-color="#69C9FF"/>
<stop offset="1" stop-color="#88F1BB"/>
</linearGradient>
<linearGradient id="paint75_linear_254_1874" x1="998" y1="174.708" x2="969.825" y2="148.088" gradientUnits="userSpaceOnUse">
<stop stop-color="#69C9FF"/>
<stop offset="1" stop-color="#88F1BB"/>
</linearGradient>
<linearGradient id="paint76_linear_254_1874" x1="906.354" y1="160.095" x2="901.072" y2="159.497" gradientUnits="userSpaceOnUse">
<stop stop-color="#69C9FF"/>
<stop offset="1" stop-color="#88F1BB"/>
</linearGradient>
<linearGradient id="paint77_linear_254_1874" x1="898.318" y1="160.079" x2="896.416" y2="160.059" gradientUnits="userSpaceOnUse">
<stop stop-color="#69C9FF"/>
<stop offset="1" stop-color="#88F1BB"/>
</linearGradient>
<linearGradient id="paint78_linear_254_1874" x1="900.995" y1="156.736" x2="896.006" y2="151.289" gradientUnits="userSpaceOnUse">
<stop stop-color="#69C9FF"/>
<stop offset="1" stop-color="#88F1BB"/>
</linearGradient>
<linearGradient id="paint79_linear_254_1874" x1="906.378" y1="143.419" x2="900.741" y2="142.555" gradientUnits="userSpaceOnUse">
<stop stop-color="#69C9FF"/>
<stop offset="1" stop-color="#88F1BB"/>
</linearGradient>
<linearGradient id="paint80_linear_254_1874" x1="888.233" y1="172.935" x2="884.906" y2="172.559" gradientUnits="userSpaceOnUse">
<stop stop-color="#69C9FF"/>
<stop offset="1" stop-color="#88F1BB"/>
</linearGradient>
<linearGradient id="paint81_linear_254_1874" x1="883.171" y1="172.925" x2="881.973" y2="172.912" gradientUnits="userSpaceOnUse">
<stop stop-color="#69C9FF"/>
<stop offset="1" stop-color="#88F1BB"/>
</linearGradient>
<linearGradient id="paint82_linear_254_1874" x1="884.857" y1="170.82" x2="881.715" y2="167.389" gradientUnits="userSpaceOnUse">
<stop stop-color="#69C9FF"/>
<stop offset="1" stop-color="#88F1BB"/>
</linearGradient>
<linearGradient id="paint83_linear_254_1874" x1="888.247" y1="162.433" x2="884.697" y2="161.889" gradientUnits="userSpaceOnUse">
<stop stop-color="#69C9FF"/>
<stop offset="1" stop-color="#88F1BB"/>
</linearGradient>
<linearGradient id="paint84_linear_254_1874" x1="918.224" y1="204.699" x2="902.687" y2="188.936" gradientUnits="userSpaceOnUse">
<stop stop-color="#69C9FF"/>
<stop offset="1" stop-color="#88F1BB"/>
</linearGradient>
<linearGradient id="paint85_linear_254_1874" x1="925.011" y1="195.678" x2="905.425" y2="177.563" gradientUnits="userSpaceOnUse">
<stop stop-color="#69C9FF"/>
<stop offset="1" stop-color="#88F1BB"/>
</linearGradient>
<linearGradient id="paint86_linear_254_1874" x1="354.001" y1="247" x2="527.702" y2="-19.4254" gradientUnits="userSpaceOnUse">
<stop stop-color="#69C9FF" stop-opacity="0.24"/>
<stop offset="1" stop-color="#88F1BB"/>
</linearGradient>
<linearGradient id="paint87_linear_254_1874" x1="653.845" y1="232.633" x2="656.379" y2="320.303" gradientUnits="userSpaceOnUse">
<stop stop-color="#69C9FF" stop-opacity="0"/>
<stop offset="1" stop-color="#88F1BB"/>
</linearGradient>
<linearGradient id="paint88_linear_254_1874" x1="653.845" y1="232.633" x2="656.379" y2="320.303" gradientUnits="userSpaceOnUse">
<stop stop-color="#69C9FF" stop-opacity="0"/>
<stop offset="1" stop-color="#88F1BB"/>
</linearGradient>
<linearGradient id="paint89_linear_254_1874" x1="653.845" y1="232.633" x2="656.379" y2="320.303" gradientUnits="userSpaceOnUse">
<stop stop-color="#69C9FF" stop-opacity="0"/>
<stop offset="1" stop-color="#88F1BB"/>
</linearGradient>
<linearGradient id="paint90_linear_254_1874" x1="653.845" y1="232.633" x2="656.379" y2="320.303" gradientUnits="userSpaceOnUse">
<stop stop-color="#69C9FF" stop-opacity="0"/>
<stop offset="1" stop-color="#88F1BB"/>
</linearGradient>
<linearGradient id="paint91_linear_254_1874" x1="636.714" y1="232.367" x2="637.995" y2="283.133" gradientUnits="userSpaceOnUse">
<stop stop-color="#69C9FF" stop-opacity="0"/>
<stop offset="1" stop-color="#88F1BB"/>
</linearGradient>
<linearGradient id="paint92_linear_254_1874" x1="636.714" y1="232.367" x2="637.995" y2="283.133" gradientUnits="userSpaceOnUse">
<stop stop-color="#69C9FF" stop-opacity="0"/>
<stop offset="1" stop-color="#88F1BB"/>
</linearGradient>
<linearGradient id="paint93_linear_254_1874" x1="636.714" y1="232.367" x2="637.995" y2="283.133" gradientUnits="userSpaceOnUse">
<stop stop-color="#69C9FF" stop-opacity="0"/>
<stop offset="1" stop-color="#88F1BB"/>
</linearGradient>
<linearGradient id="paint94_linear_254_1874" x1="636.714" y1="232.367" x2="637.995" y2="283.133" gradientUnits="userSpaceOnUse">
<stop stop-color="#69C9FF" stop-opacity="0"/>
<stop offset="1" stop-color="#88F1BB"/>
</linearGradient>
<linearGradient id="paint95_linear_254_1874" x1="547.092" y1="285.367" x2="547.486" y2="301.52" gradientUnits="userSpaceOnUse">
<stop stop-color="#69C9FF" stop-opacity="0"/>
<stop offset="1" stop-color="#88F1BB"/>
</linearGradient>
<linearGradient id="paint96_linear_254_1874" x1="547.092" y1="285.367" x2="547.486" y2="301.52" gradientUnits="userSpaceOnUse">
<stop stop-color="#69C9FF" stop-opacity="0"/>
<stop offset="1" stop-color="#88F1BB"/>
</linearGradient>
<linearGradient id="paint97_linear_254_1874" x1="547.092" y1="285.367" x2="547.486" y2="301.52" gradientUnits="userSpaceOnUse">
<stop stop-color="#69C9FF" stop-opacity="0"/>
<stop offset="1" stop-color="#88F1BB"/>
</linearGradient>
<linearGradient id="paint98_linear_254_1874" x1="568" y1="283.5" x2="567.082" y2="305.743" gradientUnits="userSpaceOnUse">
<stop stop-color="#69C9FF" stop-opacity="0"/>
<stop offset="1" stop-color="#88F1BB"/>
</linearGradient>
<linearGradient id="paint99_linear_254_1874" x1="544.017" y1="251.833" x2="544.295" y2="263.372" gradientUnits="userSpaceOnUse">
<stop stop-color="#69C9FF" stop-opacity="0"/>
<stop offset="1" stop-color="#88F1BB"/>
</linearGradient>
<linearGradient id="paint100_linear_254_1874" x1="544.017" y1="251.833" x2="544.295" y2="263.372" gradientUnits="userSpaceOnUse">
<stop stop-color="#69C9FF" stop-opacity="0"/>
<stop offset="1" stop-color="#88F1BB"/>
</linearGradient>
<linearGradient id="paint101_linear_254_1874" x1="544.017" y1="251.833" x2="544.295" y2="263.372" gradientUnits="userSpaceOnUse">
<stop stop-color="#69C9FF" stop-opacity="0"/>
<stop offset="1" stop-color="#88F1BB"/>
</linearGradient>
<linearGradient id="paint102_linear_254_1874" x1="559.129" y1="250.5" x2="558.481" y2="266.388" gradientUnits="userSpaceOnUse">
<stop stop-color="#69C9FF" stop-opacity="0"/>
<stop offset="1" stop-color="#88F1BB"/>
</linearGradient>
<linearGradient id="paint103_linear_254_1874" x1="519.218" y1="271.633" x2="520.194" y2="238.181" gradientUnits="userSpaceOnUse">
<stop stop-color="#69C9FF" stop-opacity="0"/>
<stop offset="1" stop-color="#88F1BB"/>
</linearGradient>
<linearGradient id="paint104_linear_254_1874" x1="519.218" y1="271.633" x2="520.194" y2="238.181" gradientUnits="userSpaceOnUse">
<stop stop-color="#69C9FF" stop-opacity="0"/>
<stop offset="1" stop-color="#88F1BB"/>
</linearGradient>
<linearGradient id="paint105_linear_254_1874" x1="519.218" y1="271.633" x2="520.194" y2="238.181" gradientUnits="userSpaceOnUse">
<stop stop-color="#69C9FF" stop-opacity="0"/>
<stop offset="1" stop-color="#88F1BB"/>
</linearGradient>
<linearGradient id="paint106_linear_254_1874" x1="519.218" y1="271.633" x2="520.194" y2="238.181" gradientUnits="userSpaceOnUse">
<stop stop-color="#69C9FF" stop-opacity="0"/>
<stop offset="1" stop-color="#88F1BB"/>
</linearGradient>
<linearGradient id="paint107_linear_254_1874" x1="517.79" y1="272.367" x2="518.483" y2="245.253" gradientUnits="userSpaceOnUse">
<stop stop-color="#69C9FF" stop-opacity="0"/>
<stop offset="1" stop-color="#88F1BB"/>
</linearGradient>
<linearGradient id="paint108_linear_254_1874" x1="517.79" y1="272.367" x2="518.483" y2="245.253" gradientUnits="userSpaceOnUse">
<stop stop-color="#69C9FF" stop-opacity="0"/>
<stop offset="1" stop-color="#88F1BB"/>
</linearGradient>
<linearGradient id="paint109_linear_254_1874" x1="517.79" y1="272.367" x2="518.483" y2="245.253" gradientUnits="userSpaceOnUse">
<stop stop-color="#69C9FF" stop-opacity="0"/>
<stop offset="1" stop-color="#88F1BB"/>
</linearGradient>
<linearGradient id="paint110_linear_254_1874" x1="517.79" y1="272.367" x2="518.483" y2="245.253" gradientUnits="userSpaceOnUse">
<stop stop-color="#69C9FF" stop-opacity="0"/>
<stop offset="1" stop-color="#88F1BB"/>
</linearGradient>
<linearGradient id="paint111_linear_254_1874" x1="462" y1="223.5" x2="462.702" y2="223.494" gradientUnits="userSpaceOnUse">
<stop stop-color="#69C9FF"/>
<stop offset="1" stop-color="#88F1BB"/>
</linearGradient>
<linearGradient id="paint112_linear_254_1874" x1="457" y1="223.5" x2="457.702" y2="223.495" gradientUnits="userSpaceOnUse">
<stop stop-color="#69C9FF"/>
<stop offset="1" stop-color="#88F1BB"/>
</linearGradient>
<linearGradient id="paint113_linear_254_1874" x1="736.967" y1="137.5" x2="725.74" y2="112.402" gradientUnits="userSpaceOnUse">
<stop stop-color="#69C9FF"/>
<stop offset="1" stop-color="#88F1BB"/>
</linearGradient>
<linearGradient id="paint114_linear_254_1874" x1="725.523" y1="147.698" x2="725.523" y2="147.698" gradientUnits="userSpaceOnUse">
<stop stop-color="#69C9FF"/>
<stop offset="1" stop-color="#88F1BB"/>
</linearGradient>
<linearGradient id="paint115_linear_254_1874" x1="714.28" y1="145.932" x2="713.578" y2="145.928" gradientUnits="userSpaceOnUse">
<stop stop-color="#69C9FF"/>
<stop offset="1" stop-color="#88F1BB"/>
</linearGradient>
<linearGradient id="paint116_linear_254_1874" x1="697" y1="146" x2="697" y2="146" gradientUnits="userSpaceOnUse">
<stop stop-color="#69C9FF"/>
<stop offset="1" stop-color="#88F1BB"/>
</linearGradient>
<linearGradient id="paint117_linear_254_1874" x1="676.536" y1="149.103" x2="676.536" y2="149.103" gradientUnits="userSpaceOnUse">
<stop stop-color="#69C9FF"/>
<stop offset="1" stop-color="#88F1BB"/>
</linearGradient>
<linearGradient id="paint118_linear_254_1874" x1="657.262" y1="151.713" x2="657.262" y2="151.713" gradientUnits="userSpaceOnUse">
<stop stop-color="#69C9FF"/>
<stop offset="1" stop-color="#88F1BB"/>
</linearGradient>
<linearGradient id="paint119_linear_254_1874" x1="728.334" y1="145.885" x2="723.568" y2="130.336" gradientUnits="userSpaceOnUse">
<stop stop-color="#69C9FF"/>
<stop offset="1" stop-color="#88F1BB"/>
</linearGradient>
<linearGradient id="paint120_linear_254_1874" x1="736.967" y1="141.273" x2="729.026" y2="120.183" gradientUnits="userSpaceOnUse">
<stop stop-color="#69C9FF"/>
<stop offset="1" stop-color="#88F1BB"/>
</linearGradient>
<linearGradient id="paint121_linear_254_1874" x1="424" y1="341" x2="437.306" y2="240.378" gradientUnits="userSpaceOnUse">
<stop stop-color="#69C9FF" stop-opacity="0"/>
<stop offset="1" stop-color="#88F1BB"/>
</linearGradient>
<linearGradient id="paint122_linear_254_1874" x1="457" y1="341" x2="475.542" y2="242.095" gradientUnits="userSpaceOnUse">
<stop stop-color="#69C9FF" stop-opacity="0"/>
<stop offset="1" stop-color="#88F1BB"/>
</linearGradient>
<linearGradient id="paint123_linear_254_1874" x1="494" y1="341" x2="526.11" y2="249.942" gradientUnits="userSpaceOnUse">
<stop stop-color="#69C9FF" stop-opacity="0"/>
<stop offset="1" stop-color="#88F1BB"/>
</linearGradient>
<linearGradient id="paint124_linear_254_1874" x1="739.563" y1="214.761" x2="684.483" y2="183.78" gradientUnits="userSpaceOnUse">
<stop stop-color="#69C9FF"/>
<stop offset="1" stop-color="#88F1BB"/>
</linearGradient>
<linearGradient id="paint125_linear_254_1874" x1="714.981" y1="215.425" x2="712.158" y2="215.075" gradientUnits="userSpaceOnUse">
<stop stop-color="#69C9FF"/>
<stop offset="1" stop-color="#88F1BB"/>
</linearGradient>
<linearGradient id="paint126_linear_254_1874" x1="710.68" y1="215.371" x2="709.662" y2="215.349" gradientUnits="userSpaceOnUse">
<stop stop-color="#69C9FF"/>
<stop offset="1" stop-color="#88F1BB"/>
</linearGradient>
<linearGradient id="paint127_linear_254_1874" x1="712.132" y1="213.597" x2="709.493" y2="210.653" gradientUnits="userSpaceOnUse">
<stop stop-color="#69C9FF"/>
<stop offset="1" stop-color="#88F1BB"/>
</linearGradient>
<linearGradient id="paint128_linear_254_1874" x1="715.089" y1="206.5" x2="712.077" y2="206.005" gradientUnits="userSpaceOnUse">
<stop stop-color="#69C9FF"/>
<stop offset="1" stop-color="#88F1BB"/>
</linearGradient>
<linearGradient id="paint129_linear_254_1874" x1="700.651" y1="218.239" x2="698.873" y2="218.019" gradientUnits="userSpaceOnUse">
<stop stop-color="#69C9FF"/>
<stop offset="1" stop-color="#88F1BB"/>
</linearGradient>
<linearGradient id="paint130_linear_254_1874" x1="697.943" y1="218.205" x2="697.302" y2="218.191" gradientUnits="userSpaceOnUse">
<stop stop-color="#69C9FF"/>
<stop offset="1" stop-color="#88F1BB"/>
</linearGradient>
<linearGradient id="paint131_linear_254_1874" x1="698.857" y1="217.088" x2="697.195" y2="215.234" gradientUnits="userSpaceOnUse">
<stop stop-color="#69C9FF"/>
<stop offset="1" stop-color="#88F1BB"/>
</linearGradient>
<linearGradient id="paint132_linear_254_1874" x1="700.719" y1="212.619" x2="698.822" y2="212.307" gradientUnits="userSpaceOnUse">
<stop stop-color="#69C9FF"/>
<stop offset="1" stop-color="#88F1BB"/>
</linearGradient>
<linearGradient id="paint133_linear_254_1874" x1="625.5" y1="291.5" x2="624.888" y2="243.626" gradientUnits="userSpaceOnUse">
<stop stop-color="#69C9FF" stop-opacity="0"/>
<stop offset="1" stop-color="#88F1BB"/>
</linearGradient>
<linearGradient id="paint134_linear_254_1874" x1="519.718" y1="-7.49759" x2="520.968" y2="-7.50133" gradientUnits="userSpaceOnUse">
<stop stop-color="#69C9FF"/>
<stop offset="1" stop-color="#88F1BB"/>
</linearGradient>
<linearGradient id="paint135_linear_254_1874" x1="509.218" y1="80.2698" x2="510.468" y2="80.2591" gradientUnits="userSpaceOnUse">
<stop stop-color="#69C9FF"/>
<stop offset="1" stop-color="#88F1BB"/>
</linearGradient>
<linearGradient id="paint136_linear_254_1874" x1="849" y1="257" x2="834.143" y2="223.786" gradientUnits="userSpaceOnUse">
<stop stop-color="#69C9FF"/>
<stop offset="1" stop-color="#88F1BB"/>
</linearGradient>
<linearGradient id="paint137_linear_254_1874" x1="833.856" y1="270.495" x2="833.856" y2="270.495" gradientUnits="userSpaceOnUse">
<stop stop-color="#69C9FF"/>
<stop offset="1" stop-color="#88F1BB"/>
</linearGradient>
<linearGradient id="paint138_linear_254_1874" x1="818.977" y1="268.159" x2="818.977" y2="268.159" gradientUnits="userSpaceOnUse">
<stop stop-color="#69C9FF"/>
<stop offset="1" stop-color="#88F1BB"/>
</linearGradient>
<linearGradient id="paint139_linear_254_1874" x1="796.128" y1="268.901" x2="796.128" y2="268.901" gradientUnits="userSpaceOnUse">
<stop stop-color="#69C9FF"/>
<stop offset="1" stop-color="#88F1BB"/>
</linearGradient>
<linearGradient id="paint140_linear_254_1874" x1="769.028" y1="272.355" x2="768.326" y2="272.35" gradientUnits="userSpaceOnUse">
<stop stop-color="#69C9FF"/>
<stop offset="1" stop-color="#88F1BB"/>
</linearGradient>
<linearGradient id="paint141_linear_254_1874" x1="743.521" y1="275.809" x2="743.521" y2="275.809" gradientUnits="userSpaceOnUse">
<stop stop-color="#69C9FF"/>
<stop offset="1" stop-color="#88F1BB"/>
</linearGradient>
<linearGradient id="paint142_linear_254_1874" x1="837.575" y1="268.097" x2="831.269" y2="247.519" gradientUnits="userSpaceOnUse">
<stop stop-color="#69C9FF"/>
<stop offset="1" stop-color="#88F1BB"/>
</linearGradient>
<linearGradient id="paint143_linear_254_1874" x1="849" y1="261.993" x2="838.491" y2="234.083" gradientUnits="userSpaceOnUse">
<stop stop-color="#69C9FF"/>
<stop offset="1" stop-color="#88F1BB"/>
</linearGradient>
<linearGradient id="paint144_linear_254_1874" x1="290.213" y1="235.421" x2="261.633" y2="258.872" gradientUnits="userSpaceOnUse">
<stop stop-color="#69C9FF" stop-opacity="0"/>
<stop offset="1" stop-color="#88F1BB"/>
</linearGradient>
<linearGradient id="paint145_linear_254_1874" x1="341.39" y1="210.583" x2="184.973" y2="152.404" gradientUnits="userSpaceOnUse">
<stop stop-color="#69C9FF"/>
<stop offset="1" stop-color="#88F1BB"/>
</linearGradient>
<linearGradient id="paint146_linear_254_1874" x1="215.5" y1="261.5" x2="215.5" y2="331.5" gradientUnits="userSpaceOnUse">
<stop stop-color="#F7FDFF"/>
<stop offset="1" stop-color="#F5FFFA"/>
</linearGradient>
<linearGradient id="paint147_linear_254_1874" x1="287.85" y1="264.02" x2="193.336" y2="226.397" gradientUnits="userSpaceOnUse">
<stop stop-color="#69C9FF"/>
<stop offset="1" stop-color="#88F1BB"/>
</linearGradient>
<linearGradient id="paint148_linear_254_1874" x1="301" y1="308.5" x2="301" y2="330.5" gradientUnits="userSpaceOnUse">
<stop stop-color="#F7FDFF"/>
<stop offset="1" stop-color="#F5FFFA"/>
</linearGradient>
<linearGradient id="paint149_linear_254_1874" x1="321.238" y1="309.292" x2="294.027" y2="299.651" gradientUnits="userSpaceOnUse">
<stop stop-color="#69C9FF"/>
<stop offset="1" stop-color="#88F1BB"/>
</linearGradient>
</defs>
</svg>
