<svg width="1350" height="294" viewBox="0 0 1350 294" fill="none" xmlns="http://www.w3.org/2000/svg">
<path d="M1349 142.763C1345.57 225.737 974.293 278.663 519.732 260.975C288.889 251.992 80.9602 226.526 -67.3449 192.768" stroke="url(#paint0_linear_374_1245)" stroke-width="1.5"/>
<path d="M489 161.5C309.218 161.5 146.446 152.545 28.6125 138.065C-30.3009 130.825 -78.0001 122.202 -110.981 112.62C-127.467 107.83 -140.305 102.792 -149.031 97.5514C-157.721 92.3329 -162.5 86.8114 -162.5 81C-162.5 75.1886 -157.721 69.6671 -149.031 64.4486C-140.305 59.208 -127.467 54.1702 -110.981 49.3802C-78.0001 39.7981 -30.3009 31.1749 28.6125 23.9352C146.446 9.45486 309.218 0.5 489 0.5C668.782 0.5 831.554 9.45486 949.387 23.9352C1008.3 31.1749 1056 39.7981 1088.98 49.3802C1105.47 54.1702 1118.3 59.208 1127.03 64.4486C1135.72 69.6671 1140.5 75.1886 1140.5 81C1140.5 86.8114 1135.72 92.3329 1127.03 97.5514C1118.3 102.792 1105.47 107.83 1088.98 112.62C1056 122.202 1008.3 130.825 949.387 138.065C831.554 152.545 668.782 161.5 489 161.5Z" stroke="url(#paint1_linear_374_1245)"/>
<defs>
<linearGradient id="paint0_linear_374_1245" x1="838.999" y1="243.039" x2="816.434" y2="101.615" gradientUnits="userSpaceOnUse">
<stop stop-color="#69C9FF" stop-opacity="0"/>
<stop offset="1" stop-color="#88F1BB"/>
</linearGradient>
<linearGradient id="paint1_linear_374_1245" x1="1140" y1="1" x2="1007.5" y2="-320.698" gradientUnits="userSpaceOnUse">
<stop stop-color="#69C9FF"/>
<stop offset="1" stop-color="#88F1BB"/>
</linearGradient>
</defs>
</svg>
