<svg width="872" height="278" viewBox="0 0 872 278" fill="none" xmlns="http://www.w3.org/2000/svg">
<circle cx="375.05" cy="138.491" r="98.4285" transform="rotate(45 375.05 138.491)" stroke="url(#paint0_linear_42_96)"/>
<circle cx="375.05" cy="138.491" r="98.4285" transform="rotate(45 375.05 138.491)" stroke="url(#paint1_linear_42_96)"/>
<path d="M17.2611 210.897C19.9233 211.963 23.1548 210.891 26.6142 208.355C30.0986 205.801 33.9516 201.665 37.9396 196.292C45.9203 185.541 54.5112 169.743 61.8335 151.447C69.1557 133.15 73.8359 115.788 75.4764 102.499C76.2962 95.858 76.3607 90.2056 75.6006 85.9526C74.846 81.7301 73.2459 78.7252 70.5836 77.6597C67.9214 76.5943 64.6899 77.6656 61.2305 80.2016C57.7461 82.7559 53.8931 86.8921 49.905 92.2648C41.9243 103.016 33.3335 118.814 26.0112 137.11C18.689 155.406 14.0088 172.769 12.3683 186.058C11.5485 192.699 11.484 198.351 12.2441 202.604C12.9987 206.827 14.5988 209.832 17.2611 210.897Z" stroke="url(#paint2_linear_42_96)"/>
<circle cx="733.038" cy="138.568" r="98.4285" transform="rotate(45 733.038 138.568)" stroke="url(#paint3_linear_42_96)"/>
<path d="M679.961 191.645C699.153 210.837 722.464 222.303 744.654 225.309C766.844 228.315 787.944 222.86 802.637 208.167C817.33 193.474 822.784 172.374 819.778 150.184C816.772 127.994 805.307 104.683 786.115 85.4908C766.922 66.2987 743.612 54.8329 721.422 51.827C699.231 48.8209 678.131 54.2752 663.438 68.9683C648.745 83.6614 643.291 104.761 646.297 126.952C649.303 149.142 660.769 172.453 679.961 191.645Z" stroke="url(#paint4_linear_42_96)"/>
<path d="M700.889 106.419C681.728 125.58 667.93 146.509 661.122 164.876C654.331 183.198 654.436 199.165 663.438 208.167C672.44 217.169 688.408 217.274 706.729 210.483C725.096 203.676 746.025 189.877 765.186 170.716C784.347 151.555 798.145 130.626 804.953 112.26C811.744 93.9379 811.639 77.9702 802.637 68.9683C793.635 59.9664 777.667 59.8613 759.346 66.6522C740.979 73.4598 720.05 87.2585 700.889 106.419Z" stroke="url(#paint5_linear_42_96)"/>
<path d="M719.436 150.156C734.365 167.677 749.371 182.288 761.57 191.747C767.667 196.473 773.084 199.93 777.455 201.814C779.639 202.755 781.588 203.316 783.246 203.432C784.906 203.549 786.322 203.222 787.367 202.332C788.412 201.441 788.96 200.095 789.108 198.438C789.256 196.783 789.012 194.769 788.429 192.463C787.263 187.849 784.711 181.952 781.012 175.182C773.61 161.635 761.567 144.5 746.638 126.979C731.71 109.458 716.704 94.847 704.504 85.3886C698.407 80.6619 692.99 77.2054 688.62 75.3214C686.435 74.3799 684.486 73.8195 682.828 73.7029C681.168 73.5863 679.753 73.913 678.707 74.8035C677.662 75.6941 677.115 77.0398 676.967 78.6974C676.818 80.3526 677.062 82.366 677.645 84.6721C678.811 89.2864 681.364 95.1837 685.063 101.953C692.464 115.5 704.508 132.635 719.436 150.156Z" stroke="url(#paint6_linear_42_96)"/>
<path d="M565.666 138.392C565.861 138.587 565.861 138.903 565.666 139.099L562.484 142.281C562.289 142.476 561.972 142.476 561.777 142.281C561.582 142.085 561.582 141.769 561.777 141.574L564.605 138.745L561.777 135.917C561.582 135.721 561.582 135.405 561.777 135.21C561.972 135.014 562.289 135.014 562.484 135.21L565.666 138.392ZM539.427 138.245L565.313 138.245L565.313 139.245L539.427 139.245L539.427 138.245Z" fill="url(#paint7_linear_42_96)"/>
<path d="M191.797 138.392C191.993 138.587 191.993 138.903 191.797 139.099L188.615 142.281C188.42 142.476 188.104 142.476 187.908 142.281C187.713 142.085 187.713 141.769 187.908 141.573L190.737 138.745L187.908 135.917C187.713 135.721 187.713 135.405 187.908 135.21C188.104 135.014 188.42 135.014 188.615 135.21L191.797 138.392ZM165.559 138.245L191.444 138.245L191.444 139.245L165.559 139.245L165.559 138.245Z" fill="url(#paint8_linear_42_96)"/>
<defs>
<linearGradient id="paint0_linear_42_96" x1="277.122" y1="40.5623" x2="403.311" y2="2.91309" gradientUnits="userSpaceOnUse">
<stop stop-color="#69C9FF"/>
<stop offset="1" stop-color="#88F1BB"/>
</linearGradient>
<linearGradient id="paint1_linear_42_96" x1="277.122" y1="40.5623" x2="403.311" y2="2.91309" gradientUnits="userSpaceOnUse">
<stop stop-color="#69C9FF"/>
<stop offset="1" stop-color="#88F1BB"/>
</linearGradient>
<linearGradient id="paint2_linear_42_96" x1="52.9509" y1="71.1415" x2="78.0496" y2="78.965" gradientUnits="userSpaceOnUse">
<stop stop-color="#69C9FF"/>
<stop offset="1" stop-color="#88F1BB"/>
</linearGradient>
<linearGradient id="paint3_linear_42_96" x1="635.109" y1="40.6393" x2="761.298" y2="2.99012" gradientUnits="userSpaceOnUse">
<stop stop-color="#69C9FF"/>
<stop offset="1" stop-color="#88F1BB"/>
</linearGradient>
<linearGradient id="paint4_linear_42_96" x1="716.515" y1="16.5984" x2="833.761" y2="67.8272" gradientUnits="userSpaceOnUse">
<stop stop-color="#69C9FF"/>
<stop offset="1" stop-color="#88F1BB"/>
</linearGradient>
<linearGradient id="paint5_linear_42_96" x1="834.078" y1="101.117" x2="810.15" y2="213.837" gradientUnits="userSpaceOnUse">
<stop stop-color="#69C9FF"/>
<stop offset="1" stop-color="#88F1BB"/>
</linearGradient>
<linearGradient id="paint6_linear_42_96" x1="692.252" y1="63.9199" x2="758.899" y2="57.5311" gradientUnits="userSpaceOnUse">
<stop stop-color="#69C9FF"/>
<stop offset="1" stop-color="#88F1BB"/>
</linearGradient>
<linearGradient id="paint7_linear_42_96" x1="539.427" y1="138.745" x2="539.727" y2="141.058" gradientUnits="userSpaceOnUse">
<stop stop-color="#69C9FF"/>
<stop offset="1" stop-color="#88F1BB"/>
</linearGradient>
<linearGradient id="paint8_linear_42_96" x1="165.559" y1="138.745" x2="165.858" y2="141.058" gradientUnits="userSpaceOnUse">
<stop stop-color="#69C9FF"/>
<stop offset="1" stop-color="#88F1BB"/>
</linearGradient>
</defs>
</svg>
