<svg width="1517" height="429" viewBox="0 0 1517 429" fill="none" xmlns="http://www.w3.org/2000/svg">
<path d="M233.005 427.479L233.005 427.979L233.505 427.979L314.143 427.979L314.643 427.979L314.643 427.479C314.643 340.731 244.32 270.408 157.571 270.408C70.8233 270.408 0.500008 340.731 0.5 427.479L0.5 427.979L1 427.979L81.6376 427.979L82.1376 427.979L82.1376 427.479C82.1376 385.819 115.91 352.046 157.571 352.046C199.232 352.046 233.005 385.819 233.005 427.479Z" stroke="url(#paint0_linear_101_20)"/>
<path d="M1266.23 427.479L1266.23 427.979L1266.73 427.979L1347.36 427.979L1347.86 427.979L1347.86 427.479C1347.86 340.731 1277.54 270.408 1190.79 270.408C1104.05 270.408 1033.72 340.731 1033.72 427.479L1033.72 427.979L1034.22 427.979L1114.86 427.979L1115.36 427.979L1115.36 427.479C1115.36 385.819 1149.13 352.046 1190.79 352.046C1232.45 352.046 1266.23 385.819 1266.23 427.479Z" stroke="url(#paint1_linear_101_20)"/>
<path d="M772.526 427.403L772.526 427.903L773.026 427.903L904.625 427.903L905.125 427.903L905.125 427.403C905.125 286.072 790.5 171.5 649.104 171.5C507.707 171.5 393.082 286.072 393.082 427.403L393.082 427.903L393.582 427.903L525.181 427.903L525.681 427.903L525.681 427.403C525.681 359.271 580.939 304.038 649.104 304.038C717.268 304.038 772.526 359.271 772.526 427.403Z" stroke="url(#paint2_linear_101_20)"/>
<path d="M473.529 427.403L473.529 427.903L474.029 427.903L605.628 427.903L606.128 427.903L606.128 427.403C606.128 286.072 491.503 171.5 350.106 171.5C208.71 171.5 94.0846 286.072 94.0846 427.403L94.0846 427.903L94.5846 427.903L226.184 427.903L226.684 427.903L226.684 427.403C226.684 359.271 281.942 304.038 350.106 304.038C418.271 304.038 473.529 359.271 473.529 427.403Z" stroke="url(#paint3_linear_101_20)"/>
<path d="M312.531 427.479L312.531 427.979L313.031 427.979L393.668 427.979L394.168 427.979L394.168 427.479C394.168 340.731 323.845 270.408 237.097 270.408C150.349 270.408 80.0255 340.731 80.0255 427.479L80.0255 427.979L80.5255 427.979L161.163 427.979L161.663 427.979L161.663 427.479C161.663 385.819 195.436 352.046 237.097 352.046C278.758 352.046 312.531 385.819 312.531 427.479Z" stroke="url(#paint4_linear_101_20)"/>
<path d="M1345.75 427.479L1345.75 427.979L1346.25 427.979L1426.89 427.979L1427.39 427.979L1427.39 427.479C1427.39 340.731 1357.07 270.408 1270.32 270.408C1183.57 270.408 1113.25 340.731 1113.25 427.479L1113.25 427.979L1113.75 427.979L1194.38 427.979L1194.88 427.979L1194.88 427.479C1194.88 385.819 1228.66 352.046 1270.32 352.046C1311.98 352.046 1345.75 385.819 1345.75 427.479Z" stroke="url(#paint5_linear_101_20)"/>
<path d="M902.184 427.403L902.184 427.903L902.684 427.903L1034.22 427.903L1034.72 427.903L1034.72 427.403C1034.72 286.072 920.15 171.5 778.819 171.5C637.487 171.5 522.916 286.072 522.915 427.403L522.915 427.903L523.415 427.903L654.954 427.903L655.454 427.903L655.454 427.403C655.454 359.271 710.686 304.038 778.819 304.038C846.951 304.038 902.184 359.271 902.184 427.403Z" stroke="url(#paint6_linear_101_20)"/>
<path d="M392.764 427.479L392.764 427.979L393.264 427.979L473.902 427.979L474.402 427.979L474.402 427.479C474.402 340.731 404.078 270.408 317.33 270.408C230.582 270.408 160.259 340.731 160.259 427.479L160.259 427.979L160.759 427.979L241.396 427.979L241.896 427.979L241.896 427.479C241.896 385.819 275.669 352.046 317.33 352.046C358.991 352.046 392.764 385.819 392.764 427.479Z" stroke="url(#paint7_linear_101_20)"/>
<path d="M1456.99 427.606L1456.99 428.106L1457.49 428.106L1516 428.106L1516.5 428.106L1516.5 427.606C1516.5 364.589 1465.41 313.503 1402.4 313.503C1339.38 313.503 1288.29 364.589 1288.29 427.606L1288.29 428.106L1288.79 428.106L1347.3 428.106L1347.8 428.106L1347.8 427.606C1347.8 397.454 1372.25 373.011 1402.4 373.011C1432.55 373.011 1456.99 397.454 1456.99 427.606Z" stroke="url(#paint8_linear_101_20)"/>
<circle opacity="0.3" cx="1054" cy="172" r="171.5" stroke="url(#paint9_linear_101_20)"/>
<circle cx="1054" cy="172" r="80.5" stroke="url(#paint10_linear_101_20)"/>
<path d="M1054.5 237.333L1053.51 237.449C1041.84 188.099 1004.45 173.599 987.301 172.499L987.333 171.5H1054H1054.5V172V237.333Z" stroke="url(#paint11_linear_101_20)"/>
<path d="M1054.5 106L1055.49 105.885C1067.16 155.234 1104.54 169.735 1121.7 170.834L1121.67 171.833H1055H1054.5V171.333V106Z" stroke="url(#paint12_linear_101_20)"/>
<defs>
<linearGradient id="paint0_linear_101_20" x1="314.143" y1="427.479" x2="152.118" y2="524.161" gradientUnits="userSpaceOnUse">
<stop stop-color="#69C9FF"/>
<stop offset="1" stop-color="#88F1BB"/>
</linearGradient>
<linearGradient id="paint1_linear_101_20" x1="1347.36" y1="427.479" x2="1185.34" y2="524.161" gradientUnits="userSpaceOnUse">
<stop stop-color="#69C9FF"/>
<stop offset="1" stop-color="#88F1BB"/>
</linearGradient>
<linearGradient id="paint2_linear_101_20" x1="904.625" y1="427.403" x2="640.269" y2="585.221" gradientUnits="userSpaceOnUse">
<stop stop-color="#69C9FF"/>
<stop offset="1" stop-color="#88F1BB"/>
</linearGradient>
<linearGradient id="paint3_linear_101_20" x1="605.628" y1="427.403" x2="341.271" y2="585.221" gradientUnits="userSpaceOnUse">
<stop stop-color="#69C9FF"/>
<stop offset="1" stop-color="#88F1BB"/>
</linearGradient>
<linearGradient id="paint4_linear_101_20" x1="393.668" y1="427.479" x2="231.644" y2="524.161" gradientUnits="userSpaceOnUse">
<stop stop-color="#69C9FF"/>
<stop offset="1" stop-color="#88F1BB"/>
</linearGradient>
<linearGradient id="paint5_linear_101_20" x1="1426.89" y1="427.479" x2="1264.87" y2="524.161" gradientUnits="userSpaceOnUse">
<stop stop-color="#69C9FF"/>
<stop offset="1" stop-color="#88F1BB"/>
</linearGradient>
<linearGradient id="paint6_linear_101_20" x1="1034.22" y1="427.403" x2="769.924" y2="585.113" gradientUnits="userSpaceOnUse">
<stop stop-color="#69C9FF"/>
<stop offset="1" stop-color="#88F1BB"/>
</linearGradient>
<linearGradient id="paint7_linear_101_20" x1="473.902" y1="427.479" x2="311.877" y2="524.161" gradientUnits="userSpaceOnUse">
<stop stop-color="#69C9FF"/>
<stop offset="1" stop-color="#88F1BB"/>
</linearGradient>
<linearGradient id="paint8_linear_101_20" x1="1516" y1="427.606" x2="1398.44" y2="497.755" gradientUnits="userSpaceOnUse">
<stop stop-color="#69C9FF"/>
<stop offset="1" stop-color="#88F1BB"/>
</linearGradient>
<linearGradient id="paint9_linear_101_20" x1="883" y1="1" x2="1103.35" y2="-64.7419" gradientUnits="userSpaceOnUse">
<stop stop-color="#69C9FF"/>
<stop offset="1" stop-color="#88F1BB"/>
</linearGradient>
<linearGradient id="paint10_linear_101_20" x1="974" y1="92" x2="1077.09" y2="61.2435" gradientUnits="userSpaceOnUse">
<stop stop-color="#69C9FF"/>
<stop offset="1" stop-color="#88F1BB"/>
</linearGradient>
<linearGradient id="paint11_linear_101_20" x1="987.333" y1="237.333" x2="1030.14" y2="250.366" gradientUnits="userSpaceOnUse">
<stop stop-color="#69C9FF"/>
<stop offset="1" stop-color="#88F1BB"/>
</linearGradient>
<linearGradient id="paint12_linear_101_20" x1="1121.67" y1="106" x2="1078.86" y2="92.9672" gradientUnits="userSpaceOnUse">
<stop stop-color="#69C9FF"/>
<stop offset="1" stop-color="#88F1BB"/>
</linearGradient>
</defs>
</svg>
