<svg width="1529" height="878" viewBox="0 0 1529 878" fill="none" xmlns="http://www.w3.org/2000/svg">
<path d="M1253.14 252.3L1198 277.42L1196.77 336.084" stroke="url(#paint0_linear_332_3)"/>
<path d="M1107.69 361.351L1146.87 342.777L1147.21 342.617L1172.63 330.563L1172.82 330.472L1172.89 330.27L1199.39 251.234L1198.51 250.784L1139.23 333.65L1139 333.976L1139.27 334.274L1146.17 342L1107.26 360.447L1107.69 361.351Z" stroke="url(#paint1_linear_332_3)"/>
<path d="M972.773 696.838L1011.95 678.264L1012.29 678.104L1037.72 666.051L1037.91 665.959L1037.98 665.758L1064.48 586.721L1063.6 586.272L1004.32 669.137L1004.08 669.463L1004.35 669.761L1011.26 677.487L972.344 695.934L972.773 696.838Z" stroke="url(#paint2_linear_332_3)"/>
<path d="M1044.04 403.279L1081.1 377.415L1081.39 377.993L1081.76 376.827L1087.42 358.906L1087.61 358.324L1087 358.258L1071.38 356.573L1070.46 356.474L1070.88 357.297L1080.64 376.515L1043.47 402.458L1044.04 403.279Z" stroke="url(#paint3_linear_332_3)"/>
<path d="M909.125 738.765L946.18 712.902L946.474 713.479L946.843 712.313L952.51 694.392L952.694 693.81L952.087 693.744L936.463 692.06L935.546 691.961L935.964 692.783L945.723 712.001L908.553 737.945L909.125 738.765Z" stroke="url(#paint4_linear_332_3)"/>
<path d="M1452.42 544.551L1460.84 662.493H1440.31L1437.56 547.461" stroke="url(#paint5_linear_332_3)"/>
<path d="M1385.48 508.402C1412.33 505.084 1475.24 499.61 1512 504.267C1517.14 507.575 1519.04 509.219 1519.35 509.628L1502.19 520.809L1462.98 544.857H1450.27" stroke="url(#paint6_linear_332_3)"/>
<path d="M1329.26 359.52L1330.8 518.052" stroke="url(#paint7_linear_332_3)"/>
<path d="M1326.81 359.52L1328.35 518.052" stroke="url(#paint8_linear_332_3)"/>
<path d="M1329.11 547.461L1326.05 598.467L1355.15 624.659L1345.65 581.465L1341.83 543.632" stroke="url(#paint9_linear_332_3)"/>
<path d="M1337.08 362.124L1340.91 517.286" stroke="url(#paint10_linear_332_3)"/>
<path d="M1369.24 536.279L1367.1 603.368L1363.12 658.816" stroke="url(#paint11_linear_332_3)"/>
<path d="M1388.24 532.757L1389.61 561.706L1407.38 661.114H1397.58L1384.41 562.778L1383.49 533.523" stroke="url(#paint12_linear_332_3)"/>
<path d="M1273.54 568.573L1259.84 572.032L1277.05 557.338L1277.46 556.99L1277.08 556.608L1250.13 529.037L1249.69 528.595L1249.35 529.11L1237.86 546.419L1237.77 546.557L1237.78 546.722L1239.16 571.996L1239.18 572.441L1239.63 572.467L1257.86 573.54L1258.06 573.551L1258.12 573.497L1273.79 569.543L1273.54 568.573Z" stroke="url(#paint13_linear_332_3)"/>
<path d="M1273.51 569.212C1300.62 556.958 1365.17 532.175 1406.46 531.072" stroke="url(#paint14_linear_332_3)"/>
<path d="M1365.22 516.372L1365.22 516.867H1365.72H1372.12C1373.5 518.082 1375.77 519.903 1378.26 521.587C1380.84 523.323 1383.7 524.946 1386.12 525.581C1390.75 526.8 1410.39 532.588 1419.72 535.356L1437.26 548.019L1438.06 548.591V547.614V533.103H1441.96V545.469V545.969H1442.46H1450.27H1450.72L1450.77 545.517L1452.91 523.001L1452.96 522.453H1452.41H1446.9H1446.58L1446.45 522.744L1442.14 532.103H1437.56H1437.06V532.603V546.636L1420.23 534.495L1420.17 534.445L1420.08 534.421C1410.8 531.666 1391.04 525.842 1386.37 524.614C1384.13 524.024 1381.38 522.482 1378.82 520.758C1376.28 519.042 1373.98 517.18 1372.64 515.993L1372.5 515.867H1372.31H1366.21L1364.84 374.679L1363.84 374.688L1365.22 516.372Z" stroke="url(#paint15_linear_332_3)"/>
<path d="M1368.17 374.684L1372.46 512.078L1385.33 508.708L1376.14 374.684" stroke="url(#paint16_linear_332_3)"/>
<path d="M1336.77 342.671C1344.02 341.649 1361.43 340.373 1373.68 340.373C1389 340.373 1411.06 340.373 1426.53 347.113C1421.26 352.627 1416.98 356.15 1415.5 357.222H1411.82" stroke="url(#paint17_linear_332_3)"/>
<path d="M1363.42 374.531H1383.79L1413.66 355.997C1408.61 355.18 1389.86 353.791 1355.3 354.772" stroke="url(#paint18_linear_332_3)"/>
<path d="M1286.46 365.375L1286.47 365.372L1286.49 365.368L1308.03 360.174H1333.56L1357.03 374.955L1357.15 375.031H1357.3H1360.97H1363.73H1365.04L1364.06 374.158L1347.37 359.3L1347.22 359.174H1347.03H1339.68H1333.71H1331.98H1307.97H1307.91L1307.86 359.188L1286.28 364.391L1255.36 369.289L1255.51 370.277L1286.46 365.375Z" stroke="url(#paint19_linear_332_3)"/>
<path d="M1245.94 374.224L1277.8 359.52L1280.86 354.771" stroke="url(#paint20_linear_332_3)"/>
<path d="M1250.23 338.383L1326.51 342.978L1345.35 344.51L1357.6 357.529L1284.54 356.304L1249.92 340.68" stroke="url(#paint21_linear_332_3)"/>
<path d="M1333.55 212.782L1336.62 343.284" stroke="url(#paint22_linear_332_3)"/>
<path d="M1328.19 212.629L1329.11 342.978H1326.81L1326.05 212.629" stroke="url(#paint23_linear_332_3)"/>
<path d="M1278.99 188.62L1297.98 189.933L1312.07 190.907C1313.36 191.927 1315.29 193.579 1317 195.333C1317.89 196.238 1318.71 197.162 1319.36 198.036C1319.8 198.627 1320.15 199.179 1320.39 199.674C1308.89 198.996 1287.73 199.216 1278.4 199.416L1277.91 199.426V199.916V202.826V203.326H1278.41H1308.58L1322.55 213.039L1322.67 213.129H1322.83H1338.3H1338.43L1338.55 213.064C1342.92 210.585 1349.65 206.645 1355.64 202.878C1358.64 200.995 1361.46 199.152 1363.7 197.555C1365.93 195.973 1367.65 194.593 1368.41 193.64L1368.82 193.119L1368.21 192.867C1355.39 187.616 1330.34 184.581 1298 188.932L1279.06 187.623L1278.99 188.62Z" stroke="url(#paint24_linear_332_3)"/>
<path d="M1353.35 154.479L1347.53 171.931L1354.78 155.146" stroke="url(#paint25_linear_332_3)"/>
<path d="M1355.16 190.053V154.384H1356.3L1357.91 190.053" stroke="url(#paint26_linear_332_3)"/>
<path d="M1355.06 155.242L1352.58 154.193V152.858L1367.56 151.236L1355.06 154.479" stroke="url(#paint27_linear_332_3)"/>
<path d="M1355.16 152.476L1347.34 138.647L1353.25 152.858" stroke="url(#paint28_linear_332_3)"/>
<path d="M780.759 522.494L779.993 556.345L793.166 540.262L792.094 525.864" stroke="url(#paint29_linear_332_3)"/>
<path d="M1119.88 86.1094C1120.75 84.2713 1123.28 79.8906 1126.47 77.0723C1129.41 80.3808 1133.1 84.1692 1134.58 85.6499" stroke="url(#paint30_linear_332_3)"/>
<path d="M1198.3 69.8729L1211.94 54.0962H1207.8L1220.51 38.7791H1215L1226.79 24.6874H1221.43L1230.16 13.5059H1226.79" stroke="url(#paint31_linear_332_3)"/>
<path d="M1212.86 76.4597L1229.09 66.5036L1228.48 60.9894L1243.95 50.5738L1242.42 43.8343L1257.28 33.5718L1256.05 28.8235L1268.46 21.1649L1266.62 15.0381" stroke="url(#paint32_linear_332_3)"/>
<path d="M1254.36 80.136L1257.73 68.9545L1272.29 68.6481L1273.82 59.4578L1289.9 57.6198L1290.51 50.2676" stroke="url(#paint33_linear_332_3)"/>
<path d="M1290.51 92.0827L1295.57 87.7939" stroke="url(#paint34_linear_332_3)"/>
<path d="M1309.66 101.886L1314.25 85.9561" stroke="url(#paint35_linear_332_3)"/>
<path d="M1305.06 99.1287L1305.68 86.875" stroke="url(#paint36_linear_332_3)"/>
<path d="M1296.18 94.2276L1313.95 86.2627" stroke="url(#paint37_linear_332_3)"/>
<path d="M1296.79 68.8016L1303.99 59.6113" stroke="url(#paint38_linear_332_3)"/>
<path d="M1253.14 71.559L1254.98 66.198L1258.81 68.036L1275.04 52.8721" stroke="url(#paint39_linear_332_3)"/>
<path d="M1284.08 18.2549L1281.02 30.5086" stroke="url(#paint40_linear_332_3)"/>
<path d="M1242.11 74.7754L1242.88 77.073" stroke="url(#paint41_linear_332_3)"/>
<path d="M1294.65 39.6982L1296.64 46.8973" stroke="url(#paint42_linear_332_3)"/>
<path d="M1235.83 78.9111L1236.6 81.2087" stroke="url(#paint43_linear_332_3)"/>
<path d="M1196.77 63.9004L1198.76 68.8019" stroke="url(#paint44_linear_332_3)"/>
<path d="M1194.47 69.4141L1196.47 74.3155" stroke="url(#paint45_linear_332_3)"/>
<path d="M1206.73 76L1207.49 81.9737" stroke="url(#paint46_linear_332_3)"/>
<path d="M1227.1 52.2588L1226.49 60.6832" stroke="url(#paint47_linear_332_3)"/>
<path d="M1234.3 43.6816L1233.69 52.1061" stroke="url(#paint48_linear_332_3)"/>
<path d="M1240.43 36.4824C1241.09 36.8909 1242.75 38.2592 1244.1 40.4649" stroke="url(#paint49_linear_332_3)"/>
<path d="M1250.23 25.3008C1250.89 25.7092 1252.56 27.0776 1253.9 29.2832" stroke="url(#paint50_linear_332_3)"/>
<path d="M1203.36 47.6641L1202.29 61.6026" stroke="url(#paint51_linear_332_3)"/>
<path d="M1243.03 4.77622C1245.33 4.62305 1250.81 4.40861 1254.36 4.77622" stroke="url(#paint52_linear_332_3)"/>
<path d="M1220.05 8.29883L1212.85 38.4736L1208.87 34.1848" stroke="url(#paint53_linear_332_3)"/>
<path d="M1220.05 7.83903C1221.64 7.2774 1225.57 6.12351 1228.63 6.00098" stroke="url(#paint54_linear_332_3)"/>
<path d="M1195.55 18.5605L1199.84 21.9303" stroke="url(#paint55_linear_332_3)"/>
<path d="M1205.5 15.3438C1203.26 16.1607 1198.09 18.1621 1195.39 19.6325" stroke="url(#paint56_linear_332_3)"/>
<path d="M1182.07 58.3855L1175.63 52.1055" stroke="url(#paint57_linear_332_3)"/>
<path d="M1182.37 40.7708L1176.25 32.1932C1177.42 31.2232 1180.29 29.0379 1182.37 28.0576" stroke="url(#paint58_linear_332_3)"/>
<path d="M1181.45 79.677L1175.79 72.7843L1181.45 68.8019L1175.79 63.9004" stroke="url(#paint59_linear_332_3)"/>
<path d="M1133.67 68.3418L1146.23 70.6394L1141.17 74.775" stroke="url(#paint60_linear_332_3)"/>
<path d="M1146.99 79.8297L1151.59 75.3877" stroke="url(#paint61_linear_332_3)"/>
<path d="M1152.51 84.2725L1156.64 80.29" stroke="url(#paint62_linear_332_3)"/>
<path d="M1234.3 82.1269L1303.23 42.915C1304.45 45.57 1307.15 52.4423 1308.13 58.6917C1299.55 60.7748 1295.67 61.9083 1294.8 62.2146L1298.32 72.1707L1312.11 69.4137L1315.79 85.803L1282.39 89.4791" stroke="url(#paint63_linear_332_3)"/>
<path d="M1207.65 81.8211L1276.73 3.39746C1278.87 4.82706 1283.93 9.46304 1286.99 16.5702C1279.88 21.104 1276.37 23.565 1275.5 24.2287L1281.94 31.8873L1293.12 24.6883C1294.7 26.4242 1298.29 31.1521 1300.01 36.1761C1258.59 63.7469 1237.01 78.0939 1231.39 81.8211" stroke="url(#paint64_linear_332_3)"/>
<path d="M1196.62 89.0205L1188.35 102.5L1202.13 89.0205" stroke="url(#paint65_linear_332_3)"/>
<path d="M1192.64 81.974L1230.32 2.32498C1232.61 1.86547 1238.8 1.03834 1245.17 1.40595C1241.62 6.92012 1239.3 10.3409 1238.59 11.3621H1249L1257.27 1.40595C1260.19 1.09961 1266.99 0.670732 1270.91 1.40595C1243.21 33.0205 1213.31 68.2907 1201.83 81.974" stroke="url(#paint66_linear_332_3)"/>
<path d="M1181.46 81.9743L1182.68 23.7693C1185.44 21.727 1191.99 17.1829 1196.16 15.3449C1195.42 20.1238 1195.24 23.2587 1195.24 24.2288L1205.35 19.6337L1206.12 11.2093C1209.69 9.3712 1217.82 5.45002 1221.74 4.46973C1212.43 25.4235 1196.41 64.8702 1189.57 81.9743" stroke="url(#paint67_linear_332_3)"/>
<path d="M1160.01 83.8119L1137.95 61.449C1140.3 58.794 1146.19 52.4731 1150.97 48.4294C1152.08 51.2478 1152.56 53.2798 1152.66 53.9436L1161.7 44.9065L1160.01 39.5455L1176.09 26.0664L1175.48 82.7397" stroke="url(#paint68_linear_332_3)"/>
<path d="M1159.09 89.939L1172.88 101.886L1174.56 99.8951L1164.15 89.4795" stroke="url(#paint69_linear_332_3)"/>
<path d="M1113.45 89.4797C1116.46 84.323 1124.35 72.539 1131.83 66.6572C1142.24 75.8475 1149.85 82.2296 1152.35 84.2719" stroke="url(#paint70_linear_332_3)"/>
<path d="M1138.41 108.626L1107.63 98.3633" stroke="url(#paint71_linear_332_3)"/>
<path d="M1105.79 101.427C1104.21 103.775 1100.73 110.494 1099.51 118.582" stroke="url(#paint72_linear_332_3)"/>
<path d="M1142.09 107.554L1114.52 96.9854" stroke="url(#paint73_linear_332_3)"/>
<path d="M1183.6 81.9736H1234.45L1217.14 89.9385L1183.29 88.4068" stroke="url(#paint74_linear_332_3)"/>
<path d="M1132.59 85.8029L1183.6 81.9736L1183.14 88.1005L1138.26 91.6234" stroke="url(#paint75_linear_332_3)"/>
<path d="M1090.47 93.9208L1132.59 85.8027L1138.87 91.7764L1102.57 99.2818" stroke="url(#paint76_linear_332_3)"/>
<path d="M1057.54 105.716L1090.47 93.9219L1103.03 99.2829L1077.45 107.86" stroke="url(#paint77_linear_332_3)"/>
<path d="M1040.84 117.51L1057.54 105.716L1077.45 107.707L1065.35 117.97" stroke="url(#paint78_linear_332_3)"/>
<path d="M1077.45 134.358L1066.42 127.159L1042.38 129.15L1060.45 138.341" stroke="url(#paint79_linear_332_3)"/>
<path d="M1041.15 128.844V117.51L1065.05 117.969L1066.42 127.006" stroke="url(#paint80_linear_332_3)"/>
<path d="M1084.5 144.468L1060.14 138.341L1077.3 134.358L1085.72 136.656" stroke="url(#paint81_linear_332_3)"/>
<path d="M1117.74 128.691L1118.81 142.324" stroke="url(#paint82_linear_332_3)"/>
<path d="M1117.74 128.539L1133.67 124.25" stroke="url(#paint83_linear_332_3)"/>
<path d="M1096.6 145.233L1100.12 131.295V118.888" stroke="url(#paint84_linear_332_3)"/>
<path d="M1097.36 129.303L1064.58 117.969" stroke="url(#paint85_linear_332_3)"/>
<path d="M1118.04 128.845L1077.3 107.707" stroke="url(#paint86_linear_332_3)"/>
<path d="M1133.5 124.788L1133.64 124.903H1133.82H1136.73H1138.12L1137.05 124.017L1105.95 98.2847L1105.77 98.1353L1105.54 98.1785L1103.09 98.638L1102.04 98.835L1102.87 99.5151L1133.5 124.788Z" stroke="url(#paint87_linear_332_3)"/>
<path d="M1153.14 117.453L1153.29 117.704H1153.58H1156.49H1157.36L1156.92 116.952L1142.06 91.3729L1141.92 91.124H1141.63H1138.87H1138.01L1138.44 91.8732L1153.14 117.453Z" stroke="url(#paint88_linear_332_3)"/>
<path d="M1181.95 117.251L1181.91 117.703H1181.45H1178.54H1177.99L1178.05 117.153L1180.96 88.357L1181 87.9072H1181.45H1184.21H1184.76L1184.71 88.4549L1181.95 117.251Z" stroke="url(#paint89_linear_332_3)"/>
<path d="M1083.73 149.829L1087.41 125.934L1100.43 118.582L1142.86 107.554L1192.02 104.337" stroke="url(#paint90_linear_332_3)"/>
<path d="M1220.97 99.5887C1240.02 97.8017 1283.19 99.9257 1303.53 122.718" stroke="url(#paint91_linear_332_3)"/>
<path d="M1280.25 147.377C1289.75 140.127 1309.54 121.369 1312.72 104.336C1299.01 93.0594 1270.28 82.6923 1235 82.5868M1313.21 104.428L1313.27 104.138L1313.04 103.95C1299.24 92.601 1270.48 82.2342 1235.21 82.0875L1235.35 81.7595L1234.29 82.1116C1218.79 87.2788 1199.16 98.8051 1191.29 103.917L1189.88 104.836H1191.56H1204.83L1199.36 122.724L1198.88 124.292L1200.15 123.258C1203.02 120.927 1207.49 117.056 1211.58 113.013C1213.63 110.991 1215.59 108.922 1217.2 106.976C1218.82 105.037 1220.11 103.195 1220.82 101.631C1222.34 98.2351 1224.54 96.0668 1226.93 93.7045C1227.11 93.526 1227.29 93.3463 1227.47 93.165C1230.02 90.639 1232.69 87.817 1234.78 83.0862C1269.89 83.1497 1298.46 93.4024 1312.18 104.535C1310.53 112.835 1304.91 121.585 1298.47 129.202C1291.96 136.897 1284.67 143.374 1279.95 146.98L1280.55 147.775C1285.33 144.13 1292.68 137.604 1299.23 129.848C1305.78 122.104 1311.6 113.075 1313.21 104.428Z" stroke="url(#paint92_linear_332_3)"/>
<path d="M1278.26 206.502L1280.71 147.531L1235.98 132.979L1265.85 182.76" stroke="url(#paint93_linear_332_3)"/>
<path d="M1253.44 252.147L1201.83 212.016L1251.45 201.294L1266 183.066L1278.11 206.808L1275.96 243.569L1265.09 275.275" stroke="url(#paint94_linear_332_3)"/>
<path d="M1252.97 252.008L1237.39 305.607L1196.48 335.375L1196.32 335.49L1196.28 335.683L1186.94 383.319L1186.88 383.64L1187.14 383.826L1198.94 391.992L1206.24 420.301L1206.44 421.049L1207.04 420.567L1240.88 393.497L1246.68 419.519L1247.67 419.399L1246.14 352.096L1259.89 313.584L1259.91 313.537L1259.91 313.488L1274.47 214.08L1273.53 213.771L1253.01 251.91L1252.98 251.957L1252.97 252.008Z" stroke="url(#paint95_linear_332_3)"/>
<path d="M1107.42 361.549L1107.97 361.606V361.052V301.621L1107 301.451L1086.32 358.737L1086.11 359.339L1086.74 359.404L1107.42 361.549Z" stroke="url(#paint96_linear_332_3)"/>
<path d="M972.507 697.036L973.059 697.093V696.539V637.108L972.089 636.939L951.411 694.225L951.194 694.826L951.829 694.892L972.507 697.036Z" stroke="url(#paint97_linear_332_3)"/>
<path d="M1085.26 247.705L1100.73 190.419" stroke="url(#paint98_linear_332_3)"/>
<path d="M1109.92 247.705L1124.78 186.59" stroke="url(#paint99_linear_332_3)"/>
<path d="M1050.04 253.937L1050.03 253.948L1050.03 253.96L1020.62 330.852L1021.55 331.209L1050.96 254.328L1074.83 200.006L1084.89 247.327L1059.55 296.183L1059.47 296.335L1059.5 296.504L1070.22 355.015L1070.55 356.822L1071.18 355.097L1111.33 245.214L1128.43 324.702L1128.69 325.932L1129.35 324.856L1159.98 274.31L1160.02 274.25L1160.03 274.182L1176.81 212.565L1205.96 203.456L1206.24 203.37L1206.3 203.086L1217.63 151.314L1217.67 151.13L1217.58 150.966L1206.25 130.441L1206.09 130.153L1205.76 130.185L1170.76 133.533L1143.35 107.954L1142.58 107.233L1142.51 108.287L1140.37 141.304L1124.86 185.787L1119.3 141.342L1118.34 141.232L1100.75 189.024L1097.25 144.735L1096.29 144.586L1074.54 198.189L1074.54 198.196L1050.04 253.937Z" stroke="url(#paint100_linear_332_3)"/>
<path d="M915.121 589.424L915.116 589.436L915.112 589.447L885.703 666.339L886.637 666.696L916.041 589.816L939.92 535.493L949.976 582.815L924.632 631.671L924.553 631.823L924.584 631.991L935.306 690.502L935.637 692.309L936.267 690.584L976.416 580.702L993.514 660.189L993.778 661.419L994.43 660.343L1025.06 609.797L1025.1 609.737L1025.12 609.669L1041.9 548.052L1071.04 538.944L1071.32 538.857L1071.38 538.573L1082.72 486.802L1082.76 486.618L1082.67 486.453L1071.33 465.928L1071.17 465.641L1070.85 465.672L1035.84 469.02L1008.44 443.441L1007.66 442.721L1007.6 443.774L1005.46 476.791L989.945 521.274L984.389 476.83L983.424 476.719L965.831 524.512L962.335 480.222L961.373 480.073L939.626 533.677L939.623 533.683L915.121 589.424Z" stroke="url(#paint101_linear_332_3)"/>
<path d="M1023.38 282.225L1023.62 281.708L1023.07 281.538L940.973 255.806L940.674 256.76L1022.23 282.322L998.268 334.19L998.239 334.253L998.228 334.321L991.489 376.596L992.406 376.941L1020.87 331.693L1035.61 393.946L1035.64 394.059L1035.71 394.149L1043.06 403.033L1043.85 403.987L1043.95 402.752L1052.83 286.649L1052.83 286.616L1052.83 286.582L1051 254.202L1084.36 149.521L1083.44 149.144L1043 229.406L1042.98 229.443L1042.97 229.484L1031.64 266.245L1031.63 266.275L1031.62 266.307L1020.61 330.235L992.861 374.34L999.205 334.547L1023.38 282.225Z" stroke="url(#paint102_linear_332_3)"/>
<path d="M935.067 262.234L969.652 281.448L1009.14 311.516L1009.63 311.889L1009.9 311.333L1012.96 304.9L1013.16 304.476L1012.75 304.248L970.169 280.591L935.552 261.36L935.067 262.234Z" stroke="url(#paint103_linear_332_3)"/>
<path d="M883.844 371.927L882.006 281.097L902.684 260.878" stroke="url(#paint104_linear_332_3)"/>
<path d="M868.833 369.783L870.977 280.791L845.857 259.347L847.389 258.428L874.654 280.791V370.549" stroke="url(#paint105_linear_332_3)"/>
<path d="M873.122 421.861V406.391" stroke="url(#paint106_linear_332_3)"/>
<path d="M868.221 421.861V404.246" stroke="url(#paint107_linear_332_3)"/>
<path d="M855.813 469.344L866.842 452.801V448.053M872.509 448.972V459.081" stroke="url(#paint108_linear_332_3)"/>
<path d="M572.6 500.131C575.765 501.56 585.895 505.676 601.089 510.7" stroke="url(#paint109_linear_332_3)"/>
<path d="M617.938 519.278L592.512 499.672L618.857 509.628" stroke="url(#paint110_linear_332_3)"/>
<path d="M592.819 499.825H590.215L610.74 520.044H617.939L617.479 519.125" stroke="url(#paint111_linear_332_3)"/>
<path d="M634.95 646.277L634.983 646.189L634.981 646.095L633.019 520.084H639.536H639.721L639.862 519.963L662.531 500.51L662.072 499.649L632.203 507.92L631.831 508.023L631.837 508.41L632.011 519.591L632.019 520.084L633.98 646.017L632.021 651.29L632.959 651.638L634.95 646.277Z" stroke="url(#paint112_linear_332_3)"/>
<path d="M618.705 509.321L613.497 663.871H620.237" stroke="url(#paint113_linear_332_3)"/>
<path d="M629.313 507.317L629.301 506.83H628.813H623.146H622.654L622.646 507.322L620.195 662.791L620.176 663.991L621.042 663.159L632.836 651.825L632.995 651.672L632.989 651.451L629.313 507.317Z" stroke="url(#paint114_linear_332_3)"/>
<path d="M668.638 501.663C658.12 498.14 623.667 492.963 569.996 500.438C565.462 496.026 560.653 491.452 558.814 489.716C565.656 487.367 588.009 482.67 622.687 482.67C657.365 482.67 680.534 486.55 687.785 488.49" stroke="url(#paint115_linear_332_3)"/>
<path d="M705.246 488.49H687.785L677.828 498.446L667.106 502.276C677.165 502.684 698.752 503.93 704.633 505.645" stroke="url(#paint116_linear_332_3)"/>
<path d="M746.908 489.409H727.149" stroke="url(#paint117_linear_332_3)"/>
<path d="M741.548 509.168L727.456 507.483" stroke="url(#paint118_linear_332_3)"/>
<path d="M740.58 508.518L740.472 509.491L804.804 530.781L805.124 530.887L805.342 530.63L810.55 524.504L810.987 523.989L810.367 523.721L768.857 505.8L768.739 505.749L768.61 505.761L740.58 508.518Z" stroke="url(#paint119_linear_332_3)"/>
<path d="M849.993 488.909H812.381H810.628H746.143H744.629L745.845 489.811L768.361 506.506L768.484 506.598L768.637 506.604L782.729 507.217L782.883 507.224L783.014 507.142L810.77 489.909H849.993V488.909Z" stroke="url(#paint120_linear_332_3)"/>
<path d="M810.321 489.409L824.107 506.871L849.839 489.409" stroke="url(#paint121_linear_332_3)"/>
<path d="M781.066 488.951H791.329V457.551" stroke="url(#paint122_linear_332_3)"/>
<path d="M779.228 458.162V488.95H781.219V458.162" stroke="url(#paint123_linear_332_3)"/>
<path d="M745.224 442.386L773.407 458.316H785.661L796.995 438.863H798.834L787.499 458.316H790.715L802.356 438.863" stroke="url(#paint124_linear_332_3)"/>
<path d="M734.502 435.493L742.62 443.152C747.011 441.722 765.136 438.863 802.51 438.863" stroke="url(#paint125_linear_332_3)"/>
<path d="M832.531 426.61C850.554 424.721 887.581 420.177 891.502 417.113" stroke="url(#paint126_linear_332_3)"/>
<path d="M903.223 424.14L894.182 434.667L884.26 419.747L883.975 419.319L883.556 419.615L858.255 437.447L802.348 438.364L802.068 438.368L801.926 438.609L795.952 448.718L795.157 450.065L796.586 449.43C798.364 448.639 804.499 446.678 814.518 445.334C835.509 443.016 867.664 448.136 881.136 450.994L881.426 451.055L881.619 450.83L894.511 435.819L894.757 435.532L903.982 424.791L903.223 424.14Z" stroke="url(#paint127_linear_332_3)"/>
<path d="M734.502 435.8C737.004 433.145 748.716 427.835 775.552 427.835C802.387 427.835 824.618 427.018 832.378 426.609L846.317 438.097" stroke="url(#paint128_linear_332_3)"/>
<path d="M837.127 366.413L895.332 394.137L944.806 380.658L925.966 400.111" stroke="url(#paint129_linear_332_3)"/>
<path d="M891.809 420.176C903.501 424.618 932.307 434.482 953.996 438.403C982.915 434.85 1009.65 410.679 1019.4 399.038" stroke="url(#paint130_linear_332_3)"/>
<path d="M787.346 360.898C849.227 367.536 980.862 382.894 1012.35 391.226C1023.63 396.618 1029.41 398.681 1030.89 399.038L957.672 397.506L991.676 423.545L927.344 400.417V418.031C918.103 419.461 898.027 421.891 891.655 420.176C891.655 417.357 891.655 414.304 891.655 413.13" stroke="url(#paint131_linear_332_3)"/>
<path d="M674.919 293.351L665.575 321.381L677.216 294.423" stroke="url(#paint132_linear_332_3)"/>
<path d="M585.925 427.222L576.582 455.252L588.223 428.294" stroke="url(#paint133_linear_332_3)"/>
<path d="M677.828 350.483V293.197H679.666L681.964 349.717" stroke="url(#paint134_linear_332_3)"/>
<path d="M588.836 484.354V427.068H590.674L592.972 483.589" stroke="url(#paint135_linear_332_3)"/>
<path d="M677.675 294.576L673.692 292.891V290.746L697.74 288.143L677.675 293.35" stroke="url(#paint136_linear_332_3)"/>
<path d="M588.683 428.447L584.7 426.762V424.618L608.748 422.014L588.683 427.221" stroke="url(#paint137_linear_332_3)"/>
<path d="M677.829 290.134L665.269 267.924L674.765 290.746" stroke="url(#paint138_linear_332_3)"/>
<path d="M842.76 196.613L835.081 219.651L844.649 197.495" stroke="url(#paint139_linear_332_3)"/>
<path d="M845.152 243.57V196.487H846.663L848.551 242.941" stroke="url(#paint140_linear_332_3)"/>
<path d="M845.026 197.62L841.753 196.236V194.473L861.518 192.333L845.026 196.613" stroke="url(#paint141_linear_332_3)"/>
<path d="M845.152 193.969L834.829 175.715L842.634 194.472" stroke="url(#paint142_linear_332_3)"/>
<path d="M1392.95 293.723L1385.27 316.761L1394.84 294.604" stroke="url(#paint143_linear_332_3)"/>
<path d="M1395.34 340.68V293.597H1396.85L1398.5 341.139" stroke="url(#paint144_linear_332_3)"/>
<path d="M1395.22 294.731L1391.94 293.346V291.583L1411.71 289.443L1395.22 293.724" stroke="url(#paint145_linear_332_3)"/>
<path d="M1395.34 291.079L1385.02 272.825L1392.82 291.583" stroke="url(#paint146_linear_332_3)"/>
<path d="M1486.08 455.471L1478.4 478.509L1487.97 456.352" stroke="url(#paint147_linear_332_3)"/>
<path d="M1488.47 502.429V455.346H1489.98L1491.63 502.888" stroke="url(#paint148_linear_332_3)"/>
<path d="M1488.34 456.479L1485.07 455.094V453.332L1504.84 451.191L1488.34 455.472" stroke="url(#paint149_linear_332_3)"/>
<path d="M1488.47 452.827L1478.15 434.573L1485.95 453.331" stroke="url(#paint150_linear_332_3)"/>
<path d="M1466.39 472.482L1461.46 487.256L1467.6 473.048" stroke="url(#paint151_linear_332_3)"/>
<path d="M1467.92 502.595V472.402H1468.89L1469.94 502.889" stroke="url(#paint152_linear_332_3)"/>
<path d="M1467.84 473.129L1465.74 472.241V471.111L1478.41 469.738L1467.84 472.483" stroke="url(#paint153_linear_332_3)"/>
<path d="M1467.92 470.788L1461.3 459.082L1466.3 471.11" stroke="url(#paint154_linear_332_3)"/>
<path d="M862.799 212.464L857.963 226.973L863.989 213.019" stroke="url(#paint155_linear_332_3)"/>
<path d="M864.306 242.037V212.385H865.257L866.446 241.641" stroke="url(#paint156_linear_332_3)"/>
<path d="M864.226 213.099L862.165 212.226V211.116L874.613 209.769L864.226 212.464" stroke="url(#paint157_linear_332_3)"/>
<path d="M864.306 210.799L857.805 199.303L862.72 211.116" stroke="url(#paint158_linear_332_3)"/>
<path d="M588.836 424.006L576.276 401.796L585.773 424.618" stroke="url(#paint159_linear_332_3)"/>
<path d="M756.654 392.361L750.777 409.991L758.099 393.036" stroke="url(#paint160_linear_332_3)"/>
<path d="M758.484 428.293V392.264H759.64L761.154 428.293" stroke="url(#paint161_linear_332_3)"/>
<path d="M758.389 393.131L755.884 392.071V390.723L771.009 389.085L758.389 392.36" stroke="url(#paint162_linear_332_3)"/>
<path d="M758.485 390.338L750.585 376.369L756.558 390.723" stroke="url(#paint163_linear_332_3)"/>
<path d="M658.682 371.314L687.018 381.117" stroke="url(#paint164_linear_332_3)"/>
<path d="M658.489 371.776L659.41 372.164L659.168 371.194C659.027 370.63 659.285 369.728 660.803 368.628C662.302 367.542 664.907 366.368 669.067 365.29C677.378 363.135 691.753 361.4 715.509 361.4C739.268 361.4 754.864 362.574 764.703 364.037C769.623 364.768 773.092 365.57 775.415 366.329C776.577 366.709 777.442 367.074 778.055 367.408C778.681 367.749 778.993 368.031 779.116 368.219L779.434 368.707L779.868 368.318L790.131 359.128L790.415 358.873L790.244 358.532L789.172 356.387L789.108 356.258L788.984 356.184C787.786 355.457 785.566 354.581 782.201 353.673C778.825 352.762 774.264 351.811 768.36 350.947C756.554 349.219 739.361 347.84 715.509 347.84C691.649 347.84 674.977 349.935 663.822 352.563C658.244 353.877 654.039 355.326 651.001 356.716C647.977 358.101 646.065 359.447 645.125 360.581L644.818 360.951L645.176 361.272L655.439 370.463L655.501 370.518L655.578 370.551L658.489 371.776Z" stroke="url(#paint165_linear_332_3)"/>
<path d="M706.931 396.587L671.242 369.017" stroke="url(#paint166_linear_332_3)"/>
<path d="M701.07 668.303L701.061 668.746L701.499 668.808L712.221 670.34L712.363 669.35L702.079 667.881L707.574 393.412H709.841H710.341V392.912V378.82V378.471L710.013 378.35L673.252 364.871L672.765 365.729L706.579 393.146L701.07 668.303Z" stroke="url(#paint167_linear_332_3)"/>
<path d="M723.014 392.645H725.391H726.69H730.979H731.175L731.319 392.512L760.881 365.094L761.815 364.228H760.541H757.018H756.825L756.682 364.357L726.497 391.645H723.014V392.645Z" stroke="url(#paint168_linear_332_3)"/>
<path d="M712.099 669.387L712.102 670.376L712.897 669.787L731.277 656.155L731.487 655.999L731.479 655.738L723.514 392.283L723.499 391.798H723.014H718.919V377.9V377.4H718.419H711.68H711.178L711.18 377.902L712.099 669.387Z" stroke="url(#paint169_linear_332_3)"/>
<path d="M678.135 367.179C689.469 364.729 719.705 361.297 749.972 367.179C728.651 377.105 721.993 379.892 721.329 380.046V389.849" stroke="url(#paint170_linear_332_3)"/>
<path d="M755.486 377.135C783.871 382.812 839.205 395.085 874.774 406.525M755.388 377.626C786.256 383.799 848.957 397.766 883.451 409.973C888.173 411.856 892.856 413.733 897.442 415.585L897.843 414.67C894.017 412.857 889.256 410.967 883.803 409.037C852.673 396.626 819.873 384.02 802.231 377.321L850.779 386.563L914.461 409.618L914.724 409.714L914.943 409.539L926.278 400.502L927.132 399.82L926.058 399.62L851.005 385.588L851.004 385.587L796.783 375.266L796.513 376.225C809.853 381.261 838.662 392.28 868.403 404.008C832.862 393.167 782.286 381.985 755.584 376.645L755.388 377.626Z" stroke="url(#paint171_linear_332_3)"/>
<path d="M857.345 269.514C835.759 268.302 820.431 265.235 820.431 261.643C820.431 256.99 846.147 253.219 877.87 253.219C909.593 253.219 935.309 256.99 935.309 261.643C935.309 265.469 917.922 268.699 894.106 269.726" stroke="url(#paint172_linear_332_3)"/>
<path d="M857.345 269.514C835.759 268.302 820.431 265.235 820.431 261.643C820.431 256.99 846.147 253.219 877.87 253.219C909.593 253.219 935.309 256.99 935.309 261.643C935.309 265.469 917.922 268.699 894.106 269.726" stroke="url(#paint173_linear_332_3)"/>
<path d="M820.89 262.716L812.159 252.913C812.159 246.822 841.716 241.885 878.176 241.885C914.636 241.885 944.193 246.822 944.193 252.913L934.39 263.176" stroke="url(#paint174_linear_332_3)"/>
<path d="M1270.14 2.17188V10.7495" stroke="url(#paint175_linear_332_3)"/>
<path d="M1264.63 8.45215V17.0297" stroke="url(#paint176_linear_332_3)"/>
<path d="M1238.08 526.898L1238.04 527.889L1306.82 539.53L1307.02 539.563L1307.18 539.45L1338.58 518.006L1338.25 517.095L1238.08 526.898Z" stroke="url(#paint177_linear_332_3)"/>
<path d="M1337.54 517.593L1366.18 516.215L1329.57 539.803L1306.44 538.884" stroke="url(#paint178_linear_332_3)"/>
<path d="M104.8 605.457L71.1521 632.804L70.862 633.04L49.0257 650.787L48.8606 650.922L48.8428 651.134L41.8731 734.202L42.8355 734.43L80.7366 639.857L80.8855 639.485L80.5554 639.259L72.0117 633.394L105.431 606.233L104.8 605.457Z" stroke="url(#paint179_linear_332_3)"/>
<path d="M156.669 549.613L126.816 583.536L126.394 583.045L126.312 584.265L125.063 603.019L125.023 603.629L125.628 603.548L141.205 601.474L142.119 601.352L141.518 600.653L127.474 584.302L157.419 550.273L156.669 549.613Z" stroke="url(#paint180_linear_332_3)"/>
<path d="M105.011 605.2L104.462 605.276L104.594 605.814L118.708 663.544L119.691 663.479L126.172 602.921L126.24 602.285L125.607 602.372L105.011 605.2Z" stroke="url(#paint181_linear_332_3)"/>
<path d="M153.573 710.525L152.15 769.846" stroke="url(#paint182_linear_332_3)"/>
<path d="M129.617 716.381L129.699 779.277" stroke="url(#paint183_linear_332_3)"/>
<path d="M186.312 696.104L186.314 696.092L186.316 696.08L196.622 614.403L195.63 614.278L185.325 695.943L175.032 754.382L154.025 710.802L167.041 657.325L167.081 657.159L167.011 657.003L142.7 602.712L141.949 601.035L141.747 602.861L128.842 719.134L93.3563 645.981L92.8073 644.85L92.4295 646.049L74.6763 702.425L74.6552 702.492L74.6534 702.562L72.9902 766.401L46.8399 782.171L46.5912 782.321L46.5982 782.611L47.8834 835.594L47.888 835.782L48.0155 835.921L63.9004 853.166L64.1228 853.408L64.4327 853.3L97.6411 841.734L130.338 860.072L131.259 860.589L131.075 859.549L125.312 826.968L129.815 780.075L145.767 821.928L146.731 821.806L152.469 771.203L166.384 813.395L167.354 813.311L175.749 756.077L175.75 756.069L186.312 696.104Z" stroke="url(#paint184_linear_332_3)"/>
<path d="M205.49 662.294L205.374 662.889L205.981 662.889L614.061 662.89L614.061 661.89L206.588 661.889L217.539 605.852L217.553 605.784L217.547 605.715L214.053 563.049L213.081 562.932L196.174 613.646L167.075 556.675L167.022 556.571L166.928 556.501L157.676 549.617L156.683 548.878L156.885 550.1L175.829 664.992L175.834 665.024L175.844 665.056L185.315 696.075L177.767 805.684L178.753 805.831L198.972 718.262L198.981 718.221L198.984 718.18L201.263 679.778L201.265 679.746L201.263 679.714L196.777 615L213.256 565.567L216.545 605.728L205.49 662.294Z" stroke="url(#paint185_linear_332_3)"/>
<path d="M1554.55 337.661L1554.48 338.225L1555.05 338.225L1641.09 338.25L1641.09 337.25L1555.62 337.225L1562.99 280.567L1563 280.498L1562.99 280.43L1556.79 238.072L1555.81 238.017L1542.16 289.704L1509.5 234.699L1509.44 234.599L1509.34 234.535L1499.67 228.254L1498.63 227.58L1498.91 228.786L1525.12 342.24L1525.13 342.272L1525.14 342.304L1536.57 372.657L1536.01 482.525L1537 482.608L1551.61 393.931L1551.61 393.889L1551.61 393.847L1551.45 355.379L1551.45 355.347L1551.44 355.315L1542.85 291.017L1556.15 240.636L1561.99 280.506L1554.55 337.661Z" stroke="url(#paint186_linear_332_3)"/>
<defs>
<linearGradient id="paint0_linear_332_3" x1="1196.77" y1="252.3" x2="1234.79" y2="244.669" gradientUnits="userSpaceOnUse">
<stop stop-color="#69C9FF"/>
<stop offset="1" stop-color="#88F1BB"/>
</linearGradient>
<linearGradient id="paint1_linear_332_3" x1="1107.47" y1="251.075" x2="1167.9" y2="236.063" gradientUnits="userSpaceOnUse">
<stop stop-color="#69C9FF"/>
<stop offset="1" stop-color="#88F1BB"/>
</linearGradient>
<linearGradient id="paint2_linear_332_3" x1="972.559" y1="586.563" x2="1032.99" y2="571.55" gradientUnits="userSpaceOnUse">
<stop stop-color="#69C9FF"/>
<stop offset="1" stop-color="#88F1BB"/>
</linearGradient>
<linearGradient id="paint3_linear_332_3" x1="1043.75" y1="357.07" x2="1071.84" y2="349.168" gradientUnits="userSpaceOnUse">
<stop stop-color="#69C9FF"/>
<stop offset="1" stop-color="#88F1BB"/>
</linearGradient>
<linearGradient id="paint4_linear_332_3" x1="908.839" y1="692.557" x2="936.922" y2="684.654" gradientUnits="userSpaceOnUse">
<stop stop-color="#69C9FF"/>
<stop offset="1" stop-color="#88F1BB"/>
</linearGradient>
<linearGradient id="paint5_linear_332_3" x1="1437.56" y1="544.551" x2="1453.84" y2="543.592" gradientUnits="userSpaceOnUse">
<stop stop-color="#69C9FF"/>
<stop offset="1" stop-color="#88F1BB"/>
</linearGradient>
<linearGradient id="paint6_linear_332_3" x1="1385.48" y1="502.468" x2="1435.23" y2="455.586" gradientUnits="userSpaceOnUse">
<stop stop-color="#69C9FF"/>
<stop offset="1" stop-color="#88F1BB"/>
</linearGradient>
<linearGradient id="paint7_linear_332_3" x1="1329.26" y1="359.52" x2="1330.34" y2="359.516" gradientUnits="userSpaceOnUse">
<stop stop-color="#69C9FF"/>
<stop offset="1" stop-color="#88F1BB"/>
</linearGradient>
<linearGradient id="paint8_linear_332_3" x1="1326.81" y1="359.52" x2="1327.89" y2="359.516" gradientUnits="userSpaceOnUse">
<stop stop-color="#69C9FF"/>
<stop offset="1" stop-color="#88F1BB"/>
</linearGradient>
<linearGradient id="paint9_linear_332_3" x1="1326.05" y1="543.632" x2="1346.24" y2="541.469" gradientUnits="userSpaceOnUse">
<stop stop-color="#69C9FF"/>
<stop offset="1" stop-color="#88F1BB"/>
</linearGradient>
<linearGradient id="paint10_linear_332_3" x1="1337.08" y1="362.124" x2="1339.76" y2="362.104" gradientUnits="userSpaceOnUse">
<stop stop-color="#69C9FF"/>
<stop offset="1" stop-color="#88F1BB"/>
</linearGradient>
<linearGradient id="paint11_linear_332_3" x1="1363.12" y1="536.279" x2="1367.41" y2="536.215" gradientUnits="userSpaceOnUse">
<stop stop-color="#69C9FF"/>
<stop offset="1" stop-color="#88F1BB"/>
</linearGradient>
<linearGradient id="paint12_linear_332_3" x1="1383.49" y1="532.757" x2="1400.2" y2="531.829" gradientUnits="userSpaceOnUse">
<stop stop-color="#69C9FF"/>
<stop offset="1" stop-color="#88F1BB"/>
</linearGradient>
<linearGradient id="paint13_linear_332_3" x1="1238.28" y1="529.387" x2="1263.51" y2="522.756" gradientUnits="userSpaceOnUse">
<stop stop-color="#69C9FF"/>
<stop offset="1" stop-color="#88F1BB"/>
</linearGradient>
<linearGradient id="paint14_linear_332_3" x1="1273.51" y1="531.072" x2="1318.32" y2="484.465" gradientUnits="userSpaceOnUse">
<stop stop-color="#69C9FF"/>
<stop offset="1" stop-color="#88F1BB"/>
</linearGradient>
<linearGradient id="paint15_linear_332_3" x1="1364.34" y1="374.684" x2="1424.74" y2="365.505" gradientUnits="userSpaceOnUse">
<stop stop-color="#69C9FF"/>
<stop offset="1" stop-color="#88F1BB"/>
</linearGradient>
<linearGradient id="paint16_linear_332_3" x1="1368.17" y1="374.684" x2="1380.19" y2="374.236" gradientUnits="userSpaceOnUse">
<stop stop-color="#69C9FF"/>
<stop offset="1" stop-color="#88F1BB"/>
</linearGradient>
<linearGradient id="paint17_linear_332_3" x1="1336.77" y1="340.373" x2="1354.63" y2="311.986" gradientUnits="userSpaceOnUse">
<stop stop-color="#69C9FF"/>
<stop offset="1" stop-color="#88F1BB"/>
</linearGradient>
<linearGradient id="paint18_linear_332_3" x1="1355.3" y1="354.435" x2="1378.69" y2="334.17" gradientUnits="userSpaceOnUse">
<stop stop-color="#69C9FF"/>
<stop offset="1" stop-color="#88F1BB"/>
</linearGradient>
<linearGradient id="paint19_linear_332_3" x1="1255.44" y1="359.674" x2="1268.7" y2="330.832" gradientUnits="userSpaceOnUse">
<stop stop-color="#69C9FF"/>
<stop offset="1" stop-color="#88F1BB"/>
</linearGradient>
<linearGradient id="paint20_linear_332_3" x1="1245.94" y1="354.771" x2="1264.98" y2="344.573" gradientUnits="userSpaceOnUse">
<stop stop-color="#69C9FF"/>
<stop offset="1" stop-color="#88F1BB"/>
</linearGradient>
<linearGradient id="paint21_linear_332_3" x1="1249.92" y1="338.383" x2="1269.72" y2="305.157" gradientUnits="userSpaceOnUse">
<stop stop-color="#69C9FF"/>
<stop offset="1" stop-color="#88F1BB"/>
</linearGradient>
<linearGradient id="paint22_linear_332_3" x1="1333.55" y1="212.782" x2="1335.7" y2="212.767" gradientUnits="userSpaceOnUse">
<stop stop-color="#69C9FF"/>
<stop offset="1" stop-color="#88F1BB"/>
</linearGradient>
<linearGradient id="paint23_linear_332_3" x1="1326.05" y1="212.629" x2="1328.2" y2="212.614" gradientUnits="userSpaceOnUse">
<stop stop-color="#69C9FF"/>
<stop offset="1" stop-color="#88F1BB"/>
</linearGradient>
<linearGradient id="paint24_linear_332_3" x1="1278.41" y1="187.352" x2="1308.09" y2="155.965" gradientUnits="userSpaceOnUse">
<stop stop-color="#69C9FF"/>
<stop offset="1" stop-color="#88F1BB"/>
</linearGradient>
<linearGradient id="paint25_linear_332_3" x1="1347.53" y1="154.479" x2="1352.54" y2="153.858" gradientUnits="userSpaceOnUse">
<stop stop-color="#69C9FF"/>
<stop offset="1" stop-color="#88F1BB"/>
</linearGradient>
<linearGradient id="paint26_linear_332_3" x1="1355.16" y1="154.384" x2="1357.09" y2="154.339" gradientUnits="userSpaceOnUse">
<stop stop-color="#69C9FF"/>
<stop offset="1" stop-color="#88F1BB"/>
</linearGradient>
<linearGradient id="paint27_linear_332_3" x1="1352.58" y1="151.236" x2="1357.27" y2="146.014" gradientUnits="userSpaceOnUse">
<stop stop-color="#69C9FF"/>
<stop offset="1" stop-color="#88F1BB"/>
</linearGradient>
<linearGradient id="paint28_linear_332_3" x1="1347.34" y1="138.647" x2="1352.68" y2="137.77" gradientUnits="userSpaceOnUse">
<stop stop-color="#69C9FF"/>
<stop offset="1" stop-color="#88F1BB"/>
</linearGradient>
<linearGradient id="paint29_linear_332_3" x1="779.993" y1="522.494" x2="789.113" y2="521.435" gradientUnits="userSpaceOnUse">
<stop stop-color="#69C9FF"/>
<stop offset="1" stop-color="#88F1BB"/>
</linearGradient>
<linearGradient id="paint30_linear_332_3" x1="1119.88" y1="77.0723" x2="1128.23" y2="73.0189" gradientUnits="userSpaceOnUse">
<stop stop-color="#69C9FF"/>
<stop offset="1" stop-color="#88F1BB"/>
</linearGradient>
<linearGradient id="paint31_linear_332_3" x1="1198.3" y1="13.5059" x2="1220.04" y2="9.8404" gradientUnits="userSpaceOnUse">
<stop stop-color="#69C9FF"/>
<stop offset="1" stop-color="#88F1BB"/>
</linearGradient>
<linearGradient id="paint32_linear_332_3" x1="1212.86" y1="15.0381" x2="1249.22" y2="5.21791" gradientUnits="userSpaceOnUse">
<stop stop-color="#69C9FF"/>
<stop offset="1" stop-color="#88F1BB"/>
</linearGradient>
<linearGradient id="paint33_linear_332_3" x1="1254.36" y1="50.2676" x2="1276.8" y2="42.1656" gradientUnits="userSpaceOnUse">
<stop stop-color="#69C9FF"/>
<stop offset="1" stop-color="#88F1BB"/>
</linearGradient>
<linearGradient id="paint34_linear_332_3" x1="1290.51" y1="87.7939" x2="1293.67" y2="86.6841" gradientUnits="userSpaceOnUse">
<stop stop-color="#69C9FF"/>
<stop offset="1" stop-color="#88F1BB"/>
</linearGradient>
<linearGradient id="paint35_linear_332_3" x1="1309.66" y1="85.9561" x2="1312.86" y2="85.6806" gradientUnits="userSpaceOnUse">
<stop stop-color="#69C9FF"/>
<stop offset="1" stop-color="#88F1BB"/>
</linearGradient>
<linearGradient id="paint36_linear_332_3" x1="1305.06" y1="86.875" x2="1305.49" y2="86.8686" gradientUnits="userSpaceOnUse">
<stop stop-color="#69C9FF"/>
<stop offset="1" stop-color="#88F1BB"/>
</linearGradient>
<linearGradient id="paint37_linear_332_3" x1="1296.18" y1="86.2627" x2="1304.82" y2="80.5125" gradientUnits="userSpaceOnUse">
<stop stop-color="#69C9FF"/>
<stop offset="1" stop-color="#88F1BB"/>
</linearGradient>
<linearGradient id="paint38_linear_332_3" x1="1296.79" y1="59.6113" x2="1301.58" y2="58.492" gradientUnits="userSpaceOnUse">
<stop stop-color="#69C9FF"/>
<stop offset="1" stop-color="#88F1BB"/>
</linearGradient>
<linearGradient id="paint39_linear_332_3" x1="1253.14" y1="52.8721" x2="1266.83" y2="48.0832" gradientUnits="userSpaceOnUse">
<stop stop-color="#69C9FF"/>
<stop offset="1" stop-color="#88F1BB"/>
</linearGradient>
<linearGradient id="paint40_linear_332_3" x1="1281.02" y1="18.2549" x2="1283.15" y2="18.0954" gradientUnits="userSpaceOnUse">
<stop stop-color="#69C9FF"/>
<stop offset="1" stop-color="#88F1BB"/>
</linearGradient>
<linearGradient id="paint41_linear_332_3" x1="1242.11" y1="74.7754" x2="1242.64" y2="74.7225" gradientUnits="userSpaceOnUse">
<stop stop-color="#69C9FF"/>
<stop offset="1" stop-color="#88F1BB"/>
</linearGradient>
<linearGradient id="paint42_linear_332_3" x1="1294.65" y1="39.6982" x2="1296.04" y2="39.5837" gradientUnits="userSpaceOnUse">
<stop stop-color="#69C9FF"/>
<stop offset="1" stop-color="#88F1BB"/>
</linearGradient>
<linearGradient id="paint43_linear_332_3" x1="1235.83" y1="78.9111" x2="1236.36" y2="78.8582" gradientUnits="userSpaceOnUse">
<stop stop-color="#69C9FF"/>
<stop offset="1" stop-color="#88F1BB"/>
</linearGradient>
<linearGradient id="paint44_linear_332_3" x1="1196.77" y1="63.9004" x2="1198.15" y2="63.7335" gradientUnits="userSpaceOnUse">
<stop stop-color="#69C9FF"/>
<stop offset="1" stop-color="#88F1BB"/>
</linearGradient>
<linearGradient id="paint45_linear_332_3" x1="1194.47" y1="69.4141" x2="1195.85" y2="69.2472" gradientUnits="userSpaceOnUse">
<stop stop-color="#69C9FF"/>
<stop offset="1" stop-color="#88F1BB"/>
</linearGradient>
<linearGradient id="paint46_linear_332_3" x1="1206.73" y1="76" x2="1207.27" y2="75.9795" gradientUnits="userSpaceOnUse">
<stop stop-color="#69C9FF"/>
<stop offset="1" stop-color="#88F1BB"/>
</linearGradient>
<linearGradient id="paint47_linear_332_3" x1="1226.49" y1="52.2588" x2="1226.92" y2="52.2495" gradientUnits="userSpaceOnUse">
<stop stop-color="#69C9FF"/>
<stop offset="1" stop-color="#88F1BB"/>
</linearGradient>
<linearGradient id="paint48_linear_332_3" x1="1233.69" y1="43.6816" x2="1234.12" y2="43.6723" gradientUnits="userSpaceOnUse">
<stop stop-color="#69C9FF"/>
<stop offset="1" stop-color="#88F1BB"/>
</linearGradient>
<linearGradient id="paint49_linear_332_3" x1="1240.43" y1="36.4824" x2="1242.82" y2="35.8221" gradientUnits="userSpaceOnUse">
<stop stop-color="#69C9FF"/>
<stop offset="1" stop-color="#88F1BB"/>
</linearGradient>
<linearGradient id="paint50_linear_332_3" x1="1250.23" y1="25.3008" x2="1252.63" y2="24.6405" gradientUnits="userSpaceOnUse">
<stop stop-color="#69C9FF"/>
<stop offset="1" stop-color="#88F1BB"/>
</linearGradient>
<linearGradient id="paint51_linear_332_3" x1="1202.29" y1="47.6641" x2="1203.04" y2="47.6468" gradientUnits="userSpaceOnUse">
<stop stop-color="#69C9FF"/>
<stop offset="1" stop-color="#88F1BB"/>
</linearGradient>
<linearGradient id="paint52_linear_332_3" x1="1243.03" y1="4.57324" x2="1243.06" y2="4.09761" gradientUnits="userSpaceOnUse">
<stop stop-color="#69C9FF"/>
<stop offset="1" stop-color="#88F1BB"/>
</linearGradient>
<linearGradient id="paint53_linear_332_3" x1="1208.87" y1="8.29883" x2="1216.62" y2="7.44193" gradientUnits="userSpaceOnUse">
<stop stop-color="#69C9FF"/>
<stop offset="1" stop-color="#88F1BB"/>
</linearGradient>
<linearGradient id="paint54_linear_332_3" x1="1220.05" y1="6.00098" x2="1222.1" y2="3.14938" gradientUnits="userSpaceOnUse">
<stop stop-color="#69C9FF"/>
<stop offset="1" stop-color="#88F1BB"/>
</linearGradient>
<linearGradient id="paint55_linear_332_3" x1="1195.55" y1="18.5605" x2="1198.18" y2="17.5619" gradientUnits="userSpaceOnUse">
<stop stop-color="#69C9FF"/>
<stop offset="1" stop-color="#88F1BB"/>
</linearGradient>
<linearGradient id="paint56_linear_332_3" x1="1195.39" y1="15.3438" x2="1200.14" y2="12.0061" gradientUnits="userSpaceOnUse">
<stop stop-color="#69C9FF"/>
<stop offset="1" stop-color="#88F1BB"/>
</linearGradient>
<linearGradient id="paint57_linear_332_3" x1="1175.63" y1="52.1055" x2="1179.76" y2="50.8438" gradientUnits="userSpaceOnUse">
<stop stop-color="#69C9FF"/>
<stop offset="1" stop-color="#88F1BB"/>
</linearGradient>
<linearGradient id="paint58_linear_332_3" x1="1176.25" y1="28.0576" x2="1180.46" y2="27.452" gradientUnits="userSpaceOnUse">
<stop stop-color="#69C9FF"/>
<stop offset="1" stop-color="#88F1BB"/>
</linearGradient>
<linearGradient id="paint59_linear_332_3" x1="1175.79" y1="63.9004" x2="1179.72" y2="63.479" gradientUnits="userSpaceOnUse">
<stop stop-color="#69C9FF"/>
<stop offset="1" stop-color="#88F1BB"/>
</linearGradient>
<linearGradient id="paint60_linear_332_3" x1="1133.67" y1="68.3418" x2="1140.25" y2="64.5089" gradientUnits="userSpaceOnUse">
<stop stop-color="#69C9FF"/>
<stop offset="1" stop-color="#88F1BB"/>
</linearGradient>
<linearGradient id="paint61_linear_332_3" x1="1146.99" y1="75.3877" x2="1149.93" y2="74.4791" gradientUnits="userSpaceOnUse">
<stop stop-color="#69C9FF"/>
<stop offset="1" stop-color="#88F1BB"/>
</linearGradient>
<linearGradient id="paint62_linear_332_3" x1="1152.51" y1="80.29" x2="1155.15" y2="79.4697" gradientUnits="userSpaceOnUse">
<stop stop-color="#69C9FF"/>
<stop offset="1" stop-color="#88F1BB"/>
</linearGradient>
<linearGradient id="paint63_linear_332_3" x1="1234.3" y1="42.915" x2="1279.23" y2="19.4575" gradientUnits="userSpaceOnUse">
<stop stop-color="#69C9FF"/>
<stop offset="1" stop-color="#88F1BB"/>
</linearGradient>
<linearGradient id="paint64_linear_332_3" x1="1207.65" y1="3.39746" x2="1265.33" y2="-16.8715" gradientUnits="userSpaceOnUse">
<stop stop-color="#69C9FF"/>
<stop offset="1" stop-color="#88F1BB"/>
</linearGradient>
<linearGradient id="paint65_linear_332_3" x1="1188.35" y1="89.0205" x2="1197.2" y2="86.3205" gradientUnits="userSpaceOnUse">
<stop stop-color="#69C9FF"/>
<stop offset="1" stop-color="#88F1BB"/>
</linearGradient>
<linearGradient id="paint66_linear_332_3" x1="1192.64" y1="1" x2="1243.34" y2="-13.6219" gradientUnits="userSpaceOnUse">
<stop stop-color="#69C9FF"/>
<stop offset="1" stop-color="#88F1BB"/>
</linearGradient>
<linearGradient id="paint67_linear_332_3" x1="1181.46" y1="4.46973" x2="1209.06" y2="0.189483" gradientUnits="userSpaceOnUse">
<stop stop-color="#69C9FF"/>
<stop offset="1" stop-color="#88F1BB"/>
</linearGradient>
<linearGradient id="paint68_linear_332_3" x1="1137.95" y1="26.0664" x2="1163.71" y2="20.9902" gradientUnits="userSpaceOnUse">
<stop stop-color="#69C9FF"/>
<stop offset="1" stop-color="#88F1BB"/>
</linearGradient>
<linearGradient id="paint69_linear_332_3" x1="1159.09" y1="89.4795" x2="1168.63" y2="85.9323" gradientUnits="userSpaceOnUse">
<stop stop-color="#69C9FF"/>
<stop offset="1" stop-color="#88F1BB"/>
</linearGradient>
<linearGradient id="paint70_linear_332_3" x1="1113.45" y1="66.6572" x2="1135.13" y2="55.6268" gradientUnits="userSpaceOnUse">
<stop stop-color="#69C9FF"/>
<stop offset="1" stop-color="#88F1BB"/>
</linearGradient>
<linearGradient id="paint71_linear_332_3" x1="1107.63" y1="98.3633" x2="1119.62" y2="87.6284" gradientUnits="userSpaceOnUse">
<stop stop-color="#69C9FF"/>
<stop offset="1" stop-color="#88F1BB"/>
</linearGradient>
<linearGradient id="paint72_linear_332_3" x1="1099.51" y1="101.427" x2="1103.86" y2="100.951" gradientUnits="userSpaceOnUse">
<stop stop-color="#69C9FF"/>
<stop offset="1" stop-color="#88F1BB"/>
</linearGradient>
<linearGradient id="paint73_linear_332_3" x1="1114.52" y1="96.9854" x2="1126.57" y2="87.6089" gradientUnits="userSpaceOnUse">
<stop stop-color="#69C9FF"/>
<stop offset="1" stop-color="#88F1BB"/>
</linearGradient>
<linearGradient id="paint74_linear_332_3" x1="1183.29" y1="81.9736" x2="1190.98" y2="67.2513" gradientUnits="userSpaceOnUse">
<stop stop-color="#69C9FF"/>
<stop offset="1" stop-color="#88F1BB"/>
</linearGradient>
<linearGradient id="paint75_linear_332_3" x1="1132.59" y1="81.9736" x2="1142.86" y2="65.7882" gradientUnits="userSpaceOnUse">
<stop stop-color="#69C9FF"/>
<stop offset="1" stop-color="#88F1BB"/>
</linearGradient>
<linearGradient id="paint76_linear_332_3" x1="1090.47" y1="85.8027" x2="1106.28" y2="68.8624" gradientUnits="userSpaceOnUse">
<stop stop-color="#69C9FF"/>
<stop offset="1" stop-color="#88F1BB"/>
</linearGradient>
<linearGradient id="paint77_linear_332_3" x1="1057.54" y1="93.9219" x2="1073.92" y2="77.968" gradientUnits="userSpaceOnUse">
<stop stop-color="#69C9FF"/>
<stop offset="1" stop-color="#88F1BB"/>
</linearGradient>
<linearGradient id="paint78_linear_332_3" x1="1040.84" y1="105.716" x2="1055.16" y2="92.9574" gradientUnits="userSpaceOnUse">
<stop stop-color="#69C9FF"/>
<stop offset="1" stop-color="#88F1BB"/>
</linearGradient>
<linearGradient id="paint79_linear_332_3" x1="1042.38" y1="127.159" x2="1055.49" y2="114.881" gradientUnits="userSpaceOnUse">
<stop stop-color="#69C9FF"/>
<stop offset="1" stop-color="#88F1BB"/>
</linearGradient>
<linearGradient id="paint80_linear_332_3" x1="1041.15" y1="117.51" x2="1053.44" y2="109.332" gradientUnits="userSpaceOnUse">
<stop stop-color="#69C9FF"/>
<stop offset="1" stop-color="#88F1BB"/>
</linearGradient>
<linearGradient id="paint81_linear_332_3" x1="1060.14" y1="134.358" x2="1071.58" y2="125.728" gradientUnits="userSpaceOnUse">
<stop stop-color="#69C9FF"/>
<stop offset="1" stop-color="#88F1BB"/>
</linearGradient>
<linearGradient id="paint82_linear_332_3" x1="1117.74" y1="128.691" x2="1118.49" y2="128.674" gradientUnits="userSpaceOnUse">
<stop stop-color="#69C9FF"/>
<stop offset="1" stop-color="#88F1BB"/>
</linearGradient>
<linearGradient id="paint83_linear_332_3" x1="1117.74" y1="124.25" x2="1122.75" y2="118.691" gradientUnits="userSpaceOnUse">
<stop stop-color="#69C9FF"/>
<stop offset="1" stop-color="#88F1BB"/>
</linearGradient>
<linearGradient id="paint84_linear_332_3" x1="1096.6" y1="118.888" x2="1099.07" y2="118.789" gradientUnits="userSpaceOnUse">
<stop stop-color="#69C9FF"/>
<stop offset="1" stop-color="#88F1BB"/>
</linearGradient>
<linearGradient id="paint85_linear_332_3" x1="1064.58" y1="117.969" x2="1077.77" y2="106.593" gradientUnits="userSpaceOnUse">
<stop stop-color="#69C9FF"/>
<stop offset="1" stop-color="#88F1BB"/>
</linearGradient>
<linearGradient id="paint86_linear_332_3" x1="1077.3" y1="107.707" x2="1098.78" y2="95.3526" gradientUnits="userSpaceOnUse">
<stop stop-color="#69C9FF"/>
<stop offset="1" stop-color="#88F1BB"/>
</linearGradient>
<linearGradient id="paint87_linear_332_3" x1="1103.18" y1="98.6699" x2="1123.63" y2="90.7187" gradientUnits="userSpaceOnUse">
<stop stop-color="#69C9FF"/>
<stop offset="1" stop-color="#88F1BB"/>
</linearGradient>
<linearGradient id="paint88_linear_332_3" x1="1138.87" y1="91.624" x2="1150.73" y2="89.1876" gradientUnits="userSpaceOnUse">
<stop stop-color="#69C9FF"/>
<stop offset="1" stop-color="#88F1BB"/>
</linearGradient>
<linearGradient id="paint89_linear_332_3" x1="1184.21" y1="88.4072" x2="1180.25" y2="88.1745" gradientUnits="userSpaceOnUse">
<stop stop-color="#69C9FF"/>
<stop offset="1" stop-color="#88F1BB"/>
</linearGradient>
<linearGradient id="paint90_linear_332_3" x1="1083.73" y1="104.337" x2="1134.24" y2="68.4661" gradientUnits="userSpaceOnUse">
<stop stop-color="#69C9FF"/>
<stop offset="1" stop-color="#88F1BB"/>
</linearGradient>
<linearGradient id="paint91_linear_332_3" x1="1220.97" y1="99.0986" x2="1248.72" y2="70.1605" gradientUnits="userSpaceOnUse">
<stop stop-color="#69C9FF"/>
<stop offset="1" stop-color="#88F1BB"/>
</linearGradient>
<linearGradient id="paint92_linear_332_3" x1="1191.56" y1="82.5859" x2="1256.39" y2="46.416" gradientUnits="userSpaceOnUse">
<stop stop-color="#69C9FF"/>
<stop offset="1" stop-color="#88F1BB"/>
</linearGradient>
<linearGradient id="paint93_linear_332_3" x1="1235.98" y1="132.979" x2="1266.36" y2="127.465" gradientUnits="userSpaceOnUse">
<stop stop-color="#69C9FF"/>
<stop offset="1" stop-color="#88F1BB"/>
</linearGradient>
<linearGradient id="paint94_linear_332_3" x1="1201.83" y1="183.066" x2="1252.27" y2="170.615" gradientUnits="userSpaceOnUse">
<stop stop-color="#69C9FF"/>
<stop offset="1" stop-color="#88F1BB"/>
</linearGradient>
<linearGradient id="paint95_linear_332_3" x1="1187.43" y1="214.008" x2="1247.21" y2="206.521" gradientUnits="userSpaceOnUse">
<stop stop-color="#69C9FF"/>
<stop offset="1" stop-color="#88F1BB"/>
</linearGradient>
<linearGradient id="paint96_linear_332_3" x1="1086.79" y1="301.621" x2="1101.15" y2="300.131" gradientUnits="userSpaceOnUse">
<stop stop-color="#69C9FF"/>
<stop offset="1" stop-color="#88F1BB"/>
</linearGradient>
<linearGradient id="paint97_linear_332_3" x1="951.881" y1="637.108" x2="966.235" y2="635.618" gradientUnits="userSpaceOnUse">
<stop stop-color="#69C9FF"/>
<stop offset="1" stop-color="#88F1BB"/>
</linearGradient>
<linearGradient id="paint98_linear_332_3" x1="1085.26" y1="190.419" x2="1096.05" y2="189.55" gradientUnits="userSpaceOnUse">
<stop stop-color="#69C9FF"/>
<stop offset="1" stop-color="#88F1BB"/>
</linearGradient>
<linearGradient id="paint99_linear_332_3" x1="1109.92" y1="186.59" x2="1120.29" y2="185.838" gradientUnits="userSpaceOnUse">
<stop stop-color="#69C9FF"/>
<stop offset="1" stop-color="#88F1BB"/>
</linearGradient>
<linearGradient id="paint100_linear_332_3" x1="1021.08" y1="108.319" x2="1151.32" y2="77.4271" gradientUnits="userSpaceOnUse">
<stop stop-color="#69C9FF"/>
<stop offset="1" stop-color="#88F1BB"/>
</linearGradient>
<linearGradient id="paint101_linear_332_3" x1="886.17" y1="443.807" x2="1016.41" y2="412.914" gradientUnits="userSpaceOnUse">
<stop stop-color="#69C9FF"/>
<stop offset="1" stop-color="#88F1BB"/>
</linearGradient>
<linearGradient id="paint102_linear_332_3" x1="940.823" y1="149.369" x2="1038.43" y2="132.924" gradientUnits="userSpaceOnUse">
<stop stop-color="#69C9FF"/>
<stop offset="1" stop-color="#88F1BB"/>
</linearGradient>
<linearGradient id="paint103_linear_332_3" x1="935.31" y1="261.797" x2="979.778" y2="241.031" gradientUnits="userSpaceOnUse">
<stop stop-color="#69C9FF"/>
<stop offset="1" stop-color="#88F1BB"/>
</linearGradient>
<linearGradient id="paint104_linear_332_3" x1="882.006" y1="260.878" x2="896.47" y2="260.074" gradientUnits="userSpaceOnUse">
<stop stop-color="#69C9FF"/>
<stop offset="1" stop-color="#88F1BB"/>
</linearGradient>
<linearGradient id="paint105_linear_332_3" x1="845.857" y1="258.428" x2="865.944" y2="256.889" gradientUnits="userSpaceOnUse">
<stop stop-color="#69C9FF"/>
<stop offset="1" stop-color="#88F1BB"/>
</linearGradient>
<linearGradient id="paint106_linear_332_3" x1="873.122" y1="406.391" x2="873.823" y2="406.377" gradientUnits="userSpaceOnUse">
<stop stop-color="#69C9FF"/>
<stop offset="1" stop-color="#88F1BB"/>
</linearGradient>
<linearGradient id="paint107_linear_332_3" x1="868.221" y1="404.246" x2="868.922" y2="404.234" gradientUnits="userSpaceOnUse">
<stop stop-color="#69C9FF"/>
<stop offset="1" stop-color="#88F1BB"/>
</linearGradient>
<linearGradient id="paint108_linear_332_3" x1="855.813" y1="448.053" x2="866.92" y2="445.454" gradientUnits="userSpaceOnUse">
<stop stop-color="#69C9FF"/>
<stop offset="1" stop-color="#88F1BB"/>
</linearGradient>
<linearGradient id="paint109_linear_332_3" x1="572.6" y1="500.131" x2="584.738" y2="490.369" gradientUnits="userSpaceOnUse">
<stop stop-color="#69C9FF"/>
<stop offset="1" stop-color="#88F1BB"/>
</linearGradient>
<linearGradient id="paint110_linear_332_3" x1="592.512" y1="499.672" x2="608.437" y2="493.287" gradientUnits="userSpaceOnUse">
<stop stop-color="#69C9FF"/>
<stop offset="1" stop-color="#88F1BB"/>
</linearGradient>
<linearGradient id="paint111_linear_332_3" x1="590.215" y1="499.825" x2="606.878" y2="493.008" gradientUnits="userSpaceOnUse">
<stop stop-color="#69C9FF"/>
<stop offset="1" stop-color="#88F1BB"/>
</linearGradient>
<linearGradient id="paint112_linear_332_3" x1="632.337" y1="500.131" x2="653.222" y2="498.901" gradientUnits="userSpaceOnUse">
<stop stop-color="#69C9FF"/>
<stop offset="1" stop-color="#88F1BB"/>
</linearGradient>
<linearGradient id="paint113_linear_332_3" x1="613.497" y1="509.321" x2="618.225" y2="509.26" gradientUnits="userSpaceOnUse">
<stop stop-color="#69C9FF"/>
<stop offset="1" stop-color="#88F1BB"/>
</linearGradient>
<linearGradient id="paint114_linear_332_3" x1="620.695" y1="507.33" x2="628.966" y2="507.143" gradientUnits="userSpaceOnUse">
<stop stop-color="#69C9FF"/>
<stop offset="1" stop-color="#88F1BB"/>
</linearGradient>
<linearGradient id="paint115_linear_332_3" x1="558.814" y1="482.67" x2="576.543" y2="446.754" gradientUnits="userSpaceOnUse">
<stop stop-color="#69C9FF"/>
<stop offset="1" stop-color="#88F1BB"/>
</linearGradient>
<linearGradient id="paint116_linear_332_3" x1="667.106" y1="488.49" x2="685.69" y2="476.163" gradientUnits="userSpaceOnUse">
<stop stop-color="#69C9FF"/>
<stop offset="1" stop-color="#88F1BB"/>
</linearGradient>
<linearGradient id="paint117_linear_332_3" x1="727.149" y1="489.409" x2="727.537" y2="487.123" gradientUnits="userSpaceOnUse">
<stop stop-color="#69C9FF"/>
<stop offset="1" stop-color="#88F1BB"/>
</linearGradient>
<linearGradient id="paint118_linear_332_3" x1="727.456" y1="507.483" x2="728.824" y2="504.069" gradientUnits="userSpaceOnUse">
<stop stop-color="#69C9FF"/>
<stop offset="1" stop-color="#88F1BB"/>
</linearGradient>
<linearGradient id="paint119_linear_332_3" x1="740.629" y1="506.259" x2="768.6" y2="482.126" gradientUnits="userSpaceOnUse">
<stop stop-color="#69C9FF"/>
<stop offset="1" stop-color="#88F1BB"/>
</linearGradient>
<linearGradient id="paint120_linear_332_3" x1="746.143" y1="489.409" x2="763.473" y2="458.386" gradientUnits="userSpaceOnUse">
<stop stop-color="#69C9FF"/>
<stop offset="1" stop-color="#88F1BB"/>
</linearGradient>
<linearGradient id="paint121_linear_332_3" x1="810.321" y1="489.409" x2="829.366" y2="476.55" gradientUnits="userSpaceOnUse">
<stop stop-color="#69C9FF"/>
<stop offset="1" stop-color="#88F1BB"/>
</linearGradient>
<linearGradient id="paint122_linear_332_3" x1="781.066" y1="457.551" x2="788.199" y2="456.855" gradientUnits="userSpaceOnUse">
<stop stop-color="#69C9FF"/>
<stop offset="1" stop-color="#88F1BB"/>
</linearGradient>
<linearGradient id="paint123_linear_332_3" x1="779.228" y1="458.162" x2="780.624" y2="458.135" gradientUnits="userSpaceOnUse">
<stop stop-color="#69C9FF"/>
<stop offset="1" stop-color="#88F1BB"/>
</linearGradient>
<linearGradient id="paint124_linear_332_3" x1="745.224" y1="438.863" x2="767.899" y2="418.993" gradientUnits="userSpaceOnUse">
<stop stop-color="#69C9FF"/>
<stop offset="1" stop-color="#88F1BB"/>
</linearGradient>
<linearGradient id="paint125_linear_332_3" x1="734.502" y1="435.493" x2="740.452" y2="419.728" gradientUnits="userSpaceOnUse">
<stop stop-color="#69C9FF"/>
<stop offset="1" stop-color="#88F1BB"/>
</linearGradient>
<linearGradient id="paint126_linear_332_3" x1="832.531" y1="417.113" x2="841.866" y2="399.819" gradientUnits="userSpaceOnUse">
<stop stop-color="#69C9FF"/>
<stop offset="1" stop-color="#88F1BB"/>
</linearGradient>
<linearGradient id="paint127_linear_332_3" x1="796.383" y1="420.023" x2="832.182" y2="382.452" gradientUnits="userSpaceOnUse">
<stop stop-color="#69C9FF"/>
<stop offset="1" stop-color="#88F1BB"/>
</linearGradient>
<linearGradient id="paint128_linear_332_3" x1="734.502" y1="426.609" x2="742.819" y2="402.457" gradientUnits="userSpaceOnUse">
<stop stop-color="#69C9FF"/>
<stop offset="1" stop-color="#88F1BB"/>
</linearGradient>
<linearGradient id="paint129_linear_332_3" x1="837.127" y1="366.413" x2="876.705" y2="328.68" gradientUnits="userSpaceOnUse">
<stop stop-color="#69C9FF"/>
<stop offset="1" stop-color="#88F1BB"/>
</linearGradient>
<linearGradient id="paint130_linear_332_3" x1="891.809" y1="399.038" x2="938.07" y2="354.301" gradientUnits="userSpaceOnUse">
<stop stop-color="#69C9FF"/>
<stop offset="1" stop-color="#88F1BB"/>
</linearGradient>
<linearGradient id="paint131_linear_332_3" x1="787.346" y1="360.898" x2="860.207" y2="276.389" gradientUnits="userSpaceOnUse">
<stop stop-color="#69C9FF"/>
<stop offset="1" stop-color="#88F1BB"/>
</linearGradient>
<linearGradient id="paint132_linear_332_3" x1="665.575" y1="293.351" x2="673.62" y2="292.354" gradientUnits="userSpaceOnUse">
<stop stop-color="#69C9FF"/>
<stop offset="1" stop-color="#88F1BB"/>
</linearGradient>
<linearGradient id="paint133_linear_332_3" x1="576.582" y1="427.222" x2="584.626" y2="426.225" gradientUnits="userSpaceOnUse">
<stop stop-color="#69C9FF"/>
<stop offset="1" stop-color="#88F1BB"/>
</linearGradient>
<linearGradient id="paint134_linear_332_3" x1="677.828" y1="293.197" x2="680.729" y2="293.135" gradientUnits="userSpaceOnUse">
<stop stop-color="#69C9FF"/>
<stop offset="1" stop-color="#88F1BB"/>
</linearGradient>
<linearGradient id="paint135_linear_332_3" x1="588.836" y1="427.068" x2="591.736" y2="427.006" gradientUnits="userSpaceOnUse">
<stop stop-color="#69C9FF"/>
<stop offset="1" stop-color="#88F1BB"/>
</linearGradient>
<linearGradient id="paint136_linear_332_3" x1="673.692" y1="288.143" x2="681.212" y2="279.756" gradientUnits="userSpaceOnUse">
<stop stop-color="#69C9FF"/>
<stop offset="1" stop-color="#88F1BB"/>
</linearGradient>
<linearGradient id="paint137_linear_332_3" x1="584.7" y1="422.014" x2="592.22" y2="413.627" gradientUnits="userSpaceOnUse">
<stop stop-color="#69C9FF"/>
<stop offset="1" stop-color="#88F1BB"/>
</linearGradient>
<linearGradient id="paint138_linear_332_3" x1="665.269" y1="267.924" x2="673.85" y2="266.515" gradientUnits="userSpaceOnUse">
<stop stop-color="#69C9FF"/>
<stop offset="1" stop-color="#88F1BB"/>
</linearGradient>
<linearGradient id="paint139_linear_332_3" x1="835.081" y1="196.613" x2="841.693" y2="195.794" gradientUnits="userSpaceOnUse">
<stop stop-color="#69C9FF"/>
<stop offset="1" stop-color="#88F1BB"/>
</linearGradient>
<linearGradient id="paint140_linear_332_3" x1="845.152" y1="196.487" x2="847.536" y2="196.436" gradientUnits="userSpaceOnUse">
<stop stop-color="#69C9FF"/>
<stop offset="1" stop-color="#88F1BB"/>
</linearGradient>
<linearGradient id="paint141_linear_332_3" x1="841.753" y1="192.333" x2="847.933" y2="185.44" gradientUnits="userSpaceOnUse">
<stop stop-color="#69C9FF"/>
<stop offset="1" stop-color="#88F1BB"/>
</linearGradient>
<linearGradient id="paint142_linear_332_3" x1="834.829" y1="175.715" x2="841.882" y2="174.557" gradientUnits="userSpaceOnUse">
<stop stop-color="#69C9FF"/>
<stop offset="1" stop-color="#88F1BB"/>
</linearGradient>
<linearGradient id="paint143_linear_332_3" x1="1385.27" y1="293.723" x2="1391.88" y2="292.903" gradientUnits="userSpaceOnUse">
<stop stop-color="#69C9FF"/>
<stop offset="1" stop-color="#88F1BB"/>
</linearGradient>
<linearGradient id="paint144_linear_332_3" x1="1395.34" y1="293.597" x2="1397.56" y2="293.553" gradientUnits="userSpaceOnUse">
<stop stop-color="#69C9FF"/>
<stop offset="1" stop-color="#88F1BB"/>
</linearGradient>
<linearGradient id="paint145_linear_332_3" x1="1391.94" y1="289.443" x2="1398.12" y2="282.55" gradientUnits="userSpaceOnUse">
<stop stop-color="#69C9FF"/>
<stop offset="1" stop-color="#88F1BB"/>
</linearGradient>
<linearGradient id="paint146_linear_332_3" x1="1385.02" y1="272.825" x2="1392.07" y2="271.667" gradientUnits="userSpaceOnUse">
<stop stop-color="#69C9FF"/>
<stop offset="1" stop-color="#88F1BB"/>
</linearGradient>
<linearGradient id="paint147_linear_332_3" x1="1478.4" y1="455.471" x2="1485.01" y2="454.651" gradientUnits="userSpaceOnUse">
<stop stop-color="#69C9FF"/>
<stop offset="1" stop-color="#88F1BB"/>
</linearGradient>
<linearGradient id="paint148_linear_332_3" x1="1488.47" y1="455.346" x2="1490.68" y2="455.302" gradientUnits="userSpaceOnUse">
<stop stop-color="#69C9FF"/>
<stop offset="1" stop-color="#88F1BB"/>
</linearGradient>
<linearGradient id="paint149_linear_332_3" x1="1485.07" y1="451.191" x2="1491.25" y2="444.299" gradientUnits="userSpaceOnUse">
<stop stop-color="#69C9FF"/>
<stop offset="1" stop-color="#88F1BB"/>
</linearGradient>
<linearGradient id="paint150_linear_332_3" x1="1478.15" y1="434.573" x2="1485.2" y2="433.415" gradientUnits="userSpaceOnUse">
<stop stop-color="#69C9FF"/>
<stop offset="1" stop-color="#88F1BB"/>
</linearGradient>
<linearGradient id="paint151_linear_332_3" x1="1461.46" y1="472.482" x2="1465.7" y2="471.957" gradientUnits="userSpaceOnUse">
<stop stop-color="#69C9FF"/>
<stop offset="1" stop-color="#88F1BB"/>
</linearGradient>
<linearGradient id="paint152_linear_332_3" x1="1467.92" y1="472.402" x2="1469.34" y2="472.374" gradientUnits="userSpaceOnUse">
<stop stop-color="#69C9FF"/>
<stop offset="1" stop-color="#88F1BB"/>
</linearGradient>
<linearGradient id="paint153_linear_332_3" x1="1465.74" y1="469.738" x2="1469.7" y2="465.318" gradientUnits="userSpaceOnUse">
<stop stop-color="#69C9FF"/>
<stop offset="1" stop-color="#88F1BB"/>
</linearGradient>
<linearGradient id="paint154_linear_332_3" x1="1461.3" y1="459.082" x2="1465.82" y2="458.339" gradientUnits="userSpaceOnUse">
<stop stop-color="#69C9FF"/>
<stop offset="1" stop-color="#88F1BB"/>
</linearGradient>
<linearGradient id="paint155_linear_332_3" x1="857.963" y1="212.464" x2="862.127" y2="211.948" gradientUnits="userSpaceOnUse">
<stop stop-color="#69C9FF"/>
<stop offset="1" stop-color="#88F1BB"/>
</linearGradient>
<linearGradient id="paint156_linear_332_3" x1="864.306" y1="212.385" x2="865.807" y2="212.352" gradientUnits="userSpaceOnUse">
<stop stop-color="#69C9FF"/>
<stop offset="1" stop-color="#88F1BB"/>
</linearGradient>
<linearGradient id="paint157_linear_332_3" x1="862.165" y1="209.769" x2="866.057" y2="205.427" gradientUnits="userSpaceOnUse">
<stop stop-color="#69C9FF"/>
<stop offset="1" stop-color="#88F1BB"/>
</linearGradient>
<linearGradient id="paint158_linear_332_3" x1="857.805" y1="199.303" x2="862.247" y2="198.573" gradientUnits="userSpaceOnUse">
<stop stop-color="#69C9FF"/>
<stop offset="1" stop-color="#88F1BB"/>
</linearGradient>
<linearGradient id="paint159_linear_332_3" x1="576.276" y1="401.796" x2="584.858" y2="400.387" gradientUnits="userSpaceOnUse">
<stop stop-color="#69C9FF"/>
<stop offset="1" stop-color="#88F1BB"/>
</linearGradient>
<linearGradient id="paint160_linear_332_3" x1="750.777" y1="392.361" x2="755.837" y2="391.734" gradientUnits="userSpaceOnUse">
<stop stop-color="#69C9FF"/>
<stop offset="1" stop-color="#88F1BB"/>
</linearGradient>
<linearGradient id="paint161_linear_332_3" x1="758.484" y1="392.264" x2="760.356" y2="392.222" gradientUnits="userSpaceOnUse">
<stop stop-color="#69C9FF"/>
<stop offset="1" stop-color="#88F1BB"/>
</linearGradient>
<linearGradient id="paint162_linear_332_3" x1="755.884" y1="389.085" x2="760.613" y2="383.81" gradientUnits="userSpaceOnUse">
<stop stop-color="#69C9FF"/>
<stop offset="1" stop-color="#88F1BB"/>
</linearGradient>
<linearGradient id="paint163_linear_332_3" x1="750.585" y1="376.369" x2="755.982" y2="375.483" gradientUnits="userSpaceOnUse">
<stop stop-color="#69C9FF"/>
<stop offset="1" stop-color="#88F1BB"/>
</linearGradient>
<linearGradient id="paint164_linear_332_3" x1="658.682" y1="371.314" x2="670.083" y2="361.481" gradientUnits="userSpaceOnUse">
<stop stop-color="#69C9FF"/>
<stop offset="1" stop-color="#88F1BB"/>
</linearGradient>
<linearGradient id="paint165_linear_332_3" x1="645.51" y1="348.34" x2="667.954" y2="306.286" gradientUnits="userSpaceOnUse">
<stop stop-color="#69C9FF"/>
<stop offset="1" stop-color="#88F1BB"/>
</linearGradient>
<linearGradient id="paint166_linear_332_3" x1="671.242" y1="369.017" x2="693.033" y2="360.601" gradientUnits="userSpaceOnUse">
<stop stop-color="#69C9FF"/>
<stop offset="1" stop-color="#88F1BB"/>
</linearGradient>
<linearGradient id="paint167_linear_332_3" x1="673.08" y1="365.341" x2="700.552" y2="364.285" gradientUnits="userSpaceOnUse">
<stop stop-color="#69C9FF"/>
<stop offset="1" stop-color="#88F1BB"/>
</linearGradient>
<linearGradient id="paint168_linear_332_3" x1="723.014" y1="364.728" x2="745.581" y2="355.512" gradientUnits="userSpaceOnUse">
<stop stop-color="#69C9FF"/>
<stop offset="1" stop-color="#88F1BB"/>
</linearGradient>
<linearGradient id="paint169_linear_332_3" x1="711.68" y1="377.9" x2="725.216" y2="377.633" gradientUnits="userSpaceOnUse">
<stop stop-color="#69C9FF"/>
<stop offset="1" stop-color="#88F1BB"/>
</linearGradient>
<linearGradient id="paint170_linear_332_3" x1="678.135" y1="363.932" x2="708.068" y2="339.177" gradientUnits="userSpaceOnUse">
<stop stop-color="#69C9FF"/>
<stop offset="1" stop-color="#88F1BB"/>
</linearGradient>
<linearGradient id="paint171_linear_332_3" x1="755.486" y1="375.757" x2="800.295" y2="317.86" gradientUnits="userSpaceOnUse">
<stop stop-color="#69C9FF"/>
<stop offset="1" stop-color="#88F1BB"/>
</linearGradient>
<linearGradient id="paint172_linear_332_3" x1="820.431" y1="253.219" x2="835.607" y2="221.707" gradientUnits="userSpaceOnUse">
<stop stop-color="#69C9FF"/>
<stop offset="1" stop-color="#88F1BB"/>
</linearGradient>
<linearGradient id="paint173_linear_332_3" x1="820.431" y1="253.219" x2="835.607" y2="221.707" gradientUnits="userSpaceOnUse">
<stop stop-color="#69C9FF"/>
<stop offset="1" stop-color="#88F1BB"/>
</linearGradient>
<linearGradient id="paint174_linear_332_3" x1="812.159" y1="241.885" x2="833.103" y2="203.134" gradientUnits="userSpaceOnUse">
<stop stop-color="#69C9FF"/>
<stop offset="1" stop-color="#88F1BB"/>
</linearGradient>
<linearGradient id="paint175_linear_332_3" x1="1270.14" y1="2.17188" x2="1270.84" y2="2.1475" gradientUnits="userSpaceOnUse">
<stop stop-color="#69C9FF"/>
<stop offset="1" stop-color="#88F1BB"/>
</linearGradient>
<linearGradient id="paint176_linear_332_3" x1="1264.63" y1="8.45215" x2="1265.33" y2="8.42777" gradientUnits="userSpaceOnUse">
<stop stop-color="#69C9FF"/>
<stop offset="1" stop-color="#88F1BB"/>
</linearGradient>
<linearGradient id="paint177_linear_332_3" x1="1238.13" y1="517.593" x2="1262.01" y2="484.301" gradientUnits="userSpaceOnUse">
<stop stop-color="#69C9FF"/>
<stop offset="1" stop-color="#88F1BB"/>
</linearGradient>
<linearGradient id="paint178_linear_332_3" x1="1306.44" y1="516.215" x2="1333.12" y2="496.055" gradientUnits="userSpaceOnUse">
<stop stop-color="#69C9FF"/>
<stop offset="1" stop-color="#88F1BB"/>
</linearGradient>
<linearGradient id="paint179_linear_332_3" x1="131.198" y1="712.526" x2="76.0613" y2="741.461" gradientUnits="userSpaceOnUse">
<stop stop-color="#69C9FF"/>
<stop offset="1" stop-color="#88F1BB"/>
</linearGradient>
<linearGradient id="paint180_linear_332_3" x1="167.921" y1="594.431" x2="142.518" y2="608.777" gradientUnits="userSpaceOnUse">
<stop stop-color="#69C9FF"/>
<stop offset="1" stop-color="#88F1BB"/>
</linearGradient>
<linearGradient id="paint181_linear_332_3" x1="139.28" y1="658.515" x2="125.691" y2="663.371" gradientUnits="userSpaceOnUse">
<stop stop-color="#69C9FF"/>
<stop offset="1" stop-color="#88F1BB"/>
</linearGradient>
<linearGradient id="paint182_linear_332_3" x1="167.178" y1="766.172" x2="156.908" y2="769.577" gradientUnits="userSpaceOnUse">
<stop stop-color="#69C9FF"/>
<stop offset="1" stop-color="#88F1BB"/>
</linearGradient>
<linearGradient id="paint183_linear_332_3" x1="144.132" y1="775.748" x2="134.237" y2="778.942" gradientUnits="userSpaceOnUse">
<stop stop-color="#69C9FF"/>
<stop offset="1" stop-color="#88F1BB"/>
</linearGradient>
<linearGradient id="paint184_linear_332_3" x1="249.019" y1="830.68" x2="129.845" y2="891.618" gradientUnits="userSpaceOnUse">
<stop stop-color="#69C9FF"/>
<stop offset="1" stop-color="#88F1BB"/>
</linearGradient>
<linearGradient id="paint185_linear_332_3" x1="622.547" y1="697.097" x2="412.739" y2="886.318" gradientUnits="userSpaceOnUse">
<stop stop-color="#69C9FF"/>
<stop offset="1" stop-color="#88F1BB"/>
</linearGradient>
<linearGradient id="paint186_linear_332_3" x1="1673.03" y1="439.779" x2="1584.8" y2="484.639" gradientUnits="userSpaceOnUse">
<stop stop-color="#69C9FF"/>
<stop offset="1" stop-color="#88F1BB"/>
</linearGradient>
</defs>
</svg>
