<svg width="1282" height="484" viewBox="0 0 1282 484" fill="none" xmlns="http://www.w3.org/2000/svg">
<circle cx="642" cy="242" r="241.5" stroke="url(#paint0_linear_47_183)"/>
<circle cx="642" cy="242" r="80.5" stroke="url(#paint1_linear_47_183)"/>
<circle cx="421.498" cy="241.5" r="52" stroke="url(#paint2_linear_47_183)"/>
<circle cx="882.5" cy="241.5" r="122" stroke="url(#paint3_linear_47_183)"/>
<circle cx="1003.5" cy="241.5" r="37" stroke="url(#paint4_linear_47_183)"/>
<circle cx="1039.5" cy="241.5" r="18" stroke="url(#paint5_linear_47_183)"/>
<circle cx="369.5" cy="241.5" r="164" stroke="url(#paint6_linear_47_183)"/>
<circle cx="206.5" cy="241.5" r="26" stroke="url(#paint7_linear_47_183)"/>
<path d="M11 267.5C12.5663 267.5 14.0051 266.688 15.2591 265.336C16.5125 263.984 17.6183 262.055 18.5366 259.713C20.3742 255.027 21.5 248.587 21.5 241.5C21.5 234.412 20.3742 227.972 18.5366 223.286C17.6183 220.944 16.5125 219.015 15.2591 217.663C14.0051 216.311 12.5663 215.5 11 215.5C9.43372 215.5 7.9949 216.311 6.74089 217.663C5.48747 219.015 4.38169 220.944 3.46345 223.286C1.62576 227.972 0.5 234.412 0.5 241.5C0.5 248.587 1.62576 255.027 3.46345 259.713C4.38169 262.055 5.48747 263.984 6.74089 265.336C7.9949 266.688 9.43372 267.5 11 267.5Z" stroke="url(#paint8_linear_47_183)"/>
<path d="M1109.86 252.639C1111.58 251.731 1112.29 249.576 1112.23 247.077C1112.17 244.543 1111.33 241.481 1109.75 238.474C1108.17 235.467 1106.12 233.04 1104.07 231.556C1102.04 230.092 1099.87 229.453 1098.14 230.361C1096.42 231.268 1095.71 233.424 1095.77 235.923C1095.83 238.456 1096.67 241.518 1098.25 244.525C1099.83 247.532 1101.88 249.959 1103.93 251.443C1105.96 252.907 1108.13 253.546 1109.86 252.639Z" stroke="url(#paint9_linear_47_183)"/>
<path d="M1275 259.5C1276.04 259.5 1276.96 258.883 1277.72 257.939C1278.49 256.991 1279.16 255.649 1279.72 254.036C1280.82 250.804 1281.5 246.372 1281.5 241.5C1281.5 236.627 1280.82 232.195 1279.72 228.963C1279.16 227.35 1278.49 226.008 1277.72 225.06C1276.96 224.116 1276.04 223.5 1275 223.5C1273.96 223.5 1273.04 224.116 1272.28 225.06C1271.51 226.008 1270.84 227.35 1270.28 228.963C1269.18 232.195 1268.5 236.627 1268.5 241.5C1268.5 246.372 1269.18 250.804 1270.28 254.036C1270.84 255.649 1271.51 256.991 1272.28 257.939C1273.04 258.883 1273.96 259.5 1275 259.5Z" stroke="url(#paint10_linear_47_183)"/>
<path d="M1266 268.5C1267.46 268.5 1268.77 267.629 1269.89 266.23C1271.02 264.826 1272.01 262.826 1272.84 260.399C1274.49 255.539 1275.5 248.857 1275.5 241.5C1275.5 234.142 1274.49 227.46 1272.84 222.6C1272.01 220.173 1271.02 218.173 1269.89 216.769C1268.77 215.37 1267.46 214.5 1266 214.5C1264.54 214.5 1263.23 215.37 1262.11 216.769C1260.98 218.173 1259.99 220.173 1259.16 222.6C1257.51 227.46 1256.5 234.142 1256.5 241.5C1256.5 248.857 1257.51 255.539 1259.16 260.399C1259.99 262.826 1260.98 264.826 1262.11 266.23C1263.23 267.629 1264.54 268.5 1266 268.5Z" stroke="url(#paint11_linear_47_183)"/>
<path d="M1230.14 281.875C1237.53 278.221 1242.13 270.8 1243.65 261.832C1245.17 252.862 1243.61 242.306 1238.65 232.275C1233.69 222.244 1226.24 214.601 1218.19 210.365C1210.14 206.128 1201.45 205.283 1194.07 208.937C1186.68 212.59 1182.08 220.011 1180.56 228.979C1179.04 237.949 1180.59 248.505 1185.56 258.536C1190.52 268.567 1197.96 276.21 1206.01 280.446C1214.06 284.683 1222.75 285.528 1230.14 281.875Z" stroke="url(#paint12_linear_47_183)"/>
<path d="M1169.89 268.444C1175.03 268.595 1179.73 265.852 1183.17 261.384C1186.61 256.915 1188.83 250.692 1189.03 243.775C1189.24 236.858 1187.39 230.515 1184.21 225.852C1181.04 221.19 1176.51 218.176 1171.37 218.025C1166.22 217.875 1161.53 220.618 1158.09 225.086C1154.64 229.555 1152.43 235.778 1152.23 242.695C1152.02 249.612 1153.87 255.954 1157.04 260.617C1160.22 265.279 1164.74 268.293 1169.89 268.444Z" stroke="url(#paint13_linear_47_183)"/>
<path d="M26 267.5C30.3917 267.5 34.2773 264.477 37.0376 259.785C39.8046 255.081 41.5 248.615 41.5 241.5C41.5 234.385 39.8046 227.919 37.0376 223.215C34.2773 218.523 30.3917 215.5 26 215.5C21.6083 215.5 17.7227 218.523 14.9624 223.215C12.1954 227.919 10.5 234.385 10.5 241.5C10.5 248.615 12.1954 255.081 14.9624 259.785C17.7227 264.477 21.6083 267.5 26 267.5Z" stroke="url(#paint14_linear_47_183)"/>
<path d="M31.7242 280.955C33.678 282.157 36.2128 282.049 39.0226 280.99C41.8403 279.927 45.0249 277.877 48.3766 275.038C55.0843 269.355 62.5501 260.433 69.2013 249.622C75.8524 238.812 80.4509 228.126 82.5 219.577C83.5239 215.305 83.9181 211.538 83.5964 208.544C83.2755 205.558 82.2293 203.247 80.2756 202.045C78.3219 200.843 75.787 200.951 72.9772 202.01C70.1595 203.073 66.975 205.123 63.6233 207.963C56.9155 213.646 49.4497 222.568 42.7985 233.378C36.1474 244.188 31.5489 254.874 29.4998 263.423C28.476 267.695 28.0817 271.462 28.4034 274.456C28.7243 277.442 29.7705 279.753 31.7242 280.955Z" stroke="url(#paint15_linear_47_183)"/>
<path d="M109.505 297.255C134.523 309.554 166.49 295.441 180.977 265.973C195.464 236.506 187.118 202.573 162.1 190.274C137.083 177.974 105.116 192.088 90.6285 221.555C76.1414 251.022 84.4873 284.955 109.505 297.255Z" stroke="url(#paint16_linear_47_183)"/>
<g filter="url(#filter0_f_47_183)">
<rect x="563" y="242.489" width="111" height="111" transform="rotate(-45 563 242.489)" fill="url(#paint17_linear_47_183)"/>
</g>
<g filter="url(#filter1_d_47_183)">
<circle cx="641" cy="242" r="45" transform="rotate(-180 641 242)" fill="url(#paint18_linear_47_183)"/>
</g>
<path d="M641.001 205.25C647.601 233.15 668.751 241.375 678.501 242L641.001 242L641.001 205.25Z" fill="white"/>
<path d="M641 278.749C634.4 250.849 613.25 242.624 603.5 241.999L641 241.999L641 278.749Z" fill="white"/>
<defs>
<filter id="filter0_f_47_183" x="489" y="90" width="304.978" height="304.978" filterUnits="userSpaceOnUse" color-interpolation-filters="sRGB">
<feFlood flood-opacity="0" result="BackgroundImageFix"/>
<feBlend mode="normal" in="SourceGraphic" in2="BackgroundImageFix" result="shape"/>
<feGaussianBlur stdDeviation="37" result="effect1_foregroundBlur_47_183"/>
</filter>
<filter id="filter1_d_47_183" x="583" y="193" width="116" height="116" filterUnits="userSpaceOnUse" color-interpolation-filters="sRGB">
<feFlood flood-opacity="0" result="BackgroundImageFix"/>
<feColorMatrix in="SourceAlpha" type="matrix" values="0 0 0 0 0 0 0 0 0 0 0 0 0 0 0 0 0 0 127 0" result="hardAlpha"/>
<feOffset dy="9"/>
<feGaussianBlur stdDeviation="6.5"/>
<feComposite in2="hardAlpha" operator="out"/>
<feColorMatrix type="matrix" values="0 0 0 0 0.258333 0 0 0 0 0.606825 0 0 0 0 0.666667 0 0 0 0.22 0"/>
<feBlend mode="normal" in2="BackgroundImageFix" result="effect1_dropShadow_47_183"/>
<feBlend mode="normal" in="SourceGraphic" in2="effect1_dropShadow_47_183" result="shape"/>
</filter>
<linearGradient id="paint0_linear_47_183" x1="401" y1="1" x2="711.549" y2="-91.6539" gradientUnits="userSpaceOnUse">
<stop stop-color="#69C9FF"/>
<stop offset="1" stop-color="#88F1BB"/>
</linearGradient>
<linearGradient id="paint1_linear_47_183" x1="562" y1="162" x2="665.086" y2="131.244" gradientUnits="userSpaceOnUse">
<stop stop-color="#69C9FF"/>
<stop offset="1" stop-color="#88F1BB"/>
</linearGradient>
<linearGradient id="paint2_linear_47_183" x1="369.998" y1="190" x2="436.36" y2="170.201" gradientUnits="userSpaceOnUse">
<stop stop-color="#69C9FF"/>
<stop offset="1" stop-color="#88F1BB"/>
</linearGradient>
<linearGradient id="paint3_linear_47_183" x1="761" y1="120" x2="917.564" y2="73.2886" gradientUnits="userSpaceOnUse">
<stop stop-color="#69C9FF"/>
<stop offset="1" stop-color="#88F1BB"/>
</linearGradient>
<linearGradient id="paint4_linear_47_183" x1="967.002" y1="205" x2="1014.04" y2="190.967" gradientUnits="userSpaceOnUse">
<stop stop-color="#69C9FF"/>
<stop offset="1" stop-color="#88F1BB"/>
</linearGradient>
<linearGradient id="paint5_linear_47_183" x1="1022" y1="224" x2="1044.55" y2="217.272" gradientUnits="userSpaceOnUse">
<stop stop-color="#69C9FF"/>
<stop offset="1" stop-color="#88F1BB"/>
</linearGradient>
<linearGradient id="paint6_linear_47_183" x1="206" y1="78" x2="416.684" y2="15.1415" gradientUnits="userSpaceOnUse">
<stop stop-color="#69C9FF"/>
<stop offset="1" stop-color="#88F1BB"/>
</linearGradient>
<linearGradient id="paint7_linear_47_183" x1="181" y1="216" x2="213.859" y2="206.196" gradientUnits="userSpaceOnUse">
<stop stop-color="#69C9FF"/>
<stop offset="1" stop-color="#88F1BB"/>
</linearGradient>
<linearGradient id="paint8_linear_47_183" x1="1" y1="216" x2="14.8434" y2="214.38" gradientUnits="userSpaceOnUse">
<stop stop-color="#69C9FF"/>
<stop offset="1" stop-color="#88F1BB"/>
</linearGradient>
<linearGradient id="paint9_linear_47_183" x1="1093.06" y1="233.596" x2="1099.79" y2="228.681" gradientUnits="userSpaceOnUse">
<stop stop-color="#69C9FF"/>
<stop offset="1" stop-color="#88F1BB"/>
</linearGradient>
<linearGradient id="paint10_linear_47_183" x1="1269" y1="224" x2="1277.33" y2="223.147" gradientUnits="userSpaceOnUse">
<stop stop-color="#69C9FF"/>
<stop offset="1" stop-color="#88F1BB"/>
</linearGradient>
<linearGradient id="paint11_linear_47_183" x1="1257" y1="215" x2="1269.5" y2="213.733" gradientUnits="userSpaceOnUse">
<stop stop-color="#69C9FF"/>
<stop offset="1" stop-color="#88F1BB"/>
</linearGradient>
<linearGradient id="paint12_linear_47_183" x1="1168.19" y1="222.293" x2="1199.44" y2="197.423" gradientUnits="userSpaceOnUse">
<stop stop-color="#69C9FF"/>
<stop offset="1" stop-color="#88F1BB"/>
</linearGradient>
<linearGradient id="paint13_linear_47_183" x1="1153.45" y1="218" x2="1177.6" y2="213.515" gradientUnits="userSpaceOnUse">
<stop stop-color="#69C9FF"/>
<stop offset="1" stop-color="#88F1BB"/>
</linearGradient>
<linearGradient id="paint14_linear_47_183" x1="11" y1="216" x2="31.4204" y2="212.416" gradientUnits="userSpaceOnUse">
<stop stop-color="#69C9FF"/>
<stop offset="1" stop-color="#88F1BB"/>
</linearGradient>
<linearGradient id="paint15_linear_47_183" x1="67.238" y1="194.61" x2="86.0635" y2="203.802" gradientUnits="userSpaceOnUse">
<stop stop-color="#69C9FF"/>
<stop offset="1" stop-color="#88F1BB"/>
</linearGradient>
<linearGradient id="paint16_linear_47_183" x1="117.154" y1="168.734" x2="183.482" y2="182.904" gradientUnits="userSpaceOnUse">
<stop stop-color="#69C9FF"/>
<stop offset="1" stop-color="#88F1BB"/>
</linearGradient>
<linearGradient id="paint17_linear_47_183" x1="563" y1="242.489" x2="634.517" y2="221.151" gradientUnits="userSpaceOnUse">
<stop stop-color="#69C9FF"/>
<stop offset="1" stop-color="#88F1BB"/>
</linearGradient>
<linearGradient id="paint18_linear_47_183" x1="596" y1="197" x2="653.987" y2="179.699" gradientUnits="userSpaceOnUse">
<stop stop-color="#69C9FF"/>
<stop offset="1" stop-color="#88F1BB"/>
</linearGradient>
</defs>
</svg>
