<svg width="59" height="59" viewBox="0 0 59 59" fill="none" xmlns="http://www.w3.org/2000/svg">
<circle cx="29.5" cy="29.5003" r="19" transform="rotate(40.3136 29.5 29.5003)" stroke="white"/>
<path d="M17.2075 43.9881C20.0043 46.3611 23.9155 46.7937 27.9112 45.6751C31.9103 44.5555 36.0517 41.8721 39.4127 37.9109C42.7737 33.9497 44.7467 29.4266 45.2001 25.2985C45.6531 21.174 44.5892 17.3855 41.7924 15.0125C38.9956 12.6395 35.0845 12.2069 31.0888 13.3255C27.0897 14.4451 22.9483 17.1285 19.5873 21.0897C16.2263 25.0509 14.2533 29.574 13.7999 33.7021C13.3469 37.8266 14.4108 41.6151 17.2075 43.9881Z" stroke="white"/>
<path d="M17.2075 43.9881C17.9045 44.5794 18.9372 44.4758 19.9764 44.102C21.0564 43.7135 22.3464 42.9636 23.7569 41.9382C26.5845 39.8827 29.9894 36.6517 33.3125 32.7352C36.6356 28.8186 39.269 24.9329 40.8365 21.8084C41.6185 20.2497 42.1483 18.8548 42.3557 17.7259C42.5553 16.6396 42.4893 15.6039 41.7924 15.0125C41.0955 14.4212 40.0628 14.5248 39.0235 14.8986C37.9435 15.2871 36.6535 16.037 35.243 17.0624C32.4154 19.1179 29.0105 22.3489 25.6874 26.2655C22.3643 30.182 19.731 34.0677 18.1634 37.1923C17.3814 38.751 16.8516 40.1459 16.6442 41.2747C16.4446 42.361 16.5106 43.3968 17.2075 43.9881Z" stroke="white"/>
<circle cx="29.5" cy="29.5" r="29" stroke="white"/>
</svg>
