<svg width="80" height="73" viewBox="0 0 80 73" fill="none" xmlns="http://www.w3.org/2000/svg">
<path d="M39.7731 1.75L39.34 1L38.907 1.75L28.6591 19.5L28.2261 20.25H29.0921H49.588H50.454L50.021 19.5L39.7731 1.75Z" stroke="url(#paint0_linear_47_266)"/>
<path d="M26.5196 25.417L26.0866 24.667L25.6536 25.417L15.4056 43.167L14.9726 43.917H15.8387H36.3346H37.2006L36.7676 43.167L26.5196 25.417Z" stroke="url(#paint1_linear_47_266)"/>
<path d="M40.7197 49.083L40.2867 48.333L39.8537 49.083L29.6057 66.833L29.1727 67.583H30.0387H50.5347H51.4007L50.9677 66.833L40.7197 49.083Z" stroke="url(#paint2_linear_47_266)"/>
<path d="M13.2663 49.083L12.8333 48.333L12.4003 49.083L2.15235 66.833L1.71934 67.583H2.58537H23.0813H23.9473L23.5143 66.833L13.2663 49.083Z" stroke="url(#paint3_linear_47_266)"/>
<path d="M53.973 25.417L53.54 24.667L53.107 25.417L42.859 43.167L42.426 43.917H43.292H63.788H64.654L64.221 43.167L53.973 25.417Z" stroke="url(#paint4_linear_47_266)"/>
<path d="M68.173 49.083L67.7399 48.333L67.3069 49.083L57.059 66.833L56.626 67.583H57.492H77.9879H78.8539L78.4209 66.833L68.173 49.083Z" stroke="url(#paint5_linear_47_266)"/>
<defs>
<linearGradient id="paint0_linear_47_266" x1="27.5067" y1="2" x2="42.755" y2="-2.54939" gradientUnits="userSpaceOnUse">
<stop stop-color="#69C9FF"/>
<stop offset="1" stop-color="#88F1BB"/>
</linearGradient>
<linearGradient id="paint1_linear_47_266" x1="14.2533" y1="25.667" x2="29.5016" y2="21.1176" gradientUnits="userSpaceOnUse">
<stop stop-color="#69C9FF"/>
<stop offset="1" stop-color="#88F1BB"/>
</linearGradient>
<linearGradient id="paint2_linear_47_266" x1="28.4534" y1="49.333" x2="43.7016" y2="44.7836" gradientUnits="userSpaceOnUse">
<stop stop-color="#69C9FF"/>
<stop offset="1" stop-color="#88F1BB"/>
</linearGradient>
<linearGradient id="paint3_linear_47_266" x1="1" y1="49.333" x2="16.2483" y2="44.7836" gradientUnits="userSpaceOnUse">
<stop stop-color="#69C9FF"/>
<stop offset="1" stop-color="#88F1BB"/>
</linearGradient>
<linearGradient id="paint4_linear_47_266" x1="41.7067" y1="25.667" x2="56.9549" y2="21.1176" gradientUnits="userSpaceOnUse">
<stop stop-color="#69C9FF"/>
<stop offset="1" stop-color="#88F1BB"/>
</linearGradient>
<linearGradient id="paint5_linear_47_266" x1="55.9066" y1="49.333" x2="71.1549" y2="44.7836" gradientUnits="userSpaceOnUse">
<stop stop-color="#69C9FF"/>
<stop offset="1" stop-color="#88F1BB"/>
</linearGradient>
</defs>
</svg>
