<svg width="59" height="59" viewBox="0 0 59 59" fill="none" xmlns="http://www.w3.org/2000/svg">
<path d="M48.4981 29.2825L48.4978 29.2766C48.3949 26.7276 46.3312 24.6866 43.7787 24.7403L43.7787 24.7402L43.7658 24.7408C42.7673 24.7876 41.8502 25.1611 41.1173 25.7512C38.1206 23.7068 34.6234 22.571 31.0285 22.3776L32.6164 14.5216L37.7574 15.5907C38.1223 17.2274 39.5997 18.4096 41.3074 18.196C43.1052 17.9712 44.4105 16.3406 44.1933 14.4918C43.9796 12.6729 42.4154 11.2977 40.586 11.5242C39.6748 11.6243 38.8473 12.1137 38.3239 12.8459L31.8645 11.5311C31.8642 11.5311 31.864 11.531 31.8637 11.531C31.1437 11.3828 30.4049 11.8284 30.2555 12.5911C30.2553 12.592 30.2552 12.5929 30.255 12.5938L28.3006 22.1724C24.5856 22.2952 21.0096 23.4802 17.8822 25.5625C16.0573 24.0796 13.3611 24.2226 11.7344 26.0509C10.0325 27.9162 10.0784 30.899 11.9473 32.6666L11.9534 32.6723L11.9596 32.6779C12.2209 32.9089 12.5273 33.1551 12.8759 33.357C12.8574 33.6939 12.8654 34.0271 12.901 34.3375C12.9122 37.7484 14.8395 40.7968 17.861 42.9754C20.8922 45.161 25.0559 46.5 29.6358 46.5C34.2147 46.5 38.3783 45.1735 41.41 42.9937C44.4336 40.8197 46.3606 37.7697 46.3706 34.3344C46.4052 33.9996 46.4142 33.6626 46.3963 33.3421C47.7037 32.5213 48.546 30.9631 48.4981 29.2825ZM36.0275 39.4306C36.0737 39.4982 36.0969 39.5754 36.0969 39.6527L35.9917 39.7334C34.0889 41.1945 31.8003 41.9617 29.4799 41.8261L29.4556 41.8247L29.4313 41.8257C27.1163 41.9158 24.8038 41.2017 22.9658 39.7771C22.8946 39.6625 22.9113 39.5131 23.0264 39.4093C23.1032 39.3446 23.2114 39.3165 23.3716 39.4342C25.1172 40.7346 27.2554 41.4414 29.4507 41.3463C31.6328 41.4415 33.7754 40.8378 35.5794 39.4795L35.5951 39.4677L35.6099 39.4546C35.7348 39.3442 35.8972 39.3362 36.0275 39.4306ZM36.4963 34.7145H35.8337C34.5981 34.7145 33.5585 33.6647 33.5585 32.3511C33.5585 31.0374 34.5981 29.9876 35.8337 29.9876C37.0693 29.9876 38.1089 31.0374 38.1089 32.3511V32.3584L38.1091 32.3657C38.1417 33.4775 37.4669 34.4185 36.4963 34.7145ZM20.6076 32.2079C20.6076 30.8943 21.6473 29.8445 22.8828 29.8445C24.1184 29.8445 25.158 30.8943 25.158 32.2079C25.158 33.5215 24.1184 34.5713 22.8828 34.5713C21.6473 34.5713 20.6076 33.5215 20.6076 32.2079Z" stroke="white"/>
<circle cx="29.5" cy="29.5" r="29" stroke="white"/>
</svg>
