<svg width="35" height="34" viewBox="0 0 35 34" fill="none" xmlns="http://www.w3.org/2000/svg">
<g clip-path="url(#clip0_48_34)">
<circle cx="17.8157" cy="16.8157" r="16.4099" transform="rotate(-90 17.8157 16.8157)" stroke="url(#paint0_linear_48_34)"/>
<path d="M26.7349 7.89645C23.558 4.71949 19.6885 2.81014 15.9847 2.3084C12.2804 1.8066 8.71142 2.71283 6.21213 5.21213C3.71283 7.71142 2.8066 11.2804 3.3084 14.9847C3.81014 18.6885 5.71949 22.558 8.89645 25.7349C12.0734 28.9119 15.9429 30.8212 19.6467 31.323C23.351 31.8248 26.9199 30.9185 29.4192 28.4192C31.9185 25.9199 32.8248 22.351 32.323 18.6467C31.8212 14.9429 29.9119 11.0734 26.7349 7.89645Z" stroke="url(#paint1_linear_48_34)"/>
<path d="M22.0442 21.0442C25.1792 17.9092 27.5953 14.6189 28.9601 11.8199C29.6413 10.4227 30.0734 9.12217 30.1873 8.00899C30.3007 6.90085 30.104 5.89696 29.4192 5.21214C28.7344 4.52733 27.7305 4.33067 26.6224 4.44406C25.5092 4.55796 24.2086 4.99003 22.8114 5.6713C20.0125 7.03609 16.7221 9.45215 13.5871 12.5872C10.4521 15.7222 8.03604 19.0125 6.67126 21.8115C5.98999 23.2087 5.55792 24.5092 5.44402 25.6224C5.33063 26.7305 5.52729 27.7344 6.2121 28.4193C6.89692 29.1041 7.90081 29.3007 9.00895 29.1873C10.1221 29.0734 11.4227 28.6414 12.8199 27.9601C15.6188 26.5953 18.9092 24.1793 22.0442 21.0442Z" stroke="url(#paint2_linear_48_34)"/>
<path d="M21.8848 13.3486C19.5018 10.5519 16.913 8.3585 14.6387 7.08027C13.5033 6.44218 12.422 6.01833 11.4676 5.87565C10.5146 5.7332 9.62333 5.86412 8.96346 6.42635C8.30359 6.98859 8.03284 7.8478 8.02219 8.81127C8.01152 9.77626 8.25832 10.9112 8.70807 12.1334C9.60901 14.5818 11.3636 17.486 13.7465 20.2828C16.1295 23.0796 18.7183 25.2729 20.9926 26.5512C22.128 27.1893 23.2093 27.6131 24.1637 27.7558C25.1167 27.8982 26.008 27.7673 26.6678 27.2051C27.3277 26.6429 27.5985 25.7836 27.6091 24.8202C27.6198 23.8552 27.373 22.7203 26.9232 21.498C26.0223 19.0496 24.2678 16.1454 21.8848 13.3486Z" stroke="url(#paint3_linear_48_34)"/>
</g>
<defs>
<linearGradient id="paint0_linear_48_34" x1="1.90576" y1="0.905793" x2="22.407" y2="-5.21086" gradientUnits="userSpaceOnUse">
<stop stop-color="#69C9FF"/>
<stop offset="1" stop-color="#88F1BB"/>
</linearGradient>
<linearGradient id="paint1_linear_48_34" x1="20.5" y1="36.6314" x2="1.45164" y2="28.3085" gradientUnits="userSpaceOnUse">
<stop stop-color="#69C9FF"/>
<stop offset="1" stop-color="#88F1BB"/>
</linearGradient>
<linearGradient id="paint2_linear_48_34" x1="2.69067" y1="24.1907" x2="3.89754" y2="7.35832" gradientUnits="userSpaceOnUse">
<stop stop-color="#69C9FF"/>
<stop offset="1" stop-color="#88F1BB"/>
</linearGradient>
<linearGradient id="paint3_linear_48_34" x1="22.655" y1="29.9673" x2="8.55716" y2="27.3354" gradientUnits="userSpaceOnUse">
<stop stop-color="#69C9FF"/>
<stop offset="1" stop-color="#88F1BB"/>
</linearGradient>
<clipPath id="clip0_48_34">
<rect width="35" height="34" fill="white"/>
</clipPath>
</defs>
</svg>
