<svg width="59" height="59" viewBox="0 0 59 59" fill="none" xmlns="http://www.w3.org/2000/svg">
<circle cx="29.5" cy="29.5" r="29" stroke="white"/>
<path d="M46 19.3118C44.8 19.871 43.56 20.2581 42.24 20.4301C43.6 19.5699 44.64 18.1935 45.12 16.5161C43.84 17.3333 42.44 17.8925 40.96 18.2366C39.76 16.8602 38.04 16 36.16 16C32.52 16 29.6 19.1828 29.6 23.0538C29.6 23.6129 29.64 24.129 29.76 24.6452C24.32 24.3871 19.52 21.5484 16.28 17.2903C13.96 21.7634 16.56 25.4624 18.28 26.7097C17.24 26.7097 16.2 26.3656 15.32 25.8495C15.32 29.3333 17.6 32.2151 20.56 32.8602C19.92 33.0753 18.48 33.2043 17.6 32.9892C18.44 35.7849 20.88 37.8495 23.72 37.8925C21.48 39.7849 18.2 41.2903 14 40.8172C16.92 42.8387 20.36 44 24.08 44C36.16 44 42.72 33.2473 42.72 23.957C42.72 23.6559 42.72 23.3548 42.68 23.0538C44.04 21.9785 45.16 20.7312 46 19.3118V19.3118Z" stroke="white"/>
</svg>
