<svg width="963" height="225" viewBox="0 0 963 225" fill="none" xmlns="http://www.w3.org/2000/svg">
<path d="M105.17 81L98.9207 67.8071H65.331L59.0817 81H46.7568L75.92 20.2434H88.3317L117.495 81H105.17ZM69.9311 58.0861H94.3206L82.1693 32.3079L69.9311 58.0861ZM173.795 32.2211C179.755 32.2211 184.384 34.0438 187.682 37.6892C191.038 41.3346 192.716 46.6291 192.716 53.5727V81H181.954V55.0482C181.954 50.8821 180.999 47.6996 179.09 45.5008C177.18 43.302 174.432 42.2026 170.844 42.2026C166.157 42.2026 162.367 44.2567 159.474 48.365C156.639 52.4733 155.221 58.5779 155.221 66.6788V81H144.458V33.2626H155.221V46.7159C156.783 42.3183 159.156 38.8175 162.338 36.2137C165.579 33.552 169.398 32.2211 173.795 32.2211ZM227.066 72.6677C233.489 72.6677 239.218 70.4399 244.252 65.9844L248.244 74.3168C241.706 79.4666 234.531 82.0415 226.719 82.0415C219.197 82.0415 212.861 79.9006 207.711 75.6187C202.561 71.3368 199.986 65.319 199.986 57.5653C199.986 50.0431 202.33 43.9385 207.017 39.2515C211.704 34.5646 218.011 32.2211 225.938 32.2211C233.576 32.2211 239.391 34.391 243.384 38.7307C247.434 43.0126 249.604 48.5965 249.893 55.4822L249.98 58.8672H210.749C211.038 63.4384 212.716 66.8813 215.783 69.1959C218.85 71.5104 222.611 72.6677 227.066 72.6677ZM225.938 41.3346C222.524 41.3346 219.515 42.2315 216.911 44.0253C214.307 45.7612 212.514 48.2493 211.53 51.4896H239.478C239.015 48.365 237.598 45.9058 235.225 44.112C232.853 42.2604 229.757 41.3346 225.938 41.3346ZM318.704 33.2626H329.727L312.021 81H302.907L291.19 47.8442L279.386 81H270.272L252.305 33.2626H263.328L275.046 65.9844L286.85 33.2626H295.616L307.247 65.8108L318.704 33.2626ZM386.125 32.2211C392.085 32.2211 396.714 34.0438 400.012 37.6892C403.368 41.3346 405.046 46.6291 405.046 53.5727V81H394.283V55.0482C394.283 50.8821 393.329 47.6996 391.419 45.5008C389.51 43.302 386.761 42.2026 383.174 42.2026C378.487 42.2026 374.697 44.2567 371.803 48.365C368.968 52.4733 367.55 58.5779 367.55 66.6788V81H356.788V33.2626H367.55V46.7159C369.113 42.3183 371.485 38.8175 374.668 36.2137C377.908 33.552 381.727 32.2211 386.125 32.2211ZM437.139 32.2211C443.678 32.2211 449.001 33.8124 453.11 36.9948C457.276 40.1773 459.359 45.2115 459.359 52.0972V81H448.596V68.9355C446.282 73.0438 443.273 76.2263 439.569 78.4829C435.866 80.7396 431.758 81.868 427.245 81.868C423.31 81.868 420.012 80.9132 417.35 79.0037C414.688 77.0364 413.357 74.201 413.357 70.4978C413.357 60.661 425.046 53.862 448.423 50.1009C447.67 44.3724 443.765 41.5082 436.705 41.5082C430.051 41.5082 423.86 43.5913 418.131 47.7574L414.399 39.0779C421.458 34.5067 429.038 32.2211 437.139 32.2211ZM431.237 72.928C435.172 72.928 438.933 71.25 442.52 67.8939C446.166 64.5378 448.191 60.8346 448.596 56.7841C443.62 57.71 439.512 58.6647 436.271 59.6484C433.031 60.5742 430.311 61.7893 428.112 63.2938C425.914 64.7404 424.814 66.3895 424.814 68.2411C424.814 69.8613 425.451 71.0475 426.724 71.7997C428.055 72.5519 429.559 72.928 431.237 72.928ZM503.265 66.7656L507.605 74.9243C501.645 79.6691 495.887 82.0415 490.332 82.0415C485.356 82.0415 481.335 80.6528 478.268 77.8754C475.201 75.0979 473.668 70.816 473.668 65.0297V41.9422H464.033V33.2626H473.668V25.0171L484.43 20.1566V33.2626H506.997V41.9422H484.43V64.3353C484.43 69.7166 486.745 72.4073 491.374 72.4073C494.962 72.4073 498.925 70.5267 503.265 66.7656ZM524.723 25.7983C523.276 27.0134 521.483 27.621 519.342 27.621C517.201 27.621 515.407 27.0134 513.96 25.7983C512.514 24.5253 511.791 22.963 511.791 21.1113C511.791 19.2597 512.514 17.7263 513.96 16.5112C515.407 15.2382 517.201 14.6017 519.342 14.6017C521.483 14.6017 523.276 15.2382 524.723 16.5112C526.17 17.7263 526.893 19.2597 526.893 21.1113C526.893 22.963 526.17 24.5253 524.723 25.7983ZM513.874 81V33.2626H524.636V81H513.874ZM577.313 75.1847C572.51 79.7559 566.319 82.0415 558.739 82.0415C551.158 82.0415 544.909 79.7559 539.991 75.1847C535.13 70.5556 532.7 64.5668 532.7 57.2181C532.7 49.8116 535.13 43.7938 539.991 39.1647C544.909 34.5356 551.158 32.2211 558.739 32.2211C566.319 32.2211 572.51 34.5356 577.313 39.1647C582.173 43.7359 584.604 49.7248 584.604 57.1313C584.604 64.5378 582.173 70.5556 577.313 75.1847ZM558.652 72.2337C563.107 72.2337 566.753 70.8739 569.588 68.1543C572.423 65.4347 573.841 61.7893 573.841 57.2181C573.841 52.589 572.423 48.8858 569.588 46.1083C566.753 43.3309 563.107 41.9422 558.652 41.9422C554.312 41.9422 550.724 43.3309 547.889 46.1083C545.112 48.8858 543.723 52.589 543.723 57.2181C543.723 61.7893 545.112 65.4347 547.889 68.1543C550.667 70.8739 554.254 72.2337 558.652 72.2337ZM621.997 32.2211C627.957 32.2211 632.586 34.0438 635.885 37.6892C639.241 41.3346 640.919 46.6291 640.919 53.5727V81H630.156V55.0482C630.156 50.8821 629.201 47.6996 627.292 45.5008C625.382 43.302 622.634 42.2026 619.046 42.2026C614.359 42.2026 610.569 44.2567 607.676 48.365C604.841 52.4733 603.423 58.5779 603.423 66.6788V81H592.661V33.2626H603.423V46.7159C604.985 42.3183 607.358 38.8175 610.54 36.2137C613.781 33.552 617.6 32.2211 621.997 32.2211ZM693.148 82.0415C684.527 82.0415 676.484 79.7559 669.019 75.1847L672.665 66.158C678.972 70.4978 685.771 72.6677 693.062 72.6677C696.707 72.6677 699.716 72.1758 702.088 71.1921C704.519 70.1506 705.734 68.7329 705.734 66.9392C705.734 65.3769 704.808 64.2485 702.956 63.5542C701.162 62.8019 697.72 62.1365 692.628 61.5579C685.163 60.8057 679.637 59.3301 676.05 57.1313C672.52 54.9325 670.755 51.5764 670.755 47.0631C670.755 42.0868 672.694 38.3836 676.57 35.9533C680.505 33.4652 685.8 32.2211 692.454 32.2211C700.613 32.2211 707.932 33.8124 714.413 36.9948L711.636 46.1951C705.734 43.0705 699.253 41.5082 692.194 41.5082C688.895 41.5082 686.234 41.9422 684.208 42.8101C682.241 43.6202 681.257 44.8353 681.257 46.4555C681.257 47.8442 682.154 48.9436 683.948 49.7537C685.8 50.506 688.924 51.1425 693.322 51.6632C701.307 52.5312 707.122 53.9778 710.768 56.003C714.471 57.9703 716.323 61.3554 716.323 66.158C716.323 71.3079 714.182 75.2426 709.9 77.9622C705.676 80.6818 700.092 82.0415 693.148 82.0415ZM758.782 66.7656L763.122 74.9243C757.162 79.6691 751.404 82.0415 745.849 82.0415C740.873 82.0415 736.852 80.6528 733.785 77.8754C730.718 75.0979 729.185 70.816 729.185 65.0297V41.9422H719.55V33.2626H729.185V25.0171L739.947 20.1566V33.2626H762.514V41.9422H739.947V64.3353C739.947 69.7166 742.262 72.4073 746.891 72.4073C750.478 72.4073 754.442 70.5267 758.782 66.7656ZM791.616 32.2211C798.155 32.2211 803.478 33.8124 807.586 36.9948C811.753 40.1773 813.836 45.2115 813.836 52.0972V81H803.073V68.9355C800.759 73.0438 797.75 76.2263 794.046 78.4829C790.343 80.7396 786.235 81.868 781.721 81.868C777.787 81.868 774.489 80.9132 771.827 79.0037C769.165 77.0364 767.834 74.201 767.834 70.4978C767.834 60.661 779.523 53.862 802.9 50.1009C802.147 44.3724 798.242 41.5082 791.182 41.5082C784.528 41.5082 778.336 43.5913 772.608 47.7574L768.876 39.0779C775.935 34.5067 783.515 32.2211 791.616 32.2211ZM785.714 72.928C789.649 72.928 793.41 71.25 796.997 67.8939C800.643 64.5378 802.668 60.8346 803.073 56.7841C798.097 57.71 793.989 58.6647 790.748 59.6484C787.508 60.5742 784.788 61.7893 782.589 63.2938C780.391 64.7404 779.291 66.3895 779.291 68.2411C779.291 69.8613 779.928 71.0475 781.201 71.7997C782.532 72.5519 784.036 72.928 785.714 72.928ZM857.742 66.7656L862.082 74.9243C856.122 79.6691 850.364 82.0415 844.809 82.0415C839.833 82.0415 835.812 80.6528 832.745 77.8754C829.678 75.0979 828.145 70.816 828.145 65.0297V41.9422H818.51V33.2626H828.145V25.0171L838.907 20.1566V33.2626H861.474V41.9422H838.907V64.3353C838.907 69.7166 841.222 72.4073 845.851 72.4073C849.438 72.4073 853.402 70.5267 857.742 66.7656ZM891.816 72.6677C898.239 72.6677 903.967 70.4399 909.001 65.9844L912.994 74.3168C906.455 79.4666 899.28 82.0415 891.469 82.0415C883.946 82.0415 877.61 79.9006 872.46 75.6187C867.311 71.3368 864.736 65.319 864.736 57.5653C864.736 50.0431 867.079 43.9385 871.766 39.2515C876.453 34.5646 882.76 32.2211 890.687 32.2211C898.325 32.2211 904.141 34.391 908.133 38.7307C912.184 43.0126 914.354 48.5965 914.643 55.4822L914.73 58.8672H875.498C875.788 63.4384 877.466 66.8813 880.532 69.1959C883.599 71.5104 887.36 72.6677 891.816 72.6677ZM890.687 41.3346C887.273 41.3346 884.265 42.2315 881.661 44.0253C879.057 45.7612 877.263 48.2493 876.279 51.4896H904.227C903.765 48.365 902.347 45.9058 899.975 44.112C897.602 42.2604 894.506 41.3346 890.687 41.3346Z" fill="white"/>
<path d="M244.463 164.964C239.66 169.535 233.468 171.821 225.888 171.821C218.308 171.821 212.059 169.535 207.141 164.964C202.28 160.335 199.85 154.346 199.85 146.997C199.85 139.591 202.28 133.573 207.141 128.944C212.059 124.315 218.308 122 225.888 122C233.468 122 239.66 124.315 244.463 128.944C249.323 133.515 251.753 139.504 251.753 146.911C251.753 154.317 249.323 160.335 244.463 164.964ZM225.802 162.013C230.257 162.013 233.902 160.653 236.738 157.934C239.573 155.214 240.991 151.569 240.991 146.997C240.991 142.368 239.573 138.665 236.738 135.888C233.902 133.11 230.257 131.721 225.802 131.721C221.462 131.721 217.874 133.11 215.039 135.888C212.262 138.665 210.873 142.368 210.873 146.997C210.873 151.569 212.262 155.214 215.039 157.934C217.816 160.653 221.404 162.013 225.802 162.013ZM289.147 122C295.107 122 299.736 123.823 303.034 127.469C306.39 131.114 308.068 136.408 308.068 143.352V170.779H297.306V144.828C297.306 140.661 296.351 137.479 294.442 135.28C292.532 133.081 289.784 131.982 286.196 131.982C281.509 131.982 277.719 134.036 274.826 138.144C271.991 142.253 270.573 148.357 270.573 156.458V170.779H259.81V123.042H270.573V136.495C272.135 132.098 274.508 128.597 277.69 125.993C280.931 123.331 284.749 122 289.147 122ZM373.231 156.545L377.57 164.704C371.61 169.448 365.853 171.821 360.298 171.821C355.322 171.821 351.3 170.432 348.234 167.655C345.167 164.877 343.633 160.595 343.633 154.809V131.721H333.999V123.042H343.633V114.796L354.396 109.936V123.042H376.963V131.721H354.396V154.115C354.396 159.496 356.711 162.187 361.34 162.187C364.927 162.187 368.891 160.306 373.231 156.545ZM412.829 122C418.731 122 423.331 123.823 426.629 127.469C429.928 131.114 431.577 136.408 431.577 143.352V170.779H420.814V144.828C420.814 140.661 419.888 137.479 418.037 135.28C416.185 133.081 413.494 131.982 409.965 131.982C405.336 131.982 401.603 134.036 398.768 138.144C395.991 142.253 394.602 148.357 394.602 156.458V170.779H383.839V106.551H394.602V136.408C396.222 132.011 398.594 128.51 401.719 125.906C404.844 123.302 408.547 122 412.829 122ZM465.939 162.447C472.362 162.447 478.09 160.219 483.124 155.764L487.117 164.096C480.578 169.246 473.403 171.821 465.592 171.821C458.069 171.821 451.733 169.68 446.583 165.398C441.434 161.116 438.859 155.098 438.859 147.345C438.859 139.822 441.202 133.718 445.889 129.031C450.576 124.344 456.883 122 464.81 122C472.448 122 478.264 124.17 482.256 128.51C486.307 132.792 488.477 138.376 488.766 145.262L488.853 148.647H449.621C449.911 153.218 451.589 156.661 454.655 158.975C457.722 161.29 461.483 162.447 465.939 162.447ZM464.81 131.114C461.396 131.114 458.388 132.011 455.784 133.805C453.18 135.54 451.386 138.029 450.402 141.269H478.35C477.888 138.144 476.47 135.685 474.097 133.891C471.725 132.04 468.629 131.114 464.81 131.114ZM541.662 171.821C533.966 171.821 527.601 169.564 522.567 165.051C517.591 160.537 515.103 154.433 515.103 146.737C515.103 139.099 517.62 133.081 522.654 128.684C527.746 124.228 534.198 122 542.009 122C548.953 122 555.752 123.997 562.406 127.989L558.327 136.929C553.235 133.11 547.796 131.201 542.009 131.201C537.438 131.201 533.648 132.589 530.639 135.367C527.63 138.086 526.126 141.848 526.126 146.65C526.126 151.395 527.63 155.185 530.639 158.02C533.648 160.856 537.38 162.273 541.836 162.273C547.448 162.273 552.974 160.393 558.414 156.632L562.58 165.485C555.925 169.709 548.953 171.821 541.662 171.821ZM569.893 170.779V106.551H580.656V170.779H569.893ZM633.332 164.964C628.529 169.535 622.338 171.821 614.758 171.821C607.178 171.821 600.929 169.535 596.01 164.964C591.15 160.335 588.719 154.346 588.719 146.997C588.719 139.591 591.15 133.573 596.01 128.944C600.929 124.315 607.178 122 614.758 122C622.338 122 628.529 124.315 633.332 128.944C638.193 133.515 640.623 139.504 640.623 146.911C640.623 154.317 638.193 160.335 633.332 164.964ZM614.671 162.013C619.127 162.013 622.772 160.653 625.607 157.934C628.443 155.214 629.86 151.569 629.86 146.997C629.86 142.368 628.443 138.665 625.607 135.888C622.772 133.11 619.127 131.721 614.671 131.721C610.331 131.721 606.744 133.11 603.908 135.888C601.131 138.665 599.742 142.368 599.742 146.997C599.742 151.569 601.131 155.214 603.908 157.934C606.686 160.653 610.273 162.013 614.671 162.013ZM685.481 123.042H696.157V170.779H685.481V157.239C683.919 161.637 681.517 165.167 678.277 167.828C675.095 170.49 671.305 171.821 666.907 171.821C660.947 171.821 656.289 169.998 652.933 166.353C649.635 162.649 647.986 157.326 647.986 150.382V123.042H658.661V148.907C658.661 153.131 659.616 156.342 661.526 158.541C663.435 160.74 666.184 161.839 669.771 161.839C674.458 161.839 678.248 159.785 681.141 155.677C684.034 151.511 685.481 145.406 685.481 137.363V123.042ZM746.217 106.551H756.979V170.606H746.217V161.145C744.307 164.501 741.761 167.134 738.579 169.043C735.396 170.895 731.78 171.821 727.729 171.821C720.844 171.821 715.202 169.506 710.804 164.877C706.407 160.248 704.208 154.317 704.208 147.084C704.208 139.793 706.436 133.805 710.891 129.118C715.346 124.431 720.988 122.087 727.816 122.087C731.809 122.087 735.396 123.042 738.579 124.951C741.761 126.803 744.307 129.407 746.217 132.763V106.551ZM730.593 162.36C735.165 162.36 738.897 160.914 741.79 158.02C744.741 155.127 746.217 151.453 746.217 146.997C746.217 142.484 744.741 138.781 741.79 135.888C738.897 132.994 735.165 131.548 730.593 131.548C726.08 131.548 722.377 132.994 719.484 135.888C716.648 138.781 715.231 142.484 715.231 146.997C715.231 151.511 716.648 155.214 719.484 158.107C722.377 160.943 726.08 162.36 730.593 162.36Z" fill="url(#paint0_linear_372_1244)"/>
<path d="M244.463 164.964L245.497 166.051L245.497 166.05L244.463 164.964ZM207.141 164.964L206.106 166.05L206.113 166.057L206.119 166.063L207.141 164.964ZM207.141 128.944L206.113 127.852L206.106 127.858L207.141 128.944ZM244.463 128.944L243.422 130.024L243.428 130.03L243.435 130.037L244.463 128.944ZM236.738 157.934L237.776 159.016L236.738 157.934ZM215.039 135.888L213.989 134.816L213.984 134.822L213.978 134.827L215.039 135.888ZM215.039 157.934L216.088 156.862L215.039 157.934ZM243.428 163.878C238.945 168.145 233.143 170.321 225.888 170.321V173.321C233.794 173.321 240.375 170.926 245.497 166.051L243.428 163.878ZM225.888 170.321C218.634 170.321 212.766 168.145 208.162 163.865L206.119 166.063C211.352 170.926 217.982 173.321 225.888 173.321V170.321ZM208.175 163.878C203.642 159.56 201.35 153.979 201.35 146.997H198.35C198.35 154.713 200.918 161.11 206.106 166.05L208.175 163.878ZM201.35 146.997C201.35 139.954 203.644 134.345 208.175 130.03L206.106 127.858C200.916 132.801 198.35 139.227 198.35 146.997H201.35ZM208.169 130.036C212.774 125.702 218.64 123.5 225.888 123.5V120.5C217.977 120.5 211.344 122.928 206.113 127.852L208.169 130.036ZM225.888 123.5C233.137 123.5 238.937 125.702 243.422 130.024L245.503 127.864C240.383 122.928 233.799 120.5 225.888 120.5V123.5ZM243.435 130.037C247.959 134.292 250.253 139.868 250.253 146.911H253.253C253.253 139.141 250.687 132.739 245.49 127.851L243.435 130.037ZM250.253 146.911C250.253 153.954 247.959 159.563 243.428 163.878L245.497 166.05C250.687 161.107 253.253 154.681 253.253 146.911H250.253ZM225.802 163.513C230.588 163.513 234.623 162.04 237.776 159.016L235.699 156.851C233.181 159.266 229.926 160.513 225.802 160.513V163.513ZM237.776 159.016C240.955 155.967 242.491 151.905 242.491 146.997H239.491C239.491 151.233 238.191 154.461 235.699 156.851L237.776 159.016ZM242.491 146.997C242.491 142.038 240.959 137.923 237.787 134.816L235.688 136.959C238.187 139.407 239.491 142.699 239.491 146.997H242.491ZM237.787 134.816C234.636 131.729 230.597 130.221 225.802 130.221V133.221C229.917 133.221 233.168 134.491 235.688 136.959L237.787 134.816ZM225.802 130.221C221.11 130.221 217.132 131.737 213.989 134.816L216.089 136.959C218.616 134.483 221.814 133.221 225.802 133.221V130.221ZM213.978 134.827C210.87 137.936 209.373 142.047 209.373 146.997H212.373C212.373 142.69 213.653 139.395 216.1 136.948L213.978 134.827ZM209.373 146.997C209.373 151.895 210.873 155.954 213.99 159.005L216.088 156.862C213.65 154.474 212.373 151.242 212.373 146.997H209.373ZM213.99 159.005C217.085 162.036 221.068 163.513 225.802 163.513V160.513C221.74 160.513 218.548 159.27 216.088 156.862L213.99 159.005ZM303.034 127.469L301.922 128.475L301.931 128.484L303.034 127.469ZM308.068 170.779V172.279H309.568V170.779H308.068ZM297.306 170.779H295.806V172.279H297.306V170.779ZM294.442 135.28L293.309 136.264L294.442 135.28ZM274.826 138.144L273.6 137.281L273.595 137.286L273.591 137.292L274.826 138.144ZM270.573 170.779V172.279H272.073V170.779H270.573ZM259.81 170.779H258.31V172.279H259.81V170.779ZM259.81 123.042V121.542H258.31V123.042H259.81ZM270.573 123.042H272.073V121.542H270.573V123.042ZM270.573 136.495H269.073L271.986 136.997L270.573 136.495ZM277.69 125.993L278.64 127.154L278.642 127.152L277.69 125.993ZM289.147 123.5C294.781 123.5 298.968 125.21 301.922 128.475L304.147 126.462C300.505 122.437 295.433 120.5 289.147 120.5V123.5ZM301.931 128.484C304.945 131.759 306.568 136.633 306.568 143.352H309.568C309.568 136.183 307.836 130.469 304.138 126.453L301.931 128.484ZM306.568 143.352V170.779H309.568V143.352H306.568ZM308.068 169.279H297.306V172.279H308.068V169.279ZM298.806 170.779V144.828H295.806V170.779H298.806ZM298.806 144.828C298.806 140.453 297.805 136.865 295.574 134.297L293.309 136.264C294.897 138.092 295.806 140.869 295.806 144.828H298.806ZM295.574 134.297C293.315 131.695 290.109 130.482 286.196 130.482V133.482C289.459 133.482 291.749 134.467 293.309 136.264L295.574 134.297ZM286.196 130.482C280.981 130.482 276.75 132.807 273.6 137.281L276.052 139.008C278.688 135.265 282.037 133.482 286.196 133.482V130.482ZM273.591 137.292C270.506 141.763 269.073 148.226 269.073 156.458H272.073C272.073 148.489 273.475 142.742 276.06 138.996L273.591 137.292ZM269.073 156.458V170.779H272.073V156.458H269.073ZM270.573 169.279H259.81V172.279H270.573V169.279ZM261.31 170.779V123.042H258.31V170.779H261.31ZM259.81 124.542H270.573V121.542H259.81V124.542ZM269.073 123.042V136.495H272.073V123.042H269.073ZM271.986 136.997C273.47 132.822 275.697 129.562 278.64 127.154L276.74 124.832C273.319 127.632 270.801 131.373 269.159 135.993L271.986 136.997ZM278.642 127.152C281.6 124.722 285.078 123.5 289.147 123.5V120.5C284.421 120.5 280.261 121.94 276.738 124.834L278.642 127.152ZM373.231 156.545L374.555 155.84L373.671 154.178L372.248 155.411L373.231 156.545ZM377.57 164.704L378.505 165.877L379.48 165.1L378.895 163.999L377.57 164.704ZM348.234 167.655L347.227 168.766L348.234 167.655ZM343.633 131.721H345.133V130.221H343.633V131.721ZM333.999 131.721H332.499V133.221H333.999V131.721ZM333.999 123.042V121.542H332.499V123.042H333.999ZM343.633 123.042V124.542H345.133V123.042H343.633ZM343.633 114.796L343.016 113.429L342.133 113.828V114.796H343.633ZM354.396 109.936H355.896V107.613L353.779 108.569L354.396 109.936ZM354.396 123.042H352.896V124.542H354.396V123.042ZM376.963 123.042H378.463V121.542H376.963V123.042ZM376.963 131.721V133.221H378.463V131.721H376.963ZM354.396 131.721V130.221H352.896V131.721H354.396ZM371.906 157.249L376.246 165.408L378.895 163.999L374.555 155.84L371.906 157.249ZM376.636 163.53C370.844 168.141 365.407 170.321 360.298 170.321V173.321C366.299 173.321 372.377 170.756 378.505 165.877L376.636 163.53ZM360.298 170.321C355.615 170.321 351.978 169.022 349.241 166.543L347.227 168.766C350.623 171.842 355.029 173.321 360.298 173.321V170.321ZM349.241 166.543C346.597 164.149 345.133 160.346 345.133 154.809H342.133C342.133 160.845 343.737 165.606 347.227 168.766L349.241 166.543ZM345.133 154.809V131.721H342.133V154.809H345.133ZM343.633 130.221H333.999V133.221H343.633V130.221ZM335.499 131.721V123.042H332.499V131.721H335.499ZM333.999 124.542H343.633V121.542H333.999V124.542ZM345.133 123.042V114.796H342.133V123.042H345.133ZM344.251 116.163L355.013 111.303L353.779 108.569L343.016 113.429L344.251 116.163ZM352.896 109.936V123.042H355.896V109.936H352.896ZM354.396 124.542H376.963V121.542H354.396V124.542ZM375.463 123.042V131.721H378.463V123.042H375.463ZM376.963 130.221H354.396V133.221H376.963V130.221ZM352.896 131.721V154.115H355.896V131.721H352.896ZM352.896 154.115C352.896 156.986 353.509 159.419 354.995 161.147C356.518 162.918 358.73 163.687 361.34 163.687V160.687C359.32 160.687 358.06 160.11 357.269 159.19C356.441 158.227 355.896 156.625 355.896 154.115H352.896ZM361.34 163.687C365.45 163.687 369.755 161.542 374.213 157.678L372.248 155.411C368.027 159.07 364.404 160.687 361.34 160.687V163.687ZM426.629 127.469L425.517 128.475L426.629 127.469ZM431.577 170.779V172.279H433.077V170.779H431.577ZM420.814 170.779H419.314V172.279H420.814V170.779ZM418.037 135.28L416.889 136.246L418.037 135.28ZM398.768 138.144L397.534 137.292L397.529 137.298L397.525 137.304L398.768 138.144ZM394.602 170.779V172.279H396.102V170.779H394.602ZM383.839 170.779H382.339V172.279H383.839V170.779ZM383.839 106.551V105.051H382.339V106.551H383.839ZM394.602 106.551H396.102V105.051H394.602V106.551ZM394.602 136.408H393.102L396.009 136.927L394.602 136.408ZM401.719 125.906L402.679 127.059H402.679L401.719 125.906ZM412.829 123.5C418.4 123.5 422.56 125.206 425.517 128.475L427.742 126.462C424.102 122.44 419.062 120.5 412.829 120.5V123.5ZM425.517 128.475C428.479 131.749 430.077 136.627 430.077 143.352H433.077C433.077 136.189 431.376 130.479 427.742 126.462L425.517 128.475ZM430.077 143.352V170.779H433.077V143.352H430.077ZM431.577 169.279H420.814V172.279H431.577V169.279ZM422.314 170.779V144.828H419.314V170.779H422.314ZM422.314 144.828C422.314 140.463 421.347 136.882 419.184 134.314L416.889 136.246C418.43 138.076 419.314 140.86 419.314 144.828H422.314ZM419.184 134.314C416.983 131.701 413.827 130.482 409.965 130.482V133.482C413.162 133.482 415.387 134.462 416.889 136.246L419.184 134.314ZM409.965 130.482C404.799 130.482 400.623 132.816 397.534 137.292L400.003 138.996C402.584 135.256 405.872 133.482 409.965 133.482V130.482ZM397.525 137.304C394.505 141.773 393.102 148.23 393.102 156.458H396.102C396.102 148.484 397.477 142.733 400.011 138.984L397.525 137.304ZM393.102 156.458V170.779H396.102V156.458H393.102ZM394.602 169.279H383.839V172.279H394.602V169.279ZM385.339 170.779V106.551H382.339V170.779H385.339ZM383.839 108.051H394.602V105.051H383.839V108.051ZM393.102 106.551V136.408H396.102V106.551H393.102ZM396.009 136.927C397.553 132.738 399.786 129.47 402.679 127.059L400.759 124.754C397.403 127.55 394.891 131.283 393.194 135.89L396.009 136.927ZM402.679 127.059C405.519 124.692 408.878 123.5 412.829 123.5V120.5C408.216 120.5 404.168 121.913 400.759 124.754L402.679 127.059ZM483.124 155.764L484.477 155.116L483.618 153.323L482.13 154.64L483.124 155.764ZM487.117 164.096L488.045 165.274L488.989 164.531L488.469 163.448L487.117 164.096ZM446.583 165.398L445.624 166.551L446.583 165.398ZM445.889 129.031L444.828 127.97L445.889 129.031ZM482.256 128.51L481.152 129.526L481.159 129.533L481.167 129.541L482.256 128.51ZM488.766 145.262L490.265 145.223L490.265 145.211L490.265 145.199L488.766 145.262ZM488.853 148.647V150.147H490.392L490.352 148.608L488.853 148.647ZM449.621 148.647V147.147H448.023L448.124 148.741L449.621 148.647ZM454.655 158.975L455.559 157.778L454.655 158.975ZM455.784 133.805L456.616 135.053L456.625 135.046L456.635 135.04L455.784 133.805ZM450.402 141.269L448.967 140.833L448.379 142.769H450.402V141.269ZM478.35 141.269V142.769H480.089L479.834 141.049L478.35 141.269ZM474.097 133.891L473.175 135.074L473.184 135.081L473.193 135.088L474.097 133.891ZM465.939 163.947C472.746 163.947 478.824 161.573 484.118 156.887L482.13 154.64C477.356 158.866 471.977 160.947 465.939 160.947V163.947ZM481.771 156.412L485.764 164.744L488.469 163.448L484.477 155.116L481.771 156.412ZM486.189 162.918C479.896 167.874 473.044 170.321 465.592 170.321V173.321C473.763 173.321 481.26 170.618 488.045 165.274L486.189 162.918ZM465.592 170.321C458.374 170.321 452.39 168.275 447.542 164.245L445.624 166.551C451.077 171.085 457.765 173.321 465.592 173.321V170.321ZM447.542 164.245C442.791 160.294 440.359 154.731 440.359 147.345H437.359C437.359 155.466 440.076 161.938 445.624 166.551L447.542 164.245ZM440.359 147.345C440.359 140.162 442.583 134.458 446.95 130.091L444.828 127.97C439.821 132.977 437.359 139.483 437.359 147.345H440.359ZM446.95 130.091C451.301 125.74 457.197 123.5 464.81 123.5V120.5C456.569 120.5 449.851 122.948 444.828 127.97L446.95 130.091ZM464.81 123.5C472.16 123.5 477.522 125.579 481.152 129.526L483.36 127.494C479.006 122.761 472.737 120.5 464.81 120.5V123.5ZM481.167 129.541C484.927 133.517 486.99 138.735 487.267 145.324L490.265 145.199C489.963 138.016 487.686 132.067 483.346 127.479L481.167 129.541ZM487.266 145.3L487.353 148.685L490.352 148.608L490.265 145.223L487.266 145.3ZM488.853 147.147H449.621V150.147H488.853V147.147ZM448.124 148.741C448.435 153.657 450.268 157.543 453.752 160.172L455.559 157.778C452.909 155.778 451.386 152.779 451.118 148.552L448.124 148.741ZM453.752 160.172C457.119 162.714 461.211 163.947 465.939 163.947V160.947C461.755 160.947 458.325 159.866 455.559 157.778L453.752 160.172ZM464.81 129.614C461.118 129.614 457.807 130.589 454.933 132.569L456.635 135.04C458.968 133.432 461.675 132.614 464.81 132.614V129.614ZM454.952 132.556C452.034 134.501 450.043 137.29 448.967 140.833L451.838 141.705C452.729 138.768 454.325 136.579 456.616 135.053L454.952 132.556ZM450.402 142.769H478.35V139.769H450.402V142.769ZM479.834 141.049C479.318 137.562 477.709 134.742 475.002 132.695L473.193 135.088C475.231 136.629 476.457 138.726 476.867 141.489L479.834 141.049ZM475.02 132.709C472.32 130.602 468.873 129.614 464.81 129.614V132.614C468.386 132.614 471.13 133.478 473.175 135.074L475.02 132.709ZM522.567 165.051L521.559 166.162L521.566 166.168L522.567 165.051ZM522.654 128.684L523.641 129.813L523.642 129.812L522.654 128.684ZM562.406 127.989L563.771 128.612L564.327 127.393L563.178 126.703L562.406 127.989ZM558.327 136.929L557.427 138.129L558.918 139.247L559.691 137.552L558.327 136.929ZM530.639 135.367L531.645 136.48L531.651 136.474L531.657 136.469L530.639 135.367ZM530.639 158.02L529.61 159.112L530.639 158.02ZM558.414 156.632L559.771 155.993L559.017 154.391L557.56 155.398L558.414 156.632ZM562.58 165.485L563.384 166.751L564.5 166.043L563.937 164.846L562.58 165.485ZM541.662 170.321C534.281 170.321 528.289 168.166 523.568 163.934L521.566 166.168C526.913 170.962 533.651 173.321 541.662 173.321V170.321ZM523.575 163.94C518.959 159.753 516.603 154.078 516.603 146.737H513.603C513.603 154.788 516.223 161.322 521.559 166.162L523.575 163.94ZM516.603 146.737C516.603 139.463 518.981 133.884 523.641 129.813L521.667 127.554C516.259 132.279 513.603 138.735 513.603 146.737H516.603ZM523.642 129.812C528.419 125.633 534.501 123.5 542.009 123.5V120.5C533.894 120.5 527.073 122.823 521.666 127.555L523.642 129.812ZM542.009 123.5C548.65 123.5 555.185 125.406 561.634 129.276L563.178 126.703C556.319 122.587 549.256 120.5 542.009 120.5V123.5ZM561.042 127.367L556.962 136.306L559.691 137.552L563.771 128.612L561.042 127.367ZM559.227 135.729C553.903 131.736 548.153 129.701 542.009 129.701V132.701C547.438 132.701 552.567 134.484 557.427 138.129L559.227 135.729ZM542.009 129.701C537.108 129.701 532.941 131.201 529.622 134.265L531.657 136.469C534.355 133.978 537.768 132.701 542.009 132.701V129.701ZM529.633 134.254C526.252 137.311 524.626 141.509 524.626 146.65H527.626C527.626 142.186 529.009 138.862 531.645 136.48L529.633 134.254ZM524.626 146.65C524.626 151.741 526.255 155.951 529.61 159.112L531.668 156.929C529.005 154.42 527.626 151.049 527.626 146.65H524.626ZM529.61 159.112C532.92 162.231 537.03 163.773 541.836 163.773V160.773C537.73 160.773 534.376 159.48 531.668 156.929L529.61 159.112ZM541.836 163.773C547.805 163.773 553.623 161.768 559.267 157.865L557.56 155.398C552.326 159.017 547.092 160.773 541.836 160.773V163.773ZM557.056 157.27L561.223 166.123L563.937 164.846L559.771 155.993L557.056 157.27ZM561.776 164.218C555.342 168.303 548.645 170.321 541.662 170.321V173.321C549.261 173.321 556.509 171.115 563.384 166.751L561.776 164.218ZM569.893 170.779H568.393V172.279H569.893V170.779ZM569.893 106.551V105.051H568.393V106.551H569.893ZM580.656 106.551H582.156V105.051H580.656V106.551ZM580.656 170.779V172.279H582.156V170.779H580.656ZM571.393 170.779V106.551H568.393V170.779H571.393ZM569.893 108.051H580.656V105.051H569.893V108.051ZM579.156 106.551V170.779H582.156V106.551H579.156ZM580.656 169.279H569.893V172.279H580.656V169.279ZM633.332 164.964L634.366 166.051L634.367 166.05L633.332 164.964ZM596.01 164.964L594.976 166.05L594.982 166.057L594.989 166.063L596.01 164.964ZM596.01 128.944L594.982 127.852L594.976 127.858L596.01 128.944ZM633.332 128.944L632.291 130.024L632.298 130.03L632.304 130.037L633.332 128.944ZM625.607 157.934L626.646 159.016L625.607 157.934ZM603.908 135.888L602.859 134.816L602.853 134.822L602.848 134.827L603.908 135.888ZM603.908 157.934L604.958 156.862L603.908 157.934ZM632.298 163.878C627.814 168.145 622.012 170.321 614.758 170.321V173.321C622.664 173.321 629.244 170.926 634.366 166.051L632.298 163.878ZM614.758 170.321C607.504 170.321 601.636 168.145 597.031 163.865L594.989 166.063C600.221 170.926 606.852 173.321 614.758 173.321V170.321ZM597.045 163.878C592.511 159.56 590.219 153.979 590.219 146.997H587.219C587.219 154.713 589.788 161.11 594.976 166.05L597.045 163.878ZM590.219 146.997C590.219 139.954 592.514 134.345 597.045 130.03L594.976 127.858C589.785 132.801 587.219 139.227 587.219 146.997H590.219ZM597.038 130.036C601.644 125.702 607.509 123.5 614.758 123.5V120.5C606.846 120.5 600.213 122.928 594.982 127.852L597.038 130.036ZM614.758 123.5C622.007 123.5 627.807 125.702 632.291 130.024L634.373 127.864C629.252 122.928 622.669 120.5 614.758 120.5V123.5ZM632.304 130.037C636.829 134.292 639.123 139.868 639.123 146.911H642.123C642.123 139.141 639.556 132.739 634.36 127.851L632.304 130.037ZM639.123 146.911C639.123 153.954 636.828 159.563 632.298 163.878L634.367 166.05C639.557 161.107 642.123 154.681 642.123 146.911H639.123ZM614.671 163.513C619.457 163.513 623.493 162.04 626.646 159.016L624.569 156.851C622.051 159.266 618.796 160.513 614.671 160.513V163.513ZM626.646 159.016C629.824 155.967 631.36 151.905 631.36 146.997H628.36C628.36 151.233 627.061 154.461 624.569 156.851L626.646 159.016ZM631.36 146.997C631.36 142.038 629.828 137.923 626.657 134.816L624.558 136.959C627.057 139.407 628.36 142.699 628.36 146.997H631.36ZM626.657 134.816C623.506 131.729 619.467 130.221 614.671 130.221V133.221C618.786 133.221 622.038 134.491 624.558 136.959L626.657 134.816ZM614.671 130.221C609.979 130.221 606.002 131.737 602.859 134.816L604.958 136.959C607.486 134.483 610.684 133.221 614.671 133.221V130.221ZM602.848 134.827C599.739 137.936 598.242 142.047 598.242 146.997H601.242C601.242 142.69 602.523 139.395 604.969 136.948L602.848 134.827ZM598.242 146.997C598.242 151.895 599.743 155.954 602.859 159.005L604.958 156.862C602.519 154.474 601.242 151.242 601.242 146.997H598.242ZM602.859 159.005C605.954 162.036 609.937 163.513 614.671 163.513V160.513C610.61 160.513 607.417 159.27 604.958 156.862L602.859 159.005ZM685.481 123.042V121.542H683.981V123.042H685.481ZM696.157 123.042H697.657V121.542H696.157V123.042ZM696.157 170.779V172.279H697.657V170.779H696.157ZM685.481 170.779H683.981V172.279H685.481V170.779ZM685.481 157.239H686.981L684.068 156.737L685.481 157.239ZM678.277 167.828L677.325 166.669L677.315 166.678L678.277 167.828ZM652.933 166.353L651.813 167.35L651.821 167.36L651.829 167.369L652.933 166.353ZM647.986 123.042V121.542H646.486V123.042H647.986ZM658.661 123.042H660.161V121.542H658.661V123.042ZM661.526 158.541L662.658 157.558L661.526 158.541ZM681.141 155.677L682.368 156.541L682.373 156.533L681.141 155.677ZM685.481 124.542H696.157V121.542H685.481V124.542ZM694.657 123.042V170.779H697.657V123.042H694.657ZM696.157 169.279H685.481V172.279H696.157V169.279ZM686.981 170.779V157.239H683.981V170.779H686.981ZM684.068 156.737C682.586 160.908 680.332 164.199 677.325 166.669L679.229 168.987C682.703 166.134 685.252 162.366 686.895 157.741L684.068 156.737ZM677.315 166.678C674.419 169.099 670.975 170.321 666.907 170.321V173.321C671.634 173.321 675.77 171.881 679.239 168.979L677.315 166.678ZM666.907 170.321C661.274 170.321 657.052 168.612 654.036 165.337L651.829 167.369C655.526 171.384 660.62 173.321 666.907 173.321V170.321ZM654.053 165.355C651.082 162.019 649.486 157.105 649.486 150.382H646.486C646.486 157.547 648.187 163.28 651.813 167.35L654.053 165.355ZM649.486 150.382V123.042H646.486V150.382H649.486ZM647.986 124.542H658.661V121.542H647.986V124.542ZM657.161 123.042V148.907H660.161V123.042H657.161ZM657.161 148.907C657.161 153.333 658.159 156.953 660.393 159.525L662.658 157.558C661.073 155.732 660.161 152.929 660.161 148.907H657.161ZM660.393 159.525C662.652 162.126 665.859 163.339 669.771 163.339V160.339C666.509 160.339 664.218 159.354 662.658 157.558L660.393 159.525ZM669.771 163.339C674.986 163.339 679.217 161.014 682.368 156.541L679.915 154.813C677.279 158.556 673.93 160.339 669.771 160.339V163.339ZM682.373 156.533C685.516 152.007 686.981 145.547 686.981 137.363H683.981C683.981 145.265 682.553 151.014 679.909 154.821L682.373 156.533ZM686.981 137.363V123.042H683.981V137.363H686.981ZM746.217 106.551V105.051H744.717V106.551H746.217ZM756.979 106.551H758.479V105.051H756.979V106.551ZM756.979 170.606V172.106H758.479V170.606H756.979ZM746.217 170.606H744.717V172.106H746.217V170.606ZM746.217 161.145H747.717V155.475L744.913 160.403L746.217 161.145ZM738.579 169.043L739.333 170.34L739.342 170.335L739.35 170.33L738.579 169.043ZM710.804 164.877L711.892 163.844L710.804 164.877ZM710.891 129.118L711.978 130.151L710.891 129.118ZM738.579 124.951L737.807 126.238L737.816 126.243L737.824 126.248L738.579 124.951ZM746.217 132.763L744.913 133.505L747.717 138.433V132.763H746.217ZM741.79 158.02L740.74 156.949L740.735 156.954L740.729 156.96L741.79 158.02ZM741.79 135.888L740.729 136.948L740.735 136.954L740.74 136.959L741.79 135.888ZM719.484 135.888L718.423 134.827L718.418 134.832L718.412 134.838L719.484 135.888ZM719.484 158.107L718.412 159.157L718.423 159.168L718.434 159.179L719.484 158.107ZM746.217 108.051H756.979V105.051H746.217V108.051ZM755.479 106.551V170.606H758.479V106.551H755.479ZM756.979 169.106H746.217V172.106H756.979V169.106ZM747.717 170.606V161.145H744.717V170.606H747.717ZM744.913 160.403C743.126 163.545 740.759 165.986 737.807 167.757L739.35 170.33C742.763 168.282 745.489 165.458 747.52 161.887L744.913 160.403ZM737.824 167.747C734.893 169.452 731.542 170.321 727.729 170.321V173.321C732.017 173.321 735.899 172.338 739.333 170.34L737.824 167.747ZM727.729 170.321C721.219 170.321 715.982 168.15 711.892 163.844L709.717 165.91C714.421 170.863 720.468 173.321 727.729 173.321V170.321ZM711.892 163.844C707.795 159.531 705.708 153.988 705.708 147.084H702.708C702.708 154.646 705.018 160.965 709.717 165.91L711.892 163.844ZM705.708 147.084C705.708 140.125 707.822 134.523 711.978 130.151L709.804 128.084C705.049 133.086 702.708 139.462 702.708 147.084H705.708ZM711.978 130.151C716.133 125.78 721.373 123.587 727.816 123.587V120.587C720.603 120.587 714.56 123.081 709.804 128.084L711.978 130.151ZM727.816 123.587C731.558 123.587 734.875 124.479 737.807 126.238L739.35 123.665C735.917 121.605 732.059 120.587 727.816 120.587V123.587ZM737.824 126.248C740.767 127.96 743.128 130.367 744.913 133.505L747.52 132.021C745.487 128.447 742.756 125.646 739.333 123.655L737.824 126.248ZM747.717 132.763V106.551H744.717V132.763H747.717ZM730.594 163.86C735.512 163.86 739.642 162.29 742.851 159.081L740.729 156.96C738.152 159.537 734.818 160.86 730.594 160.86V163.86ZM742.84 159.092C746.103 155.893 747.717 151.821 747.717 146.997H744.717C744.717 151.085 743.379 154.362 740.74 156.949L742.84 159.092ZM747.717 146.997C747.717 142.122 746.107 138.019 742.84 134.817L740.74 136.959C743.375 139.542 744.717 142.846 744.717 146.997H747.717ZM742.851 134.827C739.642 131.618 735.512 130.048 730.594 130.048V133.048C734.818 133.048 738.152 134.371 740.729 136.948L742.851 134.827ZM730.594 130.048C725.727 130.048 721.628 131.622 718.423 134.827L720.544 136.948C723.126 134.367 726.433 133.048 730.594 133.048V130.048ZM718.412 134.838C715.27 138.044 713.731 142.14 713.731 146.997H716.731C716.731 142.828 718.027 139.517 720.555 136.938L718.412 134.838ZM713.731 146.997C713.731 151.854 715.27 155.95 718.412 159.157L720.555 157.057C718.027 154.478 716.731 151.167 716.731 146.997H713.731ZM718.434 159.179C721.641 162.321 725.736 163.86 730.594 163.86V160.86C726.424 160.86 723.113 159.564 720.534 157.036L718.434 159.179Z" fill="url(#paint1_linear_372_1244)"/>
<path d="M852.5 105.195H383.5" stroke="url(#paint2_linear_372_1244)" stroke-width="1.2"/>
<path d="M383.5 171.695H852.5" stroke="url(#paint3_linear_372_1244)" stroke-width="1.2"/>
<path opacity="0.5" d="M514 84.6953L514 190.695" stroke="url(#paint4_linear_372_1244)" stroke-width="1.2"/>
<path d="M759 50.6953L759 224.695" stroke="url(#paint5_linear_372_1244)" stroke-width="1.2"/>
<defs>
<linearGradient id="paint0_linear_372_1244" x1="423" y1="170.695" x2="450.949" y2="60.8247" gradientUnits="userSpaceOnUse">
<stop stop-color="#69C9FF"/>
<stop offset="0.604167" stop-color="#88F1BB" stop-opacity="0.26"/>
<stop offset="1" stop-color="#88F1BB" stop-opacity="0"/>
</linearGradient>
<linearGradient id="paint1_linear_372_1244" x1="600" y1="123.695" x2="344" y2="159.695" gradientUnits="userSpaceOnUse">
<stop stop-color="#88F1BB"/>
<stop offset="1" stop-color="#6ACAFF" stop-opacity="0.65"/>
</linearGradient>
<linearGradient id="paint2_linear_372_1244" x1="855.287" y1="105.231" x2="855.244" y2="101.302" gradientUnits="userSpaceOnUse">
<stop stop-color="#69C9FF"/>
<stop offset="1" stop-color="#88F1BB" stop-opacity="0"/>
</linearGradient>
<linearGradient id="paint3_linear_372_1244" x1="380.713" y1="171.731" x2="380.756" y2="167.802" gradientUnits="userSpaceOnUse">
<stop stop-color="#88F1BB" stop-opacity="0"/>
<stop offset="1" stop-color="#69C9FF"/>
</linearGradient>
<linearGradient id="paint4_linear_372_1244" x1="513.964" y1="84.0654" x2="517.884" y2="84.2552" gradientUnits="userSpaceOnUse">
<stop stop-color="#69C9FF" stop-opacity="0"/>
<stop offset="1" stop-color="#88F1BB"/>
</linearGradient>
<linearGradient id="paint5_linear_372_1244" x1="758.964" y1="49.6613" x2="762.89" y2="49.7771" gradientUnits="userSpaceOnUse">
<stop stop-color="#69C9FF" stop-opacity="0"/>
<stop offset="1" stop-color="#88F1BB"/>
</linearGradient>
</defs>
</svg>
