<svg width="963" height="191" viewBox="0 0 963 191" fill="none" xmlns="http://www.w3.org/2000/svg">
<path d="M105.17 81L98.9207 67.8071H65.331L59.0817 81H46.7568L75.92 20.2434H88.3317L117.495 81H105.17ZM69.9311 58.0861H94.3206L82.1693 32.3079L69.9311 58.0861ZM173.795 32.2211C179.755 32.2211 184.384 34.0438 187.682 37.6892C191.038 41.3346 192.716 46.6291 192.716 53.5727V81H181.954V55.0482C181.954 50.8821 180.999 47.6996 179.09 45.5008C177.18 43.302 174.432 42.2026 170.844 42.2026C166.157 42.2026 162.367 44.2567 159.474 48.365C156.639 52.4733 155.221 58.5779 155.221 66.6788V81H144.458V33.2626H155.221V46.7159C156.783 42.3183 159.156 38.8175 162.338 36.2137C165.579 33.552 169.398 32.2211 173.795 32.2211ZM227.066 72.6677C233.489 72.6677 239.218 70.4399 244.252 65.9844L248.244 74.3168C241.706 79.4666 234.531 82.0415 226.719 82.0415C219.197 82.0415 212.861 79.9006 207.711 75.6187C202.561 71.3368 199.986 65.319 199.986 57.5653C199.986 50.0431 202.33 43.9385 207.017 39.2515C211.704 34.5646 218.011 32.2211 225.938 32.2211C233.576 32.2211 239.391 34.391 243.384 38.7307C247.434 43.0126 249.604 48.5965 249.893 55.4822L249.98 58.8672H210.749C211.038 63.4384 212.716 66.8813 215.783 69.1959C218.85 71.5104 222.611 72.6677 227.066 72.6677ZM225.938 41.3346C222.524 41.3346 219.515 42.2315 216.911 44.0253C214.307 45.7612 212.514 48.2493 211.53 51.4896H239.478C239.015 48.365 237.598 45.9058 235.225 44.112C232.853 42.2604 229.757 41.3346 225.938 41.3346ZM318.704 33.2626H329.727L312.021 81H302.907L291.19 47.8442L279.386 81H270.272L252.305 33.2626H263.328L275.046 65.9844L286.85 33.2626H295.616L307.247 65.8108L318.704 33.2626ZM386.125 32.2211C392.085 32.2211 396.714 34.0438 400.012 37.6892C403.368 41.3346 405.046 46.6291 405.046 53.5727V81H394.283V55.0482C394.283 50.8821 393.329 47.6996 391.419 45.5008C389.51 43.302 386.761 42.2026 383.174 42.2026C378.487 42.2026 374.697 44.2567 371.803 48.365C368.968 52.4733 367.55 58.5779 367.55 66.6788V81H356.788V33.2626H367.55V46.7159C369.113 42.3183 371.485 38.8175 374.668 36.2137C377.908 33.552 381.727 32.2211 386.125 32.2211ZM437.139 32.2211C443.678 32.2211 449.001 33.8124 453.11 36.9948C457.276 40.1773 459.359 45.2115 459.359 52.0972V81H448.596V68.9355C446.282 73.0438 443.273 76.2263 439.569 78.4829C435.866 80.7396 431.758 81.868 427.245 81.868C423.31 81.868 420.012 80.9132 417.35 79.0037C414.688 77.0364 413.357 74.201 413.357 70.4978C413.357 60.661 425.046 53.862 448.423 50.1009C447.67 44.3724 443.765 41.5082 436.705 41.5082C430.051 41.5082 423.86 43.5913 418.131 47.7574L414.399 39.0779C421.458 34.5067 429.038 32.2211 437.139 32.2211ZM431.237 72.928C435.172 72.928 438.933 71.25 442.52 67.8939C446.166 64.5378 448.191 60.8346 448.596 56.7841C443.62 57.71 439.512 58.6647 436.271 59.6484C433.031 60.5742 430.311 61.7893 428.112 63.2938C425.914 64.7404 424.814 66.3895 424.814 68.2411C424.814 69.8613 425.451 71.0475 426.724 71.7997C428.055 72.5519 429.559 72.928 431.237 72.928ZM503.265 66.7656L507.605 74.9243C501.645 79.6691 495.887 82.0415 490.332 82.0415C485.356 82.0415 481.335 80.6528 478.268 77.8754C475.201 75.0979 473.668 70.816 473.668 65.0297V41.9422H464.033V33.2626H473.668V25.0171L484.43 20.1566V33.2626H506.997V41.9422H484.43V64.3353C484.43 69.7166 486.745 72.4073 491.374 72.4073C494.962 72.4073 498.925 70.5267 503.265 66.7656ZM524.723 25.7983C523.276 27.0134 521.483 27.621 519.342 27.621C517.201 27.621 515.407 27.0134 513.96 25.7983C512.514 24.5253 511.791 22.963 511.791 21.1113C511.791 19.2597 512.514 17.7263 513.96 16.5112C515.407 15.2382 517.201 14.6017 519.342 14.6017C521.483 14.6017 523.276 15.2382 524.723 16.5112C526.17 17.7263 526.893 19.2597 526.893 21.1113C526.893 22.963 526.17 24.5253 524.723 25.7983ZM513.874 81V33.2626H524.636V81H513.874ZM577.313 75.1847C572.51 79.7559 566.319 82.0415 558.739 82.0415C551.158 82.0415 544.909 79.7559 539.991 75.1847C535.13 70.5556 532.7 64.5668 532.7 57.2181C532.7 49.8116 535.13 43.7938 539.991 39.1647C544.909 34.5356 551.158 32.2211 558.739 32.2211C566.319 32.2211 572.51 34.5356 577.313 39.1647C582.173 43.7359 584.604 49.7248 584.604 57.1313C584.604 64.5378 582.173 70.5556 577.313 75.1847ZM558.652 72.2337C563.107 72.2337 566.753 70.8739 569.588 68.1543C572.423 65.4347 573.841 61.7893 573.841 57.2181C573.841 52.589 572.423 48.8858 569.588 46.1083C566.753 43.3309 563.107 41.9422 558.652 41.9422C554.312 41.9422 550.724 43.3309 547.889 46.1083C545.112 48.8858 543.723 52.589 543.723 57.2181C543.723 61.7893 545.112 65.4347 547.889 68.1543C550.667 70.8739 554.254 72.2337 558.652 72.2337ZM621.997 32.2211C627.957 32.2211 632.586 34.0438 635.885 37.6892C639.241 41.3346 640.919 46.6291 640.919 53.5727V81H630.156V55.0482C630.156 50.8821 629.201 47.6996 627.292 45.5008C625.382 43.302 622.634 42.2026 619.046 42.2026C614.359 42.2026 610.569 44.2567 607.676 48.365C604.841 52.4733 603.423 58.5779 603.423 66.6788V81H592.661V33.2626H603.423V46.7159C604.985 42.3183 607.358 38.8175 610.54 36.2137C613.781 33.552 617.6 32.2211 621.997 32.2211ZM693.148 82.0415C684.527 82.0415 676.484 79.7559 669.019 75.1847L672.665 66.158C678.972 70.4978 685.771 72.6677 693.062 72.6677C696.707 72.6677 699.716 72.1758 702.088 71.1921C704.519 70.1506 705.734 68.7329 705.734 66.9392C705.734 65.3769 704.808 64.2485 702.956 63.5542C701.162 62.8019 697.72 62.1365 692.628 61.5579C685.163 60.8057 679.637 59.3301 676.05 57.1313C672.52 54.9325 670.755 51.5764 670.755 47.0631C670.755 42.0868 672.694 38.3836 676.57 35.9533C680.505 33.4652 685.8 32.2211 692.454 32.2211C700.613 32.2211 707.932 33.8124 714.413 36.9948L711.636 46.1951C705.734 43.0705 699.253 41.5082 692.194 41.5082C688.895 41.5082 686.234 41.9422 684.208 42.8101C682.241 43.6202 681.257 44.8353 681.257 46.4555C681.257 47.8442 682.154 48.9436 683.948 49.7537C685.8 50.506 688.924 51.1425 693.322 51.6632C701.307 52.5312 707.122 53.9778 710.768 56.003C714.471 57.9703 716.323 61.3554 716.323 66.158C716.323 71.3079 714.182 75.2426 709.9 77.9622C705.676 80.6818 700.092 82.0415 693.148 82.0415ZM758.782 66.7656L763.122 74.9243C757.162 79.6691 751.404 82.0415 745.849 82.0415C740.873 82.0415 736.852 80.6528 733.785 77.8754C730.718 75.0979 729.185 70.816 729.185 65.0297V41.9422H719.55V33.2626H729.185V25.0171L739.947 20.1566V33.2626H762.514V41.9422H739.947V64.3353C739.947 69.7166 742.262 72.4073 746.891 72.4073C750.478 72.4073 754.442 70.5267 758.782 66.7656ZM791.616 32.2211C798.155 32.2211 803.478 33.8124 807.586 36.9948C811.753 40.1773 813.836 45.2115 813.836 52.0972V81H803.073V68.9355C800.759 73.0438 797.75 76.2263 794.046 78.4829C790.343 80.7396 786.235 81.868 781.721 81.868C777.787 81.868 774.489 80.9132 771.827 79.0037C769.165 77.0364 767.834 74.201 767.834 70.4978C767.834 60.661 779.523 53.862 802.9 50.1009C802.147 44.3724 798.242 41.5082 791.182 41.5082C784.528 41.5082 778.336 43.5913 772.608 47.7574L768.876 39.0779C775.935 34.5067 783.515 32.2211 791.616 32.2211ZM785.714 72.928C789.649 72.928 793.41 71.25 796.997 67.8939C800.643 64.5378 802.668 60.8346 803.073 56.7841C798.097 57.71 793.989 58.6647 790.748 59.6484C787.508 60.5742 784.788 61.7893 782.589 63.2938C780.391 64.7404 779.291 66.3895 779.291 68.2411C779.291 69.8613 779.928 71.0475 781.201 71.7997C782.532 72.5519 784.036 72.928 785.714 72.928ZM857.742 66.7656L862.082 74.9243C856.122 79.6691 850.364 82.0415 844.809 82.0415C839.833 82.0415 835.812 80.6528 832.745 77.8754C829.678 75.0979 828.145 70.816 828.145 65.0297V41.9422H818.51V33.2626H828.145V25.0171L838.907 20.1566V33.2626H861.474V41.9422H838.907V64.3353C838.907 69.7166 841.222 72.4073 845.851 72.4073C849.438 72.4073 853.402 70.5267 857.742 66.7656ZM891.816 72.6677C898.239 72.6677 903.967 70.4399 909.001 65.9844L912.994 74.3168C906.455 79.4666 899.28 82.0415 891.469 82.0415C883.946 82.0415 877.61 79.9006 872.46 75.6187C867.311 71.3368 864.736 65.319 864.736 57.5653C864.736 50.0431 867.079 43.9385 871.766 39.2515C876.453 34.5646 882.76 32.2211 890.687 32.2211C898.325 32.2211 904.141 34.391 908.133 38.7307C912.184 43.0126 914.354 48.5965 914.643 55.4822L914.73 58.8672H875.498C875.788 63.4384 877.466 66.8813 880.532 69.1959C883.599 71.5104 887.36 72.6677 891.816 72.6677ZM890.687 41.3346C887.273 41.3346 884.265 42.2315 881.661 44.0253C879.057 45.7612 877.263 48.2493 876.279 51.4896H904.227C903.765 48.365 902.347 45.9058 899.975 44.112C897.602 42.2604 894.506 41.3346 890.687 41.3346Z" fill="#224059"/>
<path d="M244.463 164.964C239.66 169.535 233.469 171.821 225.888 171.821C218.308 171.821 212.059 169.535 207.141 164.964C202.28 160.335 199.85 154.346 199.85 146.997C199.85 139.591 202.28 133.573 207.141 128.944C212.059 124.315 218.308 122 225.888 122C233.469 122 239.66 124.315 244.463 128.944C249.323 133.515 251.753 139.504 251.753 146.911C251.753 154.317 249.323 160.335 244.463 164.964ZM225.802 162.013C230.257 162.013 233.903 160.653 236.738 157.934C239.573 155.214 240.991 151.569 240.991 146.997C240.991 142.368 239.573 138.665 236.738 135.888C233.903 133.11 230.257 131.721 225.802 131.721C221.462 131.721 217.874 133.11 215.039 135.888C212.262 138.665 210.873 142.368 210.873 146.997C210.873 151.569 212.262 155.214 215.039 157.934C217.816 160.653 221.404 162.013 225.802 162.013Z" fill="url(#paint0_linear_206_45)"/>
<path d="M289.147 122C295.107 122 299.736 123.823 303.034 127.468C306.39 131.114 308.069 136.408 308.069 143.352V170.779H297.306V144.827C297.306 140.661 296.351 137.479 294.442 135.28C292.532 133.081 289.784 131.982 286.196 131.982C281.509 131.982 277.719 134.036 274.826 138.144C271.991 142.253 270.573 148.357 270.573 156.458V170.779H259.81V123.042H270.573V136.495C272.135 132.097 274.508 128.597 277.69 125.993C280.931 123.331 284.75 122 289.147 122Z" fill="url(#paint1_linear_206_45)"/>
<path d="M373.231 156.545L377.57 164.704C371.611 169.448 365.853 171.821 360.298 171.821C355.322 171.821 351.3 170.432 348.234 167.655C345.167 164.877 343.634 160.595 343.634 154.809V131.721H333.999V123.042H343.634V114.796L354.396 109.936V123.042H376.963V131.721H354.396V154.115C354.396 159.496 356.711 162.186 361.34 162.186C364.927 162.186 368.891 160.306 373.231 156.545Z" fill="url(#paint2_linear_206_45)"/>
<path d="M412.829 122C418.731 122 423.331 123.823 426.629 127.468C429.928 131.114 431.577 136.408 431.577 143.352V170.779H420.814V144.827C420.814 140.661 419.888 137.479 418.037 135.28C416.185 133.081 413.494 131.982 409.965 131.982C405.336 131.982 401.603 134.036 398.768 138.144C395.991 142.253 394.602 148.357 394.602 156.458V170.779H383.839V106.551H394.602V136.408C396.222 132.011 398.595 128.51 401.719 125.906C404.844 123.302 408.547 122 412.829 122Z" fill="url(#paint3_linear_206_45)"/>
<path d="M465.939 162.447C472.362 162.447 478.09 160.219 483.124 155.764L487.117 164.096C480.578 169.246 473.403 171.821 465.592 171.821C458.069 171.821 451.733 169.68 446.583 165.398C441.434 161.116 438.859 155.098 438.859 147.345C438.859 139.822 441.202 133.718 445.889 129.031C450.576 124.344 456.883 122 464.81 122C472.448 122 478.264 124.17 482.256 128.51C486.307 132.792 488.477 138.376 488.766 145.261L488.853 148.646H449.621C449.911 153.218 451.589 156.661 454.655 158.975C457.722 161.29 461.483 162.447 465.939 162.447ZM464.81 131.114C461.397 131.114 458.388 132.011 455.784 133.804C453.18 135.54 451.386 138.029 450.402 141.269H478.351C477.888 138.144 476.47 135.685 474.098 133.891C471.725 132.04 468.629 131.114 464.81 131.114Z" fill="url(#paint4_linear_206_45)"/>
<path d="M541.662 171.821C533.966 171.821 527.601 169.564 522.567 165.051C517.591 160.537 515.103 154.433 515.103 146.737C515.103 139.099 517.62 133.081 522.654 128.684C527.746 124.228 534.198 122 542.009 122C548.953 122 555.752 123.997 562.406 127.989L558.327 136.929C553.235 133.11 547.796 131.201 542.009 131.201C537.438 131.201 533.648 132.589 530.639 135.367C527.63 138.086 526.126 141.847 526.126 146.65C526.126 151.395 527.63 155.185 530.639 158.02C533.648 160.856 537.38 162.273 541.836 162.273C547.449 162.273 552.974 160.393 558.414 156.632L562.58 165.485C555.926 169.709 548.953 171.821 541.662 171.821Z" fill="url(#paint5_linear_206_45)"/>
<path d="M569.893 170.779V106.551H580.656V170.779H569.893Z" fill="url(#paint6_linear_206_45)"/>
<path d="M633.332 164.964C628.529 169.535 622.338 171.821 614.758 171.821C607.178 171.821 600.929 169.535 596.01 164.964C591.15 160.335 588.719 154.346 588.719 146.997C588.719 139.591 591.15 133.573 596.01 128.944C600.929 124.315 607.178 122 614.758 122C622.338 122 628.529 124.315 633.332 128.944C638.193 133.515 640.623 139.504 640.623 146.911C640.623 154.317 638.193 160.335 633.332 164.964ZM614.671 162.013C619.127 162.013 622.772 160.653 625.607 157.934C628.443 155.214 629.86 151.569 629.86 146.997C629.86 142.368 628.443 138.665 625.607 135.888C622.772 133.11 619.127 131.721 614.671 131.721C610.331 131.721 606.744 133.11 603.909 135.888C601.131 138.665 599.742 142.368 599.742 146.997C599.742 151.569 601.131 155.214 603.909 157.934C606.686 160.653 610.274 162.013 614.671 162.013Z" fill="url(#paint7_linear_206_45)"/>
<path d="M685.481 123.042H696.157V170.779H685.481V157.239C683.919 161.637 681.517 165.166 678.277 167.828C675.095 170.49 671.305 171.821 666.907 171.821C660.947 171.821 656.289 169.998 652.933 166.353C649.635 162.649 647.986 157.326 647.986 150.382V123.042H658.661V148.907C658.661 153.131 659.616 156.342 661.526 158.541C663.435 160.74 666.184 161.839 669.771 161.839C674.458 161.839 678.248 159.785 681.141 155.677C684.035 151.511 685.481 145.406 685.481 137.363V123.042Z" fill="url(#paint8_linear_206_45)"/>
<path d="M746.217 106.551H756.979V170.606H746.217V161.145C744.307 164.501 741.761 167.134 738.579 169.043C735.396 170.895 731.78 171.821 727.729 171.821C720.844 171.821 715.202 169.506 710.804 164.877C706.407 160.248 704.208 154.317 704.208 147.084C704.208 139.793 706.436 133.804 710.891 129.118C715.347 124.431 720.988 122.087 727.816 122.087C731.809 122.087 735.396 123.042 738.579 124.951C741.761 126.803 744.307 129.407 746.217 132.763V106.551ZM730.594 162.36C735.165 162.36 738.897 160.914 741.79 158.02C744.741 155.127 746.217 151.453 746.217 146.997C746.217 142.484 744.741 138.781 741.79 135.888C738.897 132.994 735.165 131.548 730.594 131.548C726.08 131.548 722.377 132.994 719.484 135.888C716.648 138.781 715.231 142.484 715.231 146.997C715.231 151.511 716.648 155.214 719.484 158.107C722.377 160.942 726.08 162.36 730.594 162.36Z" fill="url(#paint9_linear_206_45)"/>
<path fill-rule="evenodd" clip-rule="evenodd" d="M206.113 166.056L206.106 166.05C200.918 161.11 198.35 154.713 198.35 146.997C198.35 139.227 200.916 132.801 206.106 127.858L206.113 127.852C211.344 122.928 217.977 120.5 225.888 120.5C233.796 120.5 240.377 122.926 245.497 127.858C250.689 132.744 253.253 139.144 253.253 146.911C253.253 154.681 250.687 161.107 245.497 166.05C240.375 170.925 233.794 173.321 225.888 173.321C217.982 173.321 211.352 170.926 206.119 166.063L206.113 166.056ZM244.463 128.944C239.66 124.315 233.469 122 225.888 122C218.308 122 212.059 124.315 207.141 128.944C202.28 133.573 199.85 139.591 199.85 146.997C199.85 154.346 202.28 160.335 207.141 164.964C212.059 169.535 218.308 171.821 225.888 171.821C233.469 171.821 239.66 169.535 244.463 164.964C249.323 160.335 251.753 154.317 251.753 146.911C251.753 139.504 249.323 133.515 244.463 128.944ZM225.802 160.513C229.926 160.513 233.182 159.266 235.699 156.851C238.191 154.461 239.491 151.233 239.491 146.997C239.491 142.699 238.187 139.407 235.688 136.959C233.169 134.491 229.917 133.221 225.802 133.221C221.817 133.221 218.621 134.481 216.094 136.954C213.651 139.4 212.373 142.693 212.373 146.997C212.373 151.242 213.65 154.474 216.088 156.862C218.548 159.27 221.74 160.513 225.802 160.513ZM215.039 135.888C217.874 133.11 221.462 131.721 225.802 131.721C230.257 131.721 233.903 133.11 236.738 135.888C239.573 138.665 240.991 142.368 240.991 146.997C240.991 151.569 239.573 155.214 236.738 157.934C233.903 160.653 230.257 162.013 225.802 162.013C221.404 162.013 217.816 160.653 215.039 157.934C212.262 155.214 210.873 151.569 210.873 146.997C210.873 142.368 212.262 138.665 215.039 135.888ZM309.569 172.279H295.806V144.827C295.806 140.869 294.897 138.092 293.309 136.264C291.749 134.467 289.459 133.482 286.196 133.482C282.039 133.482 278.692 135.263 276.057 139.002C273.474 142.748 272.073 148.493 272.073 156.458V172.279H258.31V121.542H272.073V130.044C273.38 128.05 274.934 126.31 276.74 124.832C280.262 121.94 284.422 120.5 289.147 120.5C295.431 120.5 300.501 122.435 304.143 126.457C307.837 130.474 309.569 136.186 309.569 143.352V172.279ZM277.69 125.993C275.397 127.869 273.525 130.21 272.073 133.018C271.51 134.107 271.01 135.266 270.573 136.495V123.042H259.81V170.779H270.573V156.458C270.573 148.357 271.991 142.253 274.826 138.144C277.719 134.036 281.509 131.982 286.196 131.982C289.784 131.982 292.532 133.081 294.442 135.28C296.351 137.479 297.306 140.661 297.306 144.827V170.779H308.069V143.352C308.069 136.408 306.39 131.114 303.034 127.468C299.736 123.823 295.107 122 289.147 122C284.75 122 280.931 123.331 277.69 125.993ZM373.671 154.178L379.48 165.1L378.505 165.877C372.377 170.756 366.299 173.321 360.298 173.321C355.029 173.321 350.623 171.842 347.227 168.766C343.737 165.606 342.134 160.845 342.134 154.809V133.221H332.499V121.542H342.134V113.828L355.896 107.612V121.542H378.463V133.221H355.896V154.115C355.896 156.625 356.441 158.227 357.269 159.19C358.06 160.11 359.32 160.686 361.34 160.686C364.404 160.686 368.027 159.07 372.248 155.411L373.671 154.178ZM354.396 154.115C354.396 159.496 356.711 162.186 361.34 162.186C364.6 162.186 368.172 160.633 372.054 157.526C372.443 157.215 372.835 156.888 373.231 156.545L377.57 164.704C371.611 169.448 365.853 171.821 360.298 171.821C355.322 171.821 351.3 170.432 348.234 167.655C345.167 164.877 343.634 160.595 343.634 154.809V131.721H333.999V123.042H343.634V114.796L354.396 109.936V123.042H376.963V131.721H354.396V154.115ZM433.077 172.279H419.314V144.827C419.314 140.86 418.43 138.076 416.889 136.246C415.387 134.462 413.162 133.482 409.965 133.482C405.875 133.482 402.588 135.254 400.007 138.99C397.476 142.738 396.102 148.488 396.102 156.458V172.279H382.339V105.051H396.102V130.023C397.417 128.006 398.968 126.247 400.759 124.754C404.168 121.913 408.216 120.5 412.829 120.5C419.062 120.5 424.102 122.44 427.742 126.462C431.376 130.479 433.077 136.189 433.077 143.352V172.279ZM396.102 132.998C395.546 134.067 395.046 135.204 394.602 136.408V106.551H383.839V170.779H394.602V156.458C394.602 148.357 395.991 142.253 398.768 138.144C401.603 134.036 405.336 131.982 409.965 131.982C413.494 131.982 416.185 133.081 418.037 135.28C419.888 137.479 420.814 140.661 420.814 144.827V170.779H431.577V143.352C431.577 136.408 429.928 131.114 426.629 127.468C423.331 123.823 418.731 122 412.829 122C408.547 122 404.844 123.302 401.719 125.906C399.45 127.797 397.578 130.161 396.102 132.998ZM483.618 153.323L488.989 164.531L488.045 165.274C481.26 170.618 473.763 173.321 465.592 173.321C457.765 173.321 451.077 171.085 445.624 166.551C440.076 161.938 437.359 155.466 437.359 147.345C437.359 139.483 439.821 132.977 444.828 127.97C449.851 122.948 456.569 120.5 464.81 120.5C472.733 120.5 478.999 122.759 483.353 127.486C487.689 132.074 489.963 138.02 490.265 145.198L490.265 145.211L490.392 150.146H451.287C451.803 153.545 453.255 156.039 455.559 157.778C458.325 159.866 461.755 160.947 465.939 160.947C471.977 160.947 477.356 158.866 482.13 154.64L483.618 153.323ZM449.772 150.146C450.306 153.978 451.934 156.921 454.655 158.975C457.722 161.29 461.483 162.447 465.939 162.447C471.863 162.447 477.196 160.552 481.939 156.761C482.338 156.442 482.733 156.11 483.124 155.764L487.117 164.096C480.578 169.246 473.403 171.821 465.592 171.821C458.069 171.821 451.733 169.68 446.583 165.398C441.434 161.116 438.859 155.098 438.859 147.345C438.859 139.822 441.202 133.718 445.889 129.031C450.576 124.344 456.883 122 464.81 122C472.448 122 478.264 124.17 482.256 128.51C486.307 132.792 488.477 138.376 488.766 145.261L488.853 148.646H449.621C449.654 149.161 449.704 149.661 449.772 150.146ZM456.625 135.046L456.616 135.053C454.86 136.223 453.512 137.782 452.577 139.769H476.48C475.882 137.834 474.785 136.291 473.193 135.088L473.184 135.081L473.175 135.074C471.13 133.478 468.386 132.614 464.81 132.614C461.675 132.614 458.968 133.432 456.635 135.04L456.625 135.046ZM478.041 139.769C478.171 140.251 478.274 140.751 478.351 141.269H450.402C450.56 140.75 450.739 140.25 450.938 139.769C451.982 137.25 453.597 135.262 455.784 133.804C458.388 132.011 461.397 131.114 464.81 131.114C468.629 131.114 471.725 132.04 474.098 133.891C476.076 135.387 477.391 137.347 478.041 139.769ZM521.566 166.168L521.559 166.162C516.223 161.321 513.603 154.788 513.603 146.737C513.603 138.735 516.259 132.279 521.667 127.554C527.074 122.823 533.895 120.5 542.009 120.5C549.256 120.5 556.319 122.587 563.178 126.703L564.327 127.393L558.918 139.247L557.427 138.129C552.567 134.484 547.438 132.701 542.009 132.701C537.768 132.701 534.355 133.978 531.657 136.469L531.651 136.474L531.645 136.48C529.009 138.862 527.626 142.186 527.626 146.65C527.626 151.049 529.005 154.42 531.668 156.929C534.376 159.48 537.73 160.773 541.836 160.773C547.092 160.773 552.326 159.017 557.561 155.398L559.017 154.391L564.5 166.042L563.384 166.751C556.509 171.115 549.261 173.321 541.662 173.321C533.651 173.321 526.913 170.962 521.566 166.168ZM522.654 128.684C517.62 133.081 515.103 139.099 515.103 146.737C515.103 154.433 517.591 160.537 522.567 165.051C527.601 169.564 533.966 171.821 541.662 171.821C548.953 171.821 555.926 169.709 562.58 165.485L558.414 156.632C557.993 156.922 557.572 157.202 557.15 157.47C552.119 160.672 547.015 162.273 541.836 162.273C537.38 162.273 533.648 160.856 530.639 158.02C527.63 155.185 526.126 151.395 526.126 146.65C526.126 141.847 527.63 138.086 530.639 135.367C533.648 132.589 537.438 131.201 542.009 131.201C547.327 131.201 552.352 132.814 557.084 136.04C557.501 136.324 557.915 136.62 558.327 136.929L562.406 127.989C555.752 123.997 548.953 122 542.009 122C534.198 122 527.746 124.228 522.654 128.684ZM568.393 172.279V105.051H582.156V172.279H568.393ZM594.982 166.056L594.976 166.05C589.788 161.11 587.219 154.713 587.219 146.997C587.219 139.227 589.786 132.801 594.976 127.858L594.982 127.852C600.214 122.928 606.846 120.5 614.758 120.5C622.665 120.5 629.246 122.926 634.366 127.857C639.559 132.744 642.123 139.144 642.123 146.911C642.123 154.681 639.557 161.107 634.367 166.05C629.245 170.925 622.664 173.321 614.758 173.321C606.852 173.321 600.221 170.926 594.989 166.063L594.982 166.056ZM633.332 128.944C628.529 124.315 622.338 122 614.758 122C607.178 122 600.929 124.315 596.01 128.944C591.15 133.573 588.719 139.591 588.719 146.997C588.719 154.346 591.15 160.335 596.01 164.964C600.929 169.535 607.178 171.821 614.758 171.821C622.338 171.821 628.529 169.535 633.332 164.964C638.193 160.335 640.623 154.317 640.623 146.911C640.623 139.504 638.193 133.515 633.332 128.944ZM614.671 160.513C618.796 160.513 622.051 159.266 624.569 156.851C627.061 154.461 628.36 151.233 628.36 146.997C628.36 142.699 627.057 139.407 624.558 136.959C622.038 134.491 618.787 133.221 614.671 133.221C610.686 133.221 607.49 134.481 604.964 136.954C602.521 139.4 601.242 142.693 601.242 146.997C601.242 151.242 602.519 154.474 604.958 156.862C607.417 159.27 610.61 160.513 614.671 160.513ZM603.909 135.888C606.744 133.11 610.331 131.721 614.671 131.721C619.127 131.721 622.772 133.11 625.607 135.888C628.443 138.665 629.86 142.368 629.86 146.997C629.86 151.569 628.443 155.214 625.607 157.934C622.772 160.653 619.127 162.013 614.671 162.013C610.274 162.013 606.686 160.653 603.909 157.934C601.131 155.214 599.742 151.569 599.742 146.997C599.742 142.368 601.131 138.665 603.909 135.888ZM683.981 121.542H697.657V172.279H683.981V163.68C682.657 165.699 681.076 167.47 679.234 168.983C675.766 171.882 671.631 173.321 666.907 173.321C660.62 173.321 655.526 171.384 651.829 167.369L651.821 167.36L651.813 167.35C648.187 163.279 646.486 157.547 646.486 150.382V121.542H660.161V148.907C660.161 152.929 661.073 155.732 662.658 157.558C664.218 159.354 666.509 160.339 669.771 160.339C673.929 160.339 677.276 158.558 679.912 154.817C682.554 151.01 683.981 145.263 683.981 137.363V121.542ZM681.141 155.677C678.248 159.785 674.458 161.839 669.771 161.839C666.184 161.839 663.435 160.74 661.526 158.541C659.616 156.342 658.661 153.131 658.661 148.907V123.042H647.986V150.382C647.986 157.326 649.635 162.649 652.933 166.353C656.289 169.998 660.947 171.821 666.907 171.821C671.305 171.821 675.095 170.49 678.277 167.828C680.615 165.908 682.517 163.535 683.981 160.71C684.546 159.621 685.046 158.464 685.481 157.239V170.779H696.157V123.042H685.481V137.363C685.481 145.406 684.035 151.511 681.141 155.677ZM744.717 105.051H758.479V172.106H744.717V165.849C743.173 167.614 741.384 169.11 739.35 170.33L739.342 170.335L739.333 170.34C735.899 172.338 732.018 173.321 727.729 173.321C720.468 173.321 714.421 170.863 709.717 165.91C705.019 160.965 702.708 154.646 702.708 147.084C702.708 139.462 705.049 133.086 709.804 128.084C714.56 123.081 720.603 120.587 727.816 120.587C732.055 120.587 735.91 121.603 739.341 123.66C741.379 124.846 743.171 126.32 744.717 128.073V105.051ZM746.217 132.763C745.754 131.95 745.254 131.181 744.717 130.456C743.036 128.189 740.99 126.354 738.579 124.951C735.396 123.042 731.809 122.087 727.816 122.087C720.988 122.087 715.347 124.431 710.891 129.118C706.436 133.804 704.208 139.793 704.208 147.084C704.208 154.317 706.407 160.248 710.804 164.877C715.202 169.506 720.844 171.821 727.729 171.821C731.78 171.821 735.396 170.895 738.579 169.043C740.99 167.596 743.036 165.734 744.717 163.457C745.254 162.729 745.754 161.958 746.217 161.145V170.606H756.979V106.551H746.217V132.763ZM740.735 156.954L740.74 156.949C743.379 154.362 744.717 151.085 744.717 146.997C744.717 142.846 743.375 139.542 740.74 136.959L740.735 136.953L740.729 136.948C738.152 134.37 734.818 133.048 730.594 133.048C726.437 133.048 723.132 134.364 720.551 136.942C718.026 139.521 716.731 142.83 716.731 146.997C716.731 151.161 718.023 154.468 720.544 157.046C723.122 159.567 726.43 160.86 730.594 160.86C734.818 160.86 738.152 159.537 740.729 156.96L740.735 156.954ZM719.484 158.107C716.648 155.214 715.231 151.511 715.231 146.997C715.231 142.484 716.648 138.781 719.484 135.888C722.377 132.994 726.08 131.548 730.594 131.548C735.165 131.548 738.897 132.994 741.79 135.888C744.741 138.781 746.217 142.484 746.217 146.997C746.217 151.453 744.741 155.127 741.79 158.02C738.897 160.913 735.165 162.36 730.594 162.36C726.08 162.36 722.377 160.942 719.484 158.107ZM569.893 170.779H580.656V106.551H569.893V170.779Z" fill="url(#paint10_linear_206_45)"/>
<path d="M852.5 105.195H383.5" stroke="url(#paint11_linear_206_45)" stroke-width="1.2"/>
<path d="M383.5 172.695H852.5" stroke="url(#paint12_linear_206_45)" stroke-width="1.2"/>
<path opacity="0.5" d="M514 90L514 191" stroke="url(#paint13_linear_206_45)" stroke-width="1.2"/>
<path d="M759 90L759 191" stroke="url(#paint14_linear_206_45)" stroke-width="1.2"/>
<defs>
<linearGradient id="paint0_linear_206_45" x1="423" y1="170.695" x2="450.949" y2="60.8247" gradientUnits="userSpaceOnUse">
<stop stop-color="#69C9FF"/>
<stop offset="0.604167" stop-color="#88F1BB" stop-opacity="0.26"/>
<stop offset="1" stop-color="#88F1BB" stop-opacity="0"/>
</linearGradient>
<linearGradient id="paint1_linear_206_45" x1="423" y1="170.695" x2="450.949" y2="60.8247" gradientUnits="userSpaceOnUse">
<stop stop-color="#69C9FF"/>
<stop offset="0.604167" stop-color="#88F1BB" stop-opacity="0.26"/>
<stop offset="1" stop-color="#88F1BB" stop-opacity="0"/>
</linearGradient>
<linearGradient id="paint2_linear_206_45" x1="423" y1="170.695" x2="450.949" y2="60.8247" gradientUnits="userSpaceOnUse">
<stop stop-color="#69C9FF"/>
<stop offset="0.604167" stop-color="#88F1BB" stop-opacity="0.26"/>
<stop offset="1" stop-color="#88F1BB" stop-opacity="0"/>
</linearGradient>
<linearGradient id="paint3_linear_206_45" x1="423" y1="170.695" x2="450.949" y2="60.8247" gradientUnits="userSpaceOnUse">
<stop stop-color="#69C9FF"/>
<stop offset="0.604167" stop-color="#88F1BB" stop-opacity="0.26"/>
<stop offset="1" stop-color="#88F1BB" stop-opacity="0"/>
</linearGradient>
<linearGradient id="paint4_linear_206_45" x1="423" y1="170.695" x2="450.949" y2="60.8247" gradientUnits="userSpaceOnUse">
<stop stop-color="#69C9FF"/>
<stop offset="0.604167" stop-color="#88F1BB" stop-opacity="0.26"/>
<stop offset="1" stop-color="#88F1BB" stop-opacity="0"/>
</linearGradient>
<linearGradient id="paint5_linear_206_45" x1="423" y1="170.695" x2="450.949" y2="60.8247" gradientUnits="userSpaceOnUse">
<stop stop-color="#69C9FF"/>
<stop offset="0.604167" stop-color="#88F1BB" stop-opacity="0.26"/>
<stop offset="1" stop-color="#88F1BB" stop-opacity="0"/>
</linearGradient>
<linearGradient id="paint6_linear_206_45" x1="423" y1="170.695" x2="450.949" y2="60.8247" gradientUnits="userSpaceOnUse">
<stop stop-color="#69C9FF"/>
<stop offset="0.604167" stop-color="#88F1BB" stop-opacity="0.26"/>
<stop offset="1" stop-color="#88F1BB" stop-opacity="0"/>
</linearGradient>
<linearGradient id="paint7_linear_206_45" x1="423" y1="170.695" x2="450.949" y2="60.8247" gradientUnits="userSpaceOnUse">
<stop stop-color="#69C9FF"/>
<stop offset="0.604167" stop-color="#88F1BB" stop-opacity="0.26"/>
<stop offset="1" stop-color="#88F1BB" stop-opacity="0"/>
</linearGradient>
<linearGradient id="paint8_linear_206_45" x1="423" y1="170.695" x2="450.949" y2="60.8247" gradientUnits="userSpaceOnUse">
<stop stop-color="#69C9FF"/>
<stop offset="0.604167" stop-color="#88F1BB" stop-opacity="0.26"/>
<stop offset="1" stop-color="#88F1BB" stop-opacity="0"/>
</linearGradient>
<linearGradient id="paint9_linear_206_45" x1="423" y1="170.695" x2="450.949" y2="60.8247" gradientUnits="userSpaceOnUse">
<stop stop-color="#69C9FF"/>
<stop offset="0.604167" stop-color="#88F1BB" stop-opacity="0.26"/>
<stop offset="1" stop-color="#88F1BB" stop-opacity="0"/>
</linearGradient>
<linearGradient id="paint10_linear_206_45" x1="600" y1="123.695" x2="344" y2="159.695" gradientUnits="userSpaceOnUse">
<stop stop-color="#88F1BB"/>
<stop offset="1" stop-color="#6ACAFF" stop-opacity="0.65"/>
</linearGradient>
<linearGradient id="paint11_linear_206_45" x1="855.287" y1="105.231" x2="855.244" y2="101.302" gradientUnits="userSpaceOnUse">
<stop stop-color="#69C9FF"/>
<stop offset="1" stop-color="#88F1BB" stop-opacity="0"/>
</linearGradient>
<linearGradient id="paint12_linear_206_45" x1="380.713" y1="172.731" x2="380.756" y2="168.802" gradientUnits="userSpaceOnUse">
<stop stop-color="#88F1BB" stop-opacity="0"/>
<stop offset="1" stop-color="#69C9FF"/>
</linearGradient>
<linearGradient id="paint13_linear_206_45" x1="513.964" y1="89.3998" x2="517.883" y2="89.5989" gradientUnits="userSpaceOnUse">
<stop stop-color="#69C9FF" stop-opacity="0"/>
<stop offset="1" stop-color="#88F1BB"/>
</linearGradient>
<linearGradient id="paint14_linear_206_45" x1="758.964" y1="89.3998" x2="762.883" y2="89.5989" gradientUnits="userSpaceOnUse">
<stop stop-color="#69C9FF" stop-opacity="0"/>
<stop offset="1" stop-color="#88F1BB"/>
</linearGradient>
</defs>
</svg>
