<svg width="430" height="219" viewBox="0 0 430 219" fill="none" xmlns="http://www.w3.org/2000/svg">
<path d="M398.108 103.28L398.108 218.617" stroke="url(#paint0_linear_287_1161)" stroke-width="0.795428"/>
<path d="M158.942 54L154.799 45.255H132.534L128.392 54H120.222L139.553 13.7271H147.78L167.111 54H158.942ZM135.583 38.8113H151.75L143.695 21.7241L135.583 38.8113ZM204.43 21.6666C208.381 21.6666 211.449 22.8748 213.635 25.2911C215.86 27.7075 216.972 31.217 216.972 35.8196V54H209.838V36.7977C209.838 34.0361 209.205 31.9266 207.94 30.4691C206.674 29.0116 204.852 28.2828 202.474 28.2828C199.367 28.2828 196.855 29.6445 194.937 32.3677C193.058 35.0909 192.118 39.1374 192.118 44.5071V54H184.984V22.357H192.118V31.2746C193.154 28.3596 194.726 26.0391 196.836 24.3131C198.984 22.5487 201.515 21.6666 204.43 21.6666ZM239.741 48.4769C243.999 48.4769 247.796 47.0002 251.133 44.0468L253.779 49.57C249.445 52.9836 244.689 54.6904 239.511 54.6904C234.525 54.6904 230.325 53.2713 226.912 50.433C223.498 47.5947 221.791 43.6057 221.791 38.4661C221.791 33.48 223.345 29.4335 226.451 26.3267C229.558 23.22 233.739 21.6666 238.993 21.6666C244.056 21.6666 247.911 23.1049 250.558 25.9815C253.242 28.8198 254.681 32.5211 254.873 37.0854L254.93 39.3291H228.925C229.117 42.3592 230.229 44.6413 232.262 46.1755C234.295 47.7097 236.788 48.4769 239.741 48.4769ZM238.993 27.7075C236.731 27.7075 234.736 28.302 233.01 29.491C231.284 30.6417 230.095 32.291 229.443 34.4389H247.969C247.662 32.3677 246.722 30.7376 245.15 29.5486C243.577 28.3212 241.525 27.7075 238.993 27.7075ZM300.484 22.357H307.791L296.054 54H290.013L282.246 32.0225L274.422 54H268.381L256.471 22.357H263.778L271.545 44.0468L279.369 22.357H285.18L292.89 43.9318L300.484 22.357ZM56.3114 85.6666C60.262 85.6666 63.3304 86.8748 65.5167 89.2911C67.7413 91.7075 68.8536 95.217 68.8536 99.8196V118H61.7195V100.798C61.7195 98.0361 61.0866 95.9266 59.8209 94.4691C58.5552 93.0116 56.7333 92.2828 54.3553 92.2828C51.2485 92.2828 48.7363 93.6445 46.8185 96.3677C44.9391 99.0909 43.9994 103.137 43.9994 108.507V118H36.8653V86.357H43.9994V95.2746C45.035 92.3596 46.6076 90.0391 48.7171 88.3131C50.865 86.5487 53.3964 85.6666 56.3114 85.6666ZM90.1268 85.6666C94.4609 85.6666 97.9896 86.7213 100.713 88.8309C103.474 90.9404 104.855 94.2773 104.855 98.8416V118H97.7211V110.003C96.1869 112.726 94.1924 114.836 91.7377 116.332C89.2829 117.827 86.5597 118.575 83.568 118.575C80.9599 118.575 78.7736 117.942 77.0093 116.677C75.2449 115.373 74.3628 113.493 74.3628 111.039C74.3628 104.518 82.1105 100.011 97.606 97.5183C97.1074 93.7212 94.5184 91.8226 89.8391 91.8226C85.4282 91.8226 81.3242 93.2034 77.5271 95.9649L75.0532 90.2117C79.7325 87.1816 84.757 85.6666 90.1268 85.6666ZM86.2145 112.649C88.8227 112.649 91.3158 111.537 93.6938 109.313C96.1102 107.088 97.4526 104.633 97.7211 101.948C94.4225 102.562 91.6993 103.195 89.5514 103.847C87.4035 104.461 85.6008 105.266 84.1433 106.263C82.6859 107.222 81.9571 108.315 81.9571 109.543C81.9571 110.617 82.379 111.403 83.2228 111.902C84.105 112.4 85.1022 112.649 86.2145 112.649ZM133.959 108.565L136.835 113.973C132.885 117.118 129.068 118.69 125.386 118.69C122.088 118.69 119.422 117.77 117.389 115.929C115.356 114.088 114.34 111.249 114.34 107.414V92.1102H107.954V86.357H114.34V80.8914L121.474 77.6695V86.357H136.433V92.1102H121.474V106.954C121.474 110.521 123.008 112.304 126.077 112.304C128.455 112.304 131.082 111.058 133.959 108.565ZM148.182 81.4091C147.223 82.2146 146.034 82.6173 144.615 82.6173C143.196 82.6173 142.007 82.2146 141.048 81.4091C140.089 80.5653 139.61 79.5297 139.61 78.3024C139.61 77.075 140.089 76.0586 141.048 75.2531C142.007 74.4093 143.196 73.9874 144.615 73.9874C146.034 73.9874 147.223 74.4093 148.182 75.2531C149.141 76.0586 149.621 77.075 149.621 78.3024C149.621 79.5297 149.141 80.5653 148.182 81.4091ZM140.991 118V86.357H148.125V118H140.991ZM183.042 114.145C179.858 117.175 175.754 118.69 170.73 118.69C165.705 118.69 161.563 117.175 158.303 114.145C155.081 111.077 153.47 107.107 153.47 102.236C153.47 97.3266 155.081 93.3376 158.303 90.2692C161.563 87.2008 165.705 85.6666 170.73 85.6666C175.754 85.6666 179.858 87.2008 183.042 90.2692C186.264 93.2993 187.874 97.269 187.874 102.178C187.874 107.088 186.264 111.077 183.042 114.145ZM170.672 112.189C173.626 112.189 176.042 111.288 177.921 109.485C179.801 107.682 180.74 105.266 180.74 102.236C180.74 99.1676 179.801 96.7129 177.921 94.8718C176.042 93.0308 173.626 92.1102 170.672 92.1102C167.796 92.1102 165.418 93.0308 163.538 94.8718C161.697 96.7129 160.777 99.1676 160.777 102.236C160.777 105.266 161.697 107.682 163.538 109.485C165.379 111.288 167.757 112.189 170.672 112.189ZM212.661 85.6666C216.612 85.6666 219.68 86.8748 221.866 89.2911C224.091 91.7075 225.203 95.217 225.203 99.8196V118H218.069V100.798C218.069 98.0361 217.436 95.9266 216.171 94.4691C214.905 93.0116 213.083 92.2828 210.705 92.2828C207.598 92.2828 205.086 93.6445 203.168 96.3677C201.289 99.0909 200.349 103.137 200.349 108.507V118H193.215V86.357H200.349V95.2746C201.385 92.3596 202.957 90.0391 205.067 88.3131C207.215 86.5487 209.746 85.6666 212.661 85.6666ZM259.824 118.69C254.109 118.69 248.778 117.175 243.83 114.145L246.246 108.162C250.427 111.039 254.934 112.477 259.767 112.477C262.183 112.477 264.178 112.151 265.75 111.499C267.361 110.808 268.166 109.869 268.166 108.68C268.166 107.644 267.553 106.896 266.325 106.436C265.136 105.937 262.854 105.496 259.479 105.113C254.531 104.614 250.868 103.636 248.49 102.178C246.151 100.721 244.981 98.4964 244.981 95.5047C244.981 92.2061 246.266 89.7514 248.835 88.1405C251.444 86.4912 254.953 85.6666 259.364 85.6666C264.772 85.6666 269.624 86.7213 273.92 88.8309L272.079 94.9294C268.166 92.8582 263.871 91.8226 259.191 91.8226C257.005 91.8226 255.241 92.1102 253.898 92.6856C252.594 93.2225 251.942 94.028 251.942 95.102C251.942 96.0225 252.537 96.7512 253.726 97.2882C254.953 97.7868 257.024 98.2087 259.939 98.5539C265.232 99.1292 269.087 100.088 271.503 101.431C273.958 102.735 275.185 104.978 275.185 108.162C275.185 111.576 273.766 114.184 270.928 115.986C268.128 117.789 264.427 118.69 259.824 118.69ZM303.33 108.565L306.206 113.973C302.256 117.118 298.439 118.69 294.757 118.69C291.459 118.69 288.793 117.77 286.76 115.929C284.727 114.088 283.711 111.249 283.711 107.414V92.1102H277.325V86.357H283.711V80.8914L290.845 77.6695V86.357H305.804V92.1102H290.845V106.954C290.845 110.521 292.379 112.304 295.448 112.304C297.826 112.304 300.453 111.058 303.33 108.565ZM325.094 85.6666C329.428 85.6666 332.957 86.7213 335.68 88.8309C338.442 90.9404 339.823 94.2773 339.823 98.8416V118H332.689V110.003C331.154 112.726 329.16 114.836 326.705 116.332C324.25 117.827 321.527 118.575 318.535 118.575C315.927 118.575 313.741 117.942 311.977 116.677C310.212 115.373 309.33 113.493 309.33 111.039C309.33 104.518 317.078 100.011 332.573 97.5183C332.075 93.7212 329.486 91.8226 324.807 91.8226C320.396 91.8226 316.292 93.2034 312.495 95.9649L310.021 90.2117C314.7 87.1816 319.725 85.6666 325.094 85.6666ZM321.182 112.649C323.79 112.649 326.283 111.537 328.661 109.313C331.078 107.088 332.42 104.633 332.689 101.948C329.39 102.562 326.667 103.195 324.519 103.847C322.371 104.461 320.568 105.266 319.111 106.263C317.653 107.222 316.925 108.315 316.925 109.543C316.925 110.617 317.346 111.403 318.19 111.902C319.072 112.4 320.07 112.649 321.182 112.649ZM368.926 108.565L371.803 113.973C367.852 117.118 364.036 118.69 360.354 118.69C357.055 118.69 354.389 117.77 352.357 115.929C350.324 114.088 349.307 111.249 349.307 107.414V92.1102H342.921V86.357H349.307V80.8914L356.442 77.6695V86.357H371.4V92.1102H356.442V106.954C356.442 110.521 357.976 112.304 361.044 112.304C363.422 112.304 366.049 111.058 368.926 108.565ZM391.512 112.477C395.77 112.477 399.567 111 402.904 108.047L405.55 113.57C401.216 116.984 396.46 118.69 391.282 118.69C386.296 118.69 382.096 117.271 378.682 114.433C375.269 111.595 373.562 107.606 373.562 102.466C373.562 97.48 375.115 93.4335 378.222 90.3267C381.329 87.22 385.51 85.6666 390.764 85.6666C395.827 85.6666 399.682 87.1049 402.328 89.9815C405.013 92.8198 406.452 96.5211 406.643 101.085L406.701 103.329H380.696C380.888 106.359 382 108.641 384.033 110.176C386.066 111.71 388.559 112.477 391.512 112.477ZM390.764 91.7075C388.501 91.7075 386.507 92.302 384.781 93.491C383.055 94.6417 381.866 96.291 381.214 98.4389H399.739C399.433 96.3677 398.493 94.7376 396.92 93.5486C395.348 92.3212 393.296 91.7075 390.764 91.7075Z" fill="#224059"/>
<path d="M57.0435 179.333C53.86 182.363 49.756 183.878 44.7315 183.878C39.7069 183.878 35.5646 182.363 32.3044 179.333C29.0825 176.264 27.4716 172.295 27.4716 167.424C27.4716 162.514 29.0825 158.525 32.3044 155.457C35.5646 152.388 39.7069 150.854 44.7315 150.854C49.756 150.854 53.86 152.388 57.0435 155.457C60.2653 158.487 61.8762 162.457 61.8762 167.366C61.8762 172.275 60.2653 176.264 57.0435 179.333ZM44.6739 177.377C47.6273 177.377 50.0436 176.475 51.923 174.673C53.8025 172.87 54.7422 170.454 54.7422 167.424C54.7422 164.355 53.8025 161.9 51.923 160.059C50.0436 158.218 47.6273 157.298 44.6739 157.298C41.7973 157.298 39.4193 158.218 37.5399 160.059C35.6988 161.9 34.7783 164.355 34.7783 167.424C34.7783 170.454 35.6988 172.87 37.5399 174.673C39.3809 176.475 41.7589 177.377 44.6739 177.377ZM86.663 150.854C90.6135 150.854 93.682 152.062 95.8682 154.479C98.0928 156.895 99.2051 160.405 99.2051 165.007V183.188H92.071V165.985C92.071 163.224 91.4382 161.114 90.1725 159.657C88.9067 158.199 87.0849 157.47 84.7068 157.47C81.6001 157.47 79.0878 158.832 77.17 161.555C75.2906 164.278 74.3509 168.325 74.3509 173.695V183.188H67.2169V151.544H74.3509V160.462C75.3865 157.547 76.9591 155.227 79.0686 153.501C81.2165 151.736 83.748 150.854 86.663 150.854ZM142.398 173.752L145.275 179.16C141.324 182.305 137.508 183.878 133.826 183.878C130.527 183.878 127.862 182.957 125.829 181.116C123.796 179.275 122.78 176.437 122.78 172.601V157.298H116.393V151.544H122.78V146.079L129.914 142.857V151.544H144.872V157.298H129.914V172.141C129.914 175.708 131.448 177.492 134.516 177.492C136.894 177.492 139.522 176.245 142.398 173.752ZM168.646 150.854C172.558 150.854 175.608 152.062 177.794 154.479C179.98 156.895 181.073 160.405 181.073 165.007V183.188H173.939V165.985C173.939 163.224 173.326 161.114 172.098 159.657C170.871 158.199 169.087 157.47 166.748 157.47C163.679 157.47 161.205 158.832 159.326 161.555C157.485 164.278 156.564 168.325 156.564 173.695V183.188H149.43V140.613H156.564V160.405C157.638 157.49 159.211 155.169 161.282 153.443C163.353 151.717 165.808 150.854 168.646 150.854ZM203.85 177.664C208.108 177.664 211.905 176.188 215.242 173.234L217.888 178.757C213.554 182.171 208.798 183.878 203.62 183.878C198.634 183.878 194.434 182.459 191.021 179.62C187.607 176.782 185.9 172.793 185.9 167.654C185.9 162.667 187.454 158.621 190.56 155.514C193.667 152.407 197.848 150.854 203.103 150.854C208.165 150.854 212.02 152.292 214.667 155.169C217.352 158.007 218.79 161.709 218.982 166.273L219.039 168.517H193.034C193.226 171.547 194.338 173.829 196.371 175.363C198.404 176.897 200.897 177.664 203.85 177.664ZM203.103 156.895C200.84 156.895 198.845 157.49 197.119 158.679C195.393 159.829 194.204 161.478 193.552 163.626H212.078C211.771 161.555 210.831 159.925 209.259 158.736C207.686 157.509 205.634 156.895 203.103 156.895ZM254.044 183.878C248.943 183.878 244.724 182.382 241.387 179.39C238.088 176.399 236.439 172.352 236.439 167.251C236.439 162.188 238.108 158.199 241.445 155.284C244.82 152.331 249.096 150.854 254.274 150.854C258.877 150.854 263.384 152.177 267.795 154.824L265.091 160.75C261.715 158.218 258.11 156.953 254.274 156.953C251.244 156.953 248.732 157.873 246.738 159.714C244.743 161.517 243.746 164.01 243.746 167.193C243.746 170.339 244.743 172.851 246.738 174.73C248.732 176.61 251.206 177.549 254.159 177.549C257.88 177.549 261.543 176.303 265.148 173.81L267.91 179.678C263.499 182.478 258.877 183.878 254.044 183.878ZM272.757 183.188V140.613H279.891V183.188H272.757ZM314.808 179.333C311.625 182.363 307.521 183.878 302.496 183.878C297.472 183.878 293.329 182.363 290.069 179.333C286.847 176.264 285.236 172.295 285.236 167.424C285.236 162.514 286.847 158.525 290.069 155.457C293.329 152.388 297.472 150.854 302.496 150.854C307.521 150.854 311.625 152.388 314.808 155.457C318.03 158.487 319.641 162.457 319.641 167.366C319.641 172.275 318.03 176.264 314.808 179.333ZM302.439 177.377C305.392 177.377 307.808 176.475 309.688 174.673C311.567 172.87 312.507 170.454 312.507 167.424C312.507 164.355 311.567 161.9 309.688 160.059C307.808 158.218 305.392 157.298 302.439 157.298C299.562 157.298 297.184 158.218 295.305 160.059C293.464 161.9 292.543 164.355 292.543 167.424C292.543 170.454 293.464 172.87 295.305 174.673C297.146 176.475 299.524 177.377 302.439 177.377ZM349.376 151.544H356.452V183.188H349.376V174.212C348.34 177.127 346.748 179.467 344.6 181.231C342.491 182.996 339.979 183.878 337.064 183.878C333.113 183.878 330.025 182.67 327.801 180.253C325.615 177.799 324.521 174.27 324.521 169.667V151.544H331.598V168.689C331.598 171.489 332.231 173.618 333.497 175.075C334.762 176.533 336.584 177.262 338.962 177.262C342.069 177.262 344.581 175.9 346.499 173.177C348.417 170.415 349.376 166.369 349.376 161.037V151.544ZM389.635 140.613H396.769V183.072H389.635V176.801C388.369 179.026 386.681 180.771 384.572 182.037C382.462 183.264 380.065 183.878 377.38 183.878C372.816 183.878 369.076 182.344 366.161 179.275C363.246 176.207 361.789 172.275 361.789 167.481C361.789 162.648 363.265 158.679 366.219 155.572C369.172 152.465 372.912 150.912 377.438 150.912C380.084 150.912 382.462 151.544 384.572 152.81C386.681 154.038 388.369 155.764 389.635 157.988V140.613ZM379.279 177.607C382.309 177.607 384.783 176.648 386.7 174.73C388.657 172.812 389.635 170.377 389.635 167.424C389.635 164.432 388.657 161.977 386.7 160.059C384.783 158.142 382.309 157.183 379.279 157.183C376.287 157.183 373.832 158.142 371.915 160.059C370.035 161.977 369.095 164.432 369.095 167.424C369.095 170.415 370.035 172.87 371.915 174.788C373.832 176.667 376.287 177.607 379.279 177.607Z" fill="url(#paint1_linear_287_1161)"/>
<path d="M57.0435 179.333L57.729 180.053L57.7292 180.053L57.0435 179.333ZM32.3044 179.333L31.6186 180.053L31.6275 180.061L32.3044 179.333ZM32.3044 155.457L31.6229 154.733L31.6187 154.737L32.3044 155.457ZM57.0435 155.457L56.3534 156.173L56.3623 156.181L57.0435 155.457ZM51.923 174.673L52.6113 175.39L51.923 174.673ZM37.5399 160.059L36.844 159.349L36.8368 159.356L37.5399 160.059ZM37.5399 174.673L38.2355 173.962L37.5399 174.673ZM56.358 178.613C53.386 181.441 49.5402 182.884 44.7315 182.884V184.872C49.9718 184.872 54.3339 183.284 57.729 180.053L56.358 178.613ZM44.7315 182.884C39.9231 182.884 36.0334 181.441 32.9813 178.605L31.6275 180.061C35.0957 183.284 39.4907 184.872 44.7315 184.872V182.884ZM32.9901 178.613C29.9851 175.751 28.4659 172.051 28.4659 167.424H26.4773C26.4773 172.538 28.18 176.778 31.6187 180.053L32.9901 178.613ZM28.4659 167.424C28.4659 162.755 29.9868 159.037 32.9901 156.177L31.6187 154.737C28.1783 158.013 26.4773 162.273 26.4773 167.424H28.4659ZM32.9858 156.181C36.0385 153.308 39.9267 151.848 44.7315 151.848V149.86C39.4872 149.86 35.0906 151.469 31.6229 154.733L32.9858 156.181ZM44.7315 151.848C49.5366 151.848 53.3809 153.308 56.3535 156.173L57.7335 154.741C54.339 151.469 49.9754 149.86 44.7315 149.86V151.848ZM56.3623 156.181C59.3612 159.001 60.8819 162.697 60.8819 167.366H62.8705C62.8705 162.216 61.1694 157.972 57.7246 154.732L56.3623 156.181ZM60.8819 167.366C60.8819 172.034 59.3611 175.752 56.3578 178.613L57.7292 180.053C61.1695 176.776 62.8705 172.516 62.8705 167.366H60.8819ZM44.6739 178.371C47.8466 178.371 50.5216 177.395 52.6113 175.39L51.2348 173.955C49.5657 175.556 47.408 176.382 44.6739 176.382V178.371ZM52.6113 175.39C54.7185 173.369 55.7364 170.676 55.7364 167.424H53.7479C53.7479 170.231 52.8864 172.371 51.2348 173.955L52.6113 175.39ZM55.7364 167.424C55.7364 164.136 54.721 161.408 52.6188 159.349L51.2273 160.77C52.8839 162.392 53.7479 164.574 53.7479 167.424H55.7364ZM52.6188 159.349C50.5302 157.303 47.8527 156.303 44.6739 156.303V158.292C47.4018 158.292 49.5571 159.134 51.2273 160.77L52.6188 159.349ZM44.6739 156.303C41.5638 156.303 38.9275 157.308 36.8441 159.349L38.2356 160.77C39.911 159.128 42.0308 158.292 44.6739 158.292V156.303ZM36.8368 159.356C34.7763 161.417 33.784 164.142 33.784 167.424H35.7726C35.7726 164.568 36.6213 162.384 38.2429 160.762L36.8368 159.356ZM33.784 167.424C33.784 170.67 34.7787 173.361 36.8442 175.383L38.2355 173.962C36.6189 172.379 35.7726 170.237 35.7726 167.424H33.784ZM36.8442 175.383C38.896 177.392 41.5359 178.371 44.6739 178.371V176.382C41.9819 176.382 39.8658 175.559 38.2355 173.962L36.8442 175.383ZM95.8682 154.479L95.1309 155.146L95.1367 155.152L95.8682 154.479ZM99.2051 183.188V184.182H100.199V183.188H99.2051ZM92.071 183.188H91.0768V184.182H92.071V183.188ZM90.1725 159.657L89.4217 160.309L90.1725 159.657ZM77.17 161.555L76.3571 160.983L76.3517 160.99L77.17 161.555ZM74.3509 183.188V184.182H75.3452V183.188H74.3509ZM67.2169 183.188H66.2226V184.182H67.2169V183.188ZM67.2169 151.544V150.55H66.2226V151.544H67.2169ZM74.3509 151.544H75.3452V150.55H74.3509V151.544ZM74.3509 160.462H73.3567L75.2879 160.795L74.3509 160.462ZM79.0686 153.501L79.6982 154.27L79.6997 154.269L79.0686 153.501ZM86.663 151.848C90.3973 151.848 93.1726 152.981 95.1309 155.146L96.6055 153.812C94.1913 151.143 90.8298 149.86 86.663 149.86V151.848ZM95.1367 155.152C97.1348 157.322 98.2108 160.554 98.2108 165.007H100.199C100.199 160.255 99.0508 156.468 96.5997 153.805L95.1367 155.152ZM98.2108 165.007V183.188H100.199V165.007H98.2108ZM99.2051 182.193H92.071V184.182H99.2051V182.193ZM93.0653 183.188V165.985H91.0768V183.188H93.0653ZM93.0653 165.985C93.0653 163.086 92.4018 160.707 90.9232 159.005L89.4217 160.309C90.4745 161.521 91.0768 163.361 91.0768 165.985H93.0653ZM90.9232 159.005C89.4257 157.28 87.3003 156.476 84.7068 156.476V158.465C86.8694 158.465 88.3877 159.118 89.4217 160.309L90.9232 159.005ZM84.7068 156.476C81.2501 156.476 78.4453 158.017 76.3571 160.983L77.983 162.128C79.7303 159.646 81.95 158.465 84.7068 158.465V156.476ZM76.3517 160.99C74.3064 163.954 73.3567 168.238 73.3567 173.695H75.3452C75.3452 168.412 76.2749 164.603 77.9884 162.12L76.3517 160.99ZM73.3567 173.695V183.188H75.3452V173.695H73.3567ZM74.3509 182.193H67.2169V184.182H74.3509V182.193ZM68.2112 183.188V151.544H66.2226V183.188H68.2112ZM67.2169 152.539H74.3509V150.55H67.2169V152.539ZM73.3567 151.544V160.462H75.3452V151.544H73.3567ZM75.2879 160.795C76.2711 158.027 77.7472 155.866 79.6982 154.27L78.439 152.731C76.171 154.587 74.5019 157.067 73.414 160.129L75.2879 160.795ZM79.6997 154.269C81.6606 152.658 83.966 151.848 86.663 151.848V149.86C83.5299 149.86 80.7724 150.814 78.4375 152.732L79.6997 154.269ZM142.398 173.752L143.276 173.285L142.69 172.183L141.747 173.001L142.398 173.752ZM145.275 179.16L145.894 179.938L146.541 179.423L146.153 178.693L145.275 179.16ZM125.829 181.116L125.161 181.853L125.829 181.116ZM122.78 157.298H123.774V156.303H122.78V157.298ZM116.393 157.298H115.399V158.292H116.393V157.298ZM116.393 151.544V150.55H115.399V151.544H116.393ZM122.78 151.544V152.539H123.774V151.544H122.78ZM122.78 146.079L122.37 145.173L121.785 145.437V146.079H122.78ZM129.914 142.857H130.908V141.317L129.504 141.951L129.914 142.857ZM129.914 151.544H128.919V152.539H129.914V151.544ZM144.872 151.544H145.866V150.55H144.872V151.544ZM144.872 157.298V158.292H145.866V157.298H144.872ZM129.914 157.298V156.303H128.919V157.298H129.914ZM141.52 174.219L144.397 179.627L146.153 178.693L143.276 173.285L141.52 174.219ZM144.656 178.382C140.816 181.439 137.212 182.884 133.826 182.884V184.872C137.804 184.872 141.832 183.172 145.894 179.938L144.656 178.382ZM133.826 182.884C130.721 182.884 128.311 182.023 126.496 180.379L125.161 181.853C127.413 183.892 130.333 184.872 133.826 184.872V182.884ZM126.496 180.379C124.744 178.792 123.774 176.272 123.774 172.601H121.785C121.785 176.602 122.848 179.758 125.161 181.853L126.496 180.379ZM123.774 172.601V157.298H121.785V172.601H123.774ZM122.78 156.303H116.393V158.292H122.78V156.303ZM117.388 157.298V151.544H115.399V157.298H117.388ZM116.393 152.539H122.78V150.55H116.393V152.539ZM123.774 151.544V146.079H121.785V151.544H123.774ZM123.189 146.985L130.323 143.763L129.504 141.951L122.37 145.173L123.189 146.985ZM128.919 142.857V151.544H130.908V142.857H128.919ZM129.914 152.539H144.872V150.55H129.914V152.539ZM143.878 151.544V157.298H145.866V151.544H143.878ZM144.872 156.303H129.914V158.292H144.872V156.303ZM128.919 157.298V172.141H130.908V157.298H128.919ZM128.919 172.141C128.919 174.044 129.325 175.657 130.311 176.803C131.32 177.976 132.786 178.486 134.516 178.486V176.497C133.178 176.497 132.343 176.115 131.818 175.506C131.269 174.867 130.908 173.805 130.908 172.141H128.919ZM134.516 178.486C137.241 178.486 140.094 177.065 143.049 174.503L141.747 173.001C138.949 175.426 136.548 176.497 134.516 176.497V178.486ZM177.794 154.479L177.057 155.146L177.794 154.479ZM181.073 183.188V184.182H182.068V183.188H181.073ZM173.939 183.188H172.945V184.182H173.939V183.188ZM172.098 159.657L171.338 160.297L172.098 159.657ZM159.326 161.555L158.508 160.99L158.502 160.998L159.326 161.555ZM156.564 183.188V184.182H157.559V183.188H156.564ZM149.43 183.188H148.436V184.182H149.43V183.188ZM149.43 140.613V139.619H148.436V140.613H149.43ZM156.564 140.613H157.559V139.619H156.564V140.613ZM156.564 160.405H155.57L157.497 160.748L156.564 160.405ZM161.282 153.443L161.919 154.207L161.282 153.443ZM168.646 151.848C172.339 151.848 175.096 152.979 177.057 155.146L178.531 153.812C176.119 151.145 172.778 149.86 168.646 149.86V151.848ZM177.057 155.146C179.02 157.316 180.079 160.55 180.079 165.007H182.068C182.068 160.259 180.94 156.474 178.531 153.812L177.057 155.146ZM180.079 165.007V183.188H182.068V165.007H180.079ZM181.073 182.193H173.939V184.182H181.073V182.193ZM174.934 183.188V165.985H172.945V183.188H174.934ZM174.934 165.985C174.934 163.092 174.292 160.718 172.859 159.016L171.338 160.297C172.359 161.51 172.945 163.355 172.945 165.985H174.934ZM172.859 159.016C171.4 157.284 169.308 156.476 166.748 156.476V158.465C168.867 158.465 170.342 159.114 171.338 160.297L172.859 159.016ZM166.748 156.476C163.323 156.476 160.556 158.023 158.508 160.99L160.144 162.12C161.855 159.641 164.035 158.465 166.748 158.465V156.476ZM158.502 160.998C156.5 163.96 155.57 168.241 155.57 173.695H157.559C157.559 168.409 158.47 164.597 160.15 162.112L158.502 160.998ZM155.57 173.695V183.188H157.559V173.695H155.57ZM156.564 182.193H149.43V184.182H156.564V182.193ZM150.425 183.188V140.613H148.436V183.188H150.425ZM149.43 141.608H156.564V139.619H149.43V141.608ZM155.57 140.613V160.405H157.559V140.613H155.57ZM157.497 160.748C158.52 157.972 160.001 155.805 161.919 154.207L160.646 152.679C158.421 154.533 156.756 157.007 155.631 160.061L157.497 160.748ZM161.919 154.207C163.801 152.638 166.027 151.848 168.646 151.848V149.86C165.589 149.86 162.905 150.796 160.646 152.679L161.919 154.207ZM215.242 173.234L216.139 172.805L215.569 171.617L214.583 172.49L215.242 173.234ZM217.888 178.757L218.504 179.539L219.129 179.046L218.785 178.328L217.888 178.757ZM191.021 179.62L190.385 180.385L191.021 179.62ZM190.56 155.514L189.857 154.811L190.56 155.514ZM214.667 155.169L213.935 155.842L213.944 155.852L214.667 155.169ZM218.982 166.273L219.976 166.247L219.975 166.239L219.975 166.231L218.982 166.273ZM219.039 168.517V169.511H220.059L220.033 168.491L219.039 168.517ZM193.034 168.517V167.522H191.975L192.042 168.579L193.034 168.517ZM196.371 175.363L196.97 174.569L196.371 175.363ZM197.119 158.679L197.671 159.506L197.677 159.502L197.683 159.497L197.119 158.679ZM193.552 163.626L192.601 163.338L192.211 164.621H193.552V163.626ZM212.078 163.626V164.621H213.23L213.061 163.481L212.078 163.626ZM209.259 158.736L208.647 159.52L208.653 159.525L208.659 159.529L209.259 158.736ZM203.85 178.659C208.363 178.659 212.392 177.085 215.901 173.979L214.583 172.49C211.419 175.29 207.853 176.67 203.85 176.67V178.659ZM214.345 173.664L216.992 179.187L218.785 178.328L216.139 172.805L214.345 173.664ZM217.273 177.976C213.102 181.262 208.56 182.884 203.62 182.884V184.872C209.037 184.872 214.007 183.081 218.504 179.539L217.273 177.976ZM203.62 182.884C198.836 182.884 194.869 181.527 191.656 178.856L190.385 180.385C193.999 183.39 198.432 184.872 203.62 184.872V182.884ZM191.656 178.856C188.507 176.237 186.895 172.55 186.895 167.654H184.906C184.906 173.037 186.707 177.327 190.385 180.385L191.656 178.856ZM186.895 167.654C186.895 162.892 188.369 159.112 191.263 156.217L189.857 154.811C186.538 158.13 184.906 162.442 184.906 167.654H186.895ZM191.263 156.217C194.148 153.333 198.056 151.848 203.103 151.848V149.86C197.64 149.86 193.186 151.482 189.857 154.811L191.263 156.217ZM203.103 151.848C207.974 151.848 211.528 153.226 213.935 155.842L215.398 154.496C212.512 151.358 208.357 149.86 203.103 149.86V151.848ZM213.944 155.852C216.437 158.488 217.805 161.947 217.988 166.315L219.975 166.231C219.775 161.47 218.266 157.527 215.389 154.486L213.944 155.852ZM217.988 166.298L218.045 168.542L220.033 168.491L219.976 166.247L217.988 166.298ZM219.039 167.522H193.034V169.511H219.039V167.522ZM192.042 168.579C192.248 171.838 193.463 174.414 195.772 176.157L196.97 174.569C195.214 173.244 194.204 171.256 194.027 168.454L192.042 168.579ZM195.772 176.157C198.004 177.841 200.717 178.659 203.85 178.659V176.67C201.077 176.67 198.804 175.953 196.97 174.569L195.772 176.157ZM203.103 155.901C200.655 155.901 198.46 156.547 196.555 157.86L197.683 159.497C199.23 158.432 201.024 157.889 203.103 157.889V155.901ZM196.568 157.851C194.634 159.14 193.314 160.989 192.601 163.338L194.504 163.915C195.095 161.968 196.153 160.518 197.671 159.506L196.568 157.851ZM193.552 164.621H212.078V162.632H193.552V164.621ZM213.061 163.481C212.719 161.169 211.652 159.3 209.858 157.943L208.659 159.529C210.01 160.551 210.823 161.941 211.094 163.772L213.061 163.481ZM209.87 157.952C208.081 156.555 205.795 155.901 203.103 155.901V157.889C205.473 157.889 207.291 158.462 208.647 159.52L209.87 157.952ZM241.387 179.39L240.719 180.127L240.723 180.131L241.387 179.39ZM241.445 155.284L242.099 156.033L242.099 156.032L241.445 155.284ZM267.795 154.824L268.699 155.237L269.068 154.428L268.306 153.971L267.795 154.824ZM265.091 160.75L264.494 161.545L265.482 162.286L265.995 161.162L265.091 160.75ZM246.738 159.714L247.404 160.452L247.412 160.445L246.738 159.714ZM246.738 174.73L246.056 175.454L246.738 174.73ZM265.148 173.81L266.048 173.386L265.548 172.324L264.583 172.992L265.148 173.81ZM267.91 179.678L268.443 180.517L269.182 180.048L268.809 179.255L267.91 179.678ZM254.044 182.884C249.152 182.884 245.18 181.456 242.051 178.65L240.723 180.131C244.268 183.309 248.734 184.872 254.044 184.872V182.884ZM242.055 178.654C238.995 175.879 237.433 172.117 237.433 167.251H235.445C235.445 172.588 237.182 176.918 240.719 180.127L242.055 178.654ZM237.433 167.251C237.433 162.43 239.01 158.731 242.099 156.033L240.79 154.535C237.205 157.667 235.445 161.947 235.445 167.251H237.433ZM242.099 156.032C245.266 153.262 249.298 151.848 254.274 151.848V149.86C248.895 149.86 244.374 151.4 240.79 154.536L242.099 156.032ZM254.274 151.848C258.676 151.848 263.008 153.111 267.283 155.676L268.306 153.971C263.759 151.243 259.078 149.86 254.274 149.86V151.848ZM266.89 154.411L264.186 160.337L265.995 161.162L268.699 155.237L266.89 154.411ZM265.687 159.954C262.158 157.307 258.347 155.958 254.274 155.958V157.947C257.873 157.947 261.273 159.129 264.494 161.545L265.687 159.954ZM254.274 155.958C251.026 155.958 248.263 156.953 246.063 158.984L247.412 160.445C249.201 158.793 251.463 157.947 254.274 157.947V155.958ZM246.071 158.976C243.829 161.003 242.752 163.785 242.752 167.193H244.74C244.74 164.234 245.657 162.031 247.404 160.452L246.071 158.976ZM242.752 167.193C242.752 170.568 243.832 173.358 246.056 175.454L247.419 174.007C245.654 172.343 244.74 170.109 244.74 167.193H242.752ZM246.056 175.454C248.25 177.521 250.974 178.544 254.159 178.544V176.555C251.438 176.555 249.214 175.698 247.419 174.007L246.056 175.454ZM254.159 178.544C258.116 178.544 261.972 177.214 265.714 174.627L264.583 172.992C261.113 175.391 257.644 176.555 254.159 176.555V178.544ZM264.248 174.233L267.01 180.101L268.809 179.255L266.048 173.386L264.248 174.233ZM267.377 178.839C263.112 181.546 258.673 182.884 254.044 182.884V184.872C259.081 184.872 263.886 183.41 268.443 180.517L267.377 178.839ZM272.757 183.188H271.763V184.182H272.757V183.188ZM272.757 140.613V139.619H271.763V140.613H272.757ZM279.891 140.613H280.886V139.619H279.891V140.613ZM279.891 183.188V184.182H280.886V183.188H279.891ZM273.751 183.188V140.613H271.763V183.188H273.751ZM272.757 141.608H279.891V139.619H272.757V141.608ZM278.897 140.613V183.188H280.886V140.613H278.897ZM279.891 182.193H272.757V184.182H279.891V182.193ZM314.808 179.333L315.494 180.053L315.494 180.053L314.808 179.333ZM290.069 179.333L289.383 180.053L289.392 180.061L290.069 179.333ZM290.069 155.457L289.388 154.733L289.383 154.737L290.069 155.457ZM314.808 155.457L314.118 156.173L314.127 156.181L314.808 155.457ZM309.688 174.673L310.376 175.39L309.688 174.673ZM295.305 160.059L294.609 159.349L294.602 159.356L295.305 160.059ZM295.305 174.673L296 173.962L295.305 174.673ZM314.123 178.613C311.151 181.441 307.305 182.884 302.496 182.884V184.872C307.737 184.872 312.099 183.284 315.494 180.053L314.123 178.613ZM302.496 182.884C297.688 182.884 293.798 181.441 290.746 178.605L289.392 180.061C292.861 183.284 297.256 184.872 302.496 184.872V182.884ZM290.755 178.613C287.75 175.751 286.231 172.051 286.231 167.424H284.242C284.242 172.538 285.945 176.778 289.383 180.053L290.755 178.613ZM286.231 167.424C286.231 162.755 287.752 159.037 290.755 156.177L289.383 154.737C285.943 158.013 284.242 162.273 284.242 167.424H286.231ZM290.751 156.181C293.803 153.308 297.692 151.848 302.496 151.848V149.86C297.252 149.86 292.855 151.469 289.388 154.733L290.751 156.181ZM302.496 151.848C307.301 151.848 311.146 153.308 314.118 156.173L315.498 154.741C312.104 151.469 307.74 149.86 302.496 149.86V151.848ZM314.127 156.181C317.126 159.001 318.647 162.697 318.647 167.366H320.635C320.635 162.216 318.934 157.972 315.489 154.732L314.127 156.181ZM318.647 167.366C318.647 172.034 317.126 175.752 314.123 178.613L315.494 180.053C318.934 176.776 320.635 172.516 320.635 167.366H318.647ZM302.439 178.371C305.611 178.371 308.286 177.395 310.376 175.39L309 173.955C307.331 175.556 305.173 176.382 302.439 176.382V178.371ZM310.376 175.39C312.483 173.369 313.501 170.676 313.501 167.424H311.513C311.513 170.231 310.651 172.371 309 173.955L310.376 175.39ZM313.501 167.424C313.501 164.136 312.486 161.408 310.384 159.349L308.992 160.77C310.649 162.392 311.513 164.574 311.513 167.424H313.501ZM310.384 159.349C308.295 157.303 305.618 156.303 302.439 156.303V158.292C305.167 158.292 307.322 159.134 308.992 160.77L310.384 159.349ZM302.439 156.303C299.329 156.303 296.692 157.308 294.609 159.349L296 160.77C297.676 159.128 299.796 158.292 302.439 158.292V156.303ZM294.602 159.356C292.541 161.417 291.549 164.142 291.549 167.424H293.537C293.537 164.568 294.386 162.384 296.008 160.762L294.602 159.356ZM291.549 167.424C291.549 170.67 292.543 173.361 294.609 175.383L296 173.962C294.384 172.379 293.537 170.237 293.537 167.424H291.549ZM294.609 175.383C296.661 177.392 299.301 178.371 302.439 178.371V176.382C299.747 176.382 297.631 175.559 296 173.962L294.609 175.383ZM349.376 151.544V150.55H348.381V151.544H349.376ZM356.452 151.544H357.446V150.55H356.452V151.544ZM356.452 183.188V184.182H357.446V183.188H356.452ZM349.376 183.188H348.381V184.182H349.376V183.188ZM349.376 174.212H350.37L348.439 173.88L349.376 174.212ZM344.6 181.231L343.969 180.463L343.962 180.469L344.6 181.231ZM327.801 180.253L327.058 180.915L327.064 180.921L327.069 180.927L327.801 180.253ZM324.521 151.544V150.55H323.527V151.544H324.521ZM331.598 151.544H332.592V150.55H331.598V151.544ZM333.497 175.075L334.247 174.423L333.497 175.075ZM346.499 173.177L347.312 173.749L347.316 173.744L346.499 173.177ZM349.376 152.539H356.452V150.55H349.376V152.539ZM355.458 151.544V183.188H357.446V151.544H355.458ZM356.452 182.193H349.376V184.182H356.452V182.193ZM350.37 183.188V174.212H348.381V183.188H350.37ZM348.439 173.88C347.457 176.644 345.962 178.826 343.969 180.463L345.231 182C347.534 180.108 349.223 177.611 350.312 174.545L348.439 173.88ZM343.962 180.469C342.043 182.074 339.76 182.884 337.064 182.884V184.872C340.197 184.872 342.939 183.917 345.238 181.994L343.962 180.469ZM337.064 182.884C333.33 182.884 330.531 181.751 328.532 179.58L327.069 180.927C329.52 183.589 332.896 184.872 337.064 184.872V182.884ZM328.543 179.592C326.574 177.381 325.516 174.123 325.516 169.667H323.527C323.527 174.416 324.655 178.216 327.058 180.915L328.543 179.592ZM325.516 169.667V151.544H323.527V169.667H325.516ZM324.521 152.539H331.598V150.55H324.521V152.539ZM330.604 151.544V168.689H332.592V151.544H330.604ZM330.604 168.689C330.604 171.623 331.265 174.022 332.746 175.727L334.247 174.423C333.196 173.213 332.592 171.355 332.592 168.689H330.604ZM332.746 175.727C334.243 177.452 336.369 178.256 338.962 178.256V176.267C336.8 176.267 335.281 175.614 334.247 174.423L332.746 175.727ZM338.962 178.256C342.419 178.256 345.224 176.715 347.312 173.749L345.686 172.604C343.939 175.085 341.719 176.267 338.962 176.267V178.256ZM347.316 173.744C349.399 170.744 350.37 166.462 350.37 161.037H348.381C348.381 166.275 347.435 170.086 345.682 172.61L347.316 173.744ZM350.37 161.037V151.544H348.381V161.037H350.37ZM389.635 140.613V139.619H388.64V140.613H389.635ZM396.769 140.613H397.763V139.619H396.769V140.613ZM396.769 183.072V184.067H397.763V183.072H396.769ZM389.635 183.072H388.64V184.067H389.635V183.072ZM389.635 176.801H390.629V173.043L388.77 176.31L389.635 176.801ZM384.572 182.037L385.072 182.896L385.083 182.889L384.572 182.037ZM366.161 179.275L366.882 178.59L366.161 179.275ZM366.219 155.572L366.939 156.257L366.219 155.572ZM384.572 152.81L384.06 153.663L384.072 153.67L384.572 152.81ZM389.635 157.988L388.77 158.48L390.629 161.746V157.988H389.635ZM386.7 174.73L386.004 174.02L385.997 174.027L386.7 174.73ZM386.7 160.059L385.997 160.762L386.004 160.769L386.7 160.059ZM371.915 160.059L371.211 159.356L371.204 159.363L371.915 160.059ZM371.915 174.788L371.204 175.484L371.211 175.491L371.219 175.498L371.915 174.788ZM389.635 141.608H396.769V139.619H389.635V141.608ZM395.774 140.613V183.072H397.763V140.613H395.774ZM396.769 182.078H389.635V184.067H396.769V182.078ZM390.629 183.072V176.801H388.64V183.072H390.629ZM388.77 176.31C387.586 178.392 386.017 180.01 384.06 181.184L385.083 182.889C387.345 181.532 389.152 179.66 390.499 177.293L388.77 176.31ZM384.072 181.177C382.129 182.308 379.907 182.884 377.38 182.884V184.872C380.223 184.872 382.796 184.221 385.072 182.896L384.072 181.177ZM377.38 182.884C373.065 182.884 369.594 181.445 366.882 178.59L365.44 179.96C368.559 183.243 372.567 184.872 377.38 184.872V182.884ZM366.882 178.59C364.166 175.732 362.783 172.057 362.783 167.481H360.794C360.794 172.494 362.326 176.682 365.44 179.96L366.882 178.59ZM362.783 167.481C362.783 162.868 364.185 159.155 366.939 156.257L365.498 154.887C362.346 158.202 360.794 162.428 360.794 167.481H362.783ZM366.939 156.257C369.694 153.36 373.167 151.906 377.438 151.906V149.917C372.656 149.917 368.651 151.57 365.498 154.887L366.939 156.257ZM377.438 151.906C379.918 151.906 382.117 152.497 384.06 153.663L385.083 151.958C382.808 150.592 380.25 149.917 377.438 149.917V151.906ZM384.072 153.67C386.022 154.804 387.587 156.4 388.77 158.48L390.499 157.496C389.151 155.127 387.341 153.271 385.072 151.951L384.072 153.67ZM390.629 157.988V140.613H388.64V157.988H390.629ZM379.279 178.601C382.539 178.601 385.277 177.56 387.404 175.433L385.997 174.027C384.289 175.736 382.079 176.613 379.279 176.613V178.601ZM387.397 175.44C389.559 173.32 390.629 170.621 390.629 167.424H388.64C388.64 170.133 387.754 172.305 386.004 174.02L387.397 175.44ZM390.629 167.424C390.629 164.192 389.562 161.472 387.397 159.349L386.004 160.769C387.751 162.482 388.64 164.672 388.64 167.424H390.629ZM387.404 159.356C385.277 157.229 382.539 156.188 379.279 156.188V158.177C382.079 158.177 384.289 159.054 385.997 160.762L387.404 159.356ZM379.279 156.188C376.053 156.188 373.336 157.232 371.211 159.356L372.618 160.762C374.329 159.051 376.521 158.177 379.279 158.177V156.188ZM371.204 159.363C369.121 161.489 368.101 164.204 368.101 167.424H370.09C370.09 164.66 370.949 162.465 372.625 160.755L371.204 159.363ZM368.101 167.424C368.101 170.643 369.121 173.358 371.204 175.484L372.625 174.092C370.949 172.382 370.09 170.187 370.09 167.424H368.101ZM371.219 175.498C373.344 177.581 376.059 178.601 379.279 178.601V176.613C376.515 176.613 374.32 175.753 372.61 174.078L371.219 175.498Z" fill="url(#paint2_linear_287_1161)"/>
<path d="M460.085 139.406H149.206" stroke="url(#paint3_linear_287_1161)" stroke-width="0.795428"/>
<path d="M149.206 183.485H460.085" stroke="url(#paint4_linear_287_1161)" stroke-width="0.795428"/>
<path opacity="0.5" d="M235.708 125.817L235.708 196.08" stroke="url(#paint5_linear_287_1161)" stroke-width="0.795428"/>
<defs>
<linearGradient id="paint0_linear_287_1161" x1="398.072" y1="102.595" x2="401.994" y2="102.769" gradientUnits="userSpaceOnUse">
<stop stop-color="#69C9FF" stop-opacity="0"/>
<stop offset="1" stop-color="#88F1BB"/>
</linearGradient>
<linearGradient id="paint1_linear_287_1161" x1="175.388" y1="182.823" x2="193.914" y2="109.995" gradientUnits="userSpaceOnUse">
<stop stop-color="#69C9FF"/>
<stop offset="0.604167" stop-color="#88F1BB" stop-opacity="0.26"/>
<stop offset="1" stop-color="#88F1BB" stop-opacity="0"/>
</linearGradient>
<linearGradient id="paint2_linear_287_1161" x1="292.714" y1="151.669" x2="123.023" y2="175.532" gradientUnits="userSpaceOnUse">
<stop stop-color="#88F1BB"/>
<stop offset="1" stop-color="#6ACAFF" stop-opacity="0.65"/>
</linearGradient>
<linearGradient id="paint3_linear_287_1161" x1="461.933" y1="139.442" x2="461.868" y2="135.513" gradientUnits="userSpaceOnUse">
<stop stop-color="#69C9FF"/>
<stop offset="1" stop-color="#88F1BB" stop-opacity="0"/>
</linearGradient>
<linearGradient id="paint4_linear_287_1161" x1="147.358" y1="183.521" x2="147.423" y2="179.593" gradientUnits="userSpaceOnUse">
<stop stop-color="#88F1BB" stop-opacity="0"/>
<stop offset="1" stop-color="#69C9FF"/>
</linearGradient>
<linearGradient id="paint5_linear_287_1161" x1="235.672" y1="125.399" x2="239.581" y2="125.685" gradientUnits="userSpaceOnUse">
<stop stop-color="#69C9FF" stop-opacity="0"/>
<stop offset="1" stop-color="#88F1BB"/>
</linearGradient>
</defs>
</svg>
