<svg width="680" height="175" viewBox="0 0 680 175" fill="none" xmlns="http://www.w3.org/2000/svg">
<path d="M71.4625 114.964C66.6599 119.535 60.4685 121.821 52.8883 121.821C45.3082 121.821 39.059 119.535 34.1406 114.964C29.2801 110.335 26.8498 104.346 26.8498 96.9974C26.8498 89.5909 29.2801 83.5731 34.1406 78.944C39.059 74.3149 45.3082 72.0004 52.8883 72.0004C60.4685 72.0004 66.6599 74.3149 71.4625 78.944C76.323 83.5152 78.7533 89.5041 78.7533 96.9106C78.7533 104.317 76.323 110.335 71.4625 114.964ZM52.8016 112.013C57.257 112.013 60.9024 110.653 63.7377 107.934C66.5731 105.214 67.9907 101.569 67.9907 96.9974C67.9907 92.3683 66.5731 88.6651 63.7377 85.8876C60.9024 83.1102 57.257 81.7215 52.8016 81.7215C48.4618 81.7215 44.8743 83.1102 42.0389 85.8876C39.2615 88.6651 37.8728 92.3683 37.8728 96.9974C37.8728 101.569 39.2615 105.214 42.0389 107.934C44.8164 110.653 48.4039 112.013 52.8016 112.013ZM116.147 72.0004C122.107 72.0004 126.736 73.8231 130.034 77.4685C133.39 81.1139 135.068 86.4084 135.068 93.352V120.779H124.306V94.8275C124.306 90.6614 123.351 87.4789 121.442 85.2801C119.532 83.0813 116.784 81.9818 113.196 81.9818C108.509 81.9818 104.719 84.036 101.826 88.1443C98.9906 92.2526 97.5729 98.3572 97.5729 106.458V120.779H86.8103V73.0419H97.5729V86.4952C99.1353 82.0976 101.508 78.5968 104.69 75.993C107.931 73.3313 111.749 72.0004 116.147 72.0004ZM200.231 106.545L204.57 114.704C198.61 119.448 192.853 121.821 187.298 121.821C182.322 121.821 178.3 120.432 175.234 117.655C172.167 114.877 170.633 110.595 170.633 104.809V81.7215H160.999V73.0419H170.633V64.7964L181.396 59.9359V73.0419H203.963V81.7215H181.396V104.115C181.396 109.496 183.711 112.187 188.34 112.187C191.927 112.187 195.891 110.306 200.231 106.545ZM239.829 72.0004C245.731 72.0004 250.331 73.8231 253.629 77.4685C256.928 81.1139 258.577 86.4084 258.577 93.352V120.779H247.814V94.8275C247.814 90.6614 246.888 87.4789 245.037 85.2801C243.185 83.0813 240.494 81.9818 236.965 81.9818C232.336 81.9818 228.603 84.036 225.768 88.1443C222.991 92.2526 221.602 98.3572 221.602 106.458V120.779H210.839V56.5509H221.602V86.4084C223.222 82.0108 225.594 78.51 228.719 75.9062C231.844 73.3023 235.547 72.0004 239.829 72.0004ZM292.939 112.447C299.362 112.447 305.09 110.219 310.124 105.764L314.117 114.096C307.578 119.246 300.403 121.821 292.592 121.821C285.069 121.821 278.733 119.68 273.583 115.398C268.434 111.116 265.859 105.098 265.859 97.3446C265.859 89.8223 268.202 83.7178 272.889 79.0308C277.576 74.3439 283.883 72.0004 291.81 72.0004C299.448 72.0004 305.264 74.1703 309.256 78.51C313.307 82.7919 315.477 88.3758 315.766 95.2615L315.853 98.6465H276.621C276.911 103.218 278.589 106.661 281.655 108.975C284.722 111.29 288.483 112.447 292.939 112.447ZM291.81 81.1139C288.396 81.1139 285.388 82.0108 282.784 83.8045C280.18 85.5405 278.386 88.0286 277.402 91.2689H305.35C304.888 88.1443 303.47 85.6851 301.097 83.8913C298.725 82.0397 295.629 81.1139 291.81 81.1139ZM368.662 121.821C360.966 121.821 354.601 119.564 349.567 115.051C344.591 110.537 342.103 104.433 342.103 96.737C342.103 89.0991 344.62 83.0813 349.654 78.6836C354.746 74.2281 361.198 72.0004 369.009 72.0004C375.953 72.0004 382.752 73.9967 389.406 77.9893L385.327 86.9292C380.235 83.1102 374.796 81.2007 369.009 81.2007C364.438 81.2007 360.648 82.5894 357.639 85.3669C354.63 88.0864 353.126 91.8476 353.126 96.6502C353.126 101.395 354.63 105.185 357.639 108.02C360.648 110.856 364.38 112.273 368.836 112.273C374.448 112.273 379.974 110.393 385.414 106.632L389.58 115.485C382.925 119.709 375.953 121.821 368.662 121.821ZM396.893 120.779V56.5509H407.656V120.779H396.893ZM460.332 114.964C455.529 119.535 449.338 121.821 441.758 121.821C434.178 121.821 427.929 119.535 423.01 114.964C418.15 110.335 415.719 104.346 415.719 96.9974C415.719 89.5909 418.15 83.5731 423.01 78.944C427.929 74.3149 434.178 72.0004 441.758 72.0004C449.338 72.0004 455.529 74.3149 460.332 78.944C465.193 83.5152 467.623 89.5041 467.623 96.9106C467.623 104.317 465.193 110.335 460.332 114.964ZM441.671 112.013C446.127 112.013 449.772 110.653 452.607 107.934C455.443 105.214 456.86 101.569 456.86 96.9974C456.86 92.3683 455.443 88.6651 452.607 85.8876C449.772 83.1102 446.127 81.7215 441.671 81.7215C437.331 81.7215 433.744 83.1102 430.908 85.8876C428.131 88.6651 426.742 92.3683 426.742 96.9974C426.742 101.569 428.131 105.214 430.908 107.934C433.686 110.653 437.273 112.013 441.671 112.013ZM512.481 73.0419H523.157V120.779H512.481V107.239C510.919 111.637 508.517 115.167 505.277 117.828C502.095 120.49 498.305 121.821 493.907 121.821C487.947 121.821 483.289 119.998 479.933 116.353C476.635 112.649 474.986 107.326 474.986 100.382V73.0419H485.661V98.9069C485.661 103.131 486.616 106.342 488.526 108.541C490.435 110.74 493.184 111.839 496.771 111.839C501.458 111.839 505.248 109.785 508.141 105.677C511.034 101.511 512.481 95.4062 512.481 87.3632V73.0419ZM573.217 56.5509H583.979V120.606H573.217V111.145C571.307 114.501 568.761 117.134 565.579 119.043C562.396 120.895 558.78 121.821 554.729 121.821C547.844 121.821 542.202 119.506 537.804 114.877C533.407 110.248 531.208 104.317 531.208 97.0842C531.208 89.7934 533.436 83.8045 537.891 79.1176C542.346 74.4307 547.988 72.0872 554.816 72.0872C558.809 72.0872 562.396 73.0419 565.579 74.9514C568.761 76.8031 571.307 79.4069 573.217 82.763V56.5509ZM557.593 112.36C562.165 112.36 565.897 110.914 568.79 108.02C571.741 105.127 573.217 101.453 573.217 96.9974C573.217 92.4841 571.741 88.7808 568.79 85.8876C565.897 82.9945 562.165 81.5479 557.593 81.5479C553.08 81.5479 549.377 82.9945 546.484 85.8876C543.648 88.7808 542.231 92.4841 542.231 96.9974C542.231 101.511 543.648 105.214 546.484 108.107C549.377 110.943 553.08 112.36 557.593 112.36Z" fill="url(#paint0_linear_320_1218)"/>
<path d="M71.4625 114.964L72.4967 116.051L72.497 116.05L71.4625 114.964ZM34.1406 114.964L33.1061 116.05L33.1127 116.057L33.1194 116.063L34.1406 114.964ZM34.1406 78.944L33.1125 77.8517L33.1061 77.8578L34.1406 78.944ZM71.4625 78.944L70.4216 80.024L70.4282 80.0304L70.4349 80.0367L71.4625 78.944ZM63.7377 107.934L64.7761 109.016L63.7377 107.934ZM42.0389 85.8876L40.9893 84.8161L40.9838 84.8215L40.9783 84.827L42.0389 85.8876ZM42.0389 107.934L43.0884 106.862L42.0389 107.934ZM70.4284 113.878C65.9449 118.145 60.1429 120.321 52.8883 120.321V123.321C60.794 123.321 67.3748 120.926 72.4967 116.051L70.4284 113.878ZM52.8883 120.321C45.6344 120.321 39.7663 118.145 35.1618 113.865L33.1194 116.063C38.3516 120.926 44.982 123.321 52.8883 123.321V120.321ZM35.1751 113.878C30.6417 109.56 28.3498 103.979 28.3498 96.9974H25.3498C25.3498 104.713 27.9184 111.11 33.1061 116.05L35.1751 113.878ZM28.3498 96.9974C28.3498 89.9544 30.6442 84.3453 35.1751 80.0302L33.1061 77.8578C27.9159 82.8008 25.3498 89.2274 25.3498 96.9974H28.3498ZM35.1686 80.0363C39.774 75.7018 45.6398 73.5004 52.8883 73.5004V70.5004C44.9767 70.5004 38.3439 72.928 33.1125 77.8517L35.1686 80.0363ZM52.8883 73.5004C60.1375 73.5004 65.9371 75.7017 70.4216 80.024L72.5035 77.864C67.3826 72.9282 60.7994 70.5004 52.8883 70.5004V73.5004ZM70.4349 80.0367C74.9591 84.2917 77.2533 89.8675 77.2533 96.9106H80.2533C80.2533 89.1407 77.687 82.7388 72.4902 77.8513L70.4349 80.0367ZM77.2533 96.9106C77.2533 103.954 74.9589 109.563 70.428 113.878L72.497 116.05C77.6872 111.107 80.2533 104.681 80.2533 96.9106H77.2533ZM52.8016 113.513C57.5879 113.513 61.6234 112.04 64.7761 109.016L62.6994 106.851C60.1814 109.266 56.9262 110.513 52.8016 110.513V113.513ZM64.7761 109.016C67.955 105.967 69.4907 101.905 69.4907 96.9974H66.4907C66.4907 101.233 65.1911 104.461 62.6994 106.851L64.7761 109.016ZM69.4907 96.9974C69.4907 92.0378 67.9588 87.9228 64.7874 84.8161L62.6881 86.9592C65.1873 89.4074 66.4907 92.6989 66.4907 96.9974H69.4907ZM64.7874 84.8161C61.6364 81.7294 57.5971 80.2215 52.8016 80.2215V83.2215C56.9169 83.2215 60.1684 84.491 62.6881 86.9592L64.7874 84.8161ZM52.8016 80.2215C48.1095 80.2215 44.1324 81.7371 40.9893 84.8161L43.0886 86.9592C45.6161 84.4833 48.814 83.2215 52.8016 83.2215V80.2215ZM40.9783 84.827C37.8697 87.9355 36.3728 92.047 36.3728 96.9974H39.3728C39.3728 92.6897 40.6533 89.3946 43.0996 86.9483L40.9783 84.827ZM36.3728 96.9974C36.3728 101.895 37.8734 105.954 40.9895 109.005L43.0884 106.862C40.6496 104.474 39.3728 101.242 39.3728 96.9974H36.3728ZM40.9895 109.005C44.0849 112.036 48.0675 113.513 52.8016 113.513V110.513C48.7403 110.513 45.5479 109.27 43.0884 106.862L40.9895 109.005ZM130.034 77.4685L128.922 78.4749L128.931 78.4845L130.034 77.4685ZM135.068 120.779V122.279H136.568V120.779H135.068ZM124.306 120.779H122.806V122.279H124.306V120.779ZM121.442 85.2801L120.309 86.2636L121.442 85.2801ZM101.826 88.1443L100.6 87.2806L100.595 87.2864L100.591 87.2923L101.826 88.1443ZM97.5729 120.779V122.279H99.0729V120.779H97.5729ZM86.8103 120.779H85.3103V122.279H86.8103V120.779ZM86.8103 73.0419V71.5419H85.3103V73.0419H86.8103ZM97.5729 73.0419H99.0729V71.5419H97.5729V73.0419ZM97.5729 86.4952H96.0729L98.9864 86.9973L97.5729 86.4952ZM104.69 75.993L105.64 77.1539L105.642 77.1521L104.69 75.993ZM116.147 73.5004C121.781 73.5004 125.968 75.2095 128.922 78.4749L131.147 76.4621C127.505 72.4367 122.433 70.5004 116.147 70.5004V73.5004ZM128.931 78.4845C131.945 81.7587 133.568 86.6334 133.568 93.352H136.568C136.568 86.1834 134.836 80.4691 131.138 76.4525L128.931 78.4845ZM133.568 93.352V120.779H136.568V93.352H133.568ZM135.068 119.279H124.306V122.279H135.068V119.279ZM125.806 120.779V94.8275H122.806V120.779H125.806ZM125.806 94.8275C125.806 90.4534 124.805 86.8653 122.574 84.2965L120.309 86.2636C121.897 88.0925 122.806 90.8693 122.806 94.8275H125.806ZM122.574 84.2965C120.315 81.6952 117.109 80.4818 113.196 80.4818V83.4818C116.459 83.4818 118.749 84.4673 120.309 86.2636L122.574 84.2965ZM113.196 80.4818C107.981 80.4818 103.75 82.8072 100.6 87.2806L103.052 89.008C105.688 85.2648 109.037 83.4818 113.196 83.4818V80.4818ZM100.591 87.2923C97.5058 91.7632 96.0729 98.2258 96.0729 106.458H99.0729C99.0729 98.4887 100.475 92.742 103.06 88.9963L100.591 87.2923ZM96.0729 106.458V120.779H99.0729V106.458H96.0729ZM97.5729 119.279H86.8103V122.279H97.5729V119.279ZM88.3103 120.779V73.0419H85.3103V120.779H88.3103ZM86.8103 74.5419H97.5729V71.5419H86.8103V74.5419ZM96.0729 73.0419V86.4952H99.0729V73.0419H96.0729ZM98.9864 86.9973C100.47 82.8219 102.697 79.5621 105.64 77.1539L103.74 74.832C100.319 77.6315 97.8007 81.3732 96.1595 85.9931L98.9864 86.9973ZM105.642 77.1521C108.6 74.7221 112.078 73.5004 116.147 73.5004V70.5004C111.421 70.5004 107.261 71.9404 103.738 74.8339L105.642 77.1521ZM200.231 106.545L201.555 105.84L200.671 104.178L199.248 105.411L200.231 106.545ZM204.57 114.704L205.505 115.877L206.48 115.1L205.895 113.999L204.57 114.704ZM175.234 117.655L174.227 118.766L175.234 117.655ZM170.633 81.7215H172.133V80.2215H170.633V81.7215ZM160.999 81.7215H159.499V83.2215H160.999V81.7215ZM160.999 73.0419V71.5419H159.499V73.0419H160.999ZM170.633 73.0419V74.5419H172.133V73.0419H170.633ZM170.633 64.7964L170.016 63.4293L169.133 63.8279V64.7964H170.633ZM181.396 59.9359H182.896V57.6126L180.779 58.5688L181.396 59.9359ZM181.396 73.0419H179.896V74.5419H181.396V73.0419ZM203.963 73.0419H205.463V71.5419H203.963V73.0419ZM203.963 81.7215V83.2215H205.463V81.7215H203.963ZM181.396 81.7215V80.2215H179.896V81.7215H181.396ZM198.906 107.249L203.246 115.408L205.895 113.999L201.555 105.84L198.906 107.249ZM203.636 113.53C197.844 118.141 192.407 120.321 187.298 120.321V123.321C193.299 123.321 199.377 120.756 205.505 115.877L203.636 113.53ZM187.298 120.321C182.615 120.321 178.978 119.022 176.241 116.543L174.227 118.766C177.623 121.842 182.029 123.321 187.298 123.321V120.321ZM176.241 116.543C173.597 114.149 172.133 110.346 172.133 104.809H169.133C169.133 110.845 170.737 115.606 174.227 118.766L176.241 116.543ZM172.133 104.809V81.7215H169.133V104.809H172.133ZM170.633 80.2215H160.999V83.2215H170.633V80.2215ZM162.499 81.7215V73.0419H159.499V81.7215H162.499ZM160.999 74.5419H170.633V71.5419H160.999V74.5419ZM172.133 73.0419V64.7964H169.133V73.0419H172.133ZM171.251 66.1635L182.013 61.3029L180.779 58.5688L170.016 63.4293L171.251 66.1635ZM179.896 59.9359V73.0419H182.896V59.9359H179.896ZM181.396 74.5419H203.963V71.5419H181.396V74.5419ZM202.463 73.0419V81.7215H205.463V73.0419H202.463ZM203.963 80.2215H181.396V83.2215H203.963V80.2215ZM179.896 81.7215V104.115H182.896V81.7215H179.896ZM179.896 104.115C179.896 106.986 180.509 109.419 181.995 111.147C183.518 112.918 185.73 113.687 188.34 113.687V110.687C186.32 110.687 185.06 110.11 184.269 109.19C183.441 108.227 182.896 106.625 182.896 104.115H179.896ZM188.34 113.687C192.45 113.687 196.755 111.542 201.213 107.678L199.248 105.411C195.027 109.07 191.404 110.687 188.34 110.687V113.687ZM253.629 77.4685L252.517 78.4749L253.629 77.4685ZM258.577 120.779V122.279H260.077V120.779H258.577ZM247.814 120.779H246.314V122.279H247.814V120.779ZM245.037 85.2801L243.889 86.2463L245.037 85.2801ZM225.768 88.1443L224.534 87.2923L224.529 87.2982L224.525 87.3042L225.768 88.1443ZM221.602 120.779V122.279H223.102V120.779H221.602ZM210.839 120.779H209.339V122.279H210.839V120.779ZM210.839 56.5509V55.0509H209.339V56.5509H210.839ZM221.602 56.5509H223.102V55.0509H221.602V56.5509ZM221.602 86.4084H220.102L223.009 86.927L221.602 86.4084ZM228.719 75.9062L229.679 77.0585H229.679L228.719 75.9062ZM239.829 73.5004C245.4 73.5004 249.56 75.2064 252.517 78.4749L254.742 76.4621C251.102 72.4398 246.062 70.5004 239.829 70.5004V73.5004ZM252.517 78.4749C255.479 81.7489 257.077 86.6274 257.077 93.352H260.077C260.077 86.1894 258.376 80.4789 254.742 76.4621L252.517 78.4749ZM257.077 93.352V120.779H260.077V93.352H257.077ZM258.577 119.279H247.814V122.279H258.577V119.279ZM249.314 120.779V94.8275H246.314V120.779H249.314ZM249.314 94.8275C249.314 90.4631 248.347 86.8819 246.184 84.3139L243.889 86.2463C245.43 88.0758 246.314 90.8597 246.314 94.8275H249.314ZM246.184 84.3139C243.983 81.7005 240.827 80.4818 236.965 80.4818V83.4818C240.162 83.4818 242.387 84.462 243.889 86.2463L246.184 84.3139ZM236.965 80.4818C231.799 80.4818 227.623 82.8157 224.534 87.2923L227.003 88.9963C229.584 85.2563 232.872 83.4818 236.965 83.4818V80.4818ZM224.525 87.3042C221.505 91.7726 220.102 98.2299 220.102 106.458H223.102C223.102 98.4845 224.477 92.7326 227.011 88.9844L224.525 87.3042ZM220.102 106.458V120.779H223.102V106.458H220.102ZM221.602 119.279H210.839V122.279H221.602V119.279ZM212.339 120.779V56.5509H209.339V120.779H212.339ZM210.839 58.0509H221.602V55.0509H210.839V58.0509ZM220.102 56.5509V86.4084H223.102V56.5509H220.102ZM223.009 86.927C224.553 82.7381 226.786 79.4698 229.679 77.0585L227.759 74.7539C224.403 77.5503 221.891 81.2835 220.194 85.8898L223.009 86.927ZM229.679 77.0585C232.519 74.6918 235.878 73.5004 239.829 73.5004V70.5004C235.216 70.5004 231.168 71.9128 227.759 74.7539L229.679 77.0585ZM310.124 105.764L311.477 105.116L310.618 103.323L309.13 104.64L310.124 105.764ZM314.117 114.096L315.045 115.274L315.989 114.531L315.469 113.448L314.117 114.096ZM273.583 115.398L272.624 116.551L273.583 115.398ZM272.889 79.0308L271.828 77.9701L272.889 79.0308ZM309.256 78.51L308.152 79.5256L308.159 79.5333L308.167 79.5408L309.256 78.51ZM315.766 95.2615L317.265 95.2231L317.265 95.2108L317.265 95.1985L315.766 95.2615ZM315.853 98.6465V100.147H317.392L317.352 98.6081L315.853 98.6465ZM276.621 98.6465V97.1465H275.023L275.124 98.7413L276.621 98.6465ZM281.655 108.975L282.559 107.778L281.655 108.975ZM282.784 83.8045L283.616 85.0526L283.625 85.0463L283.635 85.0398L282.784 83.8045ZM277.402 91.2689L275.967 90.8332L275.379 92.7689H277.402V91.2689ZM305.35 91.2689V92.7689H307.089L306.834 91.0491L305.35 91.2689ZM301.097 83.8913L300.175 85.0738L300.184 85.0809L300.193 85.0878L301.097 83.8913ZM292.939 113.947C299.746 113.947 305.824 111.573 311.118 106.887L309.13 104.64C304.356 108.866 298.977 110.947 292.939 110.947V113.947ZM308.771 106.412L312.764 114.744L315.469 113.448L311.477 105.116L308.771 106.412ZM313.189 112.918C306.896 117.874 300.044 120.321 292.592 120.321V123.321C300.763 123.321 308.26 120.618 315.045 115.274L313.189 112.918ZM292.592 120.321C285.374 120.321 279.39 118.275 274.542 114.245L272.624 116.551C278.077 121.085 284.765 123.321 292.592 123.321V120.321ZM274.542 114.245C269.791 110.294 267.359 104.731 267.359 97.3446H264.359C264.359 105.466 267.076 111.938 272.624 116.551L274.542 114.245ZM267.359 97.3446C267.359 90.1618 269.583 84.4583 273.95 80.0915L271.828 77.9701C266.821 82.9772 264.359 89.4829 264.359 97.3446H267.359ZM273.95 80.0915C278.301 75.7399 284.197 73.5004 291.81 73.5004V70.5004C283.569 70.5004 276.851 72.9479 271.828 77.9701L273.95 80.0915ZM291.81 73.5004C299.16 73.5004 304.522 75.5794 308.152 79.5256L310.36 77.4945C306.006 72.7612 299.737 70.5004 291.81 70.5004V73.5004ZM308.167 79.5408C311.927 83.5165 313.99 88.7355 314.267 95.3245L317.265 95.1985C316.963 88.0161 314.686 82.0674 310.346 77.4792L308.167 79.5408ZM314.266 95.3L314.353 98.685L317.352 98.6081L317.265 95.2231L314.266 95.3ZM315.853 97.1465H276.621V100.147H315.853V97.1465ZM275.124 98.7413C275.435 103.657 277.268 107.543 280.752 110.172L282.559 107.778C279.909 105.778 278.386 102.779 278.118 98.5518L275.124 98.7413ZM280.752 110.172C284.119 112.714 288.211 113.947 292.939 113.947V110.947C288.755 110.947 285.325 109.866 282.559 107.778L280.752 110.172ZM291.81 79.6139C288.118 79.6139 284.807 80.5892 281.933 82.5693L283.635 85.0398C285.968 83.4324 288.675 82.6139 291.81 82.6139V79.6139ZM281.952 82.5565C279.034 84.5014 277.043 87.2897 275.967 90.8332L278.838 91.7047C279.729 88.7675 281.325 86.5795 283.616 85.0526L281.952 82.5565ZM277.402 92.7689H305.35V89.7689H277.402V92.7689ZM306.834 91.0491C306.318 87.5623 304.709 84.7415 302.002 82.6949L300.193 85.0878C302.231 86.6287 303.457 88.7263 303.867 91.4888L306.834 91.0491ZM302.02 82.7089C299.32 80.6016 295.873 79.6139 291.81 79.6139V82.6139C295.386 82.6139 298.13 83.4778 300.175 85.0738L302.02 82.7089ZM349.567 115.051L348.559 116.162L348.566 116.168L349.567 115.051ZM349.654 78.6836L350.641 79.8133L350.642 79.8125L349.654 78.6836ZM389.406 77.9893L390.771 78.612L391.327 77.3926L390.178 76.703L389.406 77.9893ZM385.327 86.9292L384.427 88.1292L385.918 89.2474L386.691 87.5519L385.327 86.9292ZM357.639 85.3669L358.645 86.4797L358.651 86.4744L358.657 86.4691L357.639 85.3669ZM357.639 108.02L356.61 109.112L357.639 108.02ZM385.414 106.632L386.771 105.993L386.017 104.391L384.56 105.398L385.414 106.632ZM389.58 115.485L390.384 116.751L391.5 116.043L390.937 114.846L389.58 115.485ZM368.662 120.321C361.281 120.321 355.289 118.166 350.568 113.934L348.566 116.168C353.913 120.962 360.651 123.321 368.662 123.321V120.321ZM350.575 113.94C345.959 109.753 343.603 104.078 343.603 96.737H340.603C340.603 104.788 343.223 111.322 348.559 116.162L350.575 113.94ZM343.603 96.737C343.603 89.4634 345.981 83.8838 350.641 79.8133L348.667 77.554C343.259 82.2787 340.603 88.7347 340.603 96.737H343.603ZM350.642 79.8125C355.419 75.6328 361.501 73.5004 369.009 73.5004V70.5004C360.894 70.5004 354.073 72.8235 348.666 77.5548L350.642 79.8125ZM369.009 73.5004C375.65 73.5004 382.185 75.4059 388.634 79.2755L390.178 76.703C383.319 72.5875 376.256 70.5004 369.009 70.5004V73.5004ZM388.042 77.3666L383.962 86.3065L386.691 87.5519L390.771 78.612L388.042 77.3666ZM386.227 85.7292C380.903 81.736 375.153 79.7007 369.009 79.7007V82.7007C374.438 82.7007 379.567 84.4844 384.427 88.1292L386.227 85.7292ZM369.009 79.7007C364.108 79.7007 359.941 81.201 356.622 84.2647L358.657 86.4691C361.355 83.9778 364.768 82.7007 369.009 82.7007V79.7007ZM356.633 84.2541C353.252 87.3106 351.626 91.5088 351.626 96.6502H354.626C354.626 92.1864 356.009 88.8623 358.645 86.4797L356.633 84.2541ZM351.626 96.6502C351.626 101.741 353.255 105.951 356.61 109.112L358.668 106.929C356.005 104.42 354.626 101.049 354.626 96.6502H351.626ZM356.61 109.112C359.92 112.231 364.03 113.773 368.836 113.773V110.773C364.73 110.773 361.376 109.48 358.668 106.929L356.61 109.112ZM368.836 113.773C374.805 113.773 380.623 111.768 386.267 107.865L384.56 105.398C379.326 109.017 374.092 110.773 368.836 110.773V113.773ZM384.056 107.27L388.223 116.123L390.937 114.846L386.771 105.993L384.056 107.27ZM388.776 114.218C382.342 118.303 375.645 120.321 368.662 120.321V123.321C376.261 123.321 383.509 121.115 390.384 116.751L388.776 114.218ZM396.893 120.779H395.393V122.279H396.893V120.779ZM396.893 56.5509V55.0509H395.393V56.5509H396.893ZM407.656 56.5509H409.156V55.0509H407.656V56.5509ZM407.656 120.779V122.279H409.156V120.779H407.656ZM398.393 120.779V56.5509H395.393V120.779H398.393ZM396.893 58.0509H407.656V55.0509H396.893V58.0509ZM406.156 56.5509V120.779H409.156V56.5509H406.156ZM407.656 119.279H396.893V122.279H407.656V119.279ZM460.332 114.964L461.366 116.051L461.367 116.05L460.332 114.964ZM423.01 114.964L421.976 116.05L421.982 116.057L421.989 116.063L423.01 114.964ZM423.01 78.944L421.982 77.8517L421.976 77.8578L423.01 78.944ZM460.332 78.944L459.291 80.024L459.298 80.0304L459.304 80.0367L460.332 78.944ZM452.607 107.934L453.646 109.016L452.607 107.934ZM430.908 85.8876L429.859 84.8161L429.853 84.8215L429.848 84.827L430.908 85.8876ZM430.908 107.934L431.958 106.862L430.908 107.934ZM459.298 113.878C454.814 118.145 449.012 120.321 441.758 120.321V123.321C449.664 123.321 456.244 120.926 461.366 116.051L459.298 113.878ZM441.758 120.321C434.504 120.321 428.636 118.145 424.031 113.865L421.989 116.063C427.221 120.926 433.852 123.321 441.758 123.321V120.321ZM424.045 113.878C419.511 109.56 417.219 103.979 417.219 96.9974H414.219C414.219 104.713 416.788 111.11 421.976 116.05L424.045 113.878ZM417.219 96.9974C417.219 89.9544 419.514 84.3453 424.045 80.0302L421.976 77.8578C416.785 82.8008 414.219 89.2274 414.219 96.9974H417.219ZM424.038 80.0363C428.644 75.7018 434.509 73.5004 441.758 73.5004V70.5004C433.846 70.5004 427.213 72.928 421.982 77.8517L424.038 80.0363ZM441.758 73.5004C449.007 73.5004 454.807 75.7017 459.291 80.024L461.373 77.864C456.252 72.9282 449.669 70.5004 441.758 70.5004V73.5004ZM459.304 80.0367C463.829 84.2917 466.123 89.8675 466.123 96.9106H469.123C469.123 89.1407 466.556 82.7388 461.36 77.8513L459.304 80.0367ZM466.123 96.9106C466.123 103.954 463.828 109.563 459.298 113.878L461.367 116.05C466.557 111.107 469.123 104.681 469.123 96.9106H466.123ZM441.671 113.513C446.457 113.513 450.493 112.04 453.646 109.016L451.569 106.851C449.051 109.266 445.796 110.513 441.671 110.513V113.513ZM453.646 109.016C456.824 105.967 458.36 101.905 458.36 96.9974H455.36C455.36 101.233 454.061 104.461 451.569 106.851L453.646 109.016ZM458.36 96.9974C458.36 92.0378 456.828 87.9228 453.657 84.8161L451.558 86.9592C454.057 89.4074 455.36 92.6989 455.36 96.9974H458.36ZM453.657 84.8161C450.506 81.7294 446.467 80.2215 441.671 80.2215V83.2215C445.786 83.2215 449.038 84.491 451.558 86.9592L453.657 84.8161ZM441.671 80.2215C436.979 80.2215 433.002 81.7371 429.859 84.8161L431.958 86.9592C434.486 84.4833 437.684 83.2215 441.671 83.2215V80.2215ZM429.848 84.827C426.739 87.9355 425.242 92.047 425.242 96.9974H428.242C428.242 92.6897 429.523 89.3946 431.969 86.9483L429.848 84.827ZM425.242 96.9974C425.242 101.895 426.743 105.954 429.859 109.005L431.958 106.862C429.519 104.474 428.242 101.242 428.242 96.9974H425.242ZM429.859 109.005C432.954 112.036 436.937 113.513 441.671 113.513V110.513C437.61 110.513 434.417 109.27 431.958 106.862L429.859 109.005ZM512.481 73.0419V71.5419H510.981V73.0419H512.481ZM523.157 73.0419H524.657V71.5419H523.157V73.0419ZM523.157 120.779V122.279H524.657V120.779H523.157ZM512.481 120.779H510.981V122.279H512.481V120.779ZM512.481 107.239H513.981L511.068 106.737L512.481 107.239ZM505.277 117.828L504.325 116.669L504.315 116.678L505.277 117.828ZM479.933 116.353L478.813 117.35L478.821 117.36L478.829 117.369L479.933 116.353ZM474.986 73.0419V71.5419H473.486V73.0419H474.986ZM485.661 73.0419H487.161V71.5419H485.661V73.0419ZM488.526 108.541L489.658 107.558L488.526 108.541ZM508.141 105.677L509.368 106.541L509.373 106.533L508.141 105.677ZM512.481 74.5419H523.157V71.5419H512.481V74.5419ZM521.657 73.0419V120.779H524.657V73.0419H521.657ZM523.157 119.279H512.481V122.279H523.157V119.279ZM513.981 120.779V107.239H510.981V120.779H513.981ZM511.068 106.737C509.586 110.908 507.332 114.199 504.325 116.669L506.229 118.987C509.703 116.134 512.252 112.366 513.895 107.741L511.068 106.737ZM504.315 116.678C501.419 119.099 497.975 120.321 493.907 120.321V123.321C498.634 123.321 502.77 121.881 506.239 118.979L504.315 116.678ZM493.907 120.321C488.274 120.321 484.052 118.612 481.036 115.337L478.829 117.369C482.526 121.384 487.62 123.321 493.907 123.321V120.321ZM481.053 115.355C478.082 112.019 476.486 107.105 476.486 100.382H473.486C473.486 107.547 475.187 113.28 478.813 117.35L481.053 115.355ZM476.486 100.382V73.0419H473.486V100.382H476.486ZM474.986 74.5419H485.661V71.5419H474.986V74.5419ZM484.161 73.0419V98.9069H487.161V73.0419H484.161ZM484.161 98.9069C484.161 103.333 485.159 106.953 487.393 109.525L489.658 107.558C488.073 105.732 487.161 102.929 487.161 98.9069H484.161ZM487.393 109.525C489.652 112.126 492.859 113.339 496.771 113.339V110.339C493.509 110.339 491.218 109.354 489.658 107.558L487.393 109.525ZM496.771 113.339C501.986 113.339 506.217 111.014 509.368 106.541L506.915 104.813C504.279 108.556 500.93 110.339 496.771 110.339V113.339ZM509.373 106.533C512.516 102.007 513.981 95.5469 513.981 87.3632H510.981C510.981 95.2654 509.553 101.014 506.909 104.821L509.373 106.533ZM513.981 87.3632V73.0419H510.981V87.3632H513.981ZM573.217 56.5509V55.0509H571.717V56.5509H573.217ZM583.979 56.5509H585.479V55.0509H583.979V56.5509ZM583.979 120.606V122.106H585.479V120.606H583.979ZM573.217 120.606H571.717V122.106H573.217V120.606ZM573.217 111.145H574.717V105.475L571.913 110.403L573.217 111.145ZM565.579 119.043L566.333 120.34L566.342 120.335L566.35 120.33L565.579 119.043ZM537.804 114.877L538.892 113.844L537.804 114.877ZM537.891 79.1176L538.978 80.1511L537.891 79.1176ZM565.579 74.9514L564.807 76.2377L564.816 76.2429L564.824 76.248L565.579 74.9514ZM573.217 82.763L571.913 83.5048L574.717 88.4326V82.763H573.217ZM568.79 108.02L567.74 106.949L567.735 106.954L567.729 106.96L568.79 108.02ZM568.79 85.8876L567.729 86.9483L567.735 86.9535L567.74 86.9587L568.79 85.8876ZM546.484 85.8876L545.423 84.827L545.418 84.8323L545.412 84.8377L546.484 85.8876ZM546.484 108.107L545.412 109.157L545.423 109.168L545.434 109.179L546.484 108.107ZM573.217 58.0509H583.979V55.0509H573.217V58.0509ZM582.479 56.5509V120.606H585.479V56.5509H582.479ZM583.979 119.106H573.217V122.106H583.979V119.106ZM574.717 120.606V111.145H571.717V120.606H574.717ZM571.913 110.403C570.126 113.545 567.759 115.986 564.807 117.757L566.35 120.33C569.763 118.282 572.489 115.458 574.52 111.887L571.913 110.403ZM564.824 117.747C561.893 119.452 558.542 120.321 554.729 120.321V123.321C559.017 123.321 562.899 122.338 566.333 120.34L564.824 117.747ZM554.729 120.321C548.219 120.321 542.982 118.15 538.892 113.844L536.717 115.91C541.421 120.863 547.468 123.321 554.729 123.321V120.321ZM538.892 113.844C534.795 109.531 532.708 103.988 532.708 97.0842H529.708C529.708 104.646 532.018 110.965 536.717 115.91L538.892 113.844ZM532.708 97.0842C532.708 90.125 534.822 84.523 538.978 80.1511L536.804 78.0841C532.049 83.0861 529.708 89.4618 529.708 97.0842H532.708ZM538.978 80.1511C543.133 75.7802 548.373 73.5872 554.816 73.5872V70.5872C547.603 70.5872 541.56 73.0812 536.804 78.0841L538.978 80.1511ZM554.816 73.5872C558.558 73.5872 561.875 74.4787 564.807 76.2377L566.35 73.6652C562.917 71.6052 559.059 70.5872 554.816 70.5872V73.5872ZM564.824 76.248C567.767 77.9598 570.128 80.3672 571.913 83.5048L574.52 82.0212C572.487 78.4466 569.756 75.6463 566.333 73.6549L564.824 76.248ZM574.717 82.763V56.5509H571.717V82.763H574.717ZM557.594 113.86C562.512 113.86 566.642 112.29 569.851 109.081L567.729 106.96C565.152 109.537 561.818 110.86 557.594 110.86V113.86ZM569.84 109.092C573.103 105.893 574.717 101.821 574.717 96.9974H571.717C571.717 101.085 570.379 104.362 567.74 106.949L569.84 109.092ZM574.717 96.9974C574.717 92.1221 573.107 88.0193 569.84 84.8165L567.74 86.9587C570.375 89.5423 571.717 92.846 571.717 96.9974H574.717ZM569.851 84.827C566.642 81.6184 562.512 80.0479 557.594 80.0479V83.0479C561.818 83.0479 565.152 84.3706 567.729 86.9483L569.851 84.827ZM557.594 80.0479C552.727 80.0479 548.628 81.6222 545.423 84.827L547.544 86.9483C550.126 84.3667 553.433 83.0479 557.594 83.0479V80.0479ZM545.412 84.8377C542.27 88.0444 540.731 92.1404 540.731 96.9974H543.731C543.731 92.8277 545.027 89.5172 547.555 86.9375L545.412 84.8377ZM540.731 96.9974C540.731 101.854 542.27 105.95 545.412 109.157L547.555 107.057C545.027 104.478 543.731 101.167 543.731 96.9974H540.731ZM545.434 109.179C548.641 112.321 552.736 113.86 557.594 113.86V110.86C553.424 110.86 550.113 109.564 547.534 107.036L545.434 109.179Z" fill="url(#paint1_linear_320_1218)"/>
<path d="M679.5 55.1953H210.5" stroke="url(#paint2_linear_320_1218)" stroke-width="1.2"/>
<path d="M210.5 121.695H679.5" stroke="url(#paint3_linear_320_1218)" stroke-width="1.2"/>
<path opacity="0.5" d="M341 34.6953L341 140.695" stroke="url(#paint4_linear_320_1218)" stroke-width="1.2"/>
<path d="M586 0.695312L586 174.695" stroke="url(#paint5_linear_320_1218)" stroke-width="1.2"/>
<defs>
<linearGradient id="paint0_linear_320_1218" x1="250" y1="120.695" x2="277.949" y2="10.8247" gradientUnits="userSpaceOnUse">
<stop stop-color="#69C9FF"/>
<stop offset="0.604167" stop-color="#88F1BB" stop-opacity="0.26"/>
<stop offset="1" stop-color="#88F1BB" stop-opacity="0"/>
</linearGradient>
<linearGradient id="paint1_linear_320_1218" x1="427" y1="73.6952" x2="171" y2="109.695" gradientUnits="userSpaceOnUse">
<stop stop-color="#88F1BB"/>
<stop offset="1" stop-color="#6ACAFF" stop-opacity="0.65"/>
</linearGradient>
<linearGradient id="paint2_linear_320_1218" x1="682.287" y1="55.2313" x2="682.244" y2="51.3024" gradientUnits="userSpaceOnUse">
<stop stop-color="#69C9FF"/>
<stop offset="1" stop-color="#88F1BB" stop-opacity="0"/>
</linearGradient>
<linearGradient id="paint3_linear_320_1218" x1="207.713" y1="121.731" x2="207.756" y2="117.802" gradientUnits="userSpaceOnUse">
<stop stop-color="#88F1BB" stop-opacity="0"/>
<stop offset="1" stop-color="#69C9FF"/>
</linearGradient>
<linearGradient id="paint4_linear_320_1218" x1="340.964" y1="34.0654" x2="344.884" y2="34.2552" gradientUnits="userSpaceOnUse">
<stop stop-color="#69C9FF" stop-opacity="0"/>
<stop offset="1" stop-color="#88F1BB"/>
</linearGradient>
<linearGradient id="paint5_linear_320_1218" x1="585.964" y1="-0.338689" x2="589.89" y2="-0.222894" gradientUnits="userSpaceOnUse">
<stop stop-color="#69C9FF" stop-opacity="0"/>
<stop offset="1" stop-color="#88F1BB"/>
</linearGradient>
</defs>
</svg>
