<svg width="400" height="563" viewBox="0 0 400 563" fill="none" xmlns="http://www.w3.org/2000/svg">
<path d="M0 14.9998C0 6.71554 6.71573 -0.000183105 15 -0.000183105H385C393.284 -0.000183105 400 6.71555 400 14.9998V548C400 556.284 393.284 563 385 563H15C6.71574 563 0 556.284 0 548V14.9998Z" fill="url(#paint0_linear_91_31)"/>
<mask id="mask0_91_31" style="mask-type:alpha" maskUnits="userSpaceOnUse" x="0" y="-1" width="400" height="564">
<path d="M0 14.9998C0 6.71554 6.71573 -0.000183105 15 -0.000183105H385C393.284 -0.000183105 400 6.71555 400 14.9998V548C400 556.284 393.284 563 385 563H15C6.71574 563 0 556.284 0 548V14.9998Z" fill="url(#paint1_linear_91_31)"/>
</mask>
<g mask="url(#mask0_91_31)">
</g>
<mask id="mask1_91_31" style="mask-type:alpha" maskUnits="userSpaceOnUse" x="0" y="-1" width="400" height="564">
<path d="M0 14.9998C0 6.71554 6.71573 -0.000183105 15 -0.000183105H385C393.284 -0.000183105 400 6.71555 400 14.9998V548C400 556.284 393.284 563 385 563H15C6.71574 563 0 556.284 0 548V14.9998Z" fill="url(#paint2_linear_91_31)"/>
</mask>
<g mask="url(#mask1_91_31)">
<circle cx="70" cy="87" r="37" fill="url(#paint3_linear_91_31)"/>
<path d="M69.9998 117.217C64.5732 94.2767 47.1832 87.5139 39.1665 87H69.9998V117.217Z" fill="white"/>
<path d="M70.0002 56.7833C75.4268 79.7233 92.8168 86.4861 100.833 87H70.0002V56.7833Z" fill="white"/>
<circle cx="253" cy="321" r="211.5" stroke="url(#paint4_linear_91_31)"/>
<path d="M253.499 493.317L252.512 493.432C221.625 362.863 122.671 324.418 77.1333 321.499L77.1653 320.5H252.999H253.499V321V493.317Z" stroke="url(#paint5_linear_91_31)"/>
<path d="M252.855 148.33L253.842 148.215C284.729 278.784 383.683 317.228 429.221 320.147L429.189 321.146H253.355H252.855V320.646V148.33Z" stroke="url(#paint6_linear_91_31)"/>
</g>
<path d="M40.248 261.208H66.504V264.52H55.224V295H51.528V264.52H40.248V261.208ZM82.2908 270.088C85.0108 270.088 87.1228 270.952 88.6268 272.68C90.1628 274.408 90.9308 276.776 90.9308 279.784V295H87.3788V280.36C87.3788 275.592 85.3948 273.208 81.4268 273.208C79.3148 273.208 77.5868 274.008 76.2428 275.608C74.9308 277.208 74.2748 279.336 74.2748 281.992V295H70.7228V260.2H74.2748V274.216C76.0668 271.464 78.7388 270.088 82.2908 270.088ZM118.872 282.472C118.872 282.888 118.856 283.256 118.824 283.576H99.9596C100.088 286.552 100.872 288.824 102.312 290.392C103.784 291.928 105.752 292.696 108.216 292.696C111.8 292.696 114.136 291.032 115.224 287.704H118.632C118.056 290.232 116.84 292.216 114.984 293.656C113.128 295.064 110.872 295.768 108.216 295.768C104.632 295.768 101.768 294.568 99.6236 292.168C97.4796 289.768 96.4076 286.664 96.4076 282.856C96.4076 279.144 97.4636 276.088 99.5756 273.688C101.72 271.288 104.568 270.088 108.12 270.088C111.48 270.088 114.104 271.224 115.992 273.496C117.912 275.736 118.872 278.728 118.872 282.472ZM108.12 273.16C105.816 273.16 103.976 273.832 102.6 275.176C101.224 276.52 100.392 278.392 100.104 280.792H115.32C115.256 278.392 114.568 276.52 113.256 275.176C111.944 273.832 110.232 273.16 108.12 273.16ZM140.298 293.656C138.57 295.064 136.186 295.768 133.146 295.768C130.106 295.768 127.69 295.032 125.898 293.56C124.106 292.056 123.082 290.104 122.826 287.704H126.57C126.762 289.272 127.418 290.52 128.538 291.448C129.69 292.344 131.226 292.792 133.146 292.792C135.066 292.792 136.57 292.376 137.658 291.544C138.746 290.712 139.29 289.656 139.29 288.376C139.29 287.192 138.826 286.328 137.898 285.784C136.97 285.208 135.178 284.648 132.522 284.104C129.482 283.464 127.258 282.664 125.85 281.704C124.474 280.712 123.786 279.192 123.786 277.144C123.786 274.968 124.618 273.256 126.282 272.008C127.978 270.728 130.186 270.088 132.906 270.088C135.626 270.088 137.77 270.728 139.338 272.008C140.938 273.288 141.898 275.08 142.218 277.384H138.666C138.442 276.008 137.834 274.952 136.842 274.216C135.882 273.448 134.57 273.064 132.906 273.064C131.242 273.064 129.898 273.432 128.874 274.168C127.882 274.904 127.386 275.832 127.386 276.952C127.386 278.008 127.866 278.808 128.826 279.352C129.818 279.864 131.53 280.376 133.962 280.888C137.162 281.528 139.45 282.36 140.826 283.384C142.234 284.408 142.938 286.024 142.938 288.232C142.938 290.44 142.058 292.248 140.298 293.656ZM150.512 266.824C149.776 266.824 149.136 266.568 148.592 266.056C148.08 265.544 147.824 264.92 147.824 264.184C147.824 263.448 148.08 262.824 148.592 262.312C149.136 261.8 149.776 261.544 150.512 261.544C151.216 261.544 151.824 261.816 152.336 262.36C152.848 262.872 153.104 263.48 153.104 264.184C153.104 264.92 152.848 265.544 152.336 266.056C151.824 266.568 151.216 266.824 150.512 266.824ZM152.24 295H148.64V270.856H152.24V295ZM175.15 293.656C173.422 295.064 171.038 295.768 167.998 295.768C164.958 295.768 162.542 295.032 160.75 293.56C158.958 292.056 157.934 290.104 157.678 287.704H161.422C161.614 289.272 162.27 290.52 163.39 291.448C164.542 292.344 166.078 292.792 167.998 292.792C169.918 292.792 171.422 292.376 172.51 291.544C173.598 290.712 174.142 289.656 174.142 288.376C174.142 287.192 173.678 286.328 172.75 285.784C171.822 285.208 170.03 284.648 167.374 284.104C164.334 283.464 162.11 282.664 160.702 281.704C159.326 280.712 158.638 279.192 158.638 277.144C158.638 274.968 159.47 273.256 161.134 272.008C162.83 270.728 165.038 270.088 167.758 270.088C170.478 270.088 172.622 270.728 174.19 272.008C175.79 273.288 176.75 275.08 177.07 277.384H173.518C173.294 276.008 172.686 274.952 171.694 274.216C170.734 273.448 169.422 273.064 167.758 273.064C166.094 273.064 164.75 273.432 163.726 274.168C162.734 274.904 162.238 275.832 162.238 276.952C162.238 278.008 162.718 278.808 163.678 279.352C164.67 279.864 166.382 280.376 168.814 280.888C172.014 281.528 174.302 282.36 175.678 283.384C177.086 284.408 177.79 286.024 177.79 288.232C177.79 290.44 176.91 292.248 175.15 293.656Z" fill="white"/>
<path d="M49.746 231.804V221.328H51.132V234H49.656L42.258 223.578V234H40.872V221.328H42.348L49.746 231.804ZM57.5638 224.658C58.6678 224.658 59.5378 224.946 60.1738 225.522C60.8098 226.086 61.1278 226.842 61.1278 227.79V234H59.7958V232.272C59.5198 232.884 59.1118 233.37 58.5718 233.73C58.0318 234.078 57.4318 234.252 56.7718 234.252C55.7758 234.252 55.0198 234.006 54.5038 233.514C53.9998 233.01 53.7478 232.398 53.7478 231.678C53.7478 230.13 54.8338 229.188 57.0058 228.852L58.8778 228.582C59.2498 228.534 59.4958 228.45 59.6158 228.33C59.7358 228.198 59.7958 228.006 59.7958 227.754C59.7958 227.19 59.5918 226.728 59.1838 226.368C58.7878 226.008 58.2298 225.828 57.5098 225.828C56.8258 225.828 56.2858 225.996 55.8898 226.332C55.5058 226.656 55.2838 227.106 55.2238 227.682H53.8738C53.9578 226.71 54.3358 225.966 55.0078 225.45C55.6918 224.922 56.5438 224.658 57.5638 224.658ZM56.9878 233.118C57.8278 233.118 58.5058 232.806 59.0218 232.182C59.5378 231.558 59.7958 230.748 59.7958 229.752V229.302C59.5918 229.422 59.2798 229.506 58.8598 229.554L57.3298 229.788C55.8418 230.028 55.0978 230.628 55.0978 231.588C55.0978 232.056 55.2658 232.428 55.6018 232.704C55.9498 232.98 56.4118 233.118 56.9878 233.118ZM66.2648 234.126C64.7048 234.126 63.9248 233.37 63.9248 231.858V226.098H62.3948V224.946H63.9248V222.66H65.2568V224.946H67.2728V226.098H65.2568V231.786C65.2568 232.206 65.3588 232.506 65.5628 232.686C65.7788 232.854 66.1088 232.938 66.5528 232.938C66.7808 232.938 67.0208 232.92 67.2728 232.884V234.018C66.8648 234.09 66.5288 234.126 66.2648 234.126ZM69.6942 223.434C69.4182 223.434 69.1782 223.338 68.9742 223.146C68.7822 222.954 68.6862 222.72 68.6862 222.444C68.6862 222.168 68.7822 221.934 68.9742 221.742C69.1782 221.55 69.4182 221.454 69.6942 221.454C69.9582 221.454 70.1862 221.556 70.3782 221.76C70.5702 221.952 70.6662 222.18 70.6662 222.444C70.6662 222.72 70.5702 222.954 70.3782 223.146C70.1862 223.338 69.9582 223.434 69.6942 223.434ZM70.3422 234H68.9922V224.946H70.3422V234ZM80.0497 232.956C79.2457 233.844 78.1957 234.288 76.8997 234.288C75.6037 234.288 74.5477 233.844 73.7317 232.956C72.9157 232.068 72.5077 230.91 72.5077 229.482C72.5077 228.054 72.9157 226.896 73.7317 226.008C74.5477 225.108 75.6097 224.658 76.9177 224.658C78.2017 224.658 79.2457 225.108 80.0497 226.008C80.8537 226.896 81.2557 228.054 81.2557 229.482C81.2557 230.91 80.8537 232.068 80.0497 232.956ZM76.8997 233.1C77.8237 233.1 78.5497 232.782 79.0777 232.146C79.6177 231.498 79.8877 230.61 79.8877 229.482C79.8877 228.342 79.6177 227.448 79.0777 226.8C78.5497 226.152 77.8237 225.828 76.8997 225.828C75.9637 225.828 75.2257 226.152 74.6857 226.8C74.1577 227.448 73.8937 228.342 73.8937 229.482C73.8937 230.61 74.1577 231.498 74.6857 232.146C75.2257 232.782 75.9637 233.1 76.8997 233.1ZM87.7894 224.658C88.8094 224.658 89.6074 224.982 90.1834 225.63C90.7594 226.278 91.0474 227.166 91.0474 228.294V234H89.6974V228.51C89.6974 226.722 88.9594 225.828 87.4834 225.828C86.6794 225.828 86.0254 226.128 85.5214 226.728C85.0294 227.328 84.7834 228.126 84.7834 229.122V234H83.4514V224.946H84.7834V226.224C85.4674 225.18 86.4694 224.658 87.7894 224.658ZM99.8332 227.196C101.321 227.808 102.065 228.87 102.065 230.382C102.065 231.474 101.657 232.398 100.841 233.154C100.025 233.91 98.9092 234.288 97.4932 234.288C96.1132 234.288 95.0152 233.892 94.1992 233.1C93.3952 232.308 92.9932 231.33 92.9932 230.166H94.3252C94.3612 231.006 94.6552 231.696 95.2072 232.236C95.7592 232.776 96.5152 233.046 97.4752 233.046C98.4352 233.046 99.2092 232.8 99.7972 232.308C100.397 231.816 100.697 231.168 100.697 230.364C100.697 229.56 100.403 228.948 99.8152 228.528C99.2272 228.108 98.4232 227.898 97.4032 227.898H96.5032V226.692H97.3492C98.2372 226.692 98.9212 226.488 99.4012 226.08C99.8932 225.672 100.139 225.144 100.139 224.496C100.139 223.812 99.8932 223.272 99.4012 222.876C98.9212 222.48 98.2672 222.282 97.4392 222.282C96.5632 222.282 95.8852 222.51 95.4052 222.966C94.9252 223.41 94.6672 224.028 94.6312 224.82H93.2632C93.3232 223.668 93.7192 222.75 94.4512 222.066C95.1832 221.382 96.1912 221.04 97.4752 221.04C98.7472 221.04 99.7312 221.37 100.427 222.03C101.135 222.678 101.489 223.488 101.489 224.46C101.489 225.684 100.937 226.596 99.8332 227.196Z" fill="white"/>
<path d="M45.138 521.416L49.278 510.328H50.772L45.984 523H44.31L39.522 510.328H41.016L45.138 521.416ZM59.0948 518.302C59.0948 518.458 59.0888 518.596 59.0768 518.716H52.0027C52.0507 519.832 52.3447 520.684 52.8847 521.272C53.4367 521.848 54.1747 522.136 55.0987 522.136C56.4427 522.136 57.3187 521.512 57.7267 520.264H59.0048C58.7888 521.212 58.3328 521.956 57.6368 522.496C56.9408 523.024 56.0948 523.288 55.0987 523.288C53.7547 523.288 52.6807 522.838 51.8767 521.938C51.0727 521.038 50.6707 519.874 50.6707 518.446C50.6707 517.054 51.0667 515.908 51.8587 515.008C52.6627 514.108 53.7307 513.658 55.0627 513.658C56.3228 513.658 57.3068 514.084 58.0148 514.936C58.7348 515.776 59.0948 516.898 59.0948 518.302ZM55.0627 514.81C54.1987 514.81 53.5087 515.062 52.9927 515.566C52.4767 516.07 52.1647 516.772 52.0567 517.672H57.7628C57.7387 516.772 57.4807 516.07 56.9887 515.566C56.4968 515.062 55.8548 514.81 55.0627 514.81ZM65.1856 513.874C65.3536 513.874 65.4856 513.886 65.5816 513.91V515.17C65.4856 515.158 65.3536 515.152 65.1856 515.152C64.4056 515.152 63.7876 515.41 63.3316 515.926C62.8756 516.442 62.6476 517.138 62.6476 518.014V523H61.3156V513.946H62.6476V515.458C63.1636 514.402 64.0096 513.874 65.1856 513.874ZM73.0141 522.496C72.3661 523.024 71.4721 523.288 70.3321 523.288C69.1921 523.288 68.2861 523.012 67.6141 522.46C66.9421 521.896 66.5581 521.164 66.4621 520.264H67.8661C67.9381 520.852 68.1841 521.32 68.6041 521.668C69.0361 522.004 69.6121 522.172 70.3321 522.172C71.0521 522.172 71.6161 522.016 72.0241 521.704C72.4321 521.392 72.6361 520.996 72.6361 520.516C72.6361 520.072 72.4621 519.748 72.1141 519.544C71.7661 519.328 71.0941 519.118 70.0981 518.914C68.9581 518.674 68.1241 518.374 67.5961 518.014C67.0801 517.642 66.8221 517.072 66.8221 516.304C66.8221 515.488 67.1341 514.846 67.7581 514.378C68.3941 513.898 69.2221 513.658 70.2421 513.658C71.2621 513.658 72.0661 513.898 72.6541 514.378C73.2541 514.858 73.6141 515.53 73.7341 516.394H72.4021C72.3181 515.878 72.0901 515.482 71.7181 515.206C71.3581 514.918 70.8661 514.774 70.2421 514.774C69.6181 514.774 69.1141 514.912 68.7301 515.188C68.3581 515.464 68.1721 515.812 68.1721 516.232C68.1721 516.628 68.3521 516.928 68.7121 517.132C69.0841 517.324 69.7261 517.516 70.6381 517.708C71.8381 517.948 72.6961 518.26 73.2121 518.644C73.7401 519.028 74.0041 519.634 74.0041 520.462C74.0041 521.29 73.6741 521.968 73.0141 522.496ZM76.8443 512.434C76.5683 512.434 76.3283 512.338 76.1243 512.146C75.9323 511.954 75.8363 511.72 75.8363 511.444C75.8363 511.168 75.9323 510.934 76.1243 510.742C76.3283 510.55 76.5683 510.454 76.8443 510.454C77.1083 510.454 77.3363 510.556 77.5283 510.76C77.7203 510.952 77.8163 511.18 77.8163 511.444C77.8163 511.72 77.7203 511.954 77.5283 512.146C77.3363 512.338 77.1083 512.434 76.8443 512.434ZM77.4923 523H76.1423V513.946H77.4923V523ZM87.1998 521.956C86.3958 522.844 85.3458 523.288 84.0498 523.288C82.7538 523.288 81.6978 522.844 80.8818 521.956C80.0658 521.068 79.6578 519.91 79.6578 518.482C79.6578 517.054 80.0658 515.896 80.8818 515.008C81.6978 514.108 82.7598 513.658 84.0678 513.658C85.3518 513.658 86.3958 514.108 87.1998 515.008C88.0038 515.896 88.4058 517.054 88.4058 518.482C88.4058 519.91 88.0038 521.068 87.1998 521.956ZM84.0498 522.1C84.9738 522.1 85.6998 521.782 86.2278 521.146C86.7678 520.498 87.0378 519.61 87.0378 518.482C87.0378 517.342 86.7678 516.448 86.2278 515.8C85.6998 515.152 84.9738 514.828 84.0498 514.828C83.1138 514.828 82.3758 515.152 81.8358 515.8C81.3078 516.448 81.0438 517.342 81.0438 518.482C81.0438 519.61 81.3078 520.498 81.8358 521.146C82.3758 521.782 83.1138 522.1 84.0498 522.1ZM94.9395 513.658C95.9595 513.658 96.7575 513.982 97.3335 514.63C97.9095 515.278 98.1975 516.166 98.1975 517.294V523H96.8475V517.51C96.8475 515.722 96.1095 514.828 94.6335 514.828C93.8295 514.828 93.1755 515.128 92.6715 515.728C92.1795 516.328 91.9335 517.126 91.9335 518.122V523H90.6015V513.946H91.9335V515.224C92.6175 514.18 93.6195 513.658 94.9395 513.658ZM108.422 523H107.036V512.02L104.228 513.874V512.38L107.27 510.328H108.422V523ZM111.974 523.144C111.686 523.144 111.446 523.048 111.254 522.856C111.062 522.664 110.966 522.424 110.966 522.136C110.966 521.872 111.062 521.644 111.254 521.452C111.446 521.26 111.686 521.164 111.974 521.164C112.238 521.164 112.46 521.26 112.64 521.452C112.832 521.644 112.928 521.872 112.928 522.136C112.928 522.424 112.832 522.664 112.64 522.856C112.46 523.048 112.238 523.144 111.974 523.144ZM118.888 523.288C117.256 523.288 116.02 522.67 115.18 521.434C114.34 520.198 113.92 518.59 113.92 516.61C113.92 514.678 114.34 513.1 115.18 511.876C116.032 510.652 117.268 510.04 118.888 510.04C120.484 510.04 121.702 510.652 122.542 511.876C123.382 513.1 123.802 514.678 123.802 516.61C123.802 518.602 123.388 520.216 122.56 521.452C121.732 522.676 120.508 523.288 118.888 523.288ZM118.888 521.992C120.004 521.992 120.868 521.53 121.48 520.606C122.104 519.67 122.416 518.338 122.416 516.61C122.416 514.954 122.104 513.658 121.48 512.722C120.856 511.786 119.992 511.318 118.888 511.318C117.772 511.318 116.896 511.786 116.26 512.722C115.636 513.646 115.324 514.942 115.324 516.61C115.324 518.326 115.636 519.652 116.26 520.588C116.884 521.524 117.76 521.992 118.888 521.992ZM124.737 525.232V524.422C125.121 524.386 125.415 524.254 125.619 524.026C125.823 523.798 125.931 523.498 125.943 523.126C125.883 523.138 125.805 523.144 125.709 523.144C125.445 523.144 125.217 523.048 125.025 522.856C124.845 522.652 124.755 522.412 124.755 522.136C124.755 521.884 124.845 521.668 125.025 521.488C125.217 521.296 125.445 521.2 125.709 521.2C126.045 521.2 126.315 521.338 126.519 521.614C126.723 521.878 126.825 522.25 126.825 522.73C126.825 523.45 126.645 524.038 126.285 524.494C125.937 524.962 125.421 525.208 124.737 525.232ZM142.627 520.804V510.328H144.013V523H142.537L135.139 512.578V523H133.753V510.328H135.229L142.627 520.804ZM154.134 521.956C153.33 522.844 152.28 523.288 150.984 523.288C149.688 523.288 148.632 522.844 147.816 521.956C147 521.068 146.592 519.91 146.592 518.482C146.592 517.054 147 515.896 147.816 515.008C148.632 514.108 149.694 513.658 151.002 513.658C152.286 513.658 153.33 514.108 154.134 515.008C154.938 515.896 155.34 517.054 155.34 518.482C155.34 519.91 154.938 521.068 154.134 521.956ZM150.984 522.1C151.908 522.1 152.634 521.782 153.162 521.146C153.702 520.498 153.972 519.61 153.972 518.482C153.972 517.342 153.702 516.448 153.162 515.8C152.634 515.152 151.908 514.828 150.984 514.828C150.048 514.828 149.31 515.152 148.77 515.8C148.242 516.448 147.978 517.342 147.978 518.482C147.978 519.61 148.242 520.498 148.77 521.146C149.31 521.782 150.048 522.1 150.984 522.1ZM160.529 521.38L163.427 513.946H164.831L161.213 523H159.845L156.209 513.946H157.613L160.529 521.38ZM174.115 518.302C174.115 518.458 174.109 518.596 174.097 518.716H167.023C167.071 519.832 167.365 520.684 167.905 521.272C168.457 521.848 169.195 522.136 170.119 522.136C171.463 522.136 172.339 521.512 172.747 520.264H174.025C173.809 521.212 173.353 521.956 172.657 522.496C171.961 523.024 171.115 523.288 170.119 523.288C168.775 523.288 167.701 522.838 166.897 521.938C166.093 521.038 165.691 519.874 165.691 518.446C165.691 517.054 166.087 515.908 166.879 515.008C167.683 514.108 168.751 513.658 170.083 513.658C171.343 513.658 172.327 514.084 173.035 514.936C173.755 515.776 174.115 516.898 174.115 518.302ZM170.083 514.81C169.219 514.81 168.529 515.062 168.013 515.566C167.497 516.07 167.185 516.772 167.077 517.672H172.783C172.759 516.772 172.501 516.07 172.009 515.566C171.517 515.062 170.875 514.81 170.083 514.81ZM185.642 513.658C186.542 513.658 187.238 513.91 187.73 514.414C188.222 514.918 188.468 515.674 188.468 516.682V523H187.136V516.97C187.136 515.542 186.524 514.828 185.3 514.828C184.628 514.828 184.088 515.08 183.68 515.584C183.272 516.076 183.068 516.772 183.068 517.672V523H181.736V516.97C181.736 515.542 181.13 514.828 179.918 514.828C179.246 514.828 178.7 515.08 178.28 515.584C177.872 516.076 177.668 516.772 177.668 517.672V523H176.336V513.928H177.668V515.116C178.232 514.144 179.084 513.658 180.224 513.658C181.58 513.658 182.456 514.222 182.852 515.35C183.428 514.222 184.358 513.658 185.642 513.658ZM195.669 513.658C196.905 513.658 197.913 514.108 198.693 515.008C199.473 515.908 199.863 517.066 199.863 518.482C199.863 519.886 199.473 521.038 198.693 521.938C197.913 522.838 196.905 523.288 195.669 523.288C194.301 523.288 193.233 522.706 192.465 521.542V523H191.133V509.95H192.465V515.404C193.233 514.24 194.301 513.658 195.669 513.658ZM195.453 522.1C196.377 522.1 197.109 521.776 197.649 521.128C198.201 520.468 198.477 519.586 198.477 518.482C198.477 517.354 198.201 516.466 197.649 515.818C197.109 515.158 196.377 514.828 195.453 514.828C194.541 514.828 193.815 515.158 193.275 515.818C192.735 516.478 192.465 517.366 192.465 518.482C192.465 519.586 192.735 520.468 193.275 521.128C193.827 521.776 194.553 522.1 195.453 522.1ZM209.874 518.302C209.874 518.458 209.868 518.596 209.856 518.716H202.782C202.83 519.832 203.124 520.684 203.664 521.272C204.216 521.848 204.954 522.136 205.878 522.136C207.222 522.136 208.098 521.512 208.506 520.264H209.784C209.568 521.212 209.112 521.956 208.416 522.496C207.72 523.024 206.874 523.288 205.878 523.288C204.534 523.288 203.46 522.838 202.656 521.938C201.852 521.038 201.45 519.874 201.45 518.446C201.45 517.054 201.846 515.908 202.638 515.008C203.442 514.108 204.51 513.658 205.842 513.658C207.102 513.658 208.086 514.084 208.794 514.936C209.514 515.776 209.874 516.898 209.874 518.302ZM205.842 514.81C204.978 514.81 204.288 515.062 203.772 515.566C203.256 516.07 202.944 516.772 202.836 517.672H208.542C208.518 516.772 208.26 516.07 207.768 515.566C207.276 515.062 206.634 514.81 205.842 514.81ZM215.965 513.874C216.133 513.874 216.265 513.886 216.361 513.91V515.17C216.265 515.158 216.133 515.152 215.965 515.152C215.185 515.152 214.567 515.41 214.111 515.926C213.655 516.442 213.427 517.138 213.427 518.014V523H212.095V513.946H213.427V515.458C213.943 514.402 214.789 513.874 215.965 513.874ZM227.572 518.446L223.756 521.758H230.488V523H221.74V521.758L226.816 517.348C227.272 516.952 227.632 516.622 227.896 516.358C228.16 516.082 228.412 515.722 228.652 515.278C228.892 514.822 229.012 514.366 229.012 513.91C229.012 513.118 228.754 512.482 228.238 512.002C227.734 511.522 227.05 511.282 226.186 511.282C225.094 511.282 224.308 511.594 223.828 512.218C223.36 512.83 223.12 513.568 223.108 514.432H221.704C221.704 513.892 221.782 513.376 221.938 512.884C222.106 512.38 222.352 511.912 222.676 511.48C223.012 511.036 223.48 510.688 224.08 510.436C224.68 510.172 225.376 510.04 226.168 510.04C227.44 510.04 228.466 510.4 229.246 511.12C230.026 511.828 230.416 512.752 230.416 513.892C230.416 514.396 230.338 514.87 230.182 515.314C230.026 515.758 229.78 516.184 229.444 516.592C229.12 516.988 228.838 517.306 228.598 517.546C228.358 517.774 228.016 518.074 227.572 518.446ZM237.362 523.288C235.73 523.288 234.494 522.67 233.654 521.434C232.814 520.198 232.394 518.59 232.394 516.61C232.394 514.678 232.814 513.1 233.654 511.876C234.506 510.652 235.742 510.04 237.362 510.04C238.958 510.04 240.176 510.652 241.016 511.876C241.856 513.1 242.276 514.678 242.276 516.61C242.276 518.602 241.862 520.216 241.034 521.452C240.206 522.676 238.982 523.288 237.362 523.288ZM237.362 521.992C238.478 521.992 239.342 521.53 239.954 520.606C240.578 519.67 240.89 518.338 240.89 516.61C240.89 514.954 240.578 513.658 239.954 512.722C239.33 511.786 238.466 511.318 237.362 511.318C236.246 511.318 235.37 511.786 234.734 512.722C234.11 513.646 233.798 514.942 233.798 516.61C233.798 518.326 234.11 519.652 234.734 520.588C235.358 521.524 236.234 521.992 237.362 521.992ZM249.941 518.446L246.125 521.758H252.857V523H244.109V521.758L249.185 517.348C249.641 516.952 250.001 516.622 250.265 516.358C250.529 516.082 250.781 515.722 251.021 515.278C251.261 514.822 251.381 514.366 251.381 513.91C251.381 513.118 251.123 512.482 250.607 512.002C250.103 511.522 249.419 511.282 248.555 511.282C247.463 511.282 246.677 511.594 246.197 512.218C245.729 512.83 245.489 513.568 245.477 514.432H244.073C244.073 513.892 244.151 513.376 244.307 512.884C244.475 512.38 244.721 511.912 245.045 511.48C245.381 511.036 245.849 510.688 246.449 510.436C247.049 510.172 247.745 510.04 248.537 510.04C249.809 510.04 250.835 510.4 251.615 511.12C252.395 511.828 252.785 512.752 252.785 513.892C252.785 514.396 252.707 514.87 252.551 515.314C252.395 515.758 252.149 516.184 251.813 516.592C251.489 516.988 251.207 517.306 250.967 517.546C250.727 517.774 250.385 518.074 249.941 518.446ZM258.503 523H257.117V512.02L254.309 513.874V512.38L257.351 510.328H258.503V523Z" fill="white"/>
<defs>
<linearGradient id="paint0_linear_91_31" x1="0" y1="-0.000183105" x2="268.589" y2="-56.9344" gradientUnits="userSpaceOnUse">
<stop stop-color="#69C9FF"/>
<stop offset="1" stop-color="#88F1BB"/>
</linearGradient>
<linearGradient id="paint1_linear_91_31" x1="0" y1="-0.000183105" x2="268.589" y2="-56.9344" gradientUnits="userSpaceOnUse">
<stop stop-color="#69C9FF"/>
<stop offset="1" stop-color="#88F1BB"/>
</linearGradient>
<linearGradient id="paint2_linear_91_31" x1="0" y1="-0.000183105" x2="268.589" y2="-56.9344" gradientUnits="userSpaceOnUse">
<stop stop-color="#69C9FF"/>
<stop offset="1" stop-color="#88F1BB"/>
</linearGradient>
<linearGradient id="paint3_linear_91_31" x1="33" y1="50" x2="80.6777" y2="35.7751" gradientUnits="userSpaceOnUse">
<stop stop-color="#69C9FF"/>
<stop offset="1" stop-color="#88F1BB"/>
</linearGradient>
<linearGradient id="paint4_linear_91_31" x1="42" y1="110" x2="313.892" y2="28.8798" gradientUnits="userSpaceOnUse">
<stop stop-color="#9FDDFF"/>
<stop offset="1" stop-color="#9FFFCE"/>
</linearGradient>
<linearGradient id="paint5_linear_91_31" x1="77.1653" y1="493.317" x2="190.073" y2="527.691" gradientUnits="userSpaceOnUse">
<stop stop-color="#A5DEFF"/>
<stop offset="1" stop-color="#88F1BB"/>
</linearGradient>
<linearGradient id="paint6_linear_91_31" x1="429.189" y1="148.33" x2="316.281" y2="113.956" gradientUnits="userSpaceOnUse">
<stop stop-color="#69C9FF"/>
<stop offset="1" stop-color="#88F1BB"/>
</linearGradient>
</defs>
</svg>
