<svg width="226" height="161" viewBox="0 0 226 161" fill="none" xmlns="http://www.w3.org/2000/svg">
<g filter="url(#filter0_d_813_35)">
<rect x="4" width="218" height="152.129" rx="11" fill="#69C9FF"/>
<path d="M4 76.0645H222V141.129C222 147.204 217.075 152.129 211 152.129H15C8.92487 152.129 4 147.204 4 141.129V76.0645Z" fill="#88F1BB"/>
<path d="M44.764 69.7358C39.4527 47.2833 22.4322 40.6643 14.5859 40.1613H44.764V69.7358Z" fill="white"/>
<path d="M44.764 69.7358C39.4527 47.2833 22.4322 40.6643 14.5859 40.1613H44.764V69.7358Z" fill="white"/>
<path d="M44.7633 10.5869C50.0747 33.0394 67.0951 39.6585 74.9414 40.1615H44.7633V10.5869Z" fill="white"/>
<path d="M44.7633 10.5869C50.0747 33.0394 67.0951 39.6585 74.9414 40.1615H44.7633V10.5869Z" fill="white"/>
</g>
<defs>
<filter id="filter0_d_813_35" x="0" y="0" width="226" height="160.129" filterUnits="userSpaceOnUse" color-interpolation-filters="sRGB">
<feFlood flood-opacity="0" result="BackgroundImageFix"/>
<feColorMatrix in="SourceAlpha" type="matrix" values="0 0 0 0 0 0 0 0 0 0 0 0 0 0 0 0 0 0 127 0" result="hardAlpha"/>
<feOffset dy="4"/>
<feGaussianBlur stdDeviation="2"/>
<feComposite in2="hardAlpha" operator="out"/>
<feColorMatrix type="matrix" values="0 0 0 0 0 0 0 0 0 0 0 0 0 0 0 0 0 0 0.25 0"/>
<feBlend mode="normal" in2="BackgroundImageFix" result="effect1_dropShadow_813_35"/>
<feBlend mode="normal" in="SourceGraphic" in2="effect1_dropShadow_813_35" result="shape"/>
</filter>
</defs>
</svg>
