<svg width="653" height="739" viewBox="0 0 653 739" fill="none" xmlns="http://www.w3.org/2000/svg">
<g filter="url(#filter0_d_565_116)">
<g clip-path="url(#clip0_565_116)">
<rect x="34" y="20" width="585" height="671" rx="12" fill="white"/>
<path d="M530.956 627H532.284V617.192L538.06 627H539.66V615.56H538.332V625.016L532.764 615.56H530.956V627ZM546.55 627.144C549.494 627.144 550.886 625.432 550.886 622.648V615.56H549.494V622.456C549.494 625.256 548.406 625.992 546.582 625.992C544.678 625.992 543.83 625.064 543.83 622.664V615.56H542.438V622.824C542.438 625.608 543.926 627.144 546.55 627.144ZM553.674 627H554.954V617.368L558.874 627H559.306L563.098 617.368V627H564.49V615.56H562.57L559.146 624.472L555.61 615.56H553.674V627ZM567.378 627H571.298C573.586 627 575.058 625.96 575.058 623.8V623.736C575.058 622.248 574.434 621.4 572.77 621C574.082 620.552 574.498 619.624 574.498 618.584V618.52C574.498 616.264 572.946 615.56 570.818 615.56H567.378V627ZM568.738 620.552V616.648H570.786C572.386 616.648 573.138 617.176 573.138 618.472V618.536C573.138 619.944 572.498 620.552 570.818 620.552H568.738ZM568.738 625.912V621.64H571.074C572.914 621.64 573.698 622.312 573.698 623.72V623.784C573.698 625.176 572.93 625.912 571.266 625.912H568.738ZM577.331 627H584.291V625.864H578.723V621.72H582.979V620.584H578.723V616.696H584.003V615.56H577.331V627ZM586.393 627H587.785V622.024H589.545L592.953 627H594.505L591.001 621.928C592.569 621.624 593.833 620.696 593.833 618.808V618.744C593.833 616.456 592.025 615.56 589.833 615.56H586.393V627ZM587.785 620.92V616.68H589.929C591.481 616.68 592.441 617.192 592.441 618.744V618.808C592.441 620.216 591.561 620.92 589.929 620.92H587.785Z" fill="#7395B3"/>
<path d="M352.708 627H354.1V615.56H352.708V627ZM360.761 627.144C363.033 627.144 364.713 625.688 364.713 623.768C364.713 621.608 363.369 620.84 360.825 620.44C358.489 620.088 358.073 619.512 358.073 618.392C358.073 617.32 358.889 616.536 360.457 616.536C362.041 616.536 362.873 617.128 363.145 618.568H364.393C364.169 616.536 362.745 615.416 360.457 615.416C358.297 615.416 356.777 616.76 356.777 618.52C356.777 620.552 358.201 621.304 360.601 621.672C362.777 622.024 363.369 622.568 363.369 623.864C363.369 625.16 362.233 626.024 360.761 626.024C358.457 626.024 357.913 624.872 357.737 623.512H356.393C356.601 625.464 357.705 627.144 360.761 627.144ZM370.558 627.144C372.83 627.144 374.51 625.688 374.51 623.768C374.51 621.608 373.166 620.84 370.622 620.44C368.286 620.088 367.87 619.512 367.87 618.392C367.87 617.32 368.686 616.536 370.254 616.536C371.838 616.536 372.67 617.128 372.942 618.568H374.19C373.966 616.536 372.542 615.416 370.254 615.416C368.094 615.416 366.574 616.76 366.574 618.52C366.574 620.552 367.998 621.304 370.398 621.672C372.574 622.024 373.166 622.568 373.166 623.864C373.166 625.16 372.03 626.024 370.558 626.024C368.254 626.024 367.71 624.872 367.534 623.512H366.19C366.398 625.464 367.502 627.144 370.558 627.144ZM380.831 627.144C383.775 627.144 385.167 625.432 385.167 622.648V615.56H383.775V622.456C383.775 625.256 382.687 625.992 380.863 625.992C378.959 625.992 378.111 625.064 378.111 622.664V615.56H376.719V622.824C376.719 625.608 378.207 627.144 380.831 627.144ZM387.956 627H394.916V625.864H389.348V621.72H393.604V620.584H389.348V616.696H394.628V615.56H387.956V627ZM401.253 627H404.245C408.245 627 410.069 624.488 410.069 621.32V621.176C410.069 617.992 408.213 615.56 404.277 615.56H401.253V627ZM402.645 625.864V616.68H404.197C407.349 616.68 408.628 618.536 408.628 621.176V621.304C408.628 624.104 407.157 625.864 404.213 625.864H402.645ZM410.889 627H412.201L413.305 623.704H418.025L419.145 627H420.521L416.649 615.56H414.825L410.889 627ZM415.673 616.712L417.657 622.6H413.689L415.673 616.712ZM423.761 627H425.153V616.696H428.481V615.56H420.433V616.696H423.761V627ZM430.378 627H437.338V625.864H431.77V621.72H436.026V620.584H431.77V616.696H437.05V615.56H430.378V627Z" fill="#7395B3"/>
<path d="M587.593 658.198C591.465 658.198 593.687 655.118 593.687 650.542V649.662C593.687 645.174 591.421 642.072 587.549 642.072C583.699 642.072 581.345 645.064 581.345 649.706V650.586C581.345 655.162 583.831 658.198 587.593 658.198ZM587.593 656.614C584.975 656.614 583.303 654.546 583.303 650.564V649.684C583.303 645.812 584.887 643.612 587.549 643.612C590.211 643.612 591.751 645.988 591.751 649.64V650.52C591.751 654.502 590.343 656.614 587.593 656.614Z" fill="#224059"/>
<path d="M354.168 655.198C357.424 655.198 359.756 653.482 359.756 650.622C359.756 648.444 358.568 647.146 356.72 646.662C358.15 646.068 359.206 645.012 359.206 643.23C359.206 641.052 357.468 639.072 354.476 639.072C351.484 639.072 349.438 641.118 349.328 643.604H351C351.198 641.822 352.518 640.634 354.476 640.634C356.39 640.634 357.336 641.778 357.336 643.274C357.336 644.99 356.434 645.958 354.388 645.958H353.288V647.564H354.476C356.698 647.564 357.798 648.598 357.798 650.622C357.798 652.47 356.676 653.658 354.212 653.658C351.726 653.658 350.604 652.228 350.428 650.358H348.668C348.778 653.108 350.824 655.198 354.168 655.198ZM367.973 653.614C365.355 653.614 363.683 651.546 363.683 647.564V646.684C363.683 642.812 365.267 640.612 367.929 640.612C370.591 640.612 372.131 642.988 372.131 646.64V647.52C372.131 651.502 370.723 653.614 367.973 653.614ZM367.973 655.198C371.845 655.198 374.067 652.118 374.067 647.542V646.662C374.067 642.174 371.801 639.072 367.929 639.072C364.079 639.072 361.725 642.064 361.725 646.706V647.586C361.725 652.162 364.211 655.198 367.973 655.198ZM373.971 658.256H375.643L382.045 637.928H380.373L373.971 658.256ZM388.739 653.614C386.121 653.614 384.449 651.546 384.449 647.564V646.684C384.449 642.812 386.033 640.612 388.695 640.612C391.357 640.612 392.897 642.988 392.897 646.64V647.52C392.897 651.502 391.489 653.614 388.739 653.614ZM388.739 655.198C392.611 655.198 394.833 652.118 394.833 647.542V646.662C394.833 642.174 392.567 639.072 388.695 639.072C384.845 639.072 382.491 642.064 382.491 646.706V647.586C382.491 652.162 384.977 655.198 388.739 655.198ZM401.668 655.198C404.66 655.198 407.058 653.174 407.058 649.852C407.058 646.64 404.99 644.638 402.174 644.638C400.678 644.638 399.6 645.122 398.962 645.716V640.92H406.222V639.27H397.378V647.696H398.082C398.918 646.75 399.974 646.178 401.8 646.178C403.802 646.178 405.1 647.63 405.1 649.852C405.1 652.228 403.78 653.658 401.646 653.658C399.248 653.658 398.566 652.47 398.258 650.754H396.432C396.652 653.328 398.28 655.198 401.668 655.198ZM407.097 658.256H408.769L415.171 637.928H413.499L407.097 658.256ZM414.715 655H425.253V653.438H417.663L421.997 649.214C423.933 647.322 425.165 645.43 425.165 643.494C425.165 640.788 423.317 639.072 420.413 639.072C417.421 639.072 415.551 641.03 415.309 644.11H417.091C417.399 641.646 418.587 640.612 420.413 640.612C422.195 640.612 423.229 641.668 423.229 643.428C423.229 645.034 422.393 646.464 420.963 647.982L414.715 654.56V655ZM426.236 655H436.774V653.438H429.184L433.518 649.214C435.454 647.322 436.686 645.43 436.686 643.494C436.686 640.788 434.838 639.072 431.934 639.072C428.942 639.072 427.072 641.03 426.83 644.11H428.612C428.92 641.646 430.108 640.612 431.934 640.612C433.716 640.612 434.75 641.668 434.75 643.428C434.75 645.034 433.914 646.464 432.484 647.982L426.236 654.56V655Z" fill="#224059"/>
<path d="M59.44 549H60.832V544.344H62.688C64.864 544.344 66.688 543.4 66.688 540.968V540.904C66.688 538.52 64.88 537.56 62.688 537.56H59.44V549ZM60.832 543.24V538.68H62.784C64.336 538.68 65.296 539.288 65.296 540.904V540.968C65.296 542.44 64.416 543.24 62.784 543.24H60.832ZM67.076 549H68.388L69.492 545.704H74.212L75.332 549H76.708L72.836 537.56H71.012L67.076 549ZM71.86 538.712L73.844 544.6H69.876L71.86 538.712ZM82.1829 549.144C84.4549 549.144 86.1349 547.688 86.1349 545.768C86.1349 543.608 84.7909 542.84 82.2469 542.44C79.9109 542.088 79.4949 541.512 79.4949 540.392C79.4949 539.32 80.3109 538.536 81.8789 538.536C83.4629 538.536 84.2949 539.128 84.5669 540.568H85.8149C85.5909 538.536 84.1669 537.416 81.8789 537.416C79.7189 537.416 78.1989 538.76 78.1989 540.52C78.1989 542.552 79.6229 543.304 82.0229 543.672C84.1989 544.024 84.7909 544.568 84.7909 545.864C84.7909 547.16 83.6549 548.024 82.1829 548.024C79.8789 548.024 79.3349 546.872 79.1589 545.512H77.8149C78.0229 547.464 79.1269 549.144 82.1829 549.144ZM91.9798 549.144C94.2518 549.144 95.9318 547.688 95.9318 545.768C95.9318 543.608 94.5878 542.84 92.0438 542.44C89.7078 542.088 89.2918 541.512 89.2918 540.392C89.2918 539.32 90.1078 538.536 91.6758 538.536C93.2598 538.536 94.0918 539.128 94.3638 540.568H95.6118C95.3878 538.536 93.9638 537.416 91.6758 537.416C89.5158 537.416 87.9958 538.76 87.9958 540.52C87.9958 542.552 89.4198 543.304 91.8198 543.672C93.9958 544.024 94.5878 544.568 94.5878 545.864C94.5878 547.16 93.4518 548.024 91.9798 548.024C89.6758 548.024 89.1318 546.872 88.9557 545.512H87.6118C87.8198 547.464 88.9238 549.144 91.9798 549.144ZM98.315 549H99.707V544.344H101.563C103.739 544.344 105.563 543.4 105.563 540.968V540.904C105.563 538.52 103.755 537.56 101.563 537.56H98.315V549ZM99.707 543.24V538.68H101.659C103.211 538.68 104.171 539.288 104.171 540.904V540.968C104.171 542.44 103.291 543.24 101.659 543.24H99.707ZM112.716 549.144C116.044 549.144 118.268 546.552 118.268 543.32V543.192C118.268 539.976 116.044 537.416 112.684 537.416C109.324 537.416 107.052 539.976 107.052 543.224V543.352C107.052 546.552 109.34 549.144 112.716 549.144ZM112.716 547.992C110.332 547.992 108.492 546.104 108.492 543.336V543.208C108.492 540.488 110.028 538.536 112.684 538.536C115.324 538.536 116.828 540.616 116.828 543.176V543.304C116.828 546.072 115.26 547.992 112.716 547.992ZM120.581 549H121.973V544.024H123.733L127.141 549H128.693L125.189 543.928C126.757 543.624 128.021 542.696 128.021 540.808V540.744C128.021 538.456 126.213 537.56 124.021 537.56H120.581V549ZM121.973 542.92V538.68H124.117C125.669 538.68 126.629 539.192 126.629 540.744V540.808C126.629 542.216 125.749 542.92 124.117 542.92H121.973ZM132.745 549H134.137V538.696H137.465V537.56H129.417V538.696H132.745V549ZM143.596 549H144.988V543.912H151.004V549H152.396V537.56H151.004V542.744H144.988V537.56H143.596V549ZM160.388 549.144C163.716 549.144 165.94 546.552 165.94 543.32V543.192C165.94 539.976 163.716 537.416 160.356 537.416C156.996 537.416 154.724 539.976 154.724 543.224V543.352C154.724 546.552 157.012 549.144 160.388 549.144ZM160.388 547.992C158.004 547.992 156.164 546.104 156.164 543.336V543.208C156.164 540.488 157.7 538.536 160.356 538.536C162.996 538.536 164.5 540.616 164.5 543.176V543.304C164.5 546.072 162.932 547.992 160.388 547.992ZM168.253 549H174.877V547.864H169.645V537.56H168.253V549ZM176.815 549H179.807C183.807 549 185.631 546.488 185.631 543.32V543.176C185.631 539.992 183.775 537.56 179.839 537.56H176.815V549ZM178.207 547.864V538.68H179.759C182.911 538.68 184.191 540.536 184.191 543.176V543.304C184.191 546.104 182.719 547.864 179.775 547.864H178.207ZM187.956 549H194.916V547.864H189.348V543.72H193.604V542.584H189.348V538.696H194.628V537.56H187.956V549ZM197.018 549H198.41V544.024H200.17L203.578 549H205.13L201.626 543.928C203.194 543.624 204.458 542.696 204.458 540.808V540.744C204.458 538.456 202.65 537.56 200.458 537.56H197.018V549ZM198.41 542.92V538.68H200.554C202.106 538.68 203.066 539.192 203.066 540.744V540.808C203.066 542.216 202.186 542.92 200.554 542.92H198.41Z" fill="#7395B3"/>
<path d="M64.899 582.293C68.383 582.293 70.333 580.707 70.333 577.951C70.333 575.065 68.435 574.285 65.237 573.791C63.079 573.427 62.429 573.037 62.429 572.049C62.429 571.087 63.235 570.437 64.587 570.437C66.043 570.437 66.745 571.009 67.005 572.257H69.917C69.579 569.189 67.369 568.149 64.587 568.149C62.039 568.149 59.491 569.501 59.491 572.231C59.491 574.779 60.817 575.793 64.405 576.365C66.407 576.703 67.317 577.119 67.317 578.237C67.317 579.381 66.563 579.979 64.873 579.979C63.027 579.979 62.325 579.173 62.169 577.795H59.205C59.335 580.681 61.389 582.293 64.899 582.293ZM75.8747 582.293C77.9547 582.293 79.1507 581.539 80.0347 580.369V582.033H83.1287V573.115C83.1287 569.397 80.7367 568.149 77.6947 568.149C74.6527 568.149 72.1307 569.475 71.8707 572.647H74.9127C75.0687 571.295 75.8747 570.515 77.5127 570.515C79.3587 570.515 79.9827 571.425 79.9827 573.245V573.947H78.2927C74.3927 573.947 71.3247 575.091 71.3247 578.263C71.3247 581.097 73.3787 582.293 75.8747 582.293ZM76.6287 580.031C75.0687 580.031 74.4447 579.277 74.4447 578.133C74.4447 576.469 75.9787 575.923 78.3707 575.923H79.9827V577.275C79.9827 579.017 78.5527 580.031 76.6287 580.031ZM90.5572 582.267C91.5192 582.267 92.1952 582.111 92.6892 581.929V579.433C92.2472 579.615 91.7792 579.693 91.1552 579.693C90.1672 579.693 89.5952 579.147 89.5952 577.951V570.801H92.5852V568.435H89.5952V565.445H86.4492V568.435H84.6292V570.801H86.4492V578.237C86.4492 580.811 87.8532 582.267 90.5572 582.267ZM100.805 582.293C104.809 582.293 107.799 579.537 107.799 575.299V575.091C107.799 570.931 104.809 568.149 100.831 568.149C96.8268 568.149 93.8368 570.957 93.8368 575.169V575.377C93.8368 579.511 96.8008 582.293 100.805 582.293ZM100.831 579.849C98.4388 579.849 97.0608 578.107 97.0608 575.325V575.117C97.0608 572.309 98.4908 570.619 100.831 570.619C103.171 570.619 104.575 572.335 104.575 575.143V575.325C104.575 578.107 103.171 579.849 100.831 579.849ZM114.541 582.293C118.025 582.293 119.975 580.707 119.975 577.951C119.975 575.065 118.077 574.285 114.879 573.791C112.721 573.427 112.071 573.037 112.071 572.049C112.071 571.087 112.877 570.437 114.229 570.437C115.685 570.437 116.387 571.009 116.647 572.257H119.559C119.221 569.189 117.011 568.149 114.229 568.149C111.681 568.149 109.133 569.501 109.133 572.231C109.133 574.779 110.459 575.793 114.047 576.365C116.049 576.703 116.959 577.119 116.959 578.237C116.959 579.381 116.205 579.979 114.515 579.979C112.669 579.979 111.967 579.173 111.811 577.795H108.847C108.977 580.681 111.031 582.293 114.541 582.293ZM121.954 582.033H125.1V574.025C125.1 571.867 126.53 570.775 128.298 570.775C130.17 570.775 131.002 571.711 131.002 573.765V582.033H134.148V573.479C134.148 569.735 132.224 568.149 129.494 568.149C127.258 568.149 125.75 569.267 125.1 570.593V562.143H121.954V582.033ZM138.605 566.199C139.645 566.199 140.477 565.419 140.477 564.405C140.477 563.365 139.645 562.585 138.605 562.585C137.565 562.585 136.733 563.365 136.733 564.405C136.733 565.419 137.565 566.199 138.605 566.199ZM137.071 582.033H140.217V568.435H137.071V582.033ZM145.143 582.215C146.313 582.215 147.223 581.331 147.223 580.187C147.223 579.043 146.313 578.133 145.143 578.133C143.999 578.133 143.089 579.043 143.089 580.187C143.089 581.331 143.999 582.215 145.143 582.215ZM155.352 582.293C158.836 582.293 161.15 580.733 161.592 577.873H158.55C158.316 579.199 157.328 579.953 155.43 579.953C153.09 579.953 151.79 578.497 151.686 575.923H161.644V575.013C161.644 570.151 158.602 568.149 155.222 568.149C151.348 568.149 148.462 570.957 148.462 575.169V575.377C148.462 579.667 151.348 582.293 155.352 582.293ZM151.738 573.817C152.05 571.711 153.324 570.437 155.222 570.437C157.172 570.437 158.368 571.477 158.524 573.817H151.738ZM168.302 582.267C169.264 582.267 169.94 582.111 170.434 581.929V579.433C169.992 579.615 169.524 579.693 168.9 579.693C167.912 579.693 167.34 579.147 167.34 577.951V570.801H170.33V568.435H167.34V565.445H164.194V568.435H162.374V570.801H164.194V578.237C164.194 580.811 165.598 582.267 168.302 582.267ZM172.492 582.033H175.638V574.025C175.638 571.867 177.068 570.775 178.836 570.775C180.708 570.775 181.54 571.711 181.54 573.765V582.033H184.686V573.479C184.686 569.735 182.762 568.149 180.032 568.149C177.796 568.149 176.288 569.267 175.638 570.593V562.143H172.492V582.033Z" fill="#224059"/>
<mask id="mask0_565_116" style="mask-type:alpha" maskUnits="userSpaceOnUse" x="34" y="20" width="585" height="493">
<rect x="34" y="20" width="585" height="493" fill="white"/>
</mask>
<g mask="url(#mask0_565_116)">
<path opacity="0.4" d="M327.015 553.018L325.995 553.137C274.602 335.884 109.937 271.886 34.1095 267.025L34.1426 265.992H326.498H327.015V266.509V553.018Z" stroke="url(#paint0_linear_565_116)" stroke-width="1.03398"/>
<path opacity="0.4" d="M325.987 -20L327.007 -20.119C378.4 197.134 543.065 261.132 618.892 265.993L618.859 267.026H326.504H325.987V266.509V-20Z" stroke="url(#paint1_linear_565_116)" stroke-width="1.03398"/>
</g>
<rect opacity="0.09" x="34" y="261" width="585" height="250" fill="url(#paint2_linear_565_116)"/>
<circle cx="325.873" cy="266.873" r="208.687" transform="rotate(45 325.873 266.873)" stroke="url(#paint3_linear_565_116)" stroke-width="1.41433"/>
<path d="M213.4 379.347C254.11 420.057 303.548 444.368 350.591 450.741C397.635 457.114 442.327 445.547 473.437 414.437C504.547 383.327 516.114 338.635 509.741 291.591C503.368 244.548 479.057 195.11 438.347 154.4C397.637 113.69 348.199 89.3781 301.156 83.0054C254.112 76.6326 209.42 88.1992 178.31 119.309C147.2 150.419 135.633 195.111 142.006 242.155C148.378 289.199 172.69 338.636 213.4 379.347Z" stroke="url(#paint4_linear_565_116)" stroke-width="1.41433"/>
<path d="M257.643 198.64C216.954 239.329 187.654 283.771 173.2 322.767C158.779 361.674 159.014 395.553 178.105 414.644C197.195 433.734 231.074 433.969 269.981 419.548C308.978 405.094 353.42 375.794 394.108 335.106C434.797 294.417 464.097 249.975 478.551 210.979C492.972 172.072 492.737 138.193 473.646 119.102C454.556 100.011 420.677 99.7767 381.77 114.198C342.773 128.652 298.331 157.952 257.643 198.64Z" stroke="url(#paint5_linear_565_116)" stroke-width="2"/>
<path d="M297.256 291.254C328.95 328.452 360.802 359.465 386.687 379.534C399.625 389.564 411.103 396.885 420.346 400.869C424.965 402.86 429.064 404.034 432.529 404.278C435.998 404.522 438.901 403.836 441.026 402.024C443.152 400.213 444.29 397.457 444.6 393.993C444.91 390.533 444.401 386.3 443.169 381.422C440.703 371.665 435.297 359.17 427.448 344.804C411.743 316.06 386.181 279.689 354.487 242.491C322.792 205.293 290.941 174.281 265.055 154.212C252.117 144.181 240.64 136.861 231.397 132.877C226.777 130.885 222.679 129.711 219.213 129.468C215.744 129.224 212.842 129.91 210.716 131.721C208.591 133.532 207.452 136.289 207.142 139.753C206.833 143.213 207.341 147.446 208.574 152.323C211.04 162.081 216.445 174.575 224.295 188.942C239.999 217.685 265.562 254.056 297.256 291.254Z" stroke="url(#paint6_linear_565_116)" stroke-width="1.41433"/>
<circle cx="326.242" cy="267.1" r="103.758" fill="white"/>
<path fill-rule="evenodd" clip-rule="evenodd" d="M430 267.1C430 324.403 383.546 370.857 326.242 370.857C268.938 370.857 222.484 324.403 222.484 267.1C222.484 209.796 268.938 163.342 326.242 163.342C383.546 163.342 430 209.796 430 267.1ZM326.242 351.835C311.024 287.506 262.258 268.541 239.777 267.1H326.242V351.835ZM412.707 267.1C390.226 265.659 341.46 246.694 326.242 182.364V267.1H412.707Z" fill="url(#paint7_linear_565_116)"/>
<ellipse cx="87.1838" cy="638.5" rx="29.1838" ry="29.5" fill="#69C9FF"/>
<path d="M87.1831 662.592C82.9029 644.302 69.1864 638.91 62.8633 638.5H87.1831V662.592Z" fill="white"/>
<path d="M87.184 614.408C91.4643 632.698 105.181 638.09 111.504 638.5H87.184V614.408Z" fill="white"/>
<path d="M138.549 643.735V630.488H140.325V646.512H138.434L128.952 633.333V646.512H127.176V630.488H129.067L138.549 643.735Z" fill="#224059"/>
<path d="M148.054 634.699C149.469 634.699 150.584 635.063 151.399 635.791C152.214 636.505 152.622 637.461 152.622 638.659V646.512H150.914V644.327C150.561 645.101 150.038 645.716 149.346 646.171C148.654 646.611 147.885 646.831 147.039 646.831C145.762 646.831 144.793 646.52 144.132 645.898C143.486 645.26 143.163 644.487 143.163 643.576C143.163 641.619 144.555 640.427 147.339 640.002L149.738 639.661C150.215 639.6 150.53 639.494 150.684 639.342C150.838 639.175 150.914 638.933 150.914 638.614C150.914 637.901 150.653 637.316 150.13 636.861C149.623 636.406 148.907 636.178 147.985 636.178C147.108 636.178 146.416 636.391 145.908 636.816C145.416 637.225 145.132 637.794 145.055 638.523H143.325C143.432 637.294 143.917 636.353 144.778 635.7C145.655 635.033 146.747 634.699 148.054 634.699ZM147.316 645.397C148.392 645.397 149.261 645.003 149.922 644.213C150.584 643.424 150.914 642.4 150.914 641.141V640.571C150.653 640.723 150.253 640.829 149.715 640.89L147.754 641.186C145.847 641.49 144.893 642.248 144.893 643.462C144.893 644.054 145.109 644.525 145.539 644.874C145.985 645.223 146.577 645.397 147.316 645.397Z" fill="#224059"/>
<path d="M159.436 646.672C157.437 646.672 156.437 645.716 156.437 643.804V636.52H154.476V635.063H156.437V632.172H158.144V635.063H160.728V636.52H158.144V643.713C158.144 644.244 158.275 644.623 158.536 644.851C158.813 645.063 159.236 645.169 159.805 645.169C160.097 645.169 160.405 645.147 160.728 645.101V646.535C160.205 646.626 159.774 646.672 159.436 646.672Z" fill="#224059"/>
<path d="M164.062 633.151C163.708 633.151 163.401 633.03 163.139 632.787C162.893 632.544 162.77 632.248 162.77 631.899C162.77 631.55 162.893 631.254 163.139 631.011C163.401 630.768 163.708 630.647 164.062 630.647C164.4 630.647 164.692 630.776 164.938 631.034C165.185 631.277 165.308 631.565 165.308 631.899C165.308 632.248 165.185 632.544 164.938 632.787C164.692 633.03 164.4 633.151 164.062 633.151ZM164.892 646.512H163.162V635.063H164.892V646.512Z" fill="#224059"/>
<path d="M177.068 645.192C176.037 646.315 174.691 646.877 173.03 646.877C171.369 646.877 170.016 646.315 168.97 645.192C167.924 644.069 167.402 642.605 167.402 640.799C167.402 638.993 167.924 637.529 168.97 636.406C170.016 635.268 171.377 634.699 173.054 634.699C174.699 634.699 176.037 635.268 177.068 636.406C178.098 637.529 178.613 638.993 178.613 640.799C178.613 642.605 178.098 644.069 177.068 645.192ZM173.03 645.374C174.215 645.374 175.145 644.972 175.822 644.168C176.514 643.348 176.86 642.226 176.86 640.799C176.86 639.357 176.514 638.227 175.822 637.407C175.145 636.588 174.215 636.178 173.03 636.178C171.831 636.178 170.885 636.588 170.193 637.407C169.516 638.227 169.178 639.357 169.178 640.799C169.178 642.226 169.516 643.348 170.193 644.168C170.885 644.972 171.831 645.374 173.03 645.374Z" fill="#224059"/>
<path d="M186.472 634.699C187.78 634.699 188.802 635.108 189.541 635.928C190.279 636.747 190.648 637.87 190.648 639.297V646.512H188.918V639.57C188.918 637.309 187.972 636.178 186.08 636.178C185.05 636.178 184.212 636.558 183.566 637.316C182.935 638.075 182.62 639.084 182.62 640.344V646.512H180.913V635.063H182.62V636.679C183.497 635.359 184.781 634.699 186.472 634.699Z" fill="#224059"/>
<path d="M202.139 637.908C204.046 638.682 204.999 640.025 204.999 641.937C204.999 643.318 204.476 644.487 203.431 645.443C202.385 646.399 200.955 646.877 199.14 646.877C197.371 646.877 195.964 646.376 194.918 645.374C193.888 644.373 193.373 643.136 193.373 641.664H195.08C195.126 642.726 195.503 643.599 196.21 644.282C196.917 644.965 197.886 645.306 199.117 645.306C200.347 645.306 201.339 644.995 202.093 644.373C202.862 643.751 203.246 642.931 203.246 641.914C203.246 640.898 202.869 640.124 202.116 639.593C201.362 639.062 200.332 638.796 199.024 638.796H197.871V637.271H198.955C200.093 637.271 200.97 637.013 201.585 636.497C202.216 635.981 202.531 635.313 202.531 634.494C202.531 633.629 202.216 632.946 201.585 632.445C200.97 631.945 200.132 631.694 199.071 631.694C197.948 631.694 197.079 631.982 196.464 632.559C195.849 633.121 195.518 633.902 195.472 634.904H193.719C193.795 633.447 194.303 632.286 195.241 631.421C196.179 630.556 197.471 630.124 199.117 630.124C200.747 630.124 202.008 630.541 202.9 631.375C203.807 632.195 204.261 633.219 204.261 634.448C204.261 635.996 203.554 637.15 202.139 637.908Z" fill="#224059"/>
<rect x="506" y="537" width="89" height="28" rx="6" fill="url(#paint8_linear_565_116)"/>
<path d="M522.823 557.16C526.055 557.16 528.039 555.24 528.039 552.072V551.016H523.063V552.616H525.943C525.879 554.2 524.999 555.496 522.855 555.496C520.455 555.496 519.319 553.816 519.319 551.368V551.24C519.319 548.728 520.615 547.064 522.855 547.064C524.343 547.064 525.367 547.72 525.623 549.24H527.751C527.447 546.504 525.271 545.384 522.823 545.384C519.479 545.384 517.111 547.816 517.111 551.224V551.352C517.111 554.728 519.159 557.16 522.823 557.16ZM530.093 557H537.517V555.32H532.221V551.976H536.253V550.376H532.221V547.24H537.245V545.56H530.093V557ZM539.437 557H541.373V548.232L546.525 557H548.733V545.56H546.797V553.832L541.981 545.56H539.437V557ZM551.359 557H558.783V555.32H553.487V551.976H557.519V550.376H553.487V547.24H558.511V545.56H551.359V557ZM564.606 557.16C567.134 557.16 568.814 555.608 568.814 553.624C568.814 551.336 567.422 550.568 564.734 550.2C562.75 549.912 562.366 549.448 562.366 548.52C562.366 547.64 563.038 547.016 564.334 547.016C565.646 547.016 566.334 547.528 566.542 548.728H568.494C568.27 546.536 566.798 545.416 564.334 545.416C561.95 545.416 560.35 546.824 560.35 548.696C560.35 550.84 561.646 551.672 564.382 552.04C566.238 552.344 566.766 552.744 566.766 553.8C566.766 554.856 565.87 555.56 564.606 555.56C562.67 555.56 562.206 554.6 562.062 553.448H560.014C560.174 555.608 561.486 557.16 564.606 557.16ZM570.939 557H573.083V545.56H570.939V557ZM579.669 557.16C582.197 557.16 583.877 555.608 583.877 553.624C583.877 551.336 582.485 550.568 579.797 550.2C577.813 549.912 577.429 549.448 577.429 548.52C577.429 547.64 578.101 547.016 579.397 547.016C580.709 547.016 581.397 547.528 581.605 548.728H583.557C583.333 546.536 581.861 545.416 579.397 545.416C577.013 545.416 575.413 546.824 575.413 548.696C575.413 550.84 576.709 551.672 579.445 552.04C581.301 552.344 581.829 552.744 581.829 553.8C581.829 554.856 580.933 555.56 579.669 555.56C577.733 555.56 577.269 554.6 577.125 553.448H575.077C575.237 555.608 576.549 557.16 579.669 557.16Z" fill="white"/>
</g>
</g>
<defs>
<filter id="filter0_d_565_116" x="0" y="0" width="653" height="739" filterUnits="userSpaceOnUse" color-interpolation-filters="sRGB">
<feFlood flood-opacity="0" result="BackgroundImageFix"/>
<feColorMatrix in="SourceAlpha" type="matrix" values="0 0 0 0 0 0 0 0 0 0 0 0 0 0 0 0 0 0 127 0" result="hardAlpha"/>
<feOffset dy="14"/>
<feGaussianBlur stdDeviation="17"/>
<feComposite in2="hardAlpha" operator="out"/>
<feColorMatrix type="matrix" values="0 0 0 0 0.120069 0 0 0 0 0.177071 0 0 0 0 0.379167 0 0 0 0.25 0"/>
<feBlend mode="normal" in2="BackgroundImageFix" result="effect1_dropShadow_565_116"/>
<feBlend mode="normal" in="SourceGraphic" in2="effect1_dropShadow_565_116" result="shape"/>
</filter>
<linearGradient id="paint0_linear_565_116" x1="34.1426" y1="553.018" x2="221.873" y2="610.171" gradientUnits="userSpaceOnUse">
<stop stop-color="#69C9FF"/>
<stop offset="1" stop-color="#88F1BB"/>
</linearGradient>
<linearGradient id="paint1_linear_565_116" x1="618.859" y1="-20" x2="431.129" y2="-77.1532" gradientUnits="userSpaceOnUse">
<stop stop-color="#69C9FF"/>
<stop offset="1" stop-color="#88F1BB"/>
</linearGradient>
<linearGradient id="paint2_linear_565_116" x1="326.5" y1="261" x2="326.5" y2="511" gradientUnits="userSpaceOnUse">
<stop stop-color="#6FD1F4" stop-opacity="0"/>
<stop offset="1" stop-color="#6FD1F4"/>
</linearGradient>
<linearGradient id="paint3_linear_565_116" x1="117.893" y1="58.8938" x2="385.893" y2="-21.0651" gradientUnits="userSpaceOnUse">
<stop stop-color="#69C9FF"/>
<stop offset="1" stop-color="#88F1BB"/>
</linearGradient>
<linearGradient id="paint4_linear_565_116" x1="290.783" y1="7.83594" x2="539.79" y2="116.635" gradientUnits="userSpaceOnUse">
<stop stop-color="#69C9FF"/>
<stop offset="1" stop-color="#88F1BB"/>
</linearGradient>
<linearGradient id="paint5_linear_565_116" x1="540.465" y1="187.335" x2="489.646" y2="426.729" gradientUnits="userSpaceOnUse">
<stop stop-color="#69C9FF"/>
<stop offset="1" stop-color="#88F1BB"/>
</linearGradient>
<linearGradient id="paint6_linear_565_116" x1="239.252" y1="108.337" x2="380.795" y2="94.7682" gradientUnits="userSpaceOnUse">
<stop stop-color="#69C9FF"/>
<stop offset="1" stop-color="#88F1BB"/>
</linearGradient>
<linearGradient id="paint7_linear_565_116" x1="222.484" y1="163.342" x2="356.185" y2="123.452" gradientUnits="userSpaceOnUse">
<stop stop-color="#69C9FF"/>
<stop offset="1" stop-color="#88F1BB"/>
</linearGradient>
<linearGradient id="paint8_linear_565_116" x1="506" y1="537" x2="538.878" y2="505.821" gradientUnits="userSpaceOnUse">
<stop stop-color="#69C9FF"/>
<stop offset="1" stop-color="#88F1BB"/>
</linearGradient>
<clipPath id="clip0_565_116">
<rect x="34" y="20" width="585" height="671" rx="12" fill="white"/>
</clipPath>
</defs>
</svg>
