<svg width="1293" height="275" viewBox="0 0 1293 275" fill="none" xmlns="http://www.w3.org/2000/svg">
<path d="M44.5 223.5C49.06 223.5 53.3314 220.829 57.1482 216.165C60.968 211.498 64.3857 204.774 67.2464 196.51C72.9693 179.977 76.5 157.169 76.5 132C76.5 106.831 72.9693 84.0228 67.2464 67.4897C64.3857 59.2256 60.968 52.502 57.1482 47.8346C53.3314 43.1708 49.06 40.5 44.5 40.5C39.94 40.5 35.6686 43.1708 31.8518 47.8346C28.032 52.502 24.6143 59.2256 21.7536 67.4897C16.0307 84.0228 12.5 106.831 12.5 132C12.5 157.169 16.0307 179.977 21.7536 196.51C24.6143 204.774 28.032 211.498 31.8518 216.165C35.6686 220.829 39.94 223.5 44.5 223.5Z" stroke="url(#paint0_linear_47_182)"/>
<path d="M13.5 205.5C14.5756 205.5 15.5452 204.863 16.4026 203.838C17.2641 202.808 18.0723 201.32 18.829 199.451C20.3443 195.708 21.6983 190.322 22.8317 183.703C25.0998 170.457 26.5 152.178 26.5 132C26.5 111.822 25.0998 93.5427 22.8317 80.2968C21.6983 73.6779 20.3443 68.2919 18.829 64.5491C18.0723 62.68 17.2641 61.1917 16.4026 60.1622C15.5452 59.1375 14.5756 58.5 13.5 58.5C12.4244 58.5 11.4548 59.1375 10.5974 60.1622C9.73589 61.1917 8.92766 62.68 8.17098 64.5491C6.65573 68.2919 5.30171 73.6779 4.16834 80.2968C1.9002 93.5427 0.5 111.822 0.5 132C0.5 152.178 1.9002 170.457 4.16834 183.703C5.30171 190.322 6.65573 195.708 8.17098 199.451C8.92766 201.32 9.73589 202.808 10.5974 203.838C11.4548 204.863 12.4244 205.5 13.5 205.5Z" stroke="url(#paint1_linear_47_182)"/>
<path d="M135.019 236.82C149.444 232.964 159.188 217.608 163.417 196.196C167.654 174.748 166.402 147.053 158.685 118.184C150.968 89.3149 138.234 64.6895 123.861 48.2161C109.512 31.7701 93.4063 23.3242 78.9809 27.1803C64.5555 31.0363 54.8122 46.3917 50.5828 67.8039C46.3463 89.2518 47.5977 116.947 55.3146 145.816C63.0316 174.685 75.7658 199.31 90.1389 215.784C104.488 232.23 120.594 240.676 135.019 236.82Z" stroke="url(#paint2_linear_47_182)"/>
<path d="M234.207 213.944C245.485 204.158 247.514 186.085 241.934 164.985C236.344 143.849 223.084 119.503 203.498 96.934C183.912 74.365 161.675 57.8093 141.537 49.2993C121.432 40.8035 103.254 40.2686 91.9772 50.0555C80.6999 59.8425 78.67 77.9145 84.2505 99.015C89.8402 120.151 103.1 144.497 122.686 167.066C142.273 189.635 164.51 206.191 184.648 214.701C204.752 223.196 222.93 223.731 234.207 213.944Z" stroke="url(#paint3_linear_47_182)"/>
<path d="M338.071 182.072C344.962 168.826 340.207 151.272 327.262 133.7C314.296 116.098 293.016 98.3287 266.506 84.5379C239.995 70.747 213.23 63.5227 191.374 63.0097C169.554 62.4975 152.452 68.681 145.561 81.9277C138.67 95.1744 143.424 112.728 156.369 130.3C169.335 147.902 190.615 165.671 217.126 179.462C243.636 193.253 270.401 200.477 292.257 200.99C314.077 201.502 331.18 195.319 338.071 182.072Z" stroke="url(#paint4_linear_47_182)"/>
<path d="M421.712 135.569C422.203 120.645 410.331 106.869 391.065 96.6142C371.766 86.3424 344.897 79.5119 315.03 78.529C285.164 77.546 257.904 82.5951 237.972 91.5758C218.072 100.542 205.321 113.507 204.829 128.431C204.338 143.355 216.21 157.131 235.477 167.386C254.776 177.658 281.644 184.488 311.511 185.471C341.378 186.454 368.637 181.405 388.57 172.424C408.469 163.458 421.221 150.493 421.712 135.569Z" stroke="url(#paint5_linear_47_182)"/>
<path d="M506.174 93.3362C500.853 79.3846 484.576 71.2743 462.842 69.2723C441.072 67.2669 413.653 71.3634 385.732 82.0121C357.811 92.6608 334.628 107.863 319.722 123.856C304.841 139.823 298.098 156.712 303.419 170.664C308.74 184.615 325.017 192.726 346.751 194.728C368.521 196.733 395.94 192.637 423.861 181.988C451.782 171.339 474.966 156.137 489.871 140.144C504.752 124.177 511.495 107.288 506.174 93.3362Z" stroke="url(#paint6_linear_47_182)"/>
<path d="M563.084 59.9624C553.17 48.7966 535.077 46.9713 514.041 52.7901C492.97 58.6186 468.775 72.153 446.429 91.9935C424.083 111.834 407.78 134.257 399.498 154.49C391.23 174.689 390.901 192.872 400.815 204.038C410.729 215.203 428.823 217.029 449.859 211.21C470.93 205.381 495.124 191.847 517.47 172.006C539.816 152.166 556.12 129.743 564.401 109.51C572.669 89.311 572.998 71.1283 563.084 59.9624Z" stroke="url(#paint7_linear_47_182)"/>
<path d="M651.761 42.0813C633.915 30.2328 611.048 29.7009 588.548 38.3333C566.046 46.9662 543.868 64.7755 527.322 89.6976C510.775 114.62 502.968 141.971 503.745 166.059C504.521 190.146 513.886 211.014 531.731 222.863C549.577 234.711 572.444 235.243 594.944 226.611C617.446 217.978 639.623 200.169 656.17 175.246C672.717 150.324 680.524 122.973 679.747 98.8851C678.971 74.7983 669.606 53.9297 651.761 42.0813Z" stroke="url(#paint8_linear_47_182)"/>
<path d="M784.535 30.0582C736.976 18.0346 686.649 55.5196 671.986 113.518C657.323 171.517 683.789 228.416 731.348 240.439C778.907 252.463 829.234 214.978 843.897 156.979C858.559 98.9807 832.094 42.0817 784.535 30.0582Z" stroke="url(#paint9_linear_47_182)"/>
<path d="M964.489 25.2146C915.16 10.9187 860.772 49.6721 842.864 111.466C824.955 173.261 850.194 235.09 899.523 249.386C948.852 263.682 1003.24 224.929 1021.15 163.134C1039.06 101.34 1013.82 39.5104 964.489 25.2146Z" stroke="url(#paint10_linear_47_182)"/>
<circle cx="1172.5" cy="131.5" r="120" stroke="url(#paint11_linear_47_182)"/>
<path d="M1173.5 218L1172.51 218.115C1157.61 155.355 1109.89 136.899 1087.97 135.499L1088 134.5H1173H1173.5V135V218Z" stroke="url(#paint12_linear_47_182)"/>
<path d="M899.035 229.079L898.048 228.939C901.808 165.341 873.522 140.145 859.151 135.476L859.416 134.512L916.963 147.525L917.451 147.635L917.34 148.123L899.035 229.079Z" stroke="url(#paint13_linear_47_182)"/>
<path d="M679.035 253.079L678.048 252.939C681.808 189.341 653.522 164.145 639.151 159.476L639.416 158.512L696.963 171.525L697.451 171.635L697.34 172.123L679.035 253.079Z" stroke="url(#paint14_linear_47_182)"/>
<path d="M1173.5 52L1174.49 51.8845C1189.21 113.886 1236.37 132.118 1258.03 133.501L1258 134.5H1174H1173.5V134V52Z" stroke="url(#paint15_linear_47_182)"/>
<path d="M959.597 50.8897L960.584 51.0299C956.82 113.85 984.606 138.703 998.726 143.297L998.461 144.26L941.89 131.469L941.402 131.358L941.512 130.871L959.597 50.8897Z" stroke="url(#paint16_linear_47_182)"/>
<path d="M828.597 15.8897L829.584 16.0299C825.82 78.8501 853.607 103.703 867.727 108.297L867.462 109.26L810.89 96.4685L810.402 96.3582L810.512 95.8705L828.597 15.8897Z" stroke="url(#paint17_linear_47_182)"/>
<path d="M678.439 23.748L679.317 24.2269C664.309 53.7024 656.984 74.1452 653.918 87.7118C652.385 94.4959 651.92 99.5443 652.085 103.134C652.25 106.753 653.051 108.793 653.935 109.679L653.329 110.464L634.748 99.6231L634.316 99.3711L634.568 98.9392L678.439 23.748Z" stroke="url(#paint18_linear_47_182)"/>
<path d="M497.979 234.208L497.103 233.726C512.2 204.297 519.587 183.876 522.695 170.319C524.249 163.54 524.729 158.493 524.575 154.903C524.421 151.283 523.627 149.241 522.745 148.352L523.354 147.569L541.901 158.467L542.332 158.72L542.079 159.151L497.979 234.208Z" stroke="url(#paint19_linear_47_182)"/>
<defs>
<linearGradient id="paint0_linear_47_182" x1="13" y1="41" x2="56.7372" y2="36.483" gradientUnits="userSpaceOnUse">
<stop stop-color="#69C9FF"/>
<stop offset="1" stop-color="#88F1BB"/>
</linearGradient>
<linearGradient id="paint1_linear_47_182" x1="1" y1="59" x2="18.4955" y2="58.1062" gradientUnits="userSpaceOnUse">
<stop stop-color="#69C9FF"/>
<stop offset="1" stop-color="#88F1BB"/>
</linearGradient>
<linearGradient id="paint2_linear_47_182" x1="27.9077" y1="41.35" x2="95.4983" y2="12.2473" gradientUnits="userSpaceOnUse">
<stop stop-color="#69C9FF"/>
<stop offset="1" stop-color="#88F1BB"/>
</linearGradient>
<linearGradient id="paint3_linear_47_182" x1="52.2767" y1="85.1714" x2="100.281" y2="29.395" gradientUnits="userSpaceOnUse">
<stop stop-color="#69C9FF"/>
<stop offset="1" stop-color="#88F1BB"/>
</linearGradient>
<linearGradient id="paint4_linear_47_182" x1="121.545" y1="129.177" x2="145.69" y2="59.6611" gradientUnits="userSpaceOnUse">
<stop stop-color="#69C9FF"/>
<stop offset="1" stop-color="#88F1BB"/>
</linearGradient>
<linearGradient id="paint5_linear_47_182" x1="203.586" y1="181.419" x2="195.326" y2="108.294" gradientUnits="userSpaceOnUse">
<stop stop-color="#69C9FF"/>
<stop offset="1" stop-color="#88F1BB"/>
</linearGradient>
<linearGradient id="paint6_linear_47_182" x1="322.773" y1="220.006" x2="286.865" y2="155.772" gradientUnits="userSpaceOnUse">
<stop stop-color="#69C9FF"/>
<stop offset="1" stop-color="#88F1BB"/>
</linearGradient>
<linearGradient id="paint7_linear_47_182" x1="436.378" y1="243.338" x2="380.062" y2="195.968" gradientUnits="userSpaceOnUse">
<stop stop-color="#69C9FF"/>
<stop offset="1" stop-color="#88F1BB"/>
</linearGradient>
<linearGradient id="paint8_linear_47_182" x1="596.016" y1="264.944" x2="497.954" y2="226.121" gradientUnits="userSpaceOnUse">
<stop stop-color="#69C9FF"/>
<stop offset="1" stop-color="#88F1BB"/>
</linearGradient>
<linearGradient id="paint9_linear_47_182" x1="816.941" y1="261.562" x2="696.745" y2="260.513" gradientUnits="userSpaceOnUse">
<stop stop-color="#69C9FF"/>
<stop offset="1" stop-color="#88F1BB"/>
</linearGradient>
<linearGradient id="paint10_linear_47_182" x1="988.323" y1="274.601" x2="862.431" y2="268.382" gradientUnits="userSpaceOnUse">
<stop stop-color="#69C9FF"/>
<stop offset="1" stop-color="#88F1BB"/>
</linearGradient>
<linearGradient id="paint11_linear_47_182" x1="1053" y1="12" x2="1206.99" y2="-33.9425" gradientUnits="userSpaceOnUse">
<stop stop-color="#69C9FF"/>
<stop offset="1" stop-color="#88F1BB"/>
</linearGradient>
<linearGradient id="paint12_linear_47_182" x1="1088" y1="218" x2="1142.55" y2="234.667" gradientUnits="userSpaceOnUse">
<stop stop-color="#69C9FF"/>
<stop offset="1" stop-color="#88F1BB"/>
</linearGradient>
<linearGradient id="paint13_linear_47_182" x1="841" y1="215.956" x2="877.787" y2="232.888" gradientUnits="userSpaceOnUse">
<stop stop-color="#69C9FF"/>
<stop offset="1" stop-color="#88F1BB"/>
</linearGradient>
<linearGradient id="paint14_linear_47_182" x1="621" y1="239.956" x2="657.787" y2="256.888" gradientUnits="userSpaceOnUse">
<stop stop-color="#69C9FF"/>
<stop offset="1" stop-color="#88F1BB"/>
</linearGradient>
<linearGradient id="paint15_linear_47_182" x1="1258" y1="52" x2="1204.1" y2="35.5255" gradientUnits="userSpaceOnUse">
<stop stop-color="#69C9FF"/>
<stop offset="1" stop-color="#88F1BB"/>
</linearGradient>
<linearGradient id="paint16_linear_47_182" x1="1016.66" y1="63.7918" x2="980.469" y2="47.1798" gradientUnits="userSpaceOnUse">
<stop stop-color="#69C9FF"/>
<stop offset="1" stop-color="#88F1BB"/>
</linearGradient>
<linearGradient id="paint17_linear_47_182" x1="885.657" y1="28.7918" x2="849.469" y2="12.1798" gradientUnits="userSpaceOnUse">
<stop stop-color="#69C9FF"/>
<stop offset="1" stop-color="#88F1BB"/>
</linearGradient>
<linearGradient id="paint18_linear_47_182" x1="697.452" y1="34.841" x2="685.043" y2="26.3196" gradientUnits="userSpaceOnUse">
<stop stop-color="#69C9FF"/>
<stop offset="1" stop-color="#88F1BB"/>
</linearGradient>
<linearGradient id="paint19_linear_47_182" x1="479" y1="223.057" x2="491.383" y2="231.616" gradientUnits="userSpaceOnUse">
<stop stop-color="#69C9FF"/>
<stop offset="1" stop-color="#88F1BB"/>
</linearGradient>
</defs>
</svg>
