<svg width="56" height="56" viewBox="0 0 56 56" fill="none" xmlns="http://www.w3.org/2000/svg">
<rect width="56" height="56" rx="16" fill="url(#paint0_linear_618_1288)"/>
<path d="M22.5687 17.104L21 24.7985L35.7556 24.7987L34.1863 17.1042L30.6168 16.5502L28.3777 21.2413L26.1381 16.55L22.5687 17.104Z" fill="url(#paint1_linear_618_1288)"/>
<path d="M25.4773 12.0786C25.4773 13.7786 26.7759 15.157 28.3776 15.157C29.9794 15.157 31.2779 13.7786 31.2779 12.0786C31.2779 10.3784 29.9794 9 28.3776 9C26.7758 9 25.4773 10.3784 25.4773 12.0786Z" fill="url(#paint2_linear_618_1288)"/>
<path d="M12.5687 36.104L11 43.7985L25.7556 43.7987L24.1863 36.1042L20.6168 35.5502L18.3777 40.2413L16.1381 35.55L12.5687 36.104Z" fill="url(#paint3_linear_618_1288)"/>
<path d="M15.4773 31.0786C15.4773 32.7786 16.7759 34.157 18.3776 34.157C19.9794 34.157 21.2779 32.7786 21.2779 31.0786C21.2779 29.3784 19.9794 28 18.3776 28C16.7758 28 15.4773 29.3784 15.4773 31.0786Z" fill="url(#paint4_linear_618_1288)"/>
<path d="M31.5687 36.104L30 43.7985L44.7556 43.7987L43.1863 36.1042L39.6168 35.5502L37.3777 40.2413L35.1381 35.55L31.5687 36.104Z" fill="url(#paint5_linear_618_1288)"/>
<path d="M34.4773 31.0786C34.4773 32.7786 35.7759 34.157 37.3776 34.157C38.9794 34.157 40.2779 32.7786 40.2779 31.0786C40.2779 29.3784 38.9794 28 37.3776 28C35.7758 28 34.4773 29.3784 34.4773 31.0786Z" fill="url(#paint6_linear_618_1288)"/>
<defs>
<linearGradient id="paint0_linear_618_1288" x1="0" y1="0" x2="36.0804" y2="-10.7648" gradientUnits="userSpaceOnUse">
<stop stop-color="#E9F8FF"/>
<stop offset="1" stop-color="#EAFFF5"/>
</linearGradient>
<linearGradient id="paint1_linear_618_1288" x1="21" y1="9" x2="30.6072" y2="6.3229" gradientUnits="userSpaceOnUse">
<stop stop-color="#69C9FF"/>
<stop offset="1" stop-color="#88F1BB"/>
</linearGradient>
<linearGradient id="paint2_linear_618_1288" x1="21" y1="9" x2="30.6072" y2="6.3229" gradientUnits="userSpaceOnUse">
<stop stop-color="#69C9FF"/>
<stop offset="1" stop-color="#88F1BB"/>
</linearGradient>
<linearGradient id="paint3_linear_618_1288" x1="11" y1="28" x2="20.6072" y2="25.3229" gradientUnits="userSpaceOnUse">
<stop stop-color="#69C9FF"/>
<stop offset="1" stop-color="#88F1BB"/>
</linearGradient>
<linearGradient id="paint4_linear_618_1288" x1="11" y1="28" x2="20.6072" y2="25.3229" gradientUnits="userSpaceOnUse">
<stop stop-color="#69C9FF"/>
<stop offset="1" stop-color="#88F1BB"/>
</linearGradient>
<linearGradient id="paint5_linear_618_1288" x1="30" y1="28" x2="39.6072" y2="25.3229" gradientUnits="userSpaceOnUse">
<stop stop-color="#69C9FF"/>
<stop offset="1" stop-color="#88F1BB"/>
</linearGradient>
<linearGradient id="paint6_linear_618_1288" x1="30" y1="28" x2="39.6072" y2="25.3229" gradientUnits="userSpaceOnUse">
<stop stop-color="#69C9FF"/>
<stop offset="1" stop-color="#88F1BB"/>
</linearGradient>
</defs>
</svg>
