<svg width="56" height="56" viewBox="0 0 56 56" fill="none" xmlns="http://www.w3.org/2000/svg">
<g clip-path="url(#clip0_619_1420)">
<rect width="37" height="37" rx="18.5" fill="url(#paint0_linear_619_1420)"/>
<path d="M18 32C15.536 21.386 7.64 18.2569 4 18.0191H18V32Z" fill="white"/>
<path d="M18 4C20.464 14.614 28.36 17.7431 32 17.9809H18V4Z" fill="white"/>
<rect x="23" y="23" width="33" height="33" rx="7.13514" fill="url(#paint1_linear_619_1420)"/>
<path d="M39.9455 34.2096C40.7334 34.821 41.3703 35.6017 41.808 36.4925C42.2457 37.3833 42.4727 38.3609 42.4718 39.3512C42.4724 40.3412 42.2452 41.3184 41.8076 42.2088C41.3699 43.0992 40.7332 43.8796 39.9455 44.4909C39.1577 43.8795 38.5209 43.099 38.0832 42.2084C37.6456 41.3177 37.4185 40.3404 37.4192 39.3502C37.4185 38.3601 37.6456 37.3827 38.0832 36.4921C38.5209 35.6015 39.1577 34.8209 39.9455 34.2096ZM39.0989 33.6496C38.2649 34.3535 37.5954 35.228 37.1367 36.2127C36.678 37.1975 36.441 38.269 36.4422 39.3531C36.4411 40.4368 36.6779 41.5078 37.1362 42.4922C37.5945 43.4765 38.2635 44.3508 39.0969 45.0547C38.0901 45.6135 36.9529 45.902 35.7983 45.8916C34.6438 45.8812 33.5121 45.5722 32.5157 44.9953C31.5194 44.4185 30.6931 43.5939 30.119 42.6034C29.5449 41.613 29.243 40.4912 29.2433 39.3497C29.2436 38.2081 29.5461 37.0865 30.1207 36.0964C30.6953 35.1062 31.522 34.282 32.5186 33.7056C33.5153 33.1293 34.6471 32.8209 35.8017 32.811C36.9563 32.8012 38.0923 33.0903 39.0989 33.6496ZM40.7941 45.0547C41.6275 44.3508 42.2965 43.4765 42.7548 42.4922C43.2131 41.5078 43.4499 40.4368 43.4488 39.3531C43.45 38.269 43.213 37.1975 42.7543 36.2127C42.2956 35.228 41.6262 34.3535 40.7921 33.6496C41.7987 33.0903 42.9357 32.8012 44.0903 32.811C45.2449 32.8209 46.3767 33.1293 47.3734 33.7056C48.37 34.282 49.1967 35.1062 49.7713 36.0964C50.3459 37.0865 50.6484 38.2081 50.6487 39.3497C50.649 40.4912 50.3471 41.613 49.773 42.6034C49.1989 43.5939 48.3726 44.4185 47.3763 44.9953C46.3799 45.5722 45.2482 45.8812 44.0936 45.8916C42.9391 45.902 41.8019 45.6135 40.795 45.0547H40.7941Z" fill="#88F1BB"/>
</g>
<defs>
<linearGradient id="paint0_linear_619_1420" x1="0" y1="0" x2="23.8388" y2="-7.11243" gradientUnits="userSpaceOnUse">
<stop stop-color="#69C9FF"/>
<stop offset="1" stop-color="#88F1BB"/>
</linearGradient>
<linearGradient id="paint1_linear_619_1420" x1="23" y1="23" x2="44.2617" y2="16.6565" gradientUnits="userSpaceOnUse">
<stop stop-color="#E9F8FF"/>
<stop offset="1" stop-color="#EAFFF5"/>
</linearGradient>
<clipPath id="clip0_619_1420">
<rect width="56" height="56" fill="white"/>
</clipPath>
</defs>
</svg>
