<svg width="56" height="56" viewBox="0 0 56 56" fill="none" xmlns="http://www.w3.org/2000/svg">
<rect width="56" height="56" rx="16" fill="url(#paint0_linear_412_1426)"/>
<path fill-rule="evenodd" clip-rule="evenodd" d="M42.3737 12.4472L43.9432 13.9633C45.9407 15.847 45.9408 18.9709 43.9907 20.9469L39.7103 25.0815C38.7117 26.0461 37.38 26.5057 36.0958 26.5057C34.9542 26.5057 33.8129 26.1381 32.9092 25.4491L29.3421 28.8947V24.3464L30.5786 23.1514C28.9141 21.2219 29.0568 18.3736 30.9117 16.5818L35.192 12.4472C37.1418 10.5176 40.3761 10.5176 42.3737 12.4472ZM37.3325 22.7841L41.6129 18.6495L41.6129 18.6494C42.2788 17.9604 42.2788 16.9035 41.5655 16.3064L39.996 14.7903C39.6632 14.4686 39.1874 14.285 38.7595 14.285C38.3315 14.285 37.8561 14.4686 37.523 14.7903L33.2426 18.925C32.9095 19.2464 32.7194 19.6598 32.7194 20.1194C32.7194 20.395 32.7669 20.6706 32.9095 20.9004C33.5754 20.395 34.5265 20.395 35.1449 20.9923C35.7633 21.5439 35.8108 22.4627 35.2876 23.1058C35.9534 23.4273 36.7619 23.3353 37.3325 22.7841ZM26.4421 27.1052V31.7551L25.5368 32.6476C27.1567 34.6203 27.0138 37.4853 25.1556 39.3171L20.8677 43.544C19.8673 44.5301 18.5808 44.9999 17.2467 44.9999C15.9127 44.9999 14.6265 44.5305 13.6258 43.544L12.0535 41.9941C10.0524 40.0686 10.0524 36.8746 12.0535 34.902L16.3414 30.675C18.1995 28.8429 21.1534 28.7493 23.1545 30.3461L26.4421 27.1052ZM18.4854 41.2896L22.7733 37.0626C23.3453 36.4519 23.4408 35.6066 23.0589 34.9491C22.8685 34.9963 22.6777 35.0431 22.4873 35.0431C22.0585 35.0431 21.6298 34.9022 21.2961 34.5733C20.8195 34.1038 20.6766 33.4463 20.9149 32.8356C20.6291 32.6478 20.2958 32.5538 19.9621 32.5538C19.5333 32.5538 19.0571 32.7415 18.7234 33.0705L14.4355 37.2974C14.1018 37.6261 13.9114 38.0487 13.9114 38.5185C13.9114 38.988 14.1018 39.4107 14.4355 39.7396L16.0078 41.2896C16.6748 41.9471 17.8184 41.9471 18.4854 41.2896ZM20.0826 24.4211L19.5 28L24.8684 25.7755L20.0826 24.4211ZM23.0789 20.0547L26.6579 19.0527L26.4694 25.3158L23.0789 20.0547ZM31.1906 37.8422L34.7105 34.4466L28.4474 32.4737L31.1906 37.8422ZM34.7105 29.7895L34.4719 32.4737L31.1316 31.2311L34.7105 29.7895Z" fill="url(#paint1_linear_412_1426)"/>
<defs>
<linearGradient id="paint0_linear_412_1426" x1="0" y1="0" x2="36.0804" y2="-10.7648" gradientUnits="userSpaceOnUse">
<stop stop-color="#E9F8FF"/>
<stop offset="1" stop-color="#EAFFF5"/>
</linearGradient>
<linearGradient id="paint1_linear_412_1426" x1="10.5526" y1="11" x2="32.9375" y2="4.14561" gradientUnits="userSpaceOnUse">
<stop stop-color="#69C9FF"/>
<stop offset="1" stop-color="#88F1BB"/>
</linearGradient>
</defs>
</svg>
