<svg width="56" height="56" viewBox="0 0 56 56" fill="none" xmlns="http://www.w3.org/2000/svg">
<rect width="56" height="56" rx="16" fill="url(#paint0_linear_345_2029)"/>
<g clip-path="url(#clip0_345_2029)">
<path d="M13 29.5182H21.2564C21.5143 34.3262 23.036 38.9788 25.6657 43C22.3718 42.4789 19.3422 40.8732 17.0506 38.4339C14.759 35.9947 13.3345 32.8594 13 29.5182ZM13 26.4818C13.3345 23.1406 14.759 20.0053 17.0506 17.5661C19.3422 15.1268 22.3718 13.5211 25.6657 13C23.036 17.0212 21.5143 21.6738 21.2564 26.4818H13ZM42.9985 26.4818H34.7421C34.4842 21.6738 32.9625 17.0212 30.3328 13C33.6267 13.5211 36.6563 15.1268 38.9479 17.5661C41.2395 20.0053 42.664 23.1406 42.9985 26.4818ZM42.9985 29.5182C42.664 32.8594 41.2395 35.9947 38.9479 38.4339C36.6563 40.8732 33.6267 42.4789 30.3328 43C32.9625 38.9788 34.4842 34.3262 34.7421 29.5182H42.9985ZM24.2758 29.5182H31.7227C31.4746 33.6166 30.1931 37.5837 27.9992 41.0445C25.8054 37.5837 24.5239 33.6166 24.2758 29.5182ZM24.2758 26.4818C24.5239 22.3834 25.8054 18.4163 27.9992 14.9555C30.1931 18.4163 31.4746 22.3834 31.7227 26.4818H24.2758Z" fill="url(#paint1_linear_345_2029)"/>
</g>
<defs>
<linearGradient id="paint0_linear_345_2029" x1="0" y1="0" x2="36.0804" y2="-10.7648" gradientUnits="userSpaceOnUse">
<stop stop-color="#E9F8FF"/>
<stop offset="1" stop-color="#EAFFF5"/>
</linearGradient>
<linearGradient id="paint1_linear_345_2029" x1="13" y1="13" x2="32.3288" y2="7.23316" gradientUnits="userSpaceOnUse">
<stop stop-color="#69C9FF"/>
<stop offset="1" stop-color="#88F1BB"/>
</linearGradient>
<clipPath id="clip0_345_2029">
<rect width="40" height="40" fill="white" transform="translate(8 8)"/>
</clipPath>
</defs>
</svg>
