<svg width="56" height="56" viewBox="0 0 56 56" fill="none" xmlns="http://www.w3.org/2000/svg">
<rect width="56" height="56" rx="16" fill="url(#paint0_linear_345_1615)"/>
<path d="M32.9173 9.85519L27.9941 9L17.8697 12.9124L13 23.7505L13.2785 47L43 46.3533L42.1422 19.0558L32.9178 9.85569L32.9173 9.85519ZM21.0207 30.9887L17.3698 25.1461L26.8588 27.3351L21.0207 30.9887ZM29.8046 43.1905H26.2838L22.9185 40.6104L26.1833 36.4792H29.7036L33.0689 39.0593L29.804 43.1905H29.8046ZM34.9674 30.9887L29.1292 27.3351L38.6182 25.1461L34.9674 30.9887Z" fill="url(#paint1_linear_345_1615)"/>
<defs>
<linearGradient id="paint0_linear_345_1615" x1="0" y1="0" x2="36.0804" y2="-10.7648" gradientUnits="userSpaceOnUse">
<stop stop-color="#E9F8FF"/>
<stop offset="1" stop-color="#EAFFF5"/>
</linearGradient>
<linearGradient id="paint1_linear_345_1615" x1="13" y1="9" x2="32.9429" y2="4.30258" gradientUnits="userSpaceOnUse">
<stop stop-color="#69C9FF"/>
<stop offset="1" stop-color="#88F1BB"/>
</linearGradient>
</defs>
</svg>
