<svg width="56" height="56" viewBox="0 0 56 56" fill="none" xmlns="http://www.w3.org/2000/svg">
<rect width="56" height="56" rx="16" fill="url(#paint0_linear_412_1618)"/>
<path d="M42.7633 28.372L39.4234 23.4751C39.2378 23.1891 39.1635 22.8674 39.1264 22.5099C38.5326 16.0758 32.9288 11 26.1003 11C18.8636 11 13 16.6477 13 23.618C13 27.7644 15.0782 31.8036 18.2698 34.4487C18.641 34.7703 18.9007 35.1995 18.9007 35.6999V42.9204C18.9007 43.4923 19.3459 43.9568 19.9398 44.0284L31.1846 44.9936C31.8524 45.0651 32.4092 44.5288 32.4092 43.8855V38.738C32.4092 38.4163 32.7062 38.1303 33.0401 38.1303H36.9738C38.1985 38.1303 39.1634 37.201 39.1634 36.0214V30.9456C39.1634 30.7312 39.349 30.5168 39.6086 30.5168H41.5385C42.6891 30.5524 43.394 29.3013 42.7632 28.372L42.7633 28.372ZM20.0511 26.0128C18.8634 26.0128 17.8986 25.0835 17.8986 23.9396C17.8986 22.7957 18.8634 21.8664 20.0511 21.8664C21.2387 21.8664 22.2035 22.7957 22.2035 23.9396C22.2035 25.0835 21.2385 26.0128 20.0511 26.0128ZM26.2116 26.0128C25.0239 26.0128 24.0592 25.0835 24.0592 23.9396C24.0592 22.7957 25.024 21.8664 26.2116 21.8664C27.3993 21.8664 28.3641 22.7957 28.3641 23.9396C28.3641 25.0835 27.3991 26.0128 26.2116 26.0128ZM32.3719 26.0128C31.1842 26.0128 30.2195 25.0835 30.2195 23.9396C30.2195 22.7957 31.1843 21.8664 32.3719 21.8664C33.5596 21.8664 34.5244 22.7957 34.5244 23.9396C34.5244 25.0835 33.5596 26.0128 32.3719 26.0128Z" fill="url(#paint1_linear_412_1618)"/>
<defs>
<linearGradient id="paint0_linear_412_1618" x1="0" y1="0" x2="36.0804" y2="-10.7648" gradientUnits="userSpaceOnUse">
<stop stop-color="#E9F8FF"/>
<stop offset="1" stop-color="#EAFFF5"/>
</linearGradient>
<linearGradient id="paint1_linear_412_1618" x1="13" y1="11" x2="32.6851" y2="5.81781" gradientUnits="userSpaceOnUse">
<stop stop-color="#69C9FF"/>
<stop offset="1" stop-color="#88F1BB"/>
</linearGradient>
</defs>
</svg>
