<svg width="56" height="56" viewBox="0 0 56 56" fill="none" xmlns="http://www.w3.org/2000/svg">
<rect width="56" height="56" rx="16" fill="url(#paint0_linear_345_1626)"/>
<path d="M41.2527 34.8076L48.4992 30.2615L49.4149 33.0423L42.9413 38.4502L43.0754 44.9999H12.9229L13.0586 38.4502L6.58508 33.0423L7.50081 30.2611L14.7473 34.8072L14.7608 34.7914L19.0585 33.4392L20.832 34.4057L21.2645 28.2972L13.446 14.7724L16.2788 11L17.5842 11.9523L24.7846 23.1268L32.9468 24.7393L34.7482 34.8243L36.9415 33.4396L41.2392 34.7917L41.2527 34.8076Z" fill="url(#paint1_linear_345_1626)"/>
<path d="M22.6675 16.2588L27.7811 11.1437L32.8962 16.2572L27.7827 21.3723L22.6675 16.2588Z" fill="url(#paint2_linear_345_1626)"/>
<path d="M36.4406 28.9553L39.8711 25.5248L43.3016 28.9553L39.8711 32.3857L36.4406 28.9553Z" fill="url(#paint3_linear_345_1626)"/>
<path d="M12.6993 28.9553L16.1298 25.5248L19.5603 28.9553L16.1298 32.3857L12.6993 28.9553Z" fill="url(#paint4_linear_345_1626)"/>
<defs>
<linearGradient id="paint0_linear_345_1626" x1="0" y1="0" x2="36.0804" y2="-10.7648" gradientUnits="userSpaceOnUse">
<stop stop-color="#E9F8FF"/>
<stop offset="1" stop-color="#EAFFF5"/>
</linearGradient>
<linearGradient id="paint1_linear_345_1626" x1="6.58508" y1="11" x2="32.9169" y2="1.10349" gradientUnits="userSpaceOnUse">
<stop stop-color="#69C9FF"/>
<stop offset="1" stop-color="#88F1BB"/>
</linearGradient>
<linearGradient id="paint2_linear_345_1626" x1="22.6675" y1="11.1437" x2="29.2578" y2="9.17745" gradientUnits="userSpaceOnUse">
<stop stop-color="#69C9FF"/>
<stop offset="1" stop-color="#88F1BB"/>
</linearGradient>
<linearGradient id="paint3_linear_345_1626" x1="36.4406" y1="25.5248" x2="40.8611" y2="24.2059" gradientUnits="userSpaceOnUse">
<stop stop-color="#69C9FF"/>
<stop offset="1" stop-color="#88F1BB"/>
</linearGradient>
<linearGradient id="paint4_linear_345_1626" x1="12.6993" y1="25.5248" x2="17.1198" y2="24.2059" gradientUnits="userSpaceOnUse">
<stop stop-color="#69C9FF"/>
<stop offset="1" stop-color="#88F1BB"/>
</linearGradient>
</defs>
</svg>
