<svg width="607" height="188" viewBox="0 0 607 188" fill="none" xmlns="http://www.w3.org/2000/svg">
<path d="M264.106 68.376V104.804L235.896 68.376H221.5V119.478H233.133V82.3196L261.925 119.478H275.666V68.376H264.106Z" fill="white"/>
<path d="M333.54 119.478H345.755L321.398 68.376H308.892L284.536 119.478H296.75L301.622 109.112H328.669L333.54 119.478ZM306.13 99.6212L315.145 80.4215L324.161 99.6212H306.13Z" fill="white"/>
<path d="M389.467 68.376H338.5V78.3044H358.131V119.478H369.764V78.3044H389.467V68.376Z" fill="white"/>
<path d="M398.301 119.478H409.861V68.376H398.301V119.478Z" fill="white"/>
<path d="M447.653 120.354C465.467 120.354 476.518 109.55 476.518 94.073C476.518 78.5234 465.394 67.5 447.653 67.5C429.913 67.5 418.716 78.5234 418.716 94.073C418.716 109.623 429.913 120.354 447.653 120.354ZM447.581 110.207C436.893 110.207 430.567 103.417 430.567 94.073C430.567 84.6556 437.038 77.6474 447.581 77.6474C458.196 77.6474 464.667 84.6556 464.667 94.073C464.667 103.49 458.341 110.207 447.581 110.207Z" fill="white"/>
<path d="M527.522 68.376V104.804L499.311 68.376H484.915V119.478H496.548V82.3196L525.34 119.478H539.082V68.376H527.522Z" fill="white"/>
<path d="M588.396 87.7948L604.101 78.5234V68.376H556.623V78.5234H589.05L572.401 89.2548L573.491 96.1901C575.454 95.7521 579.38 95.168 583.161 95.168C590.432 95.168 594.431 97.4311 594.431 102.541C594.431 107.871 589.85 110.353 583.088 110.353C575.454 110.353 566.729 107.213 559.168 101.081L554.733 111.083C561.567 116.266 572.837 120.5 583.816 120.5C596.103 120.5 606.5 115.171 606.5 102.687C606.5 92.6129 599.084 88.1598 588.396 87.7948Z" fill="white"/>
<path fill-rule="evenodd" clip-rule="evenodd" d="M188 94C188 145.915 145.915 188 94 188C42.0852 188 0 145.915 0 94C0 42.0852 42.0852 0 94 0C145.915 0 188 42.0852 188 94ZM93.9999 170.767C80.2132 112.487 36.0332 95.3055 15.6665 93.9999H93.9999V170.767ZM172.333 94.0004C151.967 92.6948 107.787 75.5137 93.9999 17.2337V94.0004H172.333Z" fill="white"/>
</svg>
