<svg width="56" height="56" viewBox="0 0 56 56" fill="none" xmlns="http://www.w3.org/2000/svg">
<rect width="56" height="56" rx="16" fill="url(#paint0_linear_482_1300)"/>
<path fill-rule="evenodd" clip-rule="evenodd" d="M28 10C18.055 10 10 18.2587 10 28.4553C10 36.6218 15.1525 43.5194 22.3075 45.9647C23.2075 46.1262 23.545 45.5726 23.545 45.0881C23.545 44.6498 23.5225 43.1964 23.5225 41.6508C19 42.5044 17.83 40.5204 17.47 39.4823C17.2675 38.9517 16.39 37.3138 15.625 36.8755C14.995 36.5295 14.095 35.6759 15.6025 35.6528C17.02 35.6298 18.0325 36.9909 18.37 37.5445C19.99 40.3359 22.5775 39.5515 23.6125 39.0671C23.77 37.8675 24.2425 37.0601 24.76 36.5987C20.755 36.1373 16.57 34.5455 16.57 27.4864C16.57 25.4794 17.2675 23.8184 18.415 22.5265C18.235 22.0651 17.605 20.1735 18.595 17.6359C18.595 17.6359 20.1025 17.1514 23.545 19.5275C24.985 19.1123 26.515 18.9047 28.045 18.9047C29.575 18.9047 31.105 19.1123 32.545 19.5275C35.9875 17.1284 37.495 17.6359 37.495 17.6359C38.485 20.1735 37.855 22.0651 37.675 22.5265C38.8225 23.8184 39.52 25.4563 39.52 27.4864C39.52 34.5686 35.3125 36.1373 31.3075 36.5987C31.96 37.1754 32.5225 38.2827 32.5225 40.0129C32.5225 42.4813 32.5 44.4653 32.5 45.0881C32.5 45.5726 32.8375 46.1493 33.7375 45.9647C40.8475 43.5194 46 36.5987 46 28.4553C46 18.2587 37.945 10 28 10Z" fill="url(#paint1_linear_482_1300)"/>
<defs>
<linearGradient id="paint0_linear_482_1300" x1="0" y1="0" x2="36.0804" y2="-10.7648" gradientUnits="userSpaceOnUse">
<stop stop-color="#E9F8FF"/>
<stop offset="1" stop-color="#EAFFF5"/>
</linearGradient>
<linearGradient id="paint1_linear_482_1300" x1="10" y1="10" x2="33.1946" y2="3.07979" gradientUnits="userSpaceOnUse">
<stop stop-color="#69C9FF"/>
<stop offset="1" stop-color="#88F1BB"/>
</linearGradient>
</defs>
</svg>
