<svg width="56" height="56" viewBox="0 0 56 56" fill="none" xmlns="http://www.w3.org/2000/svg">
<rect width="56" height="56" rx="16" fill="url(#paint0_linear_205_3035)"/>
<g clip-path="url(#clip0_205_3035)">
<path d="M16 29.2146H22.6051C22.8115 33.061 24.0288 36.7831 26.1326 40C23.4974 39.5831 21.0737 38.2986 19.2405 36.3472C17.4072 34.3957 16.2676 31.8875 16 29.2146ZM16 26.7854C16.2676 24.1125 17.4072 21.6043 19.2405 19.6528C21.0737 17.7014 23.4974 16.4169 26.1326 16C24.0288 19.2169 22.8115 22.939 22.6051 26.7854H16ZM39.9988 26.7854H33.3937C33.1873 22.939 31.97 19.2169 29.8662 16C32.5014 16.4169 34.925 17.7014 36.7583 19.6528C38.5916 21.6043 39.7312 24.1125 39.9988 26.7854ZM39.9988 29.2146C39.7312 31.8875 38.5916 34.3957 36.7583 36.3472C34.925 38.2986 32.5014 39.5831 29.8662 40C31.97 36.7831 33.1873 33.061 33.3937 29.2146H39.9988ZM25.0207 29.2146H30.9781C30.7796 32.4933 29.7544 35.6669 27.9994 38.4356C26.2443 35.6669 25.2191 32.4933 25.0207 29.2146ZM25.0207 26.7854C25.2191 23.5067 26.2443 20.3331 27.9994 17.5644C29.7544 20.3331 30.7796 23.5067 30.9781 26.7854H25.0207Z" fill="url(#paint1_linear_205_3035)"/>
</g>
<defs>
<linearGradient id="paint0_linear_205_3035" x1="0" y1="0" x2="36.0804" y2="-10.7648" gradientUnits="userSpaceOnUse">
<stop stop-color="#E9F8FF"/>
<stop offset="1" stop-color="#EAFFF5"/>
</linearGradient>
<linearGradient id="paint1_linear_205_3035" x1="16" y1="16" x2="31.463" y2="11.3865" gradientUnits="userSpaceOnUse">
<stop stop-color="#69C9FF"/>
<stop offset="1" stop-color="#88F1BB"/>
</linearGradient>
<clipPath id="clip0_205_3035">
<rect width="32" height="32" fill="white" transform="translate(12 12)"/>
</clipPath>
</defs>
</svg>
